<?xml version="1.0" encoding="UTF-8" standalone="no"?>
<!DOCTYPE svg PUBLIC "-//W3C//DTD SVG 1.1//EN"
 "http://www.w3.org/Graphics/SVG/1.1/DTD/svg11.dtd">
<!-- Generated by graphviz version 9.0.0 (20230911.1827)
 -->
<!-- Title: dependency&#45;cruiser output Pages: 1 -->
<svg width="385pt" height="160pt"
 viewBox="0.00 0.00 385.00 160.00" xmlns="http://www.w3.org/2000/svg" xmlns:xlink="http://www.w3.org/1999/xlink">
<g id="graph0" class="graph" transform="scale(1 1) rotate(0) translate(4 156)">
<title>dependency&#45;cruiser output</title>
<polygon fill="white" stroke="none" points="-4,4 -4,-156 381,-156 381,4 -4,4"/>
<g id="clust1" class="cluster">
<title>cluster_src</title>
<path fill="#ffffff" stroke="black" stroke-width="2" d="M20,-8C20,-8 357,-8 357,-8 363,-8 369,-14 369,-20 369,-20 369,-132 369,-132 369,-138 363,-144 357,-144 357,-144 20,-144 20,-144 14,-144 8,-138 8,-132 8,-132 8,-20 8,-20 8,-14 14,-8 20,-8"/>
<text text-anchor="middle" x="188.5" y="-131.45" font-family="Helvetica,sans-Serif" font-weight="bold" font-size="9.00">src</text>
</g>
<g id="clust2" class="cluster">
<title>cluster_src/components</title>
<path fill="#ffffff" stroke="black" stroke-width="2" d="M169,-16C169,-16 349,-16 349,-16 355,-16 361,-22 361,-28 361,-28 361,-104 361,-104 361,-110 355,-116 349,-116 349,-116 169,-116 169,-116 163,-116 157,-110 157,-104 157,-104 157,-28 157,-28 157,-22 163,-16 169,-16"/>
<text text-anchor="middle" x="259" y="-103.45" font-family="Helvetica,sans-Serif" font-weight="bold" font-size="9.00">components</text>
</g>
<g id="clust3" class="cluster">
<title>cluster_src/styles</title>
<path fill="#ffffff" stroke="black" stroke-width="2" d="M90,-62C90,-62 137,-62 137,-62 143,-62 149,-68 149,-74 149,-74 149,-105 149,-105 149,-111 143,-117 137,-117 137,-117 90,-117 90,-117 84,-117 78,-111 78,-105 78,-105 78,-74 78,-74 78,-68 84,-62 90,-62"/>
<text text-anchor="middle" x="113.5" y="-104.45" font-family="Helvetica,sans-Serif" font-weight="bold" font-size="9.00">styles</text>
</g>
<!-- src/App.jsx -->
<g id="node1" class="node">
<title>src/App.jsx</title>
<g id="a_node1"><a xlink:href="src/App.jsx" xlink:title="App.jsx">
<path fill="#ffff77" stroke="black" d="M134.08,-39.62C134.08,-39.62 92.92,-39.62 92.92,-39.62 89.71,-39.62 86.5,-36.42 86.5,-33.21 86.5,-33.21 86.5,-26.79 86.5,-26.79 86.5,-23.58 89.71,-20.38 92.92,-20.38 92.92,-20.38 134.08,-20.38 134.08,-20.38 137.29,-20.38 140.5,-23.58 140.5,-26.79 140.5,-26.79 140.5,-33.21 140.5,-33.21 140.5,-36.42 137.29,-39.62 134.08,-39.62"/>
<text text-anchor="start" x="98.88" y="-27.07" font-family="Helvetica,sans-Serif" font-size="9.00">App.jsx</text>
</a>
</g>
</g>
<!-- src/components/core -->
<g id="node2" class="node">
<title>src/components/core</title>
<g id="a_node2"><a xlink:href="src/components/core" xlink:title="core">
<polygon fill="#ccccff" stroke="black" points="353,-88.62 301.14,-88.62 299,-86.49 299,-69.38 350.86,-69.38 353,-71.51 353,-88.62"/>
<polyline fill="none" stroke="black" points="350.86,-86.49 299,-86.49"/>
<polyline fill="none" stroke="black" points="350.86,-86.49 350.86,-69.38"/>
<polyline fill="none" stroke="black" points="350.86,-86.49 353,-88.62"/>
<text text-anchor="start" x="317" y="-76.08" font-family="Helvetica,sans-Serif" font-size="9.00">core</text>
</a>
</g>
</g>
<!-- src/App.jsx&#45;&gt;src/components/core -->
<g id="edge1" class="edge">
<title>src/App.jsx&#45;&gt;src/components/core</title>
<path fill="none" stroke="#0000ff" stroke-width="2" stroke-opacity="0.466667" d="M137.35,-40.12C141.54,-42.63 145.64,-45.59 149,-49 154.31,-54.38 151.4,-58.93 157,-64 183.72,-88.22 196.62,-87.98 232,-95 255.54,-99.67 262.45,-99.64 286,-95 289.46,-94.32 292.99,-93.33 296.45,-92.17"/>
<polygon fill="#0000ff" fill-opacity="0.466667" stroke="#0000ff" stroke-width="2" stroke-opacity="0.466667" points="297.11,-94.16 301.99,-90.08 295.63,-90.23 297.11,-94.16"/>
</g>
<!-- src/components/features -->
<g id="node3" class="node">
<title>src/components/features</title>
<g id="a_node3"><a xlink:href="src/components/features" xlink:title="features">
<polygon fill="#ccffcc" stroke="black" points="219,-57.62 167.14,-57.62 165,-55.49 165,-38.38 216.86,-38.38 219,-40.51 219,-57.62"/>
<polyline fill="none" stroke="black" points="216.86,-55.49 165,-55.49"/>
<polyline fill="none" stroke="black" points="216.86,-55.49 216.86,-38.38"/>
<polyline fill="none" stroke="black" points="216.86,-55.49 219,-57.62"/>
<text text-anchor="start" x="175.12" y="-45.08" font-family="Helvetica,sans-Serif" font-size="9.00">features</text>
</a>
</g>
</g>
<!-- src/App.jsx&#45;&gt;src/components/features -->
<g id="edge2" class="edge">
<title>src/App.jsx&#45;&gt;src/components/features</title>
<path fill="none" stroke="#007700" stroke-width="2" stroke-opacity="0.466667" d="M140.83,-36.19C145.76,-37.35 150.98,-38.58 156.12,-39.79"/>
<polygon fill="#007700" fill-opacity="0.466667" stroke="#007700" stroke-width="2" stroke-opacity="0.466667" points="155.36,-41.77 161.68,-41.1 156.32,-37.68 155.36,-41.77"/>
</g>
<!-- src/components/features&#45;&gt;src/components/core -->
<g id="edge5" class="edge">
<title>src/components/features&#45;&gt;src/components/core</title>
<path fill="none" stroke="#0000ff" stroke-width="2" stroke-opacity="0.466667" d="M213.15,-37.92C232.64,-29.67 262.57,-21 286,-32 299,-38.11 309.16,-50.91 315.85,-61.62"/>
<polygon fill="#0000ff" fill-opacity="0.466667" stroke="#0000ff" stroke-width="2" stroke-opacity="0.466667" points="313.93,-62.49 318.76,-66.63 317.56,-60.38 313.93,-62.49"/>
</g>
<!-- src/components/utils -->
<g id="node4" class="node">
<title>src/components/utils</title>
<g id="a_node4"><a xlink:href="src/components/utils" xlink:title="utils">
<polygon fill="#ffffcc" stroke="black" points="286,-57.62 234.14,-57.62 232,-55.49 232,-38.38 283.86,-38.38 286,-40.51 286,-57.62"/>
<polyline fill="none" stroke="black" points="283.86,-55.49 232,-55.49"/>
<polyline fill="none" stroke="black" points="283.86,-55.49 283.86,-38.38"/>
<polyline fill="none" stroke="black" points="283.86,-55.49 286,-57.62"/>
<text text-anchor="start" x="250.38" y="-45.08" font-family="Helvetica,sans-Serif" font-size="9.00">utils</text>
</a>
</g>
</g>
<!-- src/components/features&#45;&gt;src/components/utils -->
<g id="edge3" class="edge">
<title>src/components/features&#45;&gt;src/components/utils</title>
<path fill="none" stroke="#000000" stroke-width="2" stroke-opacity="0.200000" d="M219.44,-48C220.58,-48 221.74,-48 222.9,-48"/>
<polygon fill="#000000" fill-opacity="0.200000" stroke="#000000" stroke-width="2" stroke-opacity="0.200000" points="222.77,-50.1 228.77,-48 222.77,-45.9 222.77,-50.1"/>
</g>
<!-- src/components/shared -->
<g id="node5" class="node">
<title>src/components/shared</title>
<g id="a_node5"><a xlink:href="src/components/shared" xlink:title="shared">
<polygon fill="#ffffcc" stroke="black" points="286,-88.62 234.14,-88.62 232,-86.49 232,-69.38 283.86,-69.38 286,-71.51 286,-88.62"/>
<polyline fill="none" stroke="black" points="283.86,-86.49 232,-86.49"/>
<polyline fill="none" stroke="black" points="283.86,-86.49 283.86,-69.38"/>
<polyline fill="none" stroke="black" points="283.86,-86.49 286,-88.62"/>
<text text-anchor="start" x="244.38" y="-76.08" font-family="Helvetica,sans-Serif" font-size="9.00">shared</text>
</a>
</g>
</g>
<!-- src/components/features&#45;&gt;src/components/shared -->
<g id="edge4" class="edge">
<title>src/components/features&#45;&gt;src/components/shared</title>
<path fill="none" stroke="#000000" stroke-width="2" stroke-opacity="0.200000" d="M219.44,-56.18C225.29,-58.83 231.42,-61.82 237.03,-64.76"/>
<polygon fill="#000000" fill-opacity="0.200000" stroke="#000000" stroke-width="2" stroke-opacity="0.200000" points="235.84,-66.5 242.11,-67.53 237.85,-62.82 235.84,-66.5"/>
</g>
<!-- src/components/shared&#45;&gt;src/components/core -->
<g id="edge6" class="edge">
<title>src/components/shared&#45;&gt;src/components/core</title>
<path fill="none" stroke="#0000ff" stroke-width="2" stroke-opacity="0.466667" d="M286.44,-79C287.58,-79 288.74,-79 289.9,-79"/>
<polygon fill="#0000ff" fill-opacity="0.466667" stroke="#0000ff" stroke-width="2" stroke-opacity="0.466667" points="289.77,-81.1 295.77,-79 289.77,-76.9 289.77,-81.1"/>
</g>
<!-- src/components/shared&#45;&gt;src/components/features -->
<g id="edge7" class="edge">
<title>src/components/shared&#45;&gt;src/components/features</title>
<path fill="none" stroke="#007700" stroke-width="2" stroke-opacity="0.466667" d="M231.71,-70.89C225.8,-68.21 219.61,-65.2 213.96,-62.23"/>
<polygon fill="#007700" fill-opacity="0.466667" stroke="#007700" stroke-width="2" stroke-opacity="0.466667" points="215.08,-60.45 208.81,-59.42 213.07,-64.14 215.08,-60.45"/>
</g>
<!-- src/main.jsx -->
<g id="node6" class="node">
<title>src/main.jsx</title>
<g id="a_node6"><a xlink:href="src/main.jsx" xlink:title="main.jsx">
<path fill="#ffff77" stroke="black" d="M63.58,-62.62C63.58,-62.62 22.42,-62.62 22.42,-62.62 19.21,-62.62 16,-59.42 16,-56.21 16,-56.21 16,-49.79 16,-49.79 16,-46.58 19.21,-43.38 22.42,-43.38 22.42,-43.38 63.58,-43.38 63.58,-43.38 66.79,-43.38 70,-46.58 70,-49.79 70,-49.79 70,-56.21 70,-56.21 70,-59.42 66.79,-62.62 63.58,-62.62"/>
<text text-anchor="start" x="25.75" y="-50.08" font-family="Helvetica,sans-Serif" font-size="9.00">main.jsx</text>
</a>
</g>
</g>
<!-- src/main.jsx&#45;&gt;src/App.jsx -->
<g id="edge8" class="edge">
<title>src/main.jsx&#45;&gt;src/App.jsx</title>
<path fill="none" stroke="#000000" stroke-width="2" stroke-opacity="0.200000" d="M70.29,-44.17C72.85,-43.31 75.47,-42.43 78.09,-41.55"/>
<polygon fill="#000000" fill-opacity="0.200000" stroke="#000000" stroke-width="2" stroke-opacity="0.200000" points="78.51,-43.63 83.53,-39.73 77.17,-39.65 78.51,-43.63"/>
</g>
<!-- src/main.jsx&#45;&gt;src/components/core -->
<g id="edge9" class="edge">
<title>src/main.jsx&#45;&gt;src/components/core</title>
<path fill="none" stroke="#0000ff" stroke-width="2" stroke-opacity="0.466667" d="M70.31,-51.27C97.32,-50.05 137.05,-49.98 149,-59 157.64,-65.52 148.98,-74.74 157,-82 182.41,-105.01 197.96,-95.97 232,-100 255.83,-102.82 262.73,-105.87 286,-100 291.68,-98.57 297.43,-96.13 302.7,-93.41"/>
<polygon fill="#0000ff" fill-opacity="0.466667" stroke="#0000ff" stroke-width="2" stroke-opacity="0.466667" points="303.69,-95.27 307.89,-90.5 301.63,-91.61 303.69,-95.27"/>
</g>
<!-- src/styles/index.css -->
<g id="node7" class="node">
<title>src/styles/index.css</title>
<g id="a_node7"><a xlink:href="src/styles/index.css" xlink:title="index.css">
<path fill="#ffffcc" stroke="black" d="M134.58,-89.62C134.58,-89.62 92.42,-89.62 92.42,-89.62 89.21,-89.62 86,-86.42 86,-83.21 86,-83.21 86,-76.79 86,-76.79 86,-73.58 89.21,-70.38 92.42,-70.38 92.42,-70.38 134.58,-70.38 134.58,-70.38 137.79,-70.38 141,-73.58 141,-76.79 141,-76.79 141,-83.21 141,-83.21 141,-86.42 137.79,-89.62 134.58,-89.62"/>
<text text-anchor="start" x="94" y="-77.08" font-family="Helvetica,sans-Serif" font-size="9.00">index.css</text>
</a>
</g>
</g>
<!-- src/main.jsx&#45;&gt;src/styles/index.css -->
<g id="edge10" class="edge">
<title>src/main.jsx&#45;&gt;src/styles/index.css</title>
<path fill="none" stroke="#000000" stroke-width="2" stroke-opacity="0.200000" d="M69.51,-63.05C72.58,-64.26 75.75,-65.51 78.92,-66.76"/>
<polygon fill="#000000" fill-opacity="0.200000" stroke="#000000" stroke-width="2" stroke-opacity="0.200000" points="78.03,-68.67 84.38,-68.92 79.57,-64.76 78.03,-68.67"/>
</g>
</g>
</svg>
