<svg xmlns="http://www.w3.org/2000/svg" viewBox="0 0 48 48" width="256" height="256"><path fill="#b15218" d="M24 .5C11 .5.5 11 .5 24S11 47.5 24 47.5 47.5 37 47.5 24 37 .5 24 .5z" class="colorB15218 svgShape"></path><radialGradient id="a" cx="24" cy="24" r="23" gradientUnits="userSpaceOnUse"><stop offset="0" stop-color="#fbdd49" class="stopColorfbdd49 svgShape"></stop><stop offset=".793" stop-color="#eba503" class="stopColoreba503 svgShape"></stop><stop offset="1" stop-color="#d7840b" class="stopColord7840b svgShape"></stop></radialGradient><circle cx="24" cy="24" r="23" fill="url(#a)"></circle><linearGradient id="b" x1="67.018" x2="66.921" y1="44.325" y2="72.702" gradientTransform="matrix(1.0997 -.0242 .02198 .9998 -51.112 -46.487)" gradientUnits="userSpaceOnUse"><stop offset="0" stop-color="#ffebb5" class="stopColorffebb5 svgShape"></stop><stop offset="1" stop-color="#fdf6be" stop-opacity="0" class="stopColorfdf6be svgShape"></stop></linearGradient><path fill="url(#b)" d="M44.1 19.6c.2 9.1-8.6 16.6-19.7 16.9s-20.3-6.9-20.5-16c-.2-9.1 8.6-16.7 19.7-16.9s20.3 6.9 20.5 16z" opacity=".7"></path><radialGradient id="c" cx="203.541" cy="6035.874" r="6.922" gradientTransform="matrix(-1.0956 .00729 -.01865 -1.0038 359.586 6065.378)" gradientUnits="userSpaceOnUse"><stop offset="0" stop-color="#ffebb5" class="stopColorffebb5 svgShape"></stop><stop offset="1" stop-color="#fdf6be" stop-opacity="0" class="stopColorfdf6be svgShape"></stop></radialGradient><path fill="url(#c)" d="M16 8c-.1-3.6 3.4-6.6 7.8-6.6s8 2.9 8.1 6.5c.1 3.6-3.4 6.6-7.8 6.6s-8-2.9-8.1-6.5z" opacity=".7"></path><radialGradient id="d" cx="203.778" cy="6018.857" r="6.922" gradientTransform="matrix(-1.0956 .00729 -.01865 -1.0038 359.586 6065.378)" gradientUnits="userSpaceOnUse"><stop offset="0" stop-color="#ffebb5" class="stopColorffebb5 svgShape"></stop><stop offset="1" stop-color="#fdf6be" stop-opacity="0" class="stopColorfdf6be svgShape"></stop></radialGradient><path fill="url(#d)" d="M16.1 25.1c-.1-3.6 3.4-6.6 7.8-6.6s8 2.9 8.1 6.5c.1 3.6-3.4 6.6-7.8 6.6s-8-2.9-8.1-6.5z" opacity=".7"></path><radialGradient id="e" cx="67.881" cy="6023.806" r="6.922" gradientTransform="matrix(-.8277 .00198 -.01895 -1.0038 211.31 6068.313)" gradientUnits="userSpaceOnUse"><stop offset="0" stop-color="#ffebb5" class="stopColorffebb5 svgShape"></stop><stop offset="1" stop-color="#fdf6be" stop-opacity="0" class="stopColorfdf6be svgShape"></stop></radialGradient><path fill="url(#e)" d="M35 21.7c-.1-3.6 2.6-6.6 5.9-6.6 3.3 0 6.1 2.9 6.1 6.6s-2.6 6.6-5.9 6.6c-3.3-.1-6.1-3-6.1-6.6z" opacity=".7"></path><radialGradient id="f" cx="97.735" cy="6007.432" r="6.922" gradientTransform="matrix(-.8277 .00198 -.01895 -1.0038 211.31 6068.313)" gradientUnits="userSpaceOnUse"><stop offset="0" stop-color="#ffebb5" class="stopColorffebb5 svgShape"></stop><stop offset="1" stop-color="#fdf6be" stop-opacity="0" class="stopColorfdf6be svgShape"></stop></radialGradient><path fill="url(#f)" d="M10.6 38.2c-.1-3.6 2.6-6.6 5.9-6.6s6.1 2.9 6.1 6.6-2.6 6.6-5.9 6.6c-3.3-.1-6.1-3-6.1-6.6z" opacity=".7"></path><radialGradient id="g" cx="108.477" cy="6023.886" r="6.922" gradientTransform="matrix(-.8277 .00198 -.01895 -1.0038 211.31 6068.313)" gradientUnits="userSpaceOnUse"><stop offset="0" stop-color="#ffebb5" class="stopColorffebb5 svgShape"></stop><stop offset="1" stop-color="#fdf6be" stop-opacity="0" class="stopColorfdf6be svgShape"></stop></radialGradient><path fill="url(#g)" d="M1.4 21.7c-.1-3.6 2.6-6.6 5.9-6.6 3.3 0 6.1 2.9 6.1 6.6.1 3.6-2.6 6.6-5.9 6.6-3.3-.1-6.1-3-6.1-6.6z" opacity=".7"></path><path fill="#fbce40" d="M1.4 27.1s.1.5.4 1.2c.2.8.6 1.9 1.2 3.1.3.6.6 1.3 1 2s.8 1.4 1.3 2.1c.2.4.5.7.8 1.1.3.4.6.7.8 1 .5.7 1.2 1.4 1.9 2 .6.7 1.4 1.2 2 1.8.7.6 1.5 1 2.2 1.5.7.5 1.5.9 2.1 1.3.7.4 1.4.7 2 1 .6.3 1.2.6 1.7.8.5.2 1 .4 1.4.5.8.3 1.2.5 1.2.5s-.5-.1-1.3-.3c-.4-.1-.9-.2-1.4-.3-.6-.1-1.2-.3-1.8-.6-.7-.3-1.4-.5-2.1-.8-.7-.4-1.5-.7-2.3-1.2-.7-.5-1.5-1-2.3-1.5-.7-.7-1.5-1.3-2.2-1.9-.7-.7-1.3-1.4-1.9-2.1-.6-.8-1.1-1.5-1.6-2.3-.5-.7-.9-1.5-1.2-2.2-.3-.8-.6-1.5-.9-2.2-.2-.6-.4-1.2-.5-1.8-.1-.6-.2-1-.3-1.5-.2-.8-.2-1.2-.2-1.2z" opacity=".7" class="colorFBCE40 svgShape"></path><radialGradient id="h" cx="30.198" cy="147.787" r="17.183" gradientTransform="matrix(1.0173 0 0 1.0395 -7.134 -122.265)" gradientUnits="userSpaceOnUse"><stop offset="0" stop-color="#fbdd49" class="stopColorfbdd49 svgShape"></stop><stop offset=".457" stop-color="#eba503" class="stopColoreba503 svgShape"></stop><stop offset="1" stop-color="#d7840b" class="stopColord7840b svgShape"></stop></radialGradient><path fill="url(#h)" d="M33.8 27.1c-.2 0-.3.1-.5.1h-.1c-2.9 1.5-6.2 2.3-9.7 2.3-2.9 0-5.6-.5-8.1-1.6H15c-.5-.1-1.1-.8-1.6-.8h-.2v.1c2.2 5.3 6 8.4 10.3 8.4 4.2 0 8.1-3.2 10.3-8.4l.2-.2c-.1 0-.1.1-.2.1z"></path><radialGradient id="i" cx="23.586" cy="31.188" r="7.795" gradientUnits="userSpaceOnUse"><stop offset="0" stop-color="#fbdd49" class="stopColorfbdd49 svgShape"></stop><stop offset=".457" stop-color="#eba503" class="stopColoreba503 svgShape"></stop><stop offset="1" stop-color="#d7840b" class="stopColord7840b svgShape"></stop></radialGradient><path fill="url(#i)" d="M33.6 27.1c-.2 0-.3.1-.5.1H33c-2.8 1.5-6.1 2.2-9.5 2.2-2.8 0-5.5-.5-7.9-1.5h-.4c-.5-.1-1.1-.8-1.6-.7h-.2v.1c2.2 5.1 5.9 8.1 10.1 8.1 4.2 0 7.9-3 10.1-8.1l.1-.3-.1.1z"></path><path fill="#b15218" d="M33.6 27.1c-.2 0-.3.1-.5.1H33c-2.8 1.2-6.1 1.9-9.5 1.9-2.8 0-5.5-.4-7.9-1.3h-.4c-.5-.1-1.1-.7-1.6-.6h-.2v.1c2.2 4.3 5.9 6.9 10.1 6.9 4.2 0 7.9-2.6 10.1-6.9l.1-.3-.1.1z" class="colorB15218 svgShape"></path><radialGradient id="j" cx="23.546" cy="30.581" r="7.45" gradientUnits="userSpaceOnUse"><stop offset="0" stop-color="#330e10" class="stopColor330e10 svgShape"></stop><stop offset="1" stop-color="#871811" class="stopColor871811 svgShape"></stop></radialGradient><path fill="url(#j)" d="M33.5 27.2c-2 4.1-5.7 6.8-10 6.8-4.2 0-7.9-2.7-10-6.8 2.8 1.3 6.2 2.1 10 2.1s7.2-.8 10-2.1z"></path><path fill="#b15218" d="M35.2 26c-.1-.2-.3-.3-.4-.4-.2-.1-.3-.1-.5-.1h-.4l.4.2c.1.1.2.2.3.2l.3.3s0 .1.1.1c-.1.1-.3.1-.5.2-.3.1-.7.3-1.1.4-.4.1-.9.3-1.5.5s-1.2.3-1.8.5c-.6.2-1.3.3-2 .4-.7.1-1.4.2-2.2.3-.4 0-.8.1-1.1.1h-1.1c-.8 0-1.5 0-2.3-.1-.4 0-.7-.1-1.1-.1-.4-.1-.7-.1-1.1-.2-.7-.1-1.4-.3-2-.4-.6-.2-1.3-.3-1.8-.5-1.1-.3-2-.6-2.6-.9-.2-.1-.4-.2-.5-.2 0 0 0-.1.1-.1l.3-.3c.1-.1.2-.2.3-.2l.4-.2s-.2-.1-.4 0c-.1 0-.3 0-.5.1s-.3.2-.4.4c-.3.3-.3.7-.2 1 0 .3.2.4.2.4s0-.2.1-.4.1-.3.2-.5c.1.1.3.2.5.3.3.2.7.4 1.1.6.4.2.9.5 1.5.7.5.2 1.2.4 1.8.7.7.2 1.3.4 2.1.5.7.2 1.5.3 2.3.4.8.1 1.6.1 2.4.1h1.2c.4 0 .8-.1 1.2-.1.8-.1 1.5-.2 2.3-.4.7-.2 1.4-.3 2.1-.5.7-.2 1.2-.4 1.8-.7.6-.2 1-.5 1.5-.7.4-.2.8-.4 1.1-.6.2-.1.4-.2.5-.3.1.2.2.3.2.5.1.2.1.4.1.4s.1-.1.2-.4c-.8-.3-.9-.7-1.1-1z" class="colorB15218 svgShape"></path><radialGradient id="k" cx="13.856" cy="13.771" r="16.102" gradientUnits="userSpaceOnUse"><stop offset="0" stop-color="#fadc49" class="stopColorfadc49 svgShape"></stop><stop offset=".793" stop-color="#eaa404" class="stopColoreaa404 svgShape"></stop><stop offset="1" stop-color="#d6830c" class="stopColord6830c svgShape"></stop></radialGradient><path fill="url(#k)" d="M22.9 17V16.1c0-.3-.1-.6-.1-1-.1-.6-.3-1.3-.6-2.1s-.8-1.6-1.5-2.4C20 9.8 19 9 17.8 8.7c-1.2-.3-2.7 0-3.8.8-1.2.8-2.1 1.9-2.7 3.3-.3.7-.5 1.3-.7 2.1-.2.7-.2 1.5-.2 2.1 0 1.5.3 2.9.9 4.2.6 1.3 1.5 2.5 2.7 3.2.6.4 1.2.6 1.9.8.4.1.7.1 1 .1.4 0 .7 0 1-.1 1.3-.3 2.2-1 2.9-1.8.7-.8 1.2-1.7 1.5-2.4.3-.8.5-1.5.6-2.1.1-.4.1-.7.1-1v-.4c-.1-.4-.1-.5-.1-.5z"></path><radialGradient id="l" cx="15.77" cy="17.169" r="7.135" gradientTransform="matrix(1.0236 0 0 1 .627 0)" gradientUnits="userSpaceOnUse"><stop offset="0" stop-color="#fadc49" class="stopColorfadc49 svgShape"></stop><stop offset=".793" stop-color="#eaa404" class="stopColoreaa404 svgShape"></stop><stop offset="1" stop-color="#d6830c" class="stopColord6830c svgShape"></stop></radialGradient><path fill="url(#l)" d="M22.9 17.2V16.3c0-.3-.1-.6-.1-1-.1-.6-.3-1.3-.6-2-.3-.8-.8-1.6-1.4-2.4-.7-.8-1.6-1.5-2.9-1.8-1.2-.3-2.6 0-3.7.7s-2 1.9-2.6 3.2c-.3.6-.5 1.3-.6 2-.2.7-.2 1.4-.2 2.1 0 1.5.3 2.8.9 4.1.6 1.3 1.5 2.4 2.6 3.2.6.4 1.2.6 1.9.8.3.1.7.1.9.1.3 0 .6 0 .9-.1 1.2-.3 2.2-1 2.8-1.8.7-.8 1.1-1.6 1.4-2.4.3-.8.5-1.5.6-2 .1-.4.1-.7.1-1v-.8z"></path><path fill="#722717" d="M22.6 17.6V16.7c0-.3 0-.6-.1-.9-.1-.6-.3-1.2-.5-1.9-.3-.7-.7-1.5-1.3-2.3-.6-.7-1.5-1.4-2.7-1.7-1.1-.3-2.4 0-3.5.7s-1.9 1.8-2.4 3c-.3.6-.5 1.2-.6 1.9-.1.7-.2 1.4-.2 2 0 1.4.3 2.7.8 3.9.5 1.2 1.4 2.3 2.4 3 .5.4 1.1.6 1.7.7.3.1.6.1.9.1.3 0 .6 0 .9-.1 1.1-.2 2-.9 2.7-1.7.6-.7 1.1-1.5 1.3-2.3.3-.7.4-1.4.5-1.9.1-.4.1-.7.1-.9v-.7z" class="color722717 svgShape"></path><radialGradient id="m" cx="17.148" cy="17.603" r="6.518" gradientUnits="userSpaceOnUse"><stop offset=".618" stop-color="#f1f1f1" class="stopColorf1f1f1 svgShape"></stop><stop offset="1" stop-color="#cac9c9" class="stopColorcac9c9 svgShape"></stop></radialGradient><ellipse cx="17.1" cy="17.6" fill="url(#m)" rx="5.4" ry="7.4"></ellipse><path fill="#b15319" d="M9.9 10.2s.1-.6.6-1.4c.2-.4.5-.8 1-1.3.4-.4 1-.8 1.6-1.1.3-.1.6-.2 1-.3.3-.1.6-.1 1 0 .3 0 .6.1.9.2.3.1.5.2.7.3 0 .2.2.3.3.4.1.1.3.2.4.3l.3.3s-.2 0-.4-.1c-.1 0-.3-.1-.4-.1-.2-.1-.4-.1-.6-.1-.2 0-.4-.1-.7-.1-.2 0-.5-.1-.7 0-.2 0-.5 0-.7.1-.2 0-.5.1-.7.2-1 .4-1.8 1.1-2.5 1.7-.6.5-1.1 1-1.1 1z" class="colorB15319 svgShape"></path><radialGradient id="n" cx="-208.129" cy="-408.952" r="4.495" gradientTransform="matrix(.996 .08958 -.07758 .8627 192.97 391.031)" gradientUnits="userSpaceOnUse"><stop offset="0" stop-color="#68c3d8" class="stopColor68c3d8 svgShape"></stop><stop offset=".793" stop-color="#2d5ca5" class="stopColor2d5ca5 svgShape"></stop><stop offset="1" stop-color="#2b4593" class="stopColor2b4593 svgShape"></stop></radialGradient><path fill="url(#n)" d="M21.3 19.9c-.2 2.4-2.1 4.2-4.3 4s-3.7-2.3-3.5-4.7c.2-2.4 2.1-4.2 4.3-4 2.1.3 3.7 2.4 3.5 4.7z"></path><ellipse cx="17.4" cy="19.6" fill="#1d1e1c" rx="2.1" ry="2.3" transform="rotate(5.139 17.404 19.598) scale(1.00002)" class="color1D1E1C svgShape"></ellipse><circle cx="16.8" cy="18.6" r=".6" fill="#ffffff" class="colorFFF svgShape"></circle><circle cx="17.8" cy="21.2" r=".4" fill="#ffffff" class="colorFFF svgShape"></circle><radialGradient id="o" cx="40.491" cy="11.612" r="14.364" gradientUnits="userSpaceOnUse"><stop offset="0" stop-color="#fadc49" class="stopColorfadc49 svgShape"></stop><stop offset=".793" stop-color="#eaa404" class="stopColoreaa404 svgShape"></stop><stop offset="1" stop-color="#d6830c" class="stopColord6830c svgShape"></stop></radialGradient><path fill="url(#o)" d="M25.2 17V16.1c0-.3.1-.6.1-1 .1-.6.3-1.3.6-2.1s.8-1.6 1.4-2.4c.8-.8 1.7-1.6 3-1.9 1.2-.3 2.6 0 3.8.8 1.2.8 2.1 1.9 2.6 3.3.3.7.5 1.3.7 2.1.2.7.2 1.5.2 2.1 0 1.5-.3 2.9-.9 4.2-.6 1.3-1.5 2.5-2.6 3.2-.6.4-1.2.6-1.9.8-.4.1-.7.1-1 .1-.3 0-.7 0-1-.1-1.2-.3-2.2-1-2.9-1.8-.7-.8-1.1-1.7-1.4-2.4-.3-.8-.5-1.5-.6-2.1-.1-.4-.1-.7-.1-1V17z"></path><radialGradient id="p" cx="31.243" cy="38.049" r="7.127" gradientTransform="matrix(1 0 0 1.0087 0 -21.212)" gradientUnits="userSpaceOnUse"><stop offset="0" stop-color="#fadc49" class="stopColorfadc49 svgShape"></stop><stop offset=".793" stop-color="#eaa404" class="stopColoreaa404 svgShape"></stop><stop offset="1" stop-color="#d6830c" class="stopColord6830c svgShape"></stop></radialGradient><path fill="url(#p)" d="M25.2 17.2V16.3c0-.3.1-.6.1-1 .1-.6.3-1.3.6-2 .3-.8.7-1.6 1.4-2.4.7-.8 1.6-1.5 2.8-1.8 1.2-.3 2.6 0 3.7.7s2 1.9 2.6 3.2c.3.6.5 1.3.6 2 .2.7.2 1.4.2 2.1 0 1.5-.3 2.8-.9 4.1-.6 1.3-1.4 2.4-2.6 3.2-.6.4-1.2.6-1.8.8-.3.1-.6.1-.9.1-.3 0-.6 0-.9-.1-1.2-.3-2.1-1-2.8-1.8-.7-.8-1.1-1.6-1.4-2.4-.3-.8-.5-1.5-.6-2-.1-.4-.1-.7-.1-1v-.8z"></path><path fill="#722717" d="M25.4 17.6V16.7c0-.3 0-.6.1-.9.1-.6.3-1.2.5-1.9.3-.7.7-1.5 1.3-2.3.6-.7 1.5-1.4 2.7-1.7 1.1-.3 2.4 0 3.5.7s1.9 1.8 2.4 3c.3.6.5 1.2.6 1.9.1.7.2 1.4.2 2 0 1.4-.3 2.7-.8 3.9-.5 1.2-1.4 2.3-2.4 3-.5.4-1.1.6-1.7.7-.3.1-.6.1-.9.1-.3 0-.6 0-.9-.1-1.1-.2-2-.9-2.7-1.7-.6-.7-1.1-1.5-1.3-2.3-.3-.7-.4-1.4-.5-1.9-.1-.4-.1-.7-.1-.9v-.7z" class="color722717 svgShape"></path><radialGradient id="q" cx="-534.572" cy="17.603" r="6.518" gradientTransform="matrix(-1 0 0 1 -503.72 0)" gradientUnits="userSpaceOnUse"><stop offset=".618" stop-color="#f1f1f1" class="stopColorf1f1f1 svgShape"></stop><stop offset="1" stop-color="#cac9c9" class="stopColorcac9c9 svgShape"></stop></radialGradient><ellipse cx="30.9" cy="17.6" fill="url(#q)" rx="5.4" ry="7.4"></ellipse><path fill="#b15319" d="M38.1 10.2s-.1-.6-.6-1.4c-.2-.4-.5-.8-1-1.3-.4-.4-1-.8-1.6-1.1-.3-.1-.6-.2-1-.3-.3-.1-.6-.1-1 0-.3 0-.6.1-.9.2-.3.1-.5.2-.7.3 0 .2-.2.3-.3.4-.1.1-.3.2-.4.3l-.3.3s.2 0 .4-.1c.1 0 .3-.1.4-.1.2-.1.4-.1.6-.1.2 0 .4-.1.7-.1.2 0 .5-.1.7 0 .2 0 .5 0 .7.1.2 0 .5.1.7.2 1 .4 1.8 1.1 2.5 1.7.6.5 1.1 1 1.1 1z" class="colorB15319 svgShape"></path><radialGradient id="r" cx="-198.23" cy="-409.98" r="4.495" gradientTransform="matrix(.996 .08958 -.07758 .8627 196.225 391.031)" gradientUnits="userSpaceOnUse"><stop offset="0" stop-color="#68c3d8" class="stopColor68c3d8 svgShape"></stop><stop offset=".793" stop-color="#2d5ca5" class="stopColor2d5ca5 svgShape"></stop><stop offset="1" stop-color="#2b4593" class="stopColor2b4593 svgShape"></stop></radialGradient><path fill="url(#r)" d="M34.5 19.9c-.2 2.4-2.1 4.2-4.3 4s-3.7-2.3-3.5-4.7c.2-2.4 2.1-4.2 4.3-4 2.1.3 3.7 2.4 3.5 4.7z"></path><ellipse cx="30.6" cy="19.6" fill="#1d1e1c" rx="2.1" ry="2.3" transform="rotate(5.139 30.597 19.598) scale(1.00002)" class="color1D1E1C svgShape"></ellipse><circle cx="30" cy="18.6" r=".6" fill="#ffffff" class="colorFFF svgShape"></circle><circle cx="31" cy="21.2" r=".4" fill="#ffffff" class="colorFFF svgShape"></circle><radialGradient id="s" cx="2508.037" cy="2198.131" r="20.474" gradientTransform="matrix(.2245 -.9744 .9745 .2245 -2696.262 1986.424)" gradientUnits="userSpaceOnUse"><stop offset="0" stop-color="#fbdd49" class="stopColorfbdd49 svgShape"></stop><stop offset=".422" stop-color="#eba503" class="stopColoreba503 svgShape"></stop><stop offset="1" stop-color="#d7840b" class="stopColord7840b svgShape"></stop></radialGradient><path fill="url(#s)" d="M5.8 23.3c-.6.3-1 1-1.2 1.7-.1.3-.1.5-.1.8-.1 1.5.8 2.9 2.5 4.1V30.2c.1.8-.2 2-.7 2.7-.4.5-.8 1-1.2 1.4l-.4.4c-.1.1-.1.2-.2.2-.7.8-1.4 1.8-2 2.9-.4.6-.7 1.3-1.1 2.1-.3 1.1-.6 2-.8 3-.2 2.4.3 3.3.7 3.6.4.3.8.2 1.2.2 0 0 .7-.5 1 .2.2.2.5.4 1 .5.5 0 1.6-.2 2.6-1.8.5-.6.9-1.2 1.5-1.8 1.2-1.4 2.7-2.5 4.1-3.5.7-.5 2.4-1.9 2.8-3.6.3-1.3-.2-2.6-1.4-3.8l-.1-.1v-.2c-.1-1-.6-1.9-1.3-2.5-.4-.3-.9-.6-1.4-.9-.5-.3-1.1-.6-1.6-1-.9-.7-1.5-1.8-1.7-3 0-.2-.1-.4-.1-.6 0-.2 0-.5-.1-.7-.1-.3-.2-.6-.5-.8-.6-.2-1.2 0-1.5.2z"></path><linearGradient id="t" x1="1468.223" x2="1468.209" y1="758.367" y2="762.41" gradientTransform="matrix(.7184 -.8333 .5678 .4889 -1475.148 886.85)" gradientUnits="userSpaceOnUse"><stop offset="0" stop-color="#ffebb5" class="stopColorffebb5 svgShape"></stop><stop offset="1" stop-color="#fdf6be" stop-opacity="0" class="stopColorfdf6be svgShape"></stop></linearGradient><path fill="url(#t)" d="M14 33.6c.7.6.5 2.1-.5 3.3s-2.5 1.7-3.2 1-.5-2.1.5-3.3 2.4-1.6 3.2-1z" opacity=".7"></path><linearGradient id="u" x1="2018.953" x2="2018.939" y1="4091.008" y2="4095.051" gradientTransform="matrix(-.4726 -.9935 .6766 -.3222 -1808.513 3363.723)" gradientUnits="userSpaceOnUse"><stop offset="0" stop-color="#ffebb5" class="stopColorffebb5 svgShape"></stop><stop offset="1" stop-color="#fdf6be" stop-opacity="0" class="stopColorfdf6be svgShape"></stop></linearGradient><path fill="url(#u)" d="M6.2 36c.9-.4 2.1.4 2.8 1.8.7 1.4.5 2.9-.4 3.3-.9.4-2.1-.4-2.8-1.8-.6-1.4-.5-2.9.4-3.3z" opacity=".7"></path><linearGradient id="v" x1="1956.31" x2="1956.296" y1="1772.547" y2="1776.59" gradientTransform="matrix(.3346 -1.0481 .714 .2275 -1919.773 1689.686)" gradientUnits="userSpaceOnUse"><stop offset="0" stop-color="#ffebb5" class="stopColorffebb5 svgShape"></stop><stop offset="1" stop-color="#fdf6be" stop-opacity="0" class="stopColorfdf6be svgShape"></stop></linearGradient><path fill="url(#v)" d="M3.7 40.6c.9.3 1.3 1.8.8 3.3S2.9 46.4 2 46.1c-.9-.3-1.3-1.8-.8-3.3s1.6-2.5 2.5-2.2z" opacity=".7"></path><linearGradient id="w" x1="1770.062" x2="1770.048" y1="978.191" y2="982.234" gradientTransform="matrix(.5325 -.9391 .5779 .3273 -1504.096 1385.62)" gradientUnits="userSpaceOnUse"><stop offset="0" stop-color="#ffebb5" class="stopColorffebb5 svgShape"></stop><stop offset="1" stop-color="#fdf6be" stop-opacity="0" class="stopColorfdf6be svgShape"></stop></linearGradient><path fill="url(#w)" d="M7 42.2c.7.4.7 1.9 0 3.2-.8 1.4-2 2.1-2.7 1.7-.7-.4-.7-1.9 0-3.2s2-2.1 2.7-1.7z" opacity=".7"></path><linearGradient id="x" x1="2185.778" x2="2185.764" y1="3328.904" y2="3332.948" gradientTransform="matrix(-.2039 -1.0601 .6521 -.1257 -1720.81 2762.526)" gradientUnits="userSpaceOnUse"><stop offset="0" stop-color="#ffebb5" class="stopColorffebb5 svgShape"></stop><stop offset="1" stop-color="#fdf6be" stop-opacity="0" class="stopColorfdf6be svgShape"></stop></linearGradient><path fill="url(#x)" d="M5.8 23.6c.8-.2 1.8.9 2.1 2.5.3 1.5-.2 2.9-1 3.1-.8.2-1.8-.9-2.1-2.5-.3-1.5.2-2.9 1-3.1z" opacity=".7"></path><path fill="#b15218" d="M5.7 23.2c-.6.3-1.1 1-1.3 1.8-.1.3-.1.6-.2.9-.1 1.5.8 3 2.5 4.2l.1.1v.1c.1.3 0 .8-.1 1.2-.1.5-.3 1-.6 1.4-.3.5-.8 1-1.2 1.4l-.4.4-.2.2c-.7.8-1.4 1.8-2 2.9-.3.5-.7 1.3-1.1 2.1.1.4-.1.7-.2 1.1-.2.7-.4 1.2-.5 1.9-.2 2.6.4 3.4.8 3.7.3.3.8.3 1.3.2h.1c.1-.1.3-.2.5-.1.1 0 .2.1.2.3.2.2.5.5 1.1.5.6 0 1.6-.2 2.8-1.9.4-.6.8-1.2 1.4-1.7 1.2-1.4 2.7-2.5 4-3.5.7-.5 2.4-1.9 2.8-3.7.3-1.4-.2-2.7-1.5-3.9v-.2c-.1-1-.6-2-1.4-2.6-.4-.4-.9-.6-1.5-.9-.5-.3-1.1-.5-1.6-.9-.9-.7-1.5-1.7-1.7-2.9 0-.2-.1-.4-.1-.6h-.1l.1-.1c0-.2 0-.5-.1-.7-.1-.3-.2-.7-.6-.9-.3-.2-.9-.1-1.3.2zm1.3.1c.3.2.4.5.4.7 0 .2.1.5.1.7 0 .2 0 .4.1.6.2 1.2.8 2.3 1.8 3 .5.4 1.1.7 1.6 1 .5.3 1 .5 1.4.9.7.6 1.2 1.5 1.3 2.4v.2l.2.2c1.2 1.2 1.7 2.4 1.4 3.6-.4 1.7-2 3.1-2.7 3.6-1.4 1-2.8 2.1-4.1 3.5-.6.6-1 1.2-1.4 1.8-1 1.6-2 1.7-2.5 1.7-.4 0-.7-.2-.8-.4l-.3-.3c0-.1 0-.4.1-.9.1-.6.4-1.4.7-2.1.3-.7.8-1.4 1.2-1.9l.5-.5.2-.2s-.1.1-.3.2l-.5.5c-.4.4-.9 1.1-1.3 1.8s-.7 1.5-.8 2.1c-.1.4-.2.7-.2.9-.2 0-.5.1-.6.1-.3.1-.7.1-1-.1-.3-.2-.9-1-.7-3.4 0 0 .1-.4.4-1 .3-.6.7-1.4 1.3-2 .6-.7 1.2-1.3 1.8-1.6.3-.3.5-.4.7-.5.2-.1.3-.1.3-.1s-.1 0-.3.1c-.2.1-.4.2-.7.4-.6.3-1.3.9-1.9 1.6-.5.6-.9 1.2-1.2 1.7 0-.2.1-.3.1-.5.1-.3.2-.7.3-1 .4-.8.8-1.5 1.1-2 .6-1.1 1.3-2.1 2-2.9.1-.2.1-.2.2-.3l.4-.4L6.5 33c.3-.4.5-.9.6-1.5.1-.5.1-1 .1-1.3v-.3l-.2-.2c-1.6-1.1-2.5-2.5-2.4-3.9 0-.3.1-.5.1-.8.2-.7.6-1.3 1.2-1.6.3-.2.8-.3 1.1-.1z" class="colorB15218 svgShape"></path><path fill="#b15218" d="M9.5 37.3s0-.4.1-.9.4-1.2.8-1.8c.2-.3.5-.6.8-.8.3-.2.6-.4.8-.5.3-.1.5-.2.6-.2h.2s-.1 0-.2.1-.3.2-.6.3c-.2.1-.5.3-.7.5-.3.2-.5.5-.7.8-.4.6-.7 1.2-.9 1.7l-.2.8zM8 41.7s-.4-.1-.9-.4c-.5-.3-1.1-.8-1.5-1.5-.2-.3-.3-.7-.4-1.1-.1-.2-.1-.4-.1-.5v-.5c0-.3.1-.5.1-.7 0-.2.1-.3.1-.3v1.4c0 .2 0 .3.1.5.1.3.2.7.4 1 .3.6.9 1.1 1.3 1.5.5.4.9.6.9.6z" class="colorB15218 svgShape"></path><radialGradient id="y" cx="2459.507" cy="1987.465" r="20.474" gradientTransform="matrix(-.2245 -.9744 -.9745 .2245 2528.08 1986.424)" gradientUnits="userSpaceOnUse"><stop offset="0" stop-color="#fbdd49" class="stopColorfbdd49 svgShape"></stop><stop offset=".422" stop-color="#eba503" class="stopColoreba503 svgShape"></stop><stop offset="1" stop-color="#d7840b" class="stopColord7840b svgShape"></stop></radialGradient><path fill="url(#y)" d="M40.9 23.1c-.3.2-.4.5-.5.8 0 .2-.1.5-.1.7 0 .2 0 .4-.1.6-.2 1.2-.8 2.2-1.7 3-.5.4-1 .7-1.6 1-.5.3-1 .5-1.4.9-.8.6-1.2 1.5-1.3 2.5v.2l-.2.1c-1.2 1.2-1.7 2.5-1.4 3.8.4 1.8 2.1 3.1 2.8 3.6 1.4 1 2.8 2.1 4.1 3.5.6.6 1 1.2 1.4 1.8 1.1 1.6 2.1 1.8 2.6 1.8s.8-.2 1-.5c.3-.7 1-.2 1-.2.3.1.8.1 1.2-.2.4-.3.9-1.2.7-3.6-.2-1-.5-1.9-.8-3-.3-.7-.7-1.4-1.1-2.1-.6-1.1-1.3-2.1-2-2.9-.1-.1-.1-.2-.2-.2l-.4-.4c-.4-.4-.9-.9-1.2-1.4-.5-.8-.8-1.9-.7-2.7V30l.2-.1c1.7-1.1 2.5-2.6 2.5-4.1 0-.3-.1-.6-.1-.8-.2-.7-.7-1.3-1.2-1.7-.5-.2-1.1-.4-1.5-.2z"></path><linearGradient id="z" x1="1340.013" x2="1340" y1="539.842" y2="543.885" gradientTransform="matrix(-.7184 -.8333 -.5678 .4889 1306.964 886.85)" gradientUnits="userSpaceOnUse"><stop offset="0" stop-color="#ffebb5" class="stopColorffebb5 svgShape"></stop><stop offset="1" stop-color="#fdf6be" stop-opacity="0" class="stopColorfdf6be svgShape"></stop></linearGradient><path fill="url(#z)" d="M34 33.6c-.7.6-.5 2.1.5 3.3 1 1.2 2.5 1.7 3.2 1s.5-2.1-.5-3.3c-1-1.2-2.4-1.6-3.2-1z" opacity=".7"></path><linearGradient id="A" x1="2103.442" x2="2103.428" y1="3830.501" y2="3834.544" gradientTransform="matrix(.4726 -.9935 -.6766 -.3222 1640.33 3363.723)" gradientUnits="userSpaceOnUse"><stop offset="0" stop-color="#ffebb5" class="stopColorffebb5 svgShape"></stop><stop offset="1" stop-color="#fdf6be" stop-opacity="0" class="stopColorfdf6be svgShape"></stop></linearGradient><path fill="url(#A)" d="M41.8 36c-.9-.4-2.1.4-2.8 1.8-.7 1.4-.5 2.9.4 3.3.9.4 2.1-.4 2.8-1.8.6-1.4.5-2.9-.4-3.3z" opacity=".7"></path><linearGradient id="B" x1="1896.653" x2="1896.639" y1="1497.734" y2="1501.777" gradientTransform="matrix(-.3346 -1.0481 -.714 .2275 1751.59 1689.686)" gradientUnits="userSpaceOnUse"><stop offset="0" stop-color="#ffebb5" class="stopColorffebb5 svgShape"></stop><stop offset="1" stop-color="#fdf6be" stop-opacity="0" class="stopColorfdf6be svgShape"></stop></linearGradient><path fill="url(#B)" d="M44.3 40.6c-.9.3-1.3 1.8-.8 3.3.5 1.5 1.6 2.5 2.5 2.2.9-.3 1.3-1.8.8-3.3-.4-1.5-1.6-2.5-2.5-2.2z" opacity=".7"></path><linearGradient id="C" x1="1671.362" x2="1671.349" y1="695.033" y2="699.076" gradientTransform="matrix(-.5325 -.9391 -.5779 .3273 1335.912 1385.62)" gradientUnits="userSpaceOnUse"><stop offset="0" stop-color="#ffebb5" class="stopColorffebb5 svgShape"></stop><stop offset="1" stop-color="#fdf6be" stop-opacity="0" class="stopColorfdf6be svgShape"></stop></linearGradient><path fill="url(#C)" d="M41 42.2c-.7.4-.7 1.9 0 3.2.8 1.4 2 2.1 2.7 1.7.7-.4.7-1.9 0-3.2s-2-2.1-2.7-1.7z" opacity=".7"></path><linearGradient id="D" x1="2223.699" x2="2223.685" y1="3009.219" y2="3013.262" gradientTransform="matrix(.2039 -1.0601 -.6521 -.1257 1552.627 2762.526)" gradientUnits="userSpaceOnUse"><stop offset="0" stop-color="#ffebb5" class="stopColorffebb5 svgShape"></stop><stop offset="1" stop-color="#fdf6be" stop-opacity="0" class="stopColorfdf6be svgShape"></stop></linearGradient><path fill="url(#D)" d="M42.2 23.6c-.8-.2-1.8.9-2.1 2.5-.3 1.5.2 2.9 1 3.1.8.2 1.8-.9 2.1-2.5.3-1.5-.2-2.9-1-3.1z" opacity=".7"></path><path fill="#b15218" d="M40.8 23c-.3.2-.5.6-.6.9-.1.3-.1.5-.1.7l.1.1h-.1c0 .2 0 .4-.1.6-.2 1.1-.8 2.2-1.7 2.9-.5.4-1 .7-1.6.9-.5.3-1 .5-1.5.9-.8.6-1.3 1.6-1.4 2.6v.1l-.1.1c-1.3 1.2-1.8 2.6-1.5 3.9.4 1.8 2.1 3.2 2.8 3.7 1.4 1 2.8 2.1 4 3.5.5.6 1 1.2 1.4 1.7 1.1 1.7 2.2 1.9 2.8 1.9.6 0 .9-.3 1.1-.5.1-.2.1-.2.2-.3.2-.1.4.1.5.1h.1c.5.1.9.1 1.3-.2.4-.3 1-1.2.8-3.7-.1-.7-.3-1.3-.5-1.9-.1-.3-.2-.7-.3-1.1-.4-.8-.8-1.6-1.1-2.1-.7-1.1-1.3-2.1-2-2.9l-.2-.2-.1-.4c-.4-.5-.8-.9-1.2-1.4-.3-.4-.5-.9-.6-1.4-.1-.4-.1-.9-.1-1.2v-.1l.1-.1c1.7-1.2 2.6-2.7 2.5-4.2 0-.3-.1-.6-.2-.9-.2-.7-.7-1.4-1.3-1.8-.3-.3-.9-.4-1.4-.2zm1.4.4c.5.3 1 .9 1.2 1.6.1.3.1.5.1.8.1 1.4-.8 2.8-2.4 3.9l-.2.2v.3c-.1.4 0 .8.1 1.3.1.6.3 1.1.6 1.5.4.5.8 1 1.2 1.4l.4.4.2.2c.7.8 1.4 1.8 2 2.9.3.5.7 1.2 1.1 2 .1.3.2.7.3 1 0 .2.1.3.1.5-.3-.5-.7-1.2-1.2-1.7-.6-.7-1.3-1.2-1.9-1.6-.3-.2-.5-.3-.7-.4-.2-.1-.3-.1-.3-.1s.1.1.3.1c.2.1.4.2.7.4.6.4 1.2 1 1.8 1.6.6.7 1 1.4 1.3 2 .3.6.4 1 .4 1 .2 2.5-.4 3.2-.7 3.4-.3.3-.7.2-1 .1-.1-.1-.3-.2-.6-.1 0-.2-.1-.5-.2-.9-.1-.6-.4-1.4-.8-2.1-.4-.7-.9-1.4-1.3-1.8l-.5-.5-.2-.2.2.2.5.5c.4.5.8 1.1 1.2 1.9.3.7.6 1.5.7 2.1.1.5.1.9.1.9l-.3.3c-.1.2-.4.4-.8.4-.5 0-1.5-.2-2.5-1.7-.4-.6-.8-1.2-1.4-1.8-1.2-1.4-2.7-2.5-4.1-3.5-.7-.5-2.3-1.8-2.7-3.6-.3-1.2.2-2.5 1.4-3.6l.2-.2v-.2c.1-.9.6-1.8 1.3-2.4.4-.3.9-.6 1.4-.9.5-.3 1.1-.6 1.6-1 .9-.7 1.6-1.8 1.8-3 0-.2.1-.4.1-.6 0-.2 0-.5.1-.7 0-.2.2-.6.4-.7.1.1.6.2 1 .4z" class="colorB15218 svgShape"></path><path fill="#b15218" d="M38.5 37.3s0-.4-.1-.9-.4-1.2-.8-1.8c-.2-.3-.5-.6-.8-.8-.3-.2-.6-.4-.8-.5-.3-.1-.5-.2-.6-.2h-.2s.1 0 .2.1.3.2.6.3c.2.1.5.3.7.5.3.2.5.5.7.8.4.6.7 1.2.9 1.7l.2.8zm1.5 4.4s.4-.1.9-.4c.5-.3 1.1-.8 1.5-1.5.2-.3.3-.7.4-1.1.1-.2.1-.4.1-.5v-.5c0-.3-.1-.5-.1-.7 0-.2-.1-.3-.1-.3v1.4c0 .2 0 .3-.1.5-.1.3-.2.7-.4 1-.3.6-.9 1.1-1.3 1.5-.5.4-.9.6-.9.6z" class="colorB15218 svgShape"></path></svg>