<svg xmlns="http://www.w3.org/2000/svg" viewBox="0 0 48 48" width="256" height="256"><path fill="#b15218" d="M24 .5C11 .5.5 11 .5 24S11 47.5 24 47.5 47.5 37 47.5 24 37 .5 24 .5z" class="colorB15218 svgShape"></path><radialGradient id="a" cx="26.433" cy="-29.986" r="23.464" gradientTransform="translate(-1.921 53.405) scale(.9806)" gradientUnits="userSpaceOnUse"><stop offset="0" stop-color="#fbdd49" class="stopColorfbdd49 svgShape"></stop><stop offset=".793" stop-color="#eba503" class="stopColoreba503 svgShape"></stop><stop offset="1" stop-color="#d7840b" class="stopColord7840b svgShape"></stop></radialGradient><circle cx="24" cy="24" r="23" fill="url(#a)"></circle><linearGradient id="b" x1="46.469" x2="46.374" y1="50.831" y2="78.659" gradientTransform="matrix(1.0997 -.0242 .02198 .9998 -28.648 -52.837)" gradientUnits="userSpaceOnUse"><stop offset="0" stop-color="#ffebb5" class="stopColorffebb5 svgShape"></stop><stop offset="1" stop-color="#fdf6be" stop-opacity="0" class="stopColorfdf6be svgShape"></stop></linearGradient><path fill="url(#b)" d="M43.7 19.8c.2 8.9-8.5 16.3-19.4 16.6-10.8.2-19.8-6.8-20-15.7S12.8 4.3 23.6 4.1c10.9-.2 19.9 6.8 20.1 15.7z" opacity=".7"></path><radialGradient id="c" cx="-307.51" cy="6439.074" r="6.922" gradientTransform="matrix(-1.0744 .00715 -.0183 -.9844 -188.608 6349.109)" gradientUnits="userSpaceOnUse"><stop offset="0" stop-color="#ffebb5" class="stopColorffebb5 svgShape"></stop><stop offset="1" stop-color="#fdf6be" stop-opacity="0" class="stopColorfdf6be svgShape"></stop></radialGradient><path fill="url(#c)" d="M16.2 8.4c-.1-3.6 3.4-6.5 7.7-6.5 4.3 0 7.9 2.8 7.9 6.4s-3.4 6.5-7.7 6.5-7.9-2.8-7.9-6.4z" opacity=".7"></path><radialGradient id="d" cx="-307.221" cy="6422.058" r="6.922" gradientTransform="matrix(-1.0744 .00715 -.0183 -.9844 -188.608 6349.109)" gradientUnits="userSpaceOnUse"><stop offset="0" stop-color="#ffebb5" class="stopColorffebb5 svgShape"></stop><stop offset="1" stop-color="#fdf6be" stop-opacity="0" class="stopColorfdf6be svgShape"></stop></radialGradient><path fill="url(#d)" d="M16.2 25.2c-.1-3.6 3.4-6.5 7.7-6.5 4.3 0 7.9 2.8 7.9 6.4s-3.4 6.5-7.7 6.5c-4.3 0-7.9-2.9-7.9-6.4z" opacity=".7"></path><radialGradient id="e" cx="-523.783" cy="6428.153" r="6.922" gradientTransform="matrix(-.8117 .00195 -.01858 -.9844 -264.602 6350.613)" gradientUnits="userSpaceOnUse"><stop offset="0" stop-color="#ffebb5" class="stopColorffebb5 svgShape"></stop><stop offset="1" stop-color="#fdf6be" stop-opacity="0" class="stopColorfdf6be svgShape"></stop></radialGradient><path fill="url(#e)" d="M35.2 21.8c-.1-3.6 2.5-6.5 5.8-6.5s6 2.9 6 6.4-2.5 6.5-5.8 6.5-6-2.8-6-6.4z" opacity=".7"></path><radialGradient id="f" cx="-493.322" cy="6411.78" r="6.922" gradientTransform="matrix(-.8117 .00195 -.01858 -.9844 -264.602 6350.613)" gradientUnits="userSpaceOnUse"><stop offset="0" stop-color="#ffebb5" class="stopColorffebb5 svgShape"></stop><stop offset="1" stop-color="#fdf6be" stop-opacity="0" class="stopColorfdf6be svgShape"></stop></radialGradient><path fill="url(#f)" d="M10.8 38c-.1-3.6 2.5-6.5 5.8-6.5s6 2.9 6 6.4c.1 3.6-2.5 6.5-5.8 6.5s-6-2.8-6-6.4z" opacity=".7"></path><radialGradient id="g" cx="-482.58" cy="6428.234" r="6.922" gradientTransform="matrix(-.8117 .00195 -.01858 -.9844 -264.602 6350.613)" gradientUnits="userSpaceOnUse"><stop offset="0" stop-color="#ffebb5" class="stopColorffebb5 svgShape"></stop><stop offset="1" stop-color="#fdf6be" stop-opacity="0" class="stopColorfdf6be svgShape"></stop></radialGradient><path fill="url(#g)" d="M1.7 21.8c-.1-3.6 2.5-6.5 5.8-6.5s6 2.9 6 6.4-2.5 6.5-5.8 6.5-5.9-2.8-6-6.4z" opacity=".7"></path><path fill="#fbce40" d="m1.5 27.4.3 1.2c.2.8.6 1.9 1.2 3.1.3.6.6 1.3 1 2s.8 1.4 1.3 2.1c.2.3.5.7.7 1 .3.4.6.7.8 1 .5.7 1.2 1.3 1.8 2 .6.7 1.3 1.2 2 1.8l2.1 1.5 2.1 1.2c.7.4 1.4.7 2 1 .6.3 1.2.6 1.7.7.5.2 1 .4 1.4.5.8.3 1.2.4 1.2.4l-1.2-.3c-.4-.1-.9-.2-1.4-.3-.6-.1-1.1-.3-1.8-.6-.6-.3-1.4-.4-2.1-.8-.7-.4-1.5-.7-2.2-1.1-.7-.5-1.5-.9-2.2-1.5-.7-.6-1.5-1.1-2.1-1.8-.7-.7-1.3-1.3-1.9-2.1-.6-.7-1.1-1.5-1.6-2.2-.5-.7-.8-1.5-1.2-2.2l-.9-2.1c-.3-.6-.4-1.3-.6-1.8-.1-.5-.2-1-.3-1.4-.1-.8-.1-1.3-.1-1.3z" opacity=".7" class="colorFBCE40 svgShape"></path><radialGradient id="h" cx="28.739" cy="108.485" r="21.147" gradientTransform="matrix(.9976 0 0 1.0193 -4.44 -73.304)" gradientUnits="userSpaceOnUse"><stop offset="0" stop-color="#fbdd49" class="stopColorfbdd49 svgShape"></stop><stop offset=".457" stop-color="#eba503" class="stopColoreba503 svgShape"></stop><stop offset="1" stop-color="#d7840b" class="stopColord7840b svgShape"></stop></radialGradient><path fill="url(#h)" d="M36.6 32.1c-.2.1-.4.1-.6.1 0 0-.1 0-.1.1-3.4 1.8-7.5 2.8-11.7 2.8-3.5 0-6.8-.7-9.7-1.9H14c-.6-.2-1.4-1-1.9-.9-.1 0-.2 0-.3-.1l.1.1c2.7 6.4 7.3 10.2 12.4 10.2 5.1 0 9.7-3.8 12.4-10.2l.2-.4c-.2.1-.3.2-.3.2z"></path><radialGradient id="i" cx="26.668" cy="-16.649" r="9.594" gradientTransform="translate(-1.921 53.405) scale(.9806)" gradientUnits="userSpaceOnUse"><stop offset="0" stop-color="#fbdd49" class="stopColorfbdd49 svgShape"></stop><stop offset=".457" stop-color="#eba503" class="stopColoreba503 svgShape"></stop><stop offset="1" stop-color="#d7840b" class="stopColord7840b svgShape"></stop></radialGradient><path fill="url(#i)" d="M36.4 32.1c-.2.1-.4.1-.6.1 0 0-.1 0-.1.1-3.4 1.8-7.4 2.7-11.5 2.7-3.4 0-6.7-.6-9.6-1.8h-.5c-.6-.2-1.3-.9-1.9-.9h-.3l.1.1c2.6 6.1 7.2 9.8 12.2 9.8 5 0 9.6-3.7 12.2-9.8l.2-.4c-.1 0-.2.1-.2.1z"></path><path fill="#b15218" d="M36.4 32.1c-.2 0-.4.1-.6.1h-.1c-3.4 1.5-7.4 2.3-11.5 2.3-3.4 0-6.7-.5-9.6-1.5h-.5c-.6-.1-1.3-.8-1.9-.8h-.3l.1.1c2.6 5.2 7.2 8.3 12.2 8.3 5 0 9.6-3.1 12.2-8.3l.2-.3c-.1 0-.2.1-.2.1z" class="colorB15218 svgShape"></path><radialGradient id="j" cx="26.619" cy="-17.396" r="9.169" gradientTransform="translate(-1.921 53.405) scale(.9806)" gradientUnits="userSpaceOnUse"><stop offset="0" stop-color="#330e10" class="stopColor330e10 svgShape"></stop><stop offset="1" stop-color="#871811" class="stopColor871811 svgShape"></stop></radialGradient><path fill="url(#j)" d="M36.2 32.2c-2.5 4.9-6.9 8.2-12 8.2s-9.6-3.3-12-8.2c3.4 1.6 7.5 2.5 12 2.5s8.6-.9 12-2.5z"></path><path fill="#b15218" d="M38.2 30.8c-.1-.2-.3-.3-.5-.4-.2-.1-.4-.1-.6-.2h-.5s.2.1.4.3c.1.1.2.2.4.3.1.1.2.2.3.4l.1.1c-.2.1-.4.1-.6.2-.4.2-.8.3-1.4.5-.5.2-1.1.4-1.8.6-.7.2-1.4.4-2.2.6-.8.2-1.6.3-2.4.5-.9.1-1.7.2-2.6.3-.5 0-.9.1-1.4.1H24c-.9 0-1.8 0-2.7-.1-.5 0-.9-.1-1.3-.1-.4-.1-.9-.1-1.3-.2-.9-.1-1.7-.3-2.5-.5s-1.5-.4-2.2-.6c-1.3-.4-2.4-.8-3.2-1.1-.3-.1-.5-.2-.6-.3l.1-.1c.1-.1.2-.2.3-.4.1-.1.2-.2.4-.3.2-.2.4-.3.4-.3s-.2-.1-.5 0c-.2 0-.4.1-.6.2-.2.1-.4.2-.5.4-.3.4-.3.9-.3 1.2.1.3.2.5.2.5s.1-.2.1-.5l.3-.6c.2.1.3.2.6.4s.8.5 1.3.7c.5.3 1.1.6 1.8.8.6.3 1.4.5 2.2.8.8.2 1.6.5 2.5.6.9.2 1.8.3 2.7.4.9.1 1.9.1 2.8.1h1.4c.5 0 .9-.1 1.4-.1.9-.1 1.9-.3 2.7-.4.9-.2 1.7-.4 2.5-.7.8-.2 1.5-.5 2.2-.8.7-.2 1.2-.6 1.8-.8.5-.3 1-.5 1.3-.7.2-.1.4-.3.6-.4l.3.6c.1.3.1.5.1.5s.1-.2.2-.5c.1-.2 0-.6-.3-1z" class="colorB15218 svgShape"></path><path fill="#722717" d="M46.7 8.6C46 7.3 45.1 6.4 43.9 6c-2.1-1-4.3-.3-5.3 0 0-2.3-.7-3.9-2.1-4.6-2-1.1-4-1.2-5.7-.4-1.8.9-3.1 2.7-3.7 5.4-1.4 5.4 2 14.5 2.2 14.9l.1.3.3-.2s4.9-2.5 8.6-2.8c3-.2 7-2.1 8.5-5.1 1-1.5.9-3.3-.1-4.9z" class="color722717 svgShape"></path><path fill="#e31b15" d="M46.5 8.7c-2.8-4.9-8.2-2.2-8.2-2.2s-2.4 1.3-4 3.7c0 0 1-2.2 4-4 .1-1.9-.3-3.7-1.9-4.5-3.8-2-7.6-.6-9 4.8-1.4 5.4 2.2 14.7 2.2 14.7s4.9-2.5 8.8-2.8c4.7-.4 10.9-4.8 8.1-9.7z" class="colorE31B15 svgShape"></path><linearGradient id="k" x1="-1030.85" x2="-1037.266" y1="186.373" y2="194.957" gradientTransform="rotate(23.205 -55.727 2724.005)" gradientUnits="userSpaceOnUse"><stop offset="0" stop-color="#ffffff" class="stopColorfff svgShape"></stop><stop offset="1" stop-color="#ffffff" stop-opacity="0" class="stopColorfff svgShape"></stop></linearGradient><path fill="url(#k)" d="M32.3 15.9c-1.5-2.1.8-5.1 4.1-7.3s6.6-2.6 8.8 0c2.7 3.2-.6 7.3-4 8.3-3.9 1-7.4 1.1-8.9-1z" opacity=".7"></path><linearGradient id="l" x1="-1047.842" x2="-1044.591" y1="179.344" y2="194.473" gradientTransform="rotate(23.205 -55.727 2724.005)" gradientUnits="userSpaceOnUse"><stop offset="0" stop-color="#ffffff" class="stopColorfff svgShape"></stop><stop offset="1" stop-color="#ffffff" stop-opacity="0" class="stopColorfff svgShape"></stop></linearGradient><path fill="url(#l)" d="M28.4 14.8s-1.4-5.6.2-9.5c1.6-3.9 5.1-3.9 6.7-3.2s2.9 3.4.7 5.2-6.7 8.1-6.4 11.5c.1 0-.9-2.8-1.2-4z"></path><radialGradient id="m" cx="-1062.473" cy="136.609" r="1.965" gradientTransform="rotate(23.201 -185.828 2693.713) scale(.9806)" gradientUnits="userSpaceOnUse"><stop offset="0" stop-color="#ffffff" class="stopColorfff svgShape"></stop><stop offset="1" stop-color="#ffffff" stop-opacity="0" class="stopColorfff svgShape"></stop></radialGradient><circle cx="35.7" cy="3.7" r="1.9" fill="url(#m)"></circle><radialGradient id="n" cx="-1050.854" cy="139.683" r="2.473" gradientTransform="rotate(23.201 -185.828 2693.713) scale(.9806)" gradientUnits="userSpaceOnUse"><stop offset="0" stop-color="#ffffff" class="stopColorfff svgShape"></stop><stop offset="1" stop-color="#ffffff" stop-opacity="0" class="stopColorfff svgShape"></stop></radialGradient><circle cx="45" cy="11" r="2.4" fill="url(#n)"></circle><radialGradient id="o" cx="-1055.19" cy="137.332" r="1.242" gradientTransform="rotate(23.201 -185.828 2693.713) scale(.9806)" gradientUnits="userSpaceOnUse"><stop offset="0" stop-color="#ffffff" class="stopColorfff svgShape"></stop><stop offset="1" stop-color="#ffffff" stop-opacity="0" class="stopColorfff svgShape"></stop></radialGradient><circle cx="42" cy="7.2" r="1.2" fill="url(#o)"></circle><path fill="#722717" d="M1.3 8.6C2 7.3 2.9 6.4 4.1 6c2.1-1 4.3-.3 5.3 0 0-2.3.7-3.9 2.1-4.6 2-1.1 4-1.2 5.7-.4 1.8.9 3.1 2.7 3.7 5.4 1.4 5.4-2 14.5-2.2 14.9l-.1.3-.3-.2s-4.9-2.5-8.6-2.8c-3-.2-7-2.1-8.5-5.1-1-1.5-.9-3.3.1-4.9z" class="color722717 svgShape"></path><path fill="#e31b15" d="M1.5 8.7c2.8-4.9 8.2-2.2 8.2-2.2s2.4 1.3 4 3.7c0 0-1-2.2-4-4-.1-1.8.3-3.7 1.9-4.5 3.8-2 7.6-.6 9 4.8 1.4 5.4-2.2 14.7-2.2 14.7s-4.9-2.5-8.8-2.8C4.9 18-1.3 13.6 1.5 8.7z" class="colorE31B15 svgShape"></path><linearGradient id="p" x1="-1286.64" x2="-1293.056" y1="296.011" y2="304.595" gradientTransform="scale(-1 1) rotate(23.204 59.358 3284.886)" gradientUnits="userSpaceOnUse"><stop offset="0" stop-color="#ffffff" class="stopColorfff svgShape"></stop><stop offset="1" stop-color="#ffffff" stop-opacity="0" class="stopColorfff svgShape"></stop></linearGradient><path fill="url(#p)" d="M15.7 15.9c1.5-2.1-.8-5.1-4.1-7.3S5 6 2.8 8.5c-2.7 3.2.6 7.3 4 8.3 3.9 1.1 7.4 1.2 8.9-.9z" opacity=".7"></path><linearGradient id="q" x1="-1303.632" x2="-1300.381" y1="288.981" y2="304.111" gradientTransform="scale(-1 1) rotate(23.204 59.358 3284.886)" gradientUnits="userSpaceOnUse"><stop offset="0" stop-color="#ffffff" class="stopColorfff svgShape"></stop><stop offset="1" stop-color="#ffffff" stop-opacity="0" class="stopColorfff svgShape"></stop></linearGradient><path fill="url(#q)" d="M19.6 14.8s1.4-5.6-.2-9.5c-1.6-3.9-5.1-3.9-6.7-3.2S9.8 5.5 12 7.3s6.7 8.1 6.4 11.5c-.1 0 .9-2.8 1.2-4z"></path><radialGradient id="r" cx="-1322.737" cy="248.164" r="1.965" gradientTransform="scale(-.9806 .9806) rotate(23.2 -72.416 3317.537)" gradientUnits="userSpaceOnUse"><stop offset="0" stop-color="#ffffff" class="stopColorfff svgShape"></stop><stop offset="1" stop-color="#ffffff" stop-opacity="0" class="stopColorfff svgShape"></stop></radialGradient><circle cx="12.3" cy="3.7" r="1.9" fill="url(#r)"></circle><radialGradient id="s" cx="-1311.118" cy="251.238" r="2.473" gradientTransform="scale(-.9806 .9806) rotate(23.2 -72.416 3317.537)" gradientUnits="userSpaceOnUse"><stop offset="0" stop-color="#ffffff" class="stopColorfff svgShape"></stop><stop offset="1" stop-color="#ffffff" stop-opacity="0" class="stopColorfff svgShape"></stop></radialGradient><circle cx="3" cy="11" r="2.4" fill="url(#s)"></circle><radialGradient id="t" cx="-1315.453" cy="248.887" r="1.242" gradientTransform="scale(-.9806 .9806) rotate(23.2 -72.416 3317.537)" gradientUnits="userSpaceOnUse"><stop offset="0" stop-color="#ffffff" class="stopColorfff svgShape"></stop><stop offset="1" stop-color="#ffffff" stop-opacity="0" class="stopColorfff svgShape"></stop></radialGradient><circle cx="6" cy="7.2" r="1.2" fill="url(#t)"></circle></svg>