<svg xmlns="http://www.w3.org/2000/svg" viewBox="0 0 48 48" width="256" height="256"><path fill="#b15218" d="M24 .5C11 .5.5 11 .5 24S11 47.5 24 47.5 47.5 37 47.5 24 37 .5 24 .5z" class="colorB15218 svgShape"></path><radialGradient id="a" cx="24" cy="24" r="23.01" gradientUnits="userSpaceOnUse"><stop offset="0" stop-color="#fbdd49" class="stopColorfbdd49 svgShape"></stop><stop offset=".793" stop-color="#eba503" class="stopColoreba503 svgShape"></stop><stop offset="1" stop-color="#d7840b" class="stopColord7840b svgShape"></stop></radialGradient><circle cx="24" cy="24" r="23" fill="url(#a)"></circle><linearGradient id="b" x1="70.53" x2="70.435" y1="45.025" y2="72.853" gradientTransform="matrix(1.0997 -.0242 .02198 .9998 -54.981 -46.45)" gradientUnits="userSpaceOnUse"><stop offset="0" stop-color="#ffebb5" class="stopColorffebb5 svgShape"></stop><stop offset="1" stop-color="#fdf6be" stop-opacity="0" class="stopColorfdf6be svgShape"></stop></linearGradient><path fill="url(#b)" d="M43.7 19.8c.2 8.9-8.5 16.3-19.4 16.6-10.8.2-19.8-6.8-20-15.7S12.8 4.3 23.6 4.1c10.9-.2 19.9 6.8 20.1 15.7z" opacity=".7"></path><radialGradient id="c" cx="200.563" cy="6386.758" r="6.788" gradientTransform="matrix(-1.0956 .00729 -.01865 -1.0038 362.869 6418.051)" gradientUnits="userSpaceOnUse"><stop offset="0" stop-color="#ffebb5" class="stopColorffebb5 svgShape"></stop><stop offset="1" stop-color="#fdf6be" stop-opacity="0" class="stopColorfdf6be svgShape"></stop></radialGradient><path fill="url(#c)" d="M16.2 8.4c-.1-3.6 3.4-6.5 7.7-6.5s7.9 2.8 7.9 6.4-3.4 6.5-7.7 6.5-7.9-2.8-7.9-6.4z" opacity=".7"></path><radialGradient id="d" cx="63.741" cy="6374.969" r="6.788" gradientTransform="matrix(-.8277 .00198 -.01895 -1.0038 214.645 6420.985)" gradientUnits="userSpaceOnUse"><stop offset="0" stop-color="#ffebb5" class="stopColorffebb5 svgShape"></stop><stop offset="1" stop-color="#fdf6be" stop-opacity="0" class="stopColorfdf6be svgShape"></stop></radialGradient><path fill="url(#d)" d="M35.2 21.8c-.1-3.6 2.5-6.5 5.8-6.5s6 2.9 6 6.4c.1 3.6-2.5 6.5-5.8 6.5-3.3.1-6-2.8-6-6.4z" opacity=".7"></path><radialGradient id="e" cx="104.146" cy="6375.049" r="6.788" gradientTransform="matrix(-.8277 .00198 -.01895 -1.0038 214.645 6420.985)" gradientUnits="userSpaceOnUse"><stop offset="0" stop-color="#ffebb5" class="stopColorffebb5 svgShape"></stop><stop offset="1" stop-color="#fdf6be" stop-opacity="0" class="stopColorfdf6be svgShape"></stop></radialGradient><path fill="url(#e)" d="M1.7 21.8c-.1-3.6 2.5-6.5 5.8-6.5s6 2.9 6 6.4-2.5 6.5-5.8 6.5-5.9-2.8-6-6.4z" opacity=".7"></path><path fill="#b15218" d="M14.1 6.8c2.8 1.3 5 3.2 6.3 6.1.2.5 1.1.6 1.7.9-.1-.6.1-1.3-.2-1.7-2-2.7-4.3-4.9-7.8-5.3z" class="colorB15218 svgShape"></path><linearGradient id="f" x1="-382.077" x2="-373.807" y1="18.59" y2="15.701" gradientTransform="matrix(-1 0 0 1 -365.52 0)" gradientUnits="userSpaceOnUse"><stop offset="0" stop-color="#f59e15" class="stopColorf59e15 svgShape"></stop><stop offset="1" stop-color="#f59e15" stop-opacity="0" class="stopColorf59e15 svgShape"></stop></linearGradient><path fill="url(#f)" d="M16.2 11.7s5.4 5.1 4.6 6.8-2.3 1.3-2.3 1.3-8.8-.7-12.2 1.9c0 0-2.9-6.3 1.4-8.4.1 0 1.8-4.2 8.5-1.6z" opacity=".7"></path><path fill="#722717" d="M21.8 19.6c-1.5-7.3-6.7-8.2-6.7-8.2 2.7 1.7 4.2 5.5 4.2 5.5-7.4-5.8-12.1-3.3-12.1-3.3 6.1.2 11.2 5.2 11.2 5.2-7.2-1.9-12.4 3-12.4 3 6.5-2.7 11.1-1.7 13.7-.5 1.2.4 2.4-.6 2.1-1.7z" class="color722717 svgShape"></path><path fill="#b15218" d="M33.9 6.8c-2.8 1.3-5 3.2-6.3 6.1-.2.5-1.1.6-1.7.9.1-.6-.1-1.3.2-1.7 2-2.7 4.3-4.9 7.8-5.3z" class="colorB15218 svgShape"></path><linearGradient id="g" x1="-141.679" x2="-133.409" y1="18.59" y2="15.701" gradientTransform="translate(173.123)" gradientUnits="userSpaceOnUse"><stop offset="0" stop-color="#f59e15" class="stopColorf59e15 svgShape"></stop><stop offset="1" stop-color="#f59e15" stop-opacity="0" class="stopColorf59e15 svgShape"></stop></linearGradient><path fill="url(#g)" d="M31.8 11.7s-5.4 5.1-4.6 6.8 2.3 1.3 2.3 1.3 8.8-.7 12.2 1.9c0 0 2.9-6.3-1.4-8.4-.1 0-1.8-4.2-8.5-1.6z" opacity=".7"></path><path fill="#722717" d="M26.2 19.6c1.5-7.3 6.7-8.2 6.7-8.2-2.7 1.7-4.2 5.5-4.2 5.5 7.4-5.8 12.1-3.3 12.1-3.3-6.1.2-11.2 5.2-11.2 5.2 7.2-1.9 12.4 3 12.4 3-6.5-2.7-11.1-1.7-13.7-.5-1.2.4-2.4-.6-2.1-1.7z" class="color722717 svgShape"></path><radialGradient id="h" cx="9.367" cy="27.42" r="7.304" gradientUnits="userSpaceOnUse"><stop offset="0" stop-color="#e53230" class="stopColore53230 svgShape"></stop><stop offset="1" stop-color="#e53230" stop-opacity="0" class="stopColore53230 svgShape"></stop></radialGradient><circle cx="9.4" cy="27.4" r="7.3" fill="url(#h)"></circle><radialGradient id="i" cx="38.633" cy="27.42" r="7.304" gradientUnits="userSpaceOnUse"><stop offset="0" stop-color="#e53230" class="stopColore53230 svgShape"></stop><stop offset="1" stop-color="#e53230" stop-opacity="0" class="stopColore53230 svgShape"></stop></radialGradient><circle cx="38.6" cy="27.4" r="7.3" fill="url(#i)"></circle><radialGradient id="j" cx="200.847" cy="6370.071" r="6.788" gradientTransform="matrix(-1.0956 .00729 -.01865 -1.0038 362.869 6418.051)" gradientUnits="userSpaceOnUse"><stop offset="0" stop-color="#ffebb5" class="stopColorffebb5 svgShape"></stop><stop offset="1" stop-color="#fdf6be" stop-opacity="0" class="stopColorfdf6be svgShape"></stop></radialGradient><path fill="url(#j)" d="M16.2 25.2c-.1-3.6 3.4-6.5 7.7-6.5 4.3 0 7.9 2.8 7.9 6.4s-3.4 6.5-7.7 6.5c-4.3 0-7.9-2.9-7.9-6.4z" opacity=".7"></path><radialGradient id="k" cx="93.612" cy="6358.913" r="6.788" gradientTransform="matrix(-.8277 .00198 -.01895 -1.0038 214.645 6420.985)" gradientUnits="userSpaceOnUse"><stop offset="0" stop-color="#ffebb5" class="stopColorffebb5 svgShape"></stop><stop offset="1" stop-color="#fdf6be" stop-opacity="0" class="stopColorfdf6be svgShape"></stop></radialGradient><path fill="url(#k)" d="M10.8 38c-.1-3.6 2.5-6.5 5.8-6.5s6 2.9 6 6.4-2.5 6.5-5.8 6.5-6-2.8-6-6.4z" opacity=".7"></path><path fill="#fbce40" d="m1.5 27.4.3 1.2c.2.8.6 1.9 1.2 3.1.3.6.6 1.3 1 2s.8 1.4 1.3 2.1c.2.3.5.7.7 1 .3.4.6.7.8 1 .5.7 1.2 1.3 1.8 2 .6.7 1.3 1.2 2 1.8l2.1 1.5 2.1 1.2c.7.4 1.4.7 2 1 .6.3 1.2.6 1.7.7.5.2 1 .4 1.4.5.8.3 1.2.4 1.2.4l-1.2-.3c-.4-.1-.9-.2-1.4-.3-.6-.1-1.1-.3-1.8-.6-.6-.3-1.4-.4-2.1-.8-.7-.4-1.5-.7-2.2-1.1-.7-.5-1.5-.9-2.2-1.5-.7-.6-1.5-1.1-2.1-1.8-.7-.7-1.3-1.3-1.9-2.1-.6-.7-1.1-1.5-1.6-2.2-.5-.7-.8-1.5-1.2-2.2l-.9-2.1c-.3-.6-.4-1.3-.6-1.8-.1-.5-.2-1-.3-1.4-.1-.8-.1-1.3-.1-1.3z" opacity=".7" class="colorFBCE40 svgShape"></path><radialGradient id="l" cx="30.831" cy="158.727" r="20.738" gradientTransform="matrix(1.0173 0 0 1.0395 -7.134 -129.21)" gradientUnits="userSpaceOnUse"><stop offset="0" stop-color="#fbdd49" class="stopColorfbdd49 svgShape"></stop><stop offset=".457" stop-color="#eba503" class="stopColoreba503 svgShape"></stop><stop offset="1" stop-color="#d7840b" class="stopColord7840b svgShape"></stop></radialGradient><path fill="url(#l)" d="M36.6 30.6c-.2.1-.4.1-.6.1 0 0-.1 0-.1.1-3.4 1.8-7.5 2.8-11.7 2.8-3.5 0-6.8-.7-9.7-1.9H14c-.6-.2-1.4-1-1.9-.9-.1 0-.2 0-.3-.1l.1.1C14.6 37.2 19.2 41 24.3 41c5.1 0 9.7-3.8 12.4-10.2l.2-.4c-.2.1-.3.2-.3.2z"></path><radialGradient id="m" cx="24.231" cy="35.58" r="9.408" gradientUnits="userSpaceOnUse"><stop offset="0" stop-color="#fbdd49" class="stopColorfbdd49 svgShape"></stop><stop offset=".457" stop-color="#eba503" class="stopColoreba503 svgShape"></stop><stop offset="1" stop-color="#d7840b" class="stopColord7840b svgShape"></stop></radialGradient><path fill="url(#m)" d="M36.4 30.6c-.2.1-.4.1-.6.1 0 0-.1 0-.1.1-3.4 1.8-7.4 2.7-11.5 2.7-3.4 0-6.7-.6-9.6-1.8h-.5c-.6-.2-1.3-.9-1.9-.9h-.3l.1.1c2.6 6.1 7.2 9.8 12.2 9.8 5 0 9.6-3.7 12.2-9.8l.2-.4c-.1 0-.2.1-.2.1z"></path><path fill="#b15218" d="M36.4 30.6c-.2 0-.4.1-.6.1h-.1c-3.4 1.5-7.4 2.3-11.5 2.3-3.4 0-6.7-.5-9.6-1.5h-.5c-.6-.1-1.3-.8-1.9-.8h-.3l.1.1c2.6 5.2 7.2 8.3 12.2 8.3 5 0 9.6-3.1 12.2-8.3l.2-.3c-.1 0-.2.1-.2.1z" class="colorB15218 svgShape"></path><radialGradient id="n" cx="24.182" cy="34.848" r="8.991" gradientUnits="userSpaceOnUse"><stop offset="0" stop-color="#330e10" class="stopColor330e10 svgShape"></stop><stop offset="1" stop-color="#871811" class="stopColor871811 svgShape"></stop></radialGradient><path fill="url(#n)" d="M36.2 30.7c-2.5 4.9-6.9 8.2-12 8.2s-9.6-3.3-12-8.2c3.4 1.6 7.5 2.5 12 2.5s8.6-.9 12-2.5z"></path><path fill="#b15218" d="M38.2 29.3c-.1-.2-.3-.3-.5-.4-.2-.1-.4-.1-.6-.2h-.5s.2.1.4.3c.1.1.2.2.4.3.1.1.2.2.3.4l.1.1c-.2.1-.4.1-.6.2-.4.2-.8.3-1.4.5-.5.2-1.1.4-1.8.6-.7.2-1.4.4-2.2.6-.8.2-1.6.3-2.4.5-.9.1-1.7.2-2.6.3-.5 0-.9.1-1.4.1H24c-.9 0-1.8 0-2.7-.1-.5 0-.9-.1-1.3-.1-.4-.1-.9-.1-1.3-.2-.9-.1-1.7-.3-2.5-.5s-1.5-.4-2.2-.6c-1.3-.4-2.4-.8-3.2-1.1-.3-.1-.5-.2-.6-.3l.1-.1c.1-.1.2-.2.3-.4.1-.1.2-.2.4-.3.2-.2.4-.3.4-.3s-.2-.1-.5 0c-.2 0-.4.1-.6.2-.2.1-.4.2-.5.4-.3.4-.3.9-.3 1.2 0 .4.2.6.2.6s.1-.2.1-.5l.3-.6c.2.1.3.2.6.4s.8.5 1.3.7c.5.3 1.1.6 1.8.8.6.3 1.4.5 2.2.8.8.2 1.6.5 2.5.6.9.2 1.8.3 2.7.4.9.1 1.9.1 2.8.1h1.4c.5 0 .9-.1 1.4-.1.9-.1 1.9-.3 2.7-.4.9-.2 1.7-.4 2.5-.7.8-.2 1.5-.5 2.2-.8.7-.2 1.2-.6 1.8-.8.5-.3 1-.5 1.3-.7.2-.1.4-.3.6-.4l.3.6c.1.3.1.5.1.5s.1-.2.2-.5c.1-.2 0-.7-.3-1.1z" class="colorB15218 svgShape"></path></svg>