<svg xmlns="http://www.w3.org/2000/svg" viewBox="0 0 48 48" width="256" height="256"><path fill="#b15218" d="M24 .5C11 .5.5 11 .5 24S11 47.5 24 47.5 47.5 37 47.5 24 37 .5 24 .5z" class="colorB15218 svgShape"></path><radialGradient id="a" cx="26.218" cy="-30.391" r="23.462" gradientTransform="translate(-1.708 53.803) scale(.9806)" gradientUnits="userSpaceOnUse"><stop offset="0" stop-color="#fbdd49" class="stopColorfbdd49 svgShape"></stop><stop offset=".793" stop-color="#eba503" class="stopColoreba503 svgShape"></stop><stop offset="1" stop-color="#d7840b" class="stopColord7840b svgShape"></stop></radialGradient><path fill="url(#a)" d="M47 24c0 4.3-1.2 8.3-3.3 11.8-1.7 2.9-4 5.3-6.8 7.2-3.7 2.5-8.2 4-13 4-4.8 0-9.3-1.5-13-4-2.7-1.9-5.1-4.3-6.8-7.2C2.2 32.3 1 28.3 1 24 1 11.3 11.3 1 24 1s23 10.3 23 23z"></path><linearGradient id="b" x1="-99.92" x2="-100.015" y1="17.904" y2="45.732" gradientTransform="matrix(1.0988 .05198 -.04725 .9989 135.855 -16.728)" gradientUnits="userSpaceOnUse"><stop offset="0" stop-color="#ffebb5" class="stopColorffebb5 svgShape"></stop><stop offset="1" stop-color="#fdf6be" stop-opacity="0" class="stopColorfdf6be svgShape"></stop></linearGradient><path fill="url(#b)" d="M43.7 20.2c-.4 8.9-9.6 15.7-20.5 15.2s-19.4-8.1-18.9-17S13.9 2.7 24.8 3.2s19.3 8.1 18.9 17z" opacity=".7"></path><radialGradient id="c" cx="195.25" cy="6617.928" r="6.922" gradientTransform="matrix(-1.0744 .00715 -.0183 -.9844 355.747 6520.543)" gradientUnits="userSpaceOnUse"><stop offset="0" stop-color="#ffebb5" class="stopColorffebb5 svgShape"></stop><stop offset="1" stop-color="#fdf6be" stop-opacity="0" class="stopColorfdf6be svgShape"></stop></radialGradient><path fill="url(#c)" d="M17.1 7.4C17 3.8 20.5.9 24.8.9c4.3 0 7.9 2.8 7.9 6.4s-3.4 6.5-7.7 6.5-7.8-2.9-7.9-6.4z" opacity=".7"></path><radialGradient id="d" cx="189.78" cy="6587.925" r="6.922" gradientTransform="matrix(-1.0744 .00715 -.0183 -.9844 355.747 6520.543)" gradientUnits="userSpaceOnUse"><stop offset="0" stop-color="#ffebb5" class="stopColorffebb5 svgShape"></stop><stop offset="1" stop-color="#fdf6be" stop-opacity="0" class="stopColorfdf6be svgShape"></stop></radialGradient><path fill="url(#d)" d="M23.5 36.9c-.1-3.6 3.4-6.5 7.7-6.5 4.3 0 7.9 2.8 7.9 6.4.1 3.6-3.4 6.5-7.7 6.5s-7.8-2.9-7.9-6.4z" opacity=".7"></path><radialGradient id="e" cx="207.38" cy="6593.142" r="6.922" gradientTransform="matrix(-1.0744 .00715 -.0183 -.9844 355.747 6520.543)" gradientUnits="userSpaceOnUse"><stop offset="0" stop-color="#ffebb5" class="stopColorffebb5 svgShape"></stop><stop offset="1" stop-color="#fdf6be" stop-opacity="0" class="stopColorfdf6be svgShape"></stop></radialGradient><path fill="url(#e)" d="M4.5 31.9c-.1-3.6 3.4-6.5 7.7-6.5 4.3 0 7.9 2.8 7.9 6.4s-3.4 6.5-7.7 6.5c-4.3 0-7.8-2.9-7.9-6.4z" opacity=".7"></path><linearGradient id="f" x1="13.91" x2="12.308" y1="23.393" y2="27.276" gradientUnits="userSpaceOnUse"><stop offset="0" stop-color="#ffebb5" class="stopColorffebb5 svgShape"></stop><stop offset="1" stop-color="#fdf6be" stop-opacity="0" class="stopColorfdf6be svgShape"></stop></linearGradient><path fill="url(#f)" d="M8.3 23.1s7.7-.8 10 5.3-18.7-1.8-10-5.3z"></path><linearGradient id="g" x1="-207.276" x2="-208.879" y1="23.393" y2="27.276" gradientTransform="matrix(-1 0 0 1 -171.86 0)" gradientUnits="userSpaceOnUse"><stop offset="0" stop-color="#ffebb5" class="stopColorffebb5 svgShape"></stop><stop offset="1" stop-color="#fdf6be" stop-opacity="0" class="stopColorfdf6be svgShape"></stop></linearGradient><path fill="url(#g)" d="M41 23.1s-7.7-.8-10 5.3c-2.3 6 18.7-1.8 10-5.3z"></path><linearGradient id="h" x1="10.729" x2="37.586" y1="182.013" y2="182.013" gradientTransform="matrix(1 0 0 1.0569 0 -156.424)" gradientUnits="userSpaceOnUse"><stop offset="0" stop-color="#ffebb5" class="stopColorffebb5 svgShape"></stop><stop offset="1" stop-color="#fdf6be" stop-opacity="0" class="stopColorfdf6be svgShape"></stop></linearGradient><path fill="url(#h)" d="M10.8 29.9c.3-.2.8-.1 1.1.2s.5.7.6 1.1c.4 1.1.7 2.2 1.1 3.2 1.1 2.8 2.9 5.4 5.4 7s5.6 2.1 8.3.9c2-.8 3.6-2.5 4.8-4.3s2.1-4 2.9-6.1c.2-.6.5-1.2.9-1.6s1.1-.6 1.6-.3c0-.4-.2-.6-.4-1-.1-.1-.1-.2-.3-.2-.1 0-.1 0-.2.1-1.7.9-3.2 2.2-5 2.9-1 .4-2 .5-3 .6-2.1.3-4.1.5-6.2.6h-1.6c-.5-.1-1-.2-1.5-.4-2.5-.8-5-1.6-7.1-3.2-.2-.2-.6-.4-.9-.4-.3 0-.7.7-.5.9z" opacity=".7"></path><radialGradient id="i" cx="26.082" cy="-24.483" r="2.881" gradientTransform="translate(-1.708 53.803) scale(.9806)" gradientUnits="userSpaceOnUse"><stop offset="0" stop-color="#fbdd49" class="stopColorfbdd49 svgShape"></stop><stop offset=".793" stop-color="#eba503" class="stopColoreba503 svgShape"></stop><stop offset="1" stop-color="#d7840b" class="stopColord7840b svgShape"></stop></radialGradient><path fill="url(#i)" d="M10.8 29.9c.3-.2.8-.1 1.1.2.3.3.5.7.6 1.1.4 1 .7 2 1.1 3.1 1.1 2.7 2.9 5.1 5.4 6.6 2.5 1.5 5.6 2 8.3.9 2-.8 3.6-2.3 4.8-4.1s2.1-3.8 2.9-5.7c.2-.5.5-1.1.9-1.5.4-.4 1.1-.6 1.6-.3 0-.3-.2-.6-.4-.9-.1-.1-.1-.2-.3-.2-.1 0-.1 0-.2.1-1.7.8-3.2 2.1-5 2.7-1 .3-2 .5-3 .6-2.1.3-4.1.4-6.2.5h-1.6c-.5-.1-1-.2-1.5-.4-2.5-.8-5-1.5-7.1-3-.2-.4-.6-.6-.9-.6-.3 0-.7.6-.5.9z"></path><radialGradient id="j" cx="26.242" cy="-18.671" r="8.902" gradientTransform="translate(-1.708 53.803) scale(.9806)" gradientUnits="userSpaceOnUse"><stop offset="0" stop-color="#330e10" class="stopColor330e10 svgShape"></stop><stop offset="1" stop-color="#871811" class="stopColor871811 svgShape"></stop></radialGradient><path fill="url(#j)" d="M35 29.9c-.8 4-2.7 7.3-5.4 9.3l-.1.1-.1.1c-1.6 1.2-3.5 1.8-5.4 1.8-2.1 0-4-.7-5.6-2l-.1-.1-.1-.1c-2.5-2-4.4-5.3-5.2-9.1.5.3 1.1.6 1.7.9.9.4 1.8.8 2.7 1 .9.3 1.7.5 2.7.6.9.2 1.8.3 2.7.3h2.6l2.7-.3c.9-.2 1.8-.4 2.6-.6.9-.3 1.8-.6 2.7-1.1.5-.2 1.1-.5 1.6-.8z"></path><path fill="#b15218" d="M10.8 29.9s-.1-.2-.1-.4c0-.3 0-.6.3-.9.1-.1.3-.3.5-.3.2-.1.4-.1.5 0 .1 0 .2.1.3.1.1 0 .1.1.1.1l-.4.2c-.1 0-.2.1-.3.2-.1.1-.2.1-.3.2-.2.2-.3.4-.4.6-.1 0-.2.2-.2.2zm24.6-2s.2-.1.5-.2c.2 0 .4 0 .6.1.2.1.4.2.6.4.2.2.3.4.4.6.1.2.1.4.1.6 0 .2 0 .3-.1.4v.2s0-.1-.1-.1c0-.1-.1-.2-.2-.3-.1-.1-.2-.3-.2-.4-.1-.1-.2-.3-.3-.4-.2-.2-.5-.4-.8-.5-.3-.4-.5-.4-.5-.4z" class="colorB15218 svgShape"></path><linearGradient id="k" x1="14.685" x2="17.632" y1="32.675" y2="32.675" gradientUnits="userSpaceOnUse"><stop offset="0" stop-color="#f7f6f6" class="stopColorf7f6f6 svgShape"></stop><stop offset="1" stop-color="#cfcfce" class="stopColorcfcfce svgShape"></stop></linearGradient><path fill="url(#k)" d="M17.6 34.2c.1.4-.2.5-.5.4-.4-.2-.9-.4-1.3-.7-.3-.2-.7-.6-.7-1-.1-.7-.3-1.4-.4-2.1.9.4 1.8.8 2.7 1 0 .8.1 1.6.2 2.4z"></path><linearGradient id="l" x1="17.374" x2="20.192" y1="33.685" y2="33.685" gradientUnits="userSpaceOnUse"><stop offset="0" stop-color="#f7f6f6" class="stopColorf7f6f6 svgShape"></stop><stop offset="1" stop-color="#cfcfce" class="stopColorcfcfce svgShape"></stop></linearGradient><path fill="url(#l)" d="M20.2 35.1c0 .4-.2.6-.6.5-.4-.1-.9-.3-1.3-.5-.3-.1-.6-.5-.7-.9l-.3-2.4c.9.3 1.7.5 2.7.6.1.9.1 1.8.2 2.7z"></path><linearGradient id="m" x1="20.03" x2="22.744" y1="34.286" y2="34.286" gradientUnits="userSpaceOnUse"><stop offset="0" stop-color="#f7f6f6" class="stopColorf7f6f6 svgShape"></stop><stop offset="1" stop-color="#cfcfce" class="stopColorcfcfce svgShape"></stop></linearGradient><path fill="url(#m)" d="M22.7 35.6c0 .4-.3.6-.6.6-.4-.1-.9-.1-1.3-.2-.3-.1-.6-.4-.7-.8-.1-.9-.1-1.7-.2-2.6.9.2 1.8.3 2.7.3.1.8.1 1.7.1 2.7z"></path><linearGradient id="n" x1="22.694" x2="25.358" y1="34.503" y2="34.503" gradientUnits="userSpaceOnUse"><stop offset="0" stop-color="#f7f6f6" class="stopColorf7f6f6 svgShape"></stop><stop offset="1" stop-color="#cfcfce" class="stopColorcfcfce svgShape"></stop></linearGradient><path fill="url(#n)" d="M25.4 32.8c0 1 0 1.9-.1 2.8 0 .4-.3.7-.6.7h-1.3c-.3 0-.6-.3-.6-.7 0-.9 0-1.8-.1-2.8h2.7z"></path><linearGradient id="o" x1="25.299" x2="28.014" y1="34.286" y2="34.286" gradientUnits="userSpaceOnUse"><stop offset="0" stop-color="#f7f6f6" class="stopColorf7f6f6 svgShape"></stop><stop offset="1" stop-color="#cfcfce" class="stopColorcfcfce svgShape"></stop></linearGradient><path fill="url(#o)" d="M28 32.4c0 .6-.1 1.1-.1 1.6 0 .3 0 .7-.1 1 0 .4-.3.7-.7.8-.4.1-.9.2-1.3.2-.3.1-.6-.2-.6-.6 0-.9 0-1.8.1-2.8 1 .1 1.9 0 2.7-.2z"></path><linearGradient id="p" x1="27.853" x2="30.669" y1="33.685" y2="33.685" gradientUnits="userSpaceOnUse"><stop offset="0" stop-color="#f7f6f6" class="stopColorf7f6f6 svgShape"></stop><stop offset="1" stop-color="#cfcfce" class="stopColorcfcfce svgShape"></stop></linearGradient><path fill="url(#p)" d="M28 32.4c.9-.2 1.8-.4 2.6-.6 0 .2 0 .4-.1.6-.1.6-.1 1.2-.2 1.7 0 .4-.4.8-.7.9-.4.2-.9.3-1.3.5-.3.1-.6-.1-.6-.5 0-.3.1-.7.1-1 0-.3 0-.5.1-.8.1-.2.1-.5.1-.8z"></path><linearGradient id="q" x1="30.413" x2="33.359" y1="32.671" y2="32.671" gradientUnits="userSpaceOnUse"><stop offset="0" stop-color="#f7f6f6" class="stopColorf7f6f6 svgShape"></stop><stop offset="1" stop-color="#cfcfce" class="stopColorcfcfce svgShape"></stop></linearGradient><path fill="url(#q)" d="M33.4 30.7c-.1.7-.2 1.4-.4 2.2-.1.4-.4.8-.7 1-.4.2-.9.5-1.3.7-.3.2-.6 0-.5-.4.1-.6.1-1.1.2-1.7 0-.2 0-.4.1-.6.8-.4 1.7-.7 2.6-1.2z"></path><path fill="#b15218" d="M36.9 28.3c-.3.2-.6.5-1 .7-.7.5-1.5.9-2.4 1.3-.9.4-1.9.8-2.9 1.1-1 .3-2.1.5-3.2.7-1.1.2-2.2.2-3.4.2-1.1 0-2.3-.1-3.4-.2-1.1-.2-2.2-.4-3.2-.7-1-.3-2-.7-2.9-1.1-.9-.4-1.7-.9-2.4-1.3-.2-.1-.4-.3-.6-.4l-.3.3c.2.2.4.3.6.5.7.5 1.5 1 2.4 1.5.9.5 1.9.9 2.9 1.2 1 .4 2.2.6 3.3.8 1.2.2 2.3.3 3.5.3 1.1 0 2.4-.1 3.5-.3 1.1-.2 2.3-.5 3.3-.8 1.1-.3 2-.8 2.9-1.2.9-.5 1.7-1 2.4-1.5.3-.2.6-.5.9-.7.1-.1.1-.2 0-.4z" class="colorB15218 svgShape"></path><path fill="#d5101a" d="m29.5 39.2-.1.1c-1.6 1.2-3.5 1.8-5.4 1.8-2.1 0-4-.7-5.6-2l-.1-.1c1.3-1.7 3.1-2.5 4.5-1.9.5.2.8.5 1.1 1 .2-.2.4-.5.7-.6 1.5-.8 3.5 0 4.9 1.7z" class="colorD5101A svgShape"></path><path fill="#b15218" d="M25.9 37.1c-.5 0-.9.1-1.3.3-.2.1-.4.3-.6.5-.3-.4-.7-.7-1.1-.9-.3-.2-.7-.2-1.1-.2-1.3 0-2.6.8-3.6 2.2l.1.1.1.1c1-1.3 2.2-2.1 3.4-2.1.3 0 .7.1 1 .2.4.2.7.5 1 .9-.6.7-.8 1.8-.8 1.8.3-1 .9-1.7.9-1.7l.1-.1c.2-.3.4-.5.7-.6.4-.2.8-.3 1.2-.3 1.2 0 2.5.8 3.6 2l.1-.1.1-.1c-1.1-1.2-2.5-2-3.8-2z" class="colorB15218 svgShape"></path><ellipse cx="25.4" cy="39" fill="#e41633" rx="1.7" ry="1" transform="rotate(-29.467 25.429 39.037)" class="colorE41633 svgShape"></ellipse><ellipse cx="21.1" cy="38.5" fill="#e41633" rx="1.5" ry=".9" transform="rotate(-29.467 21.121 38.485)" class="colorE41633 svgShape"></ellipse><path fill="#b15218" d="M34.9 29.7c-3.3 1.9-7.1 2.9-10.9 2.9-1.9 0-3.8-.2-5.7-.6-1.8-.5-3.6-1.2-5.3-2.1.1.7.3 1.4.5 2.1.2.7.4 1.4.7 2 .1.3.3.7.5 1 .2.3.3.6.5.9l.6.9c.2.3.4.6.7.8.2.3.5.5.7.8.3.3.5.5.8.7l.9.6c.3.2.6.4.9.5.6.3 1.3.6 2 .8.3.1.7.1 1.1.2.4 0 .7 0 1.1.1.4 0 .7 0 1.1-.1.4-.1.7-.1 1.1-.2.7-.2 1.4-.4 2-.8.3-.2.6-.3.9-.5l.9-.6c.3-.2.6-.4.8-.7.3-.2.5-.5.7-.8.2-.3.5-.5.7-.8l.6-.9.6-.9c.2-.3.3-.6.5-1 .3-.6.6-1.3.8-2l.6-2.1.1-.4-.5.2zm-.6 2.2c-.2.7-.4 1.3-.7 2-.1.3-.3.6-.5.9-.2.3-.3.6-.5.9l-.6.9c-.2.3-.4.6-.7.8-.2.3-.5.5-.7.8-.2.3-.5.5-.8.7l-.9.6c-.3.2-.6.4-.9.5-.6.3-1.3.6-2 .7-.3.1-.7.1-1 .2-.3 0-.7 0-1.1.1-.3 0-.7 0-1-.1-.3-.1-.7-.1-1-.2-.7-.2-1.3-.4-1.9-.8-.3-.2-.6-.3-.9-.5-.3-.2-.6-.4-.8-.6-.3-.2-.5-.4-.8-.7-.3-.2-.5-.5-.7-.8-.2-.3-.5-.5-.7-.8l-.6-.9c-.2-.3-.4-.6-.5-.9-.2-.3-.3-.6-.5-.9-.3-.6-.6-1.3-.8-2-.2-.6-.4-1.3-.6-2 1.6 1 3.4 1.8 5.2 2.3 1.9.5 3.8.8 5.7.8 1.9 0 3.9-.2 5.8-.7 1.7-.5 3.4-1.2 5-2.1-.2.7-.3 1.2-.5 1.8z" class="colorB15218 svgShape"></path><radialGradient id="r" cx="17.711" cy="-37.908" r="14.114" gradientTransform="translate(-1.708 53.803) scale(.9806)" gradientUnits="userSpaceOnUse"><stop offset="0" stop-color="#fbdd49" class="stopColorfbdd49 svgShape"></stop><stop offset=".793" stop-color="#eba503" class="stopColoreba503 svgShape"></stop><stop offset="1" stop-color="#d7840b" class="stopColord7840b svgShape"></stop></radialGradient><path fill="url(#r)" d="M24 16.7v-.2c0-.2-.1-.4-.1-.6v-.2c0-.1-.1-.2-.1-.3 0-.1-.1-.2-.1-.3-.1-.4-.3-.9-.5-1.3-.3-.6-.6-1.2-1.1-1.7-.4-.5-.9-1-1.4-1.4-.5-.4-1.1-.7-1.7-1-.6-.3-1.2-.5-1.9-.6-.6-.1-1.3-.1-2-.1-.7.1-1.4.2-2 .4-2.6.8-4.7 3.1-5.5 5.8-.2.7-.3 1.4-.3 2.1 0 .7 0 1.4.2 2.1.3 1.3.8 2.5 1.6 3.5.4-.1.8-.1 1.3-.1 1.5 0 2.7.5 3.5 1.3 1.1.4 2.1 1.1 2.9 1.9l.1.1h.1c.5-.1 1-.2 1.5-.4s.9-.4 1.4-.6c.4-.3.8-.5 1.2-.9.4-.3.7-.7 1.1-1.1l.9-1.2c.1-.2.2-.4.2-.5.1-.1.1-.2.2-.3.1-.2.2-.3.2-.5.2-.5.3-1 .4-1.5 0-.2 0-.4.1-.5 0-.3.1-.6.1-.9-.3-.4-.3-.7-.3-1z"></path><radialGradient id="s" cx="17.878" cy="-36.598" r="8.395" gradientTransform="translate(-1.708 53.803) scale(.9806)" gradientUnits="userSpaceOnUse"><stop offset="0" stop-color="#fbdd49" class="stopColorfbdd49 svgShape"></stop><stop offset=".793" stop-color="#eba503" class="stopColoreba503 svgShape"></stop><stop offset="1" stop-color="#d7840b" class="stopColord7840b svgShape"></stop></radialGradient><path fill="url(#s)" d="M24 17v-.2c0-.2-.1-.4-.1-.6V16c0-.1-.1-.2-.1-.3 0-.1-.1-.2-.1-.3-.1-.4-.3-.8-.5-1.2-.3-.6-.6-1.1-1.1-1.6-.4-.5-.9-.9-1.4-1.3-.5-.4-1.1-.7-1.7-1-.6-.3-1.2-.4-1.9-.5-.6-.1-1.3-.1-1.9-.1-.7.1-1.3.2-2 .4-2.5.8-4.7 3-5.4 5.6-.2.7-.3 1.3-.3 2s0 1.4.2 2c.3 1.2.8 2.4 1.6 3.3.4-.1.8-.1 1.2-.1 1.5 0 2.6.5 3.4 1.3 1.1.4 2 1 2.8 1.9l.1.1h.1c.5-.1 1-.2 1.4-.4.5-.2.9-.4 1.3-.6.4-.2.8-.5 1.2-.8.4-.3.7-.7 1-1 .3-.4.6-.8.8-1.2.1-.2.2-.3.2-.5.1-.1.1-.2.2-.3.1-.2.2-.3.2-.5.2-.5.3-.9.4-1.4 0-.2 0-.4.1-.5 0-.3.1-.6.1-.9.2-.5.2-.8.2-1.1z"></path><path fill="#722717" d="M23.7 17.6v-.2c0-.2-.1-.4-.1-.6v-.1c0-.1-.1-.2-.1-.3 0-.1 0-.2-.1-.3-.1-.4-.3-.8-.5-1.1-.3-.5-.6-1-1-1.5s-.8-.9-1.3-1.2c-.5-.4-1-.7-1.6-.9-.6-.2-1.2-.4-1.8-.5-.6-.1-1.2-.1-1.8-.1-.6.1-1.2.2-1.8.4-2.4.7-4.4 2.8-5 5.2-.2.6-.3 1.2-.3 1.9 0 .6 0 1.3.2 1.9.2 1.1.8 2.2 1.5 3.1.4-.1.7-.1 1.2-.1 1.4 0 2.4.5 3.2 1.2 1 .4 1.9 1 2.7 1.7l.1.1h.1c.5-.1.9-.2 1.4-.3.4-.2.9-.3 1.3-.6.4-.2.8-.5 1.1-.8.3-.3.7-.6 1-1 .3-.4.6-.7.8-1.1.1-.2.1-.3.2-.5.1-.1.1-.2.1-.3.1-.1.1-.3.2-.4.2-.4.3-.9.4-1.3 0-.2 0-.3.1-.5 0-.3.1-.6.1-.9-.3-.3-.3-.6-.3-.9z" class="color722717 svgShape"></path><radialGradient id="t" cx="18.285" cy="-36.04" r="7.618" gradientTransform="translate(-1.708 53.803) scale(.9806)" gradientUnits="userSpaceOnUse"><stop offset=".618" stop-color="#f2f2f2" class="stopColorf2f2f2 svgShape"></stop><stop offset="1" stop-color="#cbcaca" class="stopColorcbcaca svgShape"></stop></radialGradient><path fill="url(#t)" d="M23.7 18.5c0-4.1-3.4-7.5-7.5-7.5s-7.5 3.4-7.5 7.5c0 1.8.6 3.5 1.7 4.7 1.9 0 4.7.5 6.7 2.7 3.7-.4 6.6-3.6 6.6-7.4z"></path><path fill="#b15218" d="M9.6 7.9s.6-.4 1.5-.7c.5-.2 1.1-.3 1.7-.5.6-.1 1.3-.2 2-.2.3 0 .7.1 1 .1.3 0 .7.2 1 .2.3.1.6.2.9.4.3.2.5.3.7.5.2.2.4.3.5.5.2.1.2.3.3.4.4.3.5.4.5.4s-.2 0-.4-.2c-.1-.1-.3-.2-.4-.3l-.6-.3c-.3 0-.6-.1-.8-.2-.3-.1-.5-.1-.8-.2-.6-.1-1.2-.2-1.8-.2H13c-.6 0-1.2.1-1.7.1-1.1.2-1.7.2-1.7.2z" class="colorB15218 svgShape"></path><radialGradient id="u" cx="-890.129" cy="-430.386" r="5.388" gradientTransform="matrix(.9288 .3146 -.2725 .8045 726.578 645.354)" gradientUnits="userSpaceOnUse"><stop offset="0" stop-color="#67c4d9" class="stopColor67c4d9 svgShape"></stop><stop offset=".793" stop-color="#2c5ca6" class="stopColor2c5ca6 svgShape"></stop><stop offset="1" stop-color="#2a4495" class="stopColor2a4495 svgShape"></stop></radialGradient><path fill="url(#u)" d="M21.4 20.6c-.9 2.7-3.6 4.2-6 3.4s-3.6-3.6-2.7-6.3 3.6-4.2 6-3.4 3.6 3.6 2.7 6.3z"></path><ellipse cx="17.1" cy="19.1" rx="2.5" ry="2.7" transform="rotate(18.71 17.069 19.092)" fill="#000000" class="color000 svgShape"></ellipse><circle cx="16.6" cy="17.8" r=".7" fill="#ffffff" class="colorFFF svgShape"></circle><circle cx="17.1" cy="21" r=".4" fill="#ffffff" class="colorFFF svgShape"></circle><path fill="#8f3b14" d="M8.3 23.1s.7-.3 1.9-.4c.6 0 1.3 0 2 .1.4.1.8.1 1.1.2.4.1.8.2 1.1.4.4.2.7.4 1 .6.3.2.6.5.9.8.3.2.5.6.7.8.2.3.4.6.5.8.3.5.4 1 .5 1.3.1.3.1.5.1.5s-.1-.2-.3-.4c-.1-.1-.2-.3-.3-.5-.1-.2-.3-.4-.5-.6l-.6-.6c-.2-.2-.5-.4-.7-.6-.3-.2-.5-.4-.8-.6-.3-.2-.6-.4-.9-.5-.3-.2-.7-.3-1-.4-.3-.1-.7-.2-1-.3-.7-.2-1.3-.3-1.9-.4-1-.1-1.8-.2-1.8-.2z" class="color8F3B14 svgShape"></path><radialGradient id="v" cx="35.873" cy="-38.63" r="16.918" gradientTransform="translate(-1.708 53.803) scale(.9806)" gradientUnits="userSpaceOnUse"><stop offset="0" stop-color="#fbdd49" class="stopColorfbdd49 svgShape"></stop><stop offset=".793" stop-color="#eba503" class="stopColoreba503 svgShape"></stop><stop offset="1" stop-color="#d7840b" class="stopColord7840b svgShape"></stop></radialGradient><path fill="url(#v)" d="M25 16.4v-.2c0-.2.1-.4.1-.7v-.2c0-.1.1-.2.1-.3 0-.1.1-.2.1-.3.1-.4.3-.9.5-1.3.3-.6.7-1.2 1.1-1.7.4-.5.9-1 1.5-1.4.5-.4 1.1-.8 1.7-1 .6-.3 1.3-.5 2-.6.7-.1 1.4-.1 2-.1.7.1 1.4.2 2 .4 2.6.8 4.9 3.2 5.6 6 .2.7.3 1.4.3 2.2 0 .7 0 1.5-.2 2.2-.3 1.3-.8 2.5-1.6 3.6-.4-.1-.8-.1-1.3-.1-1.5 0-2.7.5-3.6 1.4-1.1.4-2.1 1.1-3 2l-.1.1h-.1c-.5-.1-1-.2-1.5-.4s-1-.4-1.4-.6c-.4-.3-.9-.6-1.3-.9-.4-.3-.8-.7-1.1-1.1-.3-.4-.6-.8-.9-1.3l-.3-.6c-.1-.1-.1-.2-.2-.4s-.2-.3-.2-.5c-.2-.5-.3-1-.4-1.5 0-.2 0-.4-.1-.6 0-.3-.1-.6-.1-1 .4-.5.4-.8.4-1.1z"></path><radialGradient id="w" cx="35.777" cy="-36.924" r="8.66" gradientTransform="translate(-1.708 53.803) scale(.9806)" gradientUnits="userSpaceOnUse"><stop offset="0" stop-color="#fbdd49" class="stopColorfbdd49 svgShape"></stop><stop offset=".793" stop-color="#eba503" class="stopColoreba503 svgShape"></stop><stop offset="1" stop-color="#d7840b" class="stopColord7840b svgShape"></stop></radialGradient><path fill="url(#w)" d="M25 16.7v-.2c0-.2.1-.4.1-.6v-.2c0-.1.1-.2.1-.3 0-.1.1-.2.1-.3.1-.4.3-.9.5-1.3.3-.6.6-1.2 1.1-1.7.4-.5.9-1 1.4-1.4.5-.4 1.1-.7 1.7-1 .6-.3 1.3-.5 1.9-.6.7-.1 1.4-.1 2.1-.1.7.1 1.4.2 2 .4 2.6.8 4.8 3.1 5.5 5.8.2.7.3 1.4.3 2.1 0 .7 0 1.4-.2 2.1-.3 1.3-.8 2.5-1.6 3.5-.4-.1-.8-.1-1.3-.1-1.5 0-2.7.5-3.5 1.3-1.1.4-2.1 1.1-2.9 1.9l-.1.1h-.1c-.5-.1-1-.2-1.5-.4s-.9-.4-1.4-.6c-.4-.3-.8-.5-1.2-.9-.4-.3-.7-.7-1.1-1.1l-.9-1.2c-.1-.2-.2-.4-.2-.5-.1-.1-.1-.2-.2-.3-.1-.2-.2-.3-.2-.5-.2-.5-.3-1-.4-1.5 0-.2 0-.4-.1-.5 0-.3-.1-.6-.1-.9.2-.4.2-.7.2-1z"></path><path fill="#722717" d="M25.5 17.6v-.2c0-.2.1-.4.1-.6v-.1c0-.1.1-.2.1-.3 0-.1 0-.2.1-.3.1-.4.3-.8.5-1.1.3-.5.6-1 1-1.5s.8-.9 1.3-1.2c.5-.4 1-.7 1.6-.9.6-.2 1.2-.4 1.8-.5.6-.1 1.2-.1 1.8-.1.6.1 1.2.2 1.8.4 2.4.7 4.4 2.8 5 5.2.2.6.3 1.2.3 1.9 0 .6 0 1.3-.2 1.9-.2 1.1-.8 2.2-1.5 3.1-.4-.1-.7-.1-1.2-.1-1.4 0-2.4.5-3.2 1.2-1 .4-1.9 1-2.7 1.7l-.1.1h-.1c-.5-.1-.9-.2-1.4-.3-.4-.2-.9-.3-1.3-.6-.4-.2-.8-.5-1.1-.8-.3-.3-.7-.6-1-1-.3-.4-.6-.7-.8-1.1-.1-.2-.1-.3-.2-.5-.1-.1-.1-.2-.1-.3-.1-.1-.1-.3-.2-.4-.2-.4-.3-.9-.4-1.3 0-.2 0-.3-.1-.5 0-.3-.1-.6-.1-.9.2-.3.2-.6.3-.9z" class="color722717 svgShape"></path><radialGradient id="x" cx="-194.364" cy="-36.04" r="7.618" gradientTransform="matrix(-.9806 0 0 .9806 -157.716 53.803)" gradientUnits="userSpaceOnUse"><stop offset=".618" stop-color="#f2f2f2" class="stopColorf2f2f2 svgShape"></stop><stop offset="1" stop-color="#cbcaca" class="stopColorcbcaca svgShape"></stop></radialGradient><path fill="url(#x)" d="M25.4 18.5c0-4.1 3.4-7.5 7.5-7.5s7.5 3.4 7.5 7.5c0 1.8-.6 3.5-1.7 4.7-1.9 0-4.7.5-6.7 2.7-3.7-.4-6.6-3.6-6.6-7.4z"></path><path fill="#b15218" d="M39.6 7.9s-.6-.4-1.5-.7c-.5-.2-1.1-.3-1.7-.5-.6-.1-1.3-.2-2-.2-.3 0-.7.1-1 .1-.3 0-.7.2-1 .2-.3.1-.6.2-.9.4-.3.2-.5.3-.7.5-.2.2-.4.3-.5.5-.2.1-.2.3-.3.4-.5.3-.6.4-.6.4s.1-.1.4-.2c.1-.1.3-.2.4-.3l.6-.3c.2-.1.5-.1.7-.2.3-.1.5-.1.8-.2.6-.1 1.2-.2 1.8-.2H36c.6 0 1.2.1 1.7.1 1.2.2 1.9.2 1.9.2z" class="colorB15218 svgShape"></path><radialGradient id="y" cx="-1091.54" cy="-351.632" r="5.388" gradientTransform="matrix(-.9288 .3146 .2725 .8045 -886.002 645.354)" gradientUnits="userSpaceOnUse"><stop offset="0" stop-color="#67c4d9" class="stopColor67c4d9 svgShape"></stop><stop offset=".793" stop-color="#2c5ca6" class="stopColor2c5ca6 svgShape"></stop><stop offset="1" stop-color="#2a4495" class="stopColor2a4495 svgShape"></stop></radialGradient><path fill="url(#y)" d="M27.7 20.6c.9 2.7 3.6 4.2 6 3.4s3.6-3.6 2.7-6.3-3.6-4.2-6-3.4-3.6 3.6-2.7 6.3z"></path><ellipse cx="32" cy="19.1" rx="2.5" ry="2.7" transform="rotate(161.29 32.036 19.092)" fill="#000000" class="color000 svgShape"></ellipse><circle cx="31.7" cy="17.8" r=".7" fill="#ffffff" class="colorFFF svgShape"></circle><circle cx="32.1" cy="21" r=".4" fill="#ffffff" class="colorFFF svgShape"></circle><path fill="#8f3b14" d="M41.7 23.2s-.7-.4-1.9-.5c-.6-.1-1.3-.1-2-.1-.4 0-.8.1-1.2.2l-1.2.3c-.4.2-.8.3-1.1.5-.4.2-.7.4-1 .7-.3.2-.6.5-.8.8-.2.2-.4.5-.6.8-.3.5-.5 1-.6 1.3-.1.3-.2.5-.2.5l.4-.4c.1-.1.2-.3.4-.5.1-.2.4-.3.5-.5.2-.2.4-.4.7-.6.2-.2.5-.4.8-.6.3-.2.6-.4.9-.5.3-.2.6-.3 1-.4.3-.2.7-.2 1-.3.4-.1.7-.2 1-.2.7-.1 1.3-.2 1.9-.3 1.3-.2 2-.2 2-.2z" class="color8F3B14 svgShape"></path><radialGradient id="z" cx="15.882" cy="-24.046" r="5.707" gradientTransform="translate(-1.708 53.803) scale(.9806)" gradientUnits="userSpaceOnUse"><stop offset="0" stop-color="#fbdd49" class="stopColorfbdd49 svgShape"></stop><stop offset=".793" stop-color="#eba503" class="stopColoreba503 svgShape"></stop><stop offset="1" stop-color="#d7840b" class="stopColord7840b svgShape"></stop></radialGradient><path fill="url(#z)" d="M11.2 38.5c-.3 2-.3 3.5-.2 4.5-2.7-1.9-5.1-4.3-6.8-7.2l5-9.9s2.9 6.6 2 12.6z" opacity=".5"></path><radialGradient id="A" cx="6.948" cy="-18.646" r="5.732" gradientTransform="matrix(.5017 -.8426 .6183 .3681 13.15 48.236)" gradientUnits="userSpaceOnUse"><stop offset="0" stop-color="#f2f2f2" class="stopColorf2f2f2 svgShape"></stop><stop offset="1" stop-color="#5b9dd5" class="stopColor5b9dd5 svgShape"></stop></radialGradient><path fill="url(#A)" d="M10.2 38.5c-.5 1.5-1.7 2.6-3.1 3.1-1 .4-2.1.4-3.2 0-2.6-.9-4-3.7-3.1-6.3.1-.4.4-.9.9-1.5 2.2-3.1 7.6-7.9 7.6-7.9s1.8 10 .9 12.6z"></path><radialGradient id="B" cx="6.157" cy="-28.771" r="2.944" gradientTransform="matrix(.5017 -.8426 .6183 .3681 19.03 41.368)" gradientUnits="userSpaceOnUse"><stop offset="0" stop-color="#fbdd49" class="stopColorfbdd49 svgShape"></stop><stop offset=".793" stop-color="#eba503" class="stopColoreba503 svgShape"></stop><stop offset="1" stop-color="#d7840b" class="stopColord7840b svgShape"></stop></radialGradient><path fill="url(#B)" d="M7.4 21.1s0 3.2-.8 5.5c-.7 2-2.3 2.3-3.6 1.8-1.8-.8-1.3-3.1-1.3-3.1l5.7-4.2z"></path><radialGradient id="C" cx="-939.769" cy="94.552" r="2.65" gradientTransform="matrix(.7571 -.6232 .4573 .5556 672.406 -613.577)" gradientUnits="userSpaceOnUse"><stop offset="0" stop-color="#f2f2f2" class="stopColorf2f2f2 svgShape"></stop><stop offset="1" stop-color="#5b9dd5" class="stopColor5b9dd5 svgShape"></stop></radialGradient><path fill="url(#C)" d="M5.9 26.7c-.5.6-1.1.9-1.8.9-.5 0-1-.2-1.4-.5-1-.8-1.2-2.2-.4-3.2.1-.2.3-.3.6-.5 1.4-1 4.5-2.2 4.5-2.2s-.7 4.5-1.5 5.5z"></path><radialGradient id="D" cx="48.88" cy="-24.046" r="5.706" gradientTransform="translate(-1.708 53.803) scale(.9806)" gradientUnits="userSpaceOnUse"><stop offset="0" stop-color="#fbdd49" class="stopColorfbdd49 svgShape"></stop><stop offset=".793" stop-color="#eba503" class="stopColoreba503 svgShape"></stop><stop offset="1" stop-color="#d7840b" class="stopColord7840b svgShape"></stop></radialGradient><path fill="url(#D)" d="M43.8 35.8c-1.7 2.9-4 5.3-6.8 7.2.1-1.1.1-2.5-.2-4.5-.8-6 2-12.5 2-12.5l5 9.8z" opacity=".5"></path><radialGradient id="E" cx="-259.772" cy="-18.646" r="5.732" gradientTransform="matrix(-.5017 -.8426 -.6183 .3681 -98.955 -176.503)" gradientUnits="userSpaceOnUse"><stop offset="0" stop-color="#f2f2f2" class="stopColorf2f2f2 svgShape"></stop><stop offset="1" stop-color="#5b9dd5" class="stopColor5b9dd5 svgShape"></stop></radialGradient><path fill="url(#E)" d="M37.8 38.5c.5 1.5 1.7 2.6 3.1 3.1 1 .4 2.1.4 3.2 0 2.6-.9 4-3.7 3.1-6.3-.1-.4-.4-.9-.9-1.5-2.2-3.1-7.6-7.9-7.6-7.9s-1.8 10-.9 12.6z"></path><radialGradient id="F" cx="-260.563" cy="-28.771" r="2.944" gradientTransform="matrix(-.5017 -.8426 -.6183 .3681 -104.836 -183.372)" gradientUnits="userSpaceOnUse"><stop offset="0" stop-color="#fbdd49" class="stopColorfbdd49 svgShape"></stop><stop offset=".793" stop-color="#eba503" class="stopColoreba503 svgShape"></stop><stop offset="1" stop-color="#d7840b" class="stopColord7840b svgShape"></stop></radialGradient><path fill="url(#F)" d="M40.6 21.1s0 3.2.8 5.5c.7 2 2.3 2.3 3.6 1.8 1.8-.8 1.3-3.1 1.3-3.1l-5.7-4.2z"></path><radialGradient id="G" cx="-1190.768" cy="184.772" r="2.65" gradientTransform="matrix(-.7571 -.6232 -.4573 .5556 -773.19 -820.128)" gradientUnits="userSpaceOnUse"><stop offset="0" stop-color="#f2f2f2" class="stopColorf2f2f2 svgShape"></stop><stop offset="1" stop-color="#5b9dd5" class="stopColor5b9dd5 svgShape"></stop></radialGradient><path fill="url(#G)" d="M42.1 26.7c.5.6 1.1.9 1.8.9.5 0 1-.2 1.4-.5 1-.8 1.2-2.2.4-3.2-.1-.2-.3-.3-.6-.5-1.4-1-4.5-2.2-4.5-2.2s.7 4.5 1.5 5.5z"></path></svg>