<svg xmlns="http://www.w3.org/2000/svg" enable-background="new 0 0 48 48" viewBox="0 0 48 48" width="256" height="256"><path fill="#b15218" d="M24,47.5C37,47.5,47.5,37,47.5,24S37,0.5,24,0.5S0.5,11,0.5,24S11,47.5,24,47.5z" class="colorB15218 svgShape"></path><radialGradient id="a" cx="24" cy="24" r="23.01" gradientUnits="userSpaceOnUse"><stop offset="0" stop-color="#fbdd49" class="stopColorfbdd49 svgShape"></stop><stop offset=".793" stop-color="#eba503" class="stopColoreba503 svgShape"></stop><stop offset="1" stop-color="#d7840b" class="stopColord7840b svgShape"></stop></radialGradient><circle cx="24" cy="24" r="23" fill="url(#a)"></circle><linearGradient id="b" x1="-50.139" x2="-50.233" y1="-33.216" y2="-5.389" gradientTransform="matrix(1.1 .004 -.00364 1 79.205 29.286)" gradientUnits="userSpaceOnUse"><stop offset="0" stop-color="#ffebb5" class="stopColorffebb5 svgShape"></stop><stop offset="1" stop-color="#fdf6be" stop-opacity="0" class="stopColorfdf6be svgShape"></stop></linearGradient><path fill="url(#b)" d="M43.7,19.3c0,8.9-8.9,16.1-19.8,16.1c-10.9,0-19.7-7.3-19.7-16.2
		c0-8.9,8.9-16.1,19.8-16.1C34.9,3.2,43.7,10.4,43.7,19.3z" opacity=".7"></path><radialGradient id="c" cx="-811.277" cy="6558.53" r="6.788" gradientTransform="matrix(-1.0956 .00729 -.01865 -1.0038 -741.971 6598.235)" gradientUnits="userSpaceOnUse"><stop offset="0" stop-color="#ffebb5" class="stopColorffebb5 svgShape"></stop><stop offset="1" stop-color="#fdf6be" stop-opacity="0" class="stopColorfdf6be svgShape"></stop></radialGradient><path fill="url(#c)" d="M16.7,8.8c-0.1-3.6,3.4-6.5,7.7-6.5c4.3,0,7.9,2.8,7.9,6.4s-3.4,6.5-7.7,6.5
		S16.8,12.3,16.7,8.8z" opacity=".7"></path><radialGradient id="d" cx="-798.762" cy="6539.126" r="6.788" gradientTransform="matrix(-1.0956 .00729 -.01865 -1.0038 -741.971 6598.235)" gradientUnits="userSpaceOnUse"><stop offset="0" stop-color="#ffebb5" class="stopColorffebb5 svgShape"></stop><stop offset="1" stop-color="#fdf6be" stop-opacity="0" class="stopColorfdf6be svgShape"></stop></radialGradient><path fill="url(#d)" d="M3.4,28.4c-0.1-3.6,3.4-6.5,7.7-6.5c4.3,0,7.9,2.8,7.9,6.4s-3.4,6.5-7.7,6.5
		S3.4,31.9,3.4,28.4z" opacity=".7"></path><radialGradient id="e" cx="-823.895" cy="6537.823" r="6.788" gradientTransform="matrix(-1.0956 .00729 -.01865 -1.0038 -741.971 6598.235)" gradientUnits="userSpaceOnUse"><stop offset="0" stop-color="#ffebb5" class="stopColorffebb5 svgShape"></stop><stop offset="1" stop-color="#fdf6be" stop-opacity="0" class="stopColorfdf6be svgShape"></stop></radialGradient><path fill="url(#e)" d="M30.9,29.5c-0.1-3.6,3.4-6.5,7.7-6.5s7.9,2.8,7.9,6.4c0.1,3.6-3.4,6.5-7.7,6.5
		S31,33,30.9,29.5z" opacity=".7"></path><radialGradient id="f" cx="13.836" cy="16.206" r="15.79" gradientUnits="userSpaceOnUse"><stop offset="0" stop-color="#fbdd49" class="stopColorfbdd49 svgShape"></stop><stop offset=".793" stop-color="#eba503" class="stopColoreba503 svgShape"></stop><stop offset="1" stop-color="#d7840b" class="stopColord7840b svgShape"></stop></radialGradient><path fill="url(#f)" d="M22.7,19.3L22.7,19.3L22.7,19.3L22.7,19.3L22.7,19.3c0,0,0-0.2,0-0.5c0-0.1,0-0.1,0-0.2
		c0-0.1,0-0.1,0-0.2c0-0.3-0.1-0.6-0.1-1c-0.1-0.6-0.3-1.3-0.6-2.1c-0.3-0.8-0.8-1.6-1.4-2.4c-0.7-0.8-1.6-1.5-2.9-1.8
		c-1.2-0.3-2.6,0-3.8,0.7c-1.2,0.8-2,1.9-2.6,3.2c-0.3,0.6-0.5,1.3-0.6,2c-0.2,0.7-0.2,1.4-0.2,2.1c0,1.5,0.3,2.9,0.9,4.2
		c0.6,1.3,1.5,2.4,2.6,3.2c0.6,0.4,1.2,0.6,1.9,0.8c0.3,0.1,0.7,0.1,1,0.1c0.3,0,0.6,0,1-0.1c1.2-0.3,2.2-1,2.9-1.8
		c0.7-0.8,1.1-1.6,1.4-2.4c0.3-0.8,0.5-1.5,0.6-2.1c0.1-0.4,0.1-0.7,0.1-1c0-0.1,0-0.1,0-0.2c0-0.1,0-0.1,0-0.2
		C22.7,19.5,22.7,19.3,22.7,19.3L22.7,19.3L22.7,19.3z"></path><radialGradient id="g" cx="3.499" cy="19.538" r="6.997" gradientTransform="matrix(1.0236 0 0 1 13.112 0)" gradientUnits="userSpaceOnUse"><stop offset="0" stop-color="#fbdd49" class="stopColorfbdd49 svgShape"></stop><stop offset=".793" stop-color="#eba503" class="stopColoreba503 svgShape"></stop><stop offset="1" stop-color="#d7840b" class="stopColord7840b svgShape"></stop></radialGradient><path fill="url(#g)" d="M22.7,19.5L22.7,19.5L22.7,19.5L22.7,19.5L22.7,19.5c0,0,0-0.2,0-0.5c0,0,0-0.1,0-0.2
		c0-0.1,0-0.1,0-0.2c0-0.3-0.1-0.6-0.1-1c-0.1-0.6-0.3-1.3-0.6-2c-0.3-0.8-0.7-1.6-1.4-2.3c-0.7-0.8-1.6-1.5-2.8-1.7
		c-1.2-0.3-2.6,0-3.7,0.7c-1.1,0.7-2,1.9-2.6,3.1c-0.3,0.6-0.5,1.3-0.6,2c-0.2,0.7-0.2,1.4-0.2,2c0,1.4,0.3,2.8,0.9,4.1
		c0.6,1.3,1.4,2.4,2.6,3.1c0.6,0.4,1.2,0.6,1.8,0.7c0.3,0.1,0.6,0.1,0.9,0.1c0.3,0,0.6,0,0.9-0.1c1.2-0.3,2.1-1,2.8-1.7
		c0.7-0.8,1.1-1.6,1.4-2.3c0.3-0.8,0.5-1.4,0.6-2c0.1-0.4,0.1-0.7,0.1-1c0-0.1,0-0.1,0-0.2c0-0.1,0-0.1,0-0.2
		C22.7,19.7,22.7,19.5,22.7,19.5L22.7,19.5L22.7,19.5z"></path><path fill="#722717" d="M22.4,20L22.4,20L22.4,20L22.4,20L22.4,20c0,0,0-0.2,0-0.4c0,0,0-0.1,0-0.2c0-0.1,0-0.1,0-0.2
		c0-0.3,0-0.5-0.1-0.9c-0.1-0.5-0.3-1.2-0.5-1.9c-0.3-0.7-0.7-1.5-1.3-2.2c-0.6-0.7-1.5-1.4-2.6-1.6c-1.1-0.3-2.4,0-3.4,0.7
		c-1.1,0.7-1.9,1.8-2.4,2.9c-0.3,0.6-0.5,1.2-0.6,1.9c-0.1,0.6-0.2,1.3-0.2,1.9c0,1.3,0.2,2.6,0.8,3.8c0.5,1.2,1.3,2.2,2.4,2.9
		c0.5,0.4,1.1,0.6,1.7,0.7c0.3,0.1,0.6,0.1,0.9,0.1c0.3,0,0.6,0,0.9-0.1c1.1-0.2,2-0.9,2.6-1.6c0.6-0.7,1-1.5,1.3-2.2
		c0.3-0.7,0.4-1.4,0.5-1.9c0.1-0.4,0.1-0.7,0.1-0.9c0-0.1,0-0.1,0-0.2c0-0.1,0-0.1,0-0.2C22.4,20.1,22.4,20,22.4,20L22.4,20L22.4,20
		z" class="color722717 svgShape"></path><radialGradient id="h" cx="17.064" cy="19.964" r="6.392" gradientUnits="userSpaceOnUse"><stop offset=".618" stop-color="#f2f2f2" class="stopColorf2f2f2 svgShape"></stop><stop offset="1" stop-color="#cbcaca" class="stopColorcbcaca svgShape"></stop></radialGradient><ellipse cx="17.1" cy="20" fill="url(#h)" rx="5.3" ry="7.3"></ellipse><path fill="#b15218" d="M10,12.7c0,0,0.1-0.6,0.6-1.4c0.2-0.4,0.5-0.8,1-1.2c0.4-0.4,0.9-0.8,1.5-1c0.3-0.1,0.6-0.2,0.9-0.2
		c0.3-0.1,0.6,0,0.9,0c0.3,0,0.6,0.1,0.8,0.2C16,9,16.2,9.1,16.4,9.3c0.2,0.1,0.4,0.2,0.5,0.3c0.1,0.1,0.3,0.2,0.3,0.3
		c0.2,0.2,0.3,0.3,0.3,0.3s-0.2,0-0.4-0.1c-0.1,0-0.3-0.1-0.4-0.1c-0.2-0.1-0.4-0.1-0.6-0.1c-0.2,0-0.4-0.1-0.6-0.1
		c-0.2,0-0.5-0.1-0.7,0c-0.2,0-0.5,0-0.7,0.1c-0.2,0-0.5,0.1-0.7,0.2c-0.9,0.4-1.8,1.1-2.4,1.7C10.4,12.2,10,12.7,10,12.7z" class="colorB15218 svgShape"></path><radialGradient id="i" cx="-233.778" cy="-500.455" r="4.408" gradientTransform="matrix(.996 .08958 -.07758 .8627 211.33 474.588)" gradientUnits="userSpaceOnUse"><stop offset="0" stop-color="#67c4d9" class="stopColor67c4d9 svgShape"></stop><stop offset=".793" stop-color="#2c5ca6" class="stopColor2c5ca6 svgShape"></stop><stop offset="1" stop-color="#2a4495" class="stopColor2a4495 svgShape"></stop></radialGradient><path fill="url(#i)" d="M21.1,22.3c-0.2,2.3-2.1,4.1-4.2,3.9c-2.1-0.2-3.6-2.2-3.4-4.6c0.2-2.3,2.1-4.1,4.2-3.9
			C19.8,17.9,21.3,19.9,21.1,22.3z"></path><ellipse cx="17.3" cy="21.9" rx="2" ry="2.3" transform="rotate(5.139 17.315 21.92) scale(1.00002)" fill="#000000" class="color000 svgShape"></ellipse><circle cx="16.7" cy="20.9" r=".6" fill="#ffffff" class="colorFFF svgShape"></circle><circle cx="17.7" cy="23.5" r=".3" fill="#ffffff" class="colorFFF svgShape"></circle><linearGradient id="j" x1="7.676" x2="42.034" y1="182.129" y2="182.129" gradientTransform="matrix(1 0 0 1.0569 0 -156.424)" gradientUnits="userSpaceOnUse"><stop offset="0" stop-color="#ffebb5" class="stopColorffebb5 svgShape"></stop><stop offset="1" stop-color="#fdf6be" stop-opacity="0" class="stopColorfdf6be svgShape"></stop></linearGradient><path fill="url(#j)" d="M7.8,28.4c0.4-0.3,1.1-0.1,1.5,0.2C9.6,29,9.8,29.5,10,30c0.5,1.4,0.9,2.8,1.4,4.1
		c1.4,3.6,3.7,6.9,6.9,8.9s7.2,2.6,10.6,1.2c2.6-1.1,4.6-3.2,6.2-5.5c1.6-2.4,2.6-5.1,3.7-7.8c0.3-0.7,0.6-1.5,1.1-2.1
		c0.6-0.5,1.4-0.8,2.1-0.4c0-0.5-0.3-0.8-0.5-1.2c-0.1-0.1-0.2-0.3-0.3-0.3c-0.1,0-0.2,0-0.3,0.1c-2.2,1.1-4.1,2.8-6.4,3.7
		c-1.2,0.5-2.5,0.7-3.9,0.8c-2.6,0.3-5.3,0.6-7.9,0.7c-0.7,0-1.4,0.1-2.1,0c-0.6-0.1-1.3-0.3-1.9-0.5c-3.2-1-6.4-2.1-9.1-4.1
		c-0.4-0.3-0.8-0.6-1.2-0.5C8,27.2,7.5,28,7.8,28.4z" opacity=".7"></path><radialGradient id="k" cx="24.487" cy="28.201" r="3.614" gradientUnits="userSpaceOnUse"><stop offset="0" stop-color="#fbdd49" class="stopColorfbdd49 svgShape"></stop><stop offset=".793" stop-color="#eba503" class="stopColoreba503 svgShape"></stop><stop offset="1" stop-color="#d7840b" class="stopColord7840b svgShape"></stop></radialGradient><path fill="url(#k)" d="M7.8,28.3c0.4-0.3,1.1-0.1,1.5,0.2c0.4,0.4,0.6,0.9,0.8,1.4c0.5,1.3,0.9,2.6,1.4,3.9
		c1.4,3.4,3.7,6.6,6.9,8.5s7.2,2.5,10.6,1.1c2.6-1,4.6-3,6.2-5.2c1.6-2.3,2.6-4.8,3.7-7.3c0.3-0.7,0.6-1.4,1.1-1.9
		c0.6-0.5,1.4-0.8,2.1-0.4c0-0.4-0.3-0.8-0.5-1.2c-0.1-0.1-0.2-0.3-0.3-0.3c-0.1,0-0.2,0-0.3,0.1c-2.2,1-4.1,2.7-6.4,3.5
		c-1.2,0.4-2.5,0.6-3.9,0.8c-2.6,0.3-5.3,0.5-7.9,0.7c-0.7,0-1.4,0.1-2.1,0c-0.6-0.1-1.3-0.3-1.9-0.5c-3.2-1-6.4-2-9.1-3.9
		c-0.4-0.3-0.8-0.5-1.2-0.5C8,27.2,7.5,28,7.8,28.3z"></path><radialGradient id="l" cx="24.687" cy="35.491" r="11.168" gradientUnits="userSpaceOnUse"><stop offset="0" stop-color="#330e10" class="stopColor330e10 svgShape"></stop><stop offset="1" stop-color="#871811" class="stopColor871811 svgShape"></stop></radialGradient><path fill="url(#l)" d="M38.7,28.3c-1,5.1-3.5,9.3-6.9,11.9c0,0-0.1,0.1-0.1,0.1c0,0-0.1,0.1-0.1,0.1
		c-2.1,1.5-4.4,2.3-6.9,2.3c-2.6,0-5.1-0.9-7.2-2.5c0,0-0.1-0.1-0.1-0.1c0,0-0.1-0.1-0.1-0.1c-3.2-2.6-5.6-6.7-6.6-11.6
		c0.7,0.4,1.4,0.8,2.1,1.1c1.1,0.5,2.3,1,3.4,1.3c1.1,0.3,2.2,0.6,3.4,0.8c1.1,0.2,2.3,0.3,3.4,0.4c0.6,0,1.1,0.1,1.7,0.1
		c0.6,0,1.1,0,1.7-0.1c1.2-0.1,2.3-0.2,3.4-0.4c0,0,0,0,0,0c1.2-0.2,2.3-0.5,3.4-0.8c1.2-0.4,2.3-0.8,3.4-1.4
		C37.4,29.1,38.1,28.7,38.7,28.3z"></path><linearGradient id="m" x1="12.737" x2="16.508" y1="31.886" y2="31.886" gradientUnits="userSpaceOnUse"><stop offset="0" stop-color="#f7f6f6" class="stopColorf7f6f6 svgShape"></stop><stop offset="1" stop-color="#cfcfce" class="stopColorcfcfce svgShape"></stop></linearGradient><path fill="url(#m)" d="M16.5,33.8c0.1,0.5-0.2,0.7-0.7,0.5c-0.6-0.3-1.1-0.6-1.7-0.9c-0.4-0.2-0.9-0.8-0.9-1.2
		c-0.2-0.9-0.3-1.8-0.5-2.7c1.1,0.5,2.3,1,3.4,1.3C16.3,31.8,16.4,32.8,16.5,33.8z"></path><linearGradient id="n" x1="16.177" x2="19.782" y1="33.178" y2="33.178" gradientUnits="userSpaceOnUse"><stop offset="0" stop-color="#f7f6f6" class="stopColorf7f6f6 svgShape"></stop><stop offset="1" stop-color="#cfcfce" class="stopColorcfcfce svgShape"></stop></linearGradient><path fill="url(#n)" d="M19.8,35c0,0.5-0.3,0.7-0.7,0.6c-0.6-0.2-1.1-0.4-1.7-0.6c-0.4-0.2-0.8-0.7-0.9-1.2
		c-0.1-1-0.2-2-0.3-3c1.1,0.3,2.2,0.6,3.4,0.8C19.6,32.7,19.7,33.9,19.8,35z"></path><linearGradient id="o" x1="19.575" x2="23.047" y1="33.947" y2="33.947" gradientUnits="userSpaceOnUse"><stop offset="0" stop-color="#f7f6f6" class="stopColorf7f6f6 svgShape"></stop><stop offset="1" stop-color="#cfcfce" class="stopColorcfcfce svgShape"></stop></linearGradient><path fill="url(#o)" d="M23,35.6L23,35.6c0,0.5-0.3,0.8-0.8,0.7c-0.6-0.1-1.1-0.2-1.7-0.3c-0.4-0.1-0.8-0.6-0.8-1
		c-0.1-1.1-0.1-2.2-0.2-3.4c1.1,0.2,2.3,0.3,3.4,0.4C23,33.2,23,34.4,23,35.6z"></path><linearGradient id="p" x1="22.983" x2="26.391" y1="34.224" y2="34.224" gradientUnits="userSpaceOnUse"><stop offset="0" stop-color="#f7f6f6" class="stopColorf7f6f6 svgShape"></stop><stop offset="1" stop-color="#cfcfce" class="stopColorcfcfce svgShape"></stop></linearGradient><path fill="url(#p)" d="M26.4,32c0,1.2,0,2.4-0.1,3.6c0,0,0,0,0,0c0,0.5-0.4,0.8-0.8,0.9c-0.6,0-1.1,0-1.7,0
		c-0.4,0-0.8-0.4-0.8-0.8v0c0-1.2,0-2.3-0.1-3.6c0.6,0,1.1,0.1,1.7,0.1C25.3,32,25.8,32,26.4,32z"></path><linearGradient id="q" x1="26.316" x2="29.789" y1="33.946" y2="33.946" gradientUnits="userSpaceOnUse"><stop offset="0" stop-color="#f7f6f6" class="stopColorf7f6f6 svgShape"></stop><stop offset="1" stop-color="#cfcfce" class="stopColorcfcfce svgShape"></stop></linearGradient><path fill="url(#q)" d="M29.8,31.6c0,0.7-0.1,1.4-0.1,2.1c0,0.4-0.1,0.9-0.1,1.3c0,0.5-0.4,0.9-0.8,1
		c-0.6,0.1-1.1,0.2-1.7,0.3c-0.4,0.1-0.8-0.3-0.8-0.7c0,0,0,0,0,0c0-1.2,0.1-2.3,0.1-3.6C27.5,31.9,28.7,31.8,29.8,31.6z"></path><linearGradient id="r" x1="29.583" x2="33.186" y1="33.178" y2="33.178" gradientUnits="userSpaceOnUse"><stop offset="0" stop-color="#f7f6f6" class="stopColorf7f6f6 svgShape"></stop><stop offset="1" stop-color="#cfcfce" class="stopColorcfcfce svgShape"></stop></linearGradient><path fill="url(#r)" d="M29.8,31.6c1.2-0.2,2.3-0.5,3.4-0.8c0,0.3,0,0.5-0.1,0.8c-0.1,0.8-0.2,1.5-0.2,2.2
		c-0.1,0.5-0.5,1-0.9,1.2c-0.6,0.2-1.1,0.4-1.7,0.6c-0.4,0.1-0.8-0.1-0.7-0.6c0-0.4,0.1-0.8,0.1-1.3c0-0.3,0-0.7,0.1-1
		C29.8,32.3,29.8,31.9,29.8,31.6z"></path><linearGradient id="s" x1="32.858" x2="36.626" y1="31.88" y2="31.88" gradientUnits="userSpaceOnUse"><stop offset="0" stop-color="#f7f6f6" class="stopColorf7f6f6 svgShape"></stop><stop offset="1" stop-color="#cfcfce" class="stopColorcfcfce svgShape"></stop></linearGradient><path fill="url(#s)" d="M36.6,29.4c-0.1,0.9-0.3,1.8-0.5,2.8c-0.1,0.5-0.5,1-0.9,1.2c-0.6,0.3-1.1,0.6-1.7,0.9
		c-0.4,0.2-0.7,0-0.7-0.5c0.1-0.7,0.2-1.5,0.2-2.2c0-0.3,0.1-0.5,0.1-0.8C34.4,30.4,35.5,29.9,36.6,29.4z"></path><path fill="#d5101a" d="M31.7,40.3c0,0-0.1,0.1-0.1,0.1c-2.1,1.5-4.4,2.3-6.9,2.3c-2.6,0-5.1-0.9-7.2-2.5c0,0-0.1-0.1-0.1-0.1
		c1.7-2.2,4-3.2,5.8-2.5c0.6,0.3,1.1,0.7,1.4,1.2c0.3-0.3,0.5-0.6,0.9-0.8C27.3,37,29.9,38,31.7,40.3z" class="colorD5101A svgShape"></path><ellipse cx="26.5" cy="40" fill="#e41633" rx="2.1" ry="1.3" transform="rotate(-29.467 26.481 40.024)" class="colorE41633 svgShape"></ellipse><ellipse cx="21" cy="39.3" fill="#e41633" rx="1.9" ry="1.2" transform="rotate(-29.467 20.97 39.318)" class="colorE41633 svgShape"></ellipse><path fill="#b15218" d="M42,26.8c-0.1-0.3-0.3-0.5-0.5-0.8c-0.2-0.2-0.5-0.4-0.8-0.5c-0.3-0.1-0.6-0.1-0.8-0.1
		c-0.5,0.1-0.7,0.2-0.7,0.2s0.3,0.1,0.6,0.2c0.3,0.1,0.7,0.3,1,0.6c-0.3,0.2-0.6,0.4-0.9,0.6c-0.9,0.6-2,1.2-3.1,1.7
		c-1.1,0.5-2.4,1-3.7,1.4c-1.3,0.4-2.7,0.7-4.1,0.9c-1.4,0.2-2.8,0.3-4.3,0.3c-1.4,0-2.9-0.1-4.3-0.3c-1.4-0.2-2.8-0.5-4.1-0.9
		c-1.3-0.4-2.5-0.9-3.7-1.4c-1.1-0.5-2.2-1.1-3.1-1.7c-0.2-0.1-0.4-0.2-0.5-0.4c0,0,0,0,0.1-0.1c0.1-0.1,0.2-0.2,0.4-0.2
		c0.3-0.1,0.5-0.2,0.5-0.2c0,0,0,0-0.1-0.1c-0.1,0-0.2-0.1-0.4-0.2c-0.2,0-0.4,0-0.6,0c-0.2,0.1-0.5,0.2-0.6,0.4
		c-0.3,0.4-0.4,0.9-0.4,1.2c0,0.3,0.2,0.6,0.2,0.6s0.1-0.2,0.3-0.5c0.1-0.2,0.3-0.4,0.4-0.6c0.2,0.2,0.4,0.3,0.6,0.5
		c0.5,0.4,1,0.7,1.6,1c0.1,0.7,0.3,1.5,0.5,2.2c0.3,0.9,0.6,1.7,0.9,2.6c0.2,0.4,0.4,0.8,0.6,1.2c0.2,0.4,0.4,0.8,0.7,1.2
		c0.2,0.4,0.5,0.8,0.8,1.1c0.3,0.4,0.5,0.7,0.9,1.1c0.3,0.3,0.6,0.7,0.9,1c0.3,0.3,0.7,0.6,1,0.9c0.3,0.3,0.7,0.6,1.1,0.8
		c0.4,0.3,0.8,0.5,1.2,0.7c0.8,0.4,1.7,0.7,2.6,1c0.4,0.1,0.9,0.2,1.4,0.2c0.5,0,0.9,0,1.4,0.1c0.5,0,0.9-0.1,1.4-0.1
		c0.5-0.1,0.9-0.1,1.4-0.3c0.9-0.3,1.7-0.6,2.6-1c0.4-0.2,0.8-0.4,1.2-0.7c0.4-0.2,0.8-0.5,1.1-0.8c0.4-0.3,0.7-0.6,1-0.9
		c0.3-0.3,0.7-0.6,1-1c0.3-0.3,0.6-0.7,0.9-1.1c0.3-0.4,0.5-0.7,0.8-1.1c0.3-0.4,0.5-0.8,0.7-1.2c0.2-0.4,0.4-0.8,0.6-1.2
		c0.4-0.8,0.7-1.7,1-2.5c0.3-0.8,0.5-1.6,0.7-2.4c0.5-0.3,0.9-0.6,1.3-0.9c0.3-0.2,0.6-0.5,0.9-0.7c0,0.1,0.1,0.1,0.1,0.2
		c0.1,0.2,0.2,0.4,0.3,0.6c0.1,0.2,0.2,0.3,0.2,0.4c0.1,0.1,0.1,0.2,0.1,0.2s0-0.1,0.1-0.2c0-0.1,0.1-0.3,0.1-0.5
		C42.1,27.4,42.1,27.1,42,26.8z M31,40.6c-0.4,0.3-0.8,0.5-1.2,0.7c-0.8,0.4-1.7,0.7-2.5,0.9c-0.4,0.1-0.9,0.1-1.3,0.2
		c-0.4,0-0.9,0-1.3,0.1c-0.4,0-0.9-0.1-1.3-0.1c-0.4-0.1-0.9-0.1-1.3-0.3c-0.9-0.2-1.7-0.5-2.5-1c-0.4-0.2-0.8-0.4-1.1-0.7
		c-0.3-0.2-0.5-0.4-0.8-0.6c1.2-1.5,2.8-2.5,4.2-2.5c0.4,0,0.8,0.1,1.2,0.2c0.5,0.2,1,0.6,1.3,1.1c-0.7,1-1,2.5-1,2.5
		c0.4-1.3,1.2-2.2,1.2-2.2l0.1-0.2c0.3-0.3,0.5-0.6,0.8-0.7c0.5-0.3,1-0.4,1.5-0.4c1.5,0,3.2,0.9,4.5,2.5
		C31.4,40.4,31.2,40.5,31,40.6z M37.9,30.9c-0.3,0.9-0.6,1.7-0.9,2.5c-0.2,0.4-0.4,0.8-0.6,1.2c-0.2,0.4-0.4,0.8-0.7,1.2
		c-0.2,0.4-0.5,0.8-0.8,1.1c-0.3,0.4-0.5,0.7-0.8,1.1c-0.3,0.3-0.6,0.7-0.9,1c-0.3,0.3-0.6,0.6-1,0.9c-0.1,0.1-0.2,0.2-0.3,0.2
		c-1.4-1.6-3.1-2.6-4.7-2.6c-0.6,0-1.2,0.1-1.7,0.4c-0.3,0.2-0.5,0.4-0.8,0.7c-0.4-0.5-0.8-0.9-1.4-1.1c-0.4-0.2-0.9-0.3-1.4-0.3
		c-1.5,0-3.2,1-4.5,2.6c0,0,0,0,0,0c-0.4-0.3-0.7-0.6-1-0.9c-0.3-0.3-0.6-0.6-0.9-1c-0.3-0.3-0.6-0.7-0.9-1
		c-0.3-0.3-0.5-0.7-0.8-1.1c-0.3-0.4-0.5-0.8-0.7-1.1c-0.2-0.4-0.4-0.8-0.6-1.2c-0.4-0.8-0.7-1.7-1-2.5c-0.2-0.7-0.4-1.4-0.6-2.1
		c0.5,0.3,0.9,0.5,1.4,0.8c1.2,0.6,2.4,1.2,3.8,1.6c1.3,0.4,2.8,0.8,4.2,1c1.5,0.3,3,0.3,4.5,0.4c1.5,0,3-0.1,4.5-0.4
		c1.5-0.2,2.9-0.6,4.2-1c1.4-0.4,2.6-1,3.8-1.6c0.4-0.2,0.8-0.5,1.2-0.7C38.2,29.6,38.1,30.2,37.9,30.9z" class="colorB15218 svgShape"></path><radialGradient id="t" cx="32.858" cy="19.296" r="13.103" gradientUnits="userSpaceOnUse"><stop offset="0" stop-color="#fbdd49" class="stopColorfbdd49 svgShape"></stop><stop offset=".793" stop-color="#eba503" class="stopColoreba503 svgShape"></stop><stop offset="1" stop-color="#d7840b" class="stopColord7840b svgShape"></stop></radialGradient><path fill="url(#t)" d="M26.4,23.7c0,0,6.7-5.2,12.9-2.1c0,0-2.5-6.9-6.5-6.6C30.9,15,28.2,17.3,26.4,23.7z"></path><radialGradient id="u" cx="32.858" cy="19.462" r="5.461" gradientUnits="userSpaceOnUse"><stop offset="0" stop-color="#fbdd49" class="stopColorfbdd49 svgShape"></stop><stop offset=".793" stop-color="#eba503" class="stopColoreba503 svgShape"></stop><stop offset="1" stop-color="#d7840b" class="stopColord7840b svgShape"></stop></radialGradient><path fill="url(#u)" d="M26.4,23.7c0,0,6.7-6,12.9-2.1C39.3,21.5,32.8,6,26.4,23.7z"></path><path fill="#722717" d="M26.4,23.6c0,0,6.7-7.5,12.9-2C39.3,21.5,32.8,8.7,26.4,23.6z" class="color722717 svgShape"></path><path fill="#b15218" d="M26.8,16.4c0,0,0.1-0.7,0.6-1.5c0.2-0.4,0.5-0.9,0.9-1.4c0.2-0.2,0.4-0.5,0.6-0.7c0.2-0.2,0.5-0.5,0.7-0.7
		c0.3-0.2,0.5-0.4,0.8-0.6c0.3-0.2,0.6-0.3,0.9-0.4c0.3-0.1,0.6-0.2,0.9-0.2c0.3,0,0.6-0.1,0.8,0c0.3,0,0.5,0.1,0.7,0.1
		c0.2,0,0.4,0.1,0.5,0.2c0.3,0.1,0.4,0.2,0.4,0.2s-0.2,0-0.5,0c-0.1,0-0.3,0-0.5,0c-0.2,0-0.4,0.1-0.6,0.1c-0.2,0-0.5,0.1-0.7,0.2
		c-0.2,0.1-0.5,0.2-0.7,0.3c-0.5,0.3-1,0.6-1.4,1c-0.5,0.4-0.9,0.8-1.3,1.2c-0.4,0.4-0.8,0.8-1.1,1.2C27.3,15.9,26.8,16.4,26.8,16.4
		z" class="colorB15218 svgShape"></path></svg>