<svg xmlns="http://www.w3.org/2000/svg" viewBox="0 0 48 48" width="256" height="256"><path fill="#b15218" d="M24 .5C11 .5.5 11 .5 24S11 47.5 24 47.5 47.5 37 47.5 24 37 .5 24 .5z" class="colorB15218 svgShape"></path><radialGradient id="a" cx="24" cy="23.959" r="23" gradientUnits="userSpaceOnUse"><stop offset="0" stop-color="#fbdd49" class="stopColorfbdd49 svgShape"></stop><stop offset=".793" stop-color="#eba503" class="stopColoreba503 svgShape"></stop><stop offset="1" stop-color="#d7840b" class="stopColord7840b svgShape"></stop></radialGradient><circle cx="24" cy="24" r="23" fill="url(#a)"></circle><linearGradient id="b" x1="42.187" x2="42.091" y1="47.91" y2="76.286" gradientTransform="matrix(1.0997 -.0242 .02198 .9998 -23.883 -50.841)" gradientUnits="userSpaceOnUse"><stop offset="0" stop-color="#ffebb5" class="stopColorffebb5 svgShape"></stop><stop offset="1" stop-color="#fdf6be" stop-opacity="0" class="stopColorfdf6be svgShape"></stop></linearGradient><path fill="url(#b)" d="M44.1 19.4c.2 9.1-8.6 16.6-19.7 16.9-11.1.2-20.3-6.9-20.5-16-.2-9.1 8.6-16.6 19.7-16.9s20.3 6.9 20.5 16z" opacity=".7"></path><radialGradient id="c" cx="-825.972" cy="126.496" r="9.96" gradientTransform="matrix(.9999 .01187 -.0119 .9999 850.386 -84.029)" gradientUnits="userSpaceOnUse"><stop offset="0" stop-color="#fbdd49" class="stopColorfbdd49 svgShape"></stop><stop offset=".793" stop-color="#eba503" class="stopColoreba503 svgShape"></stop><stop offset="1" stop-color="#d7840b" class="stopColord7840b svgShape"></stop></radialGradient><path fill="url(#c)" d="M35.5 27.1h-.6c-.3.1-.6.2-.9.4-.4.2-.8.5-1.1.7-.4.2-.7.4-1.1.7-.9.6-1.8 1.3-2.7 1.9-.3.2-.7.4-1 .6-.2.1-.5.3-.8.4l-.8.4c-.5.3-1 .6-1.5.8l-1.5.9-.4.2-.1.1h-.1l-.2.1c-.3.1-.5.3-.8.4-.5.2-1 .4-1.6.6-.5.2-1.1.3-1.6.5-.6.1-1.1.2-1.7.3-.6.1-1.1.1-1.7 0-.6 0-1.1-.1-1.7-.3-.3-.1-.6-.2-.8-.3l-.8-.3c-.6-.2-1.1-.4-1.7-.5-.1 0-.2 0-.3.1v.2s0 .1.1.1c.1.1.2.3.3.4.2.2.4.5.7.7.5.4 1 .7 1.6 1 .6.3 1.1.5 1.8.7.6.2 1.2.3 1.9.4.6.1 1.3.1 1.9.1.7 0 1.3-.1 1.9-.3.6-.1 1.2-.4 1.8-.6.6-.3 1.2-.5 1.7-.9l.4-.3.1-.1.1-.1.2-.1.7-.5c.5-.4 1-.7 1.5-1.1l1.5-1.1 1.4-1.1c1-.7 1.9-1.5 2.9-2.3.5-.4.9-.8 1.4-1.1.1-.1.2-.2.4-.2l.2-.1s.1-.1.2-.1c.1-.1.2-.1.4-.1h.1c-.1 0 0 0 0 0H35.5c.3 0 .6-.2.6-.4-.2-.5-.4-.8-.6-.8z"></path><radialGradient id="d" cx="-826.121" cy="126.39" r="9.677" gradientTransform="matrix(.9999 .01187 -.0119 .9999 850.386 -84.029)" gradientUnits="userSpaceOnUse"><stop offset="0" stop-color="#330e10" class="stopColor330e10 svgShape"></stop><stop offset="1" stop-color="#871811" class="stopColor871811 svgShape"></stop></radialGradient><path fill="url(#d)" d="M10.4 34.8s.5.1 1.2.4c.4.1.8.3 1.3.5s1 .4 1.6.5c.6.2 1.3.3 2 .3.7.1 1.5 0 2.3-.1 1.6-.2 3.2-.8 4.7-1.6.7-.4 1.5-.9 2.2-1.4.7-.5 1.4-.9 2.1-1.4 1.4-.9 2.7-1.8 3.7-2.6 1.1-.8 2-1.4 2.7-1.8.4-.2.7-.3.9-.3h.3c.1 0 .1.1.1.2s-.1.1-.2.1H35c-.2 0-.5.1-.8.3-.7.3-1.6 1-2.6 1.8-1.1.8-2.3 1.7-3.6 2.7l-2.1 1.5c-.7.5-1.4 1-2.2 1.5-.8.5-1.6.9-2.4 1.3-.8.3-1.7.6-2.5.8-1.7.3-3.4.2-4.7-.1-.7-.2-1.3-.4-1.8-.6-.5-.2-.9-.5-1.2-.8-.6-.5-.9-1-.9-1 0-.1 0-.2.1-.2h.1z"></path><radialGradient id="e" cx="-814.235" cy="121.591" r="1.654" gradientTransform="matrix(.9999 .01187 -.0119 .9999 850.386 -84.029)" gradientUnits="userSpaceOnUse"><stop offset="0" stop-color="#330e10" class="stopColor330e10 svgShape"></stop><stop offset="1" stop-color="#871811" class="stopColor871811 svgShape"></stop></radialGradient><path fill="url(#e)" d="M33 26.5s.1 0 .2-.1c.1 0 .3-.1.6-.1h.4c.1 0 .3.1.4.1.1.1.3.1.4.2.1.1.3.2.4.3.1.1.2.2.3.4.1.1.2.3.2.4.1.1.1.3.2.4 0 .1.1.3.1.4.1.2.1.4.1.6v.2s-.1-.1-.1-.2c-.1-.1-.2-.3-.3-.5-.1-.1-.1-.2-.2-.3-.1-.1-.2-.2-.2-.3l-.3-.3-.3-.3-.3-.3c-.1-.1-.2-.2-.3-.2-.1-.1-.2-.1-.3-.2-.1-.1-.2-.1-.3-.2-.2-.1-.4-.1-.5-.2-.1.2-.2.2-.2.2z"></path><path fill="#fbce40" d="M1.6 26.8s.1.5.4 1.2c.2.8.6 1.9 1.2 3.1.3.6.6 1.3 1 2s.8 1.4 1.3 2.1c.3.4.5.8.8 1.1.3.4.6.7.8 1 .5.7 1.2 1.4 1.9 2 .6.7 1.4 1.2 2 1.8.7.6 1.5 1 2.2 1.5.7.5 1.5.9 2.1 1.3.7.4 1.4.7 2 1 .6.3 1.2.6 1.7.8.5.2 1 .4 1.4.5.8.3 1.2.5 1.2.5s-.5-.1-1.3-.3c-.4-.1-.9-.2-1.4-.3-.6-.1-1.2-.3-1.8-.6-.7-.3-1.4-.5-2.1-.8-.7-.4-1.5-.7-2.3-1.2-.7-.5-1.5-1-2.3-1.5-.7-.6-1.5-1.2-2.1-1.9-.7-.7-1.3-1.4-1.9-2.1-.6-.7-1.1-1.5-1.6-2.2-.5-.7-.9-1.5-1.2-2.2-.3-.7-.7-1.4-.9-2.1-.3-.7-.4-1.3-.6-1.8-.1-.6-.2-1-.3-1.5-.2-.9-.2-1.4-.2-1.4z" opacity=".7" class="colorFBCE40 svgShape"></path><path fill="#b15218" d="M5 15.4s.3-.6.8-1.4c.5-.9 1.3-2 2.2-3 .2-.3.5-.5.7-.7l.9-.6c.3-.2.6-.3 1-.4.3-.1.7-.1 1-.1.3 0 .6.1.8.3.1.1.2.1.3.2l.2.2c.1.1.2.2.2.3 0 .1.1.1.1.1l-.2.2h-.1c-.1 0-.2-.1-.3-.1-.1 0-.3-.1-.5-.1s-.3 0-.5.1c-.4.1-.8.3-1.2.6-.5.2-1 .5-1.5.9-1 .8-1.9 1.7-2.6 2.4-.7.7-1.1 1.2-1.1 1.2l-.2-.1zM33.6 4.7s-.7 0-1.6.2c-1 .1-2.3.4-3.6.9-.3.1-.6.2-1 .4-.3.1-.6.3-.9.5-.3.1-.5.3-.7.6-.2.3-.4.6-.5.9-.1.3-.1.6-.1.9 0 .1 0 .2.1.3 0 .1.1.2.1.3.1.2.2.3.2.3l.1.1h.1V10c0-.1 0-.2.1-.3 0-.1.1-.3.2-.4.1-.2.2-.3.3-.5.3-.3.6-.6 1-.9.4-.3.9-.7 1.5-1 1.1-.6 2.3-1.1 3.3-1.4.8-.5 1.4-.7 1.4-.7v-.1z" class="colorB15218 svgShape"></path><radialGradient id="f" cx="460.091" cy="79.515" r="18.644" gradientTransform="rotate(-10.091 -97.664 2576.426)" gradientUnits="userSpaceOnUse"><stop offset="0" stop-color="#fbdd49" class="stopColorfbdd49 svgShape"></stop><stop offset=".793" stop-color="#eba503" class="stopColoreba503 svgShape"></stop><stop offset="1" stop-color="#d7840b" class="stopColord7840b svgShape"></stop></radialGradient><path fill="url(#f)" d="M12.6 12.3c-4.5.8-7.5 5.1-6.7 9.6.4 2.1 1.5 3.8 3 5 .5-.2 1.1-.4 1.7-.5 1.7-.3 3.1-.1 4.3.5.5.1.9.2 1.3.3.6.1 1.1.3 1.6.5 3.1-1.6 5-5.1 4.4-8.8-.9-4.4-5.1-7.4-9.6-6.6z"></path><radialGradient id="g" cx="460.206" cy="79.63" r="7.846" gradientTransform="rotate(-10.091 -97.664 2576.426)" gradientUnits="userSpaceOnUse"><stop offset="0" stop-color="#fbdd49" class="stopColorfbdd49 svgShape"></stop><stop offset=".793" stop-color="#eba503" class="stopColoreba503 svgShape"></stop><stop offset="1" stop-color="#d7840b" class="stopColord7840b svgShape"></stop></radialGradient><path fill="url(#g)" d="M12.8 12.8c-4.3.8-7.1 4.8-6.4 9.1.4 2 1.4 3.7 2.9 4.8l1.2-.3c1.6-.3 3.1-.1 4.3.5.5.1.9.2 1.3.3.5.1.9.2 1.3.4 3.1-1.5 5-4.9 4.4-8.5-.7-4.2-4.8-7.1-9-6.3z"></path><path fill="#722717" d="M13.3 13.8c-3.9.7-6.5 4.4-5.8 8.4.3 1.8 1.3 3.3 2.6 4.4.1 0 .3-.1.4-.1 1.6-.3 3.1-.1 4.3.5.5.1.9.2 1.3.3.4.1.8.2 1.1.3 3.1-1.2 5-4.5 4.4-7.9-.6-4-4.3-6.6-8.3-5.9z" class="color722717 svgShape"></path><radialGradient id="h" cx="460.715" cy="80.132" r="6.97" gradientTransform="rotate(-10.091 -97.664 2576.426)" gradientUnits="userSpaceOnUse"><stop offset=".618" stop-color="#f2f2f2" class="stopColorf2f2f2 svgShape"></stop><stop offset="1" stop-color="#cbcaca" class="stopColorcbcaca svgShape"></stop></radialGradient><path fill="url(#h)" d="M13.5 14.1c-3.8.7-6.3 4.3-5.6 8.1.3 1.8 1.3 3.2 2.6 4.3h.1c1.7-.3 3.1-.1 4.3.5.5.1.9.2 1.3.3.3.1.7.2 1 .3 3.1-1.1 5.1-4.4 4.5-7.7-.8-4-4.4-6.5-8.2-5.8z"></path><radialGradient id="i" cx="520.975" cy="79.747" r="3.652" gradientTransform="matrix(.9846 -.1747 .1704 .9605 -511.608 36.076)" gradientUnits="userSpaceOnUse"><stop offset="0" stop-color="#67c4d9" class="stopColor67c4d9 svgShape"></stop><stop offset=".793" stop-color="#2c5ca6" class="stopColor2c5ca6 svgShape"></stop><stop offset="1" stop-color="#2a4495" class="stopColor2a4495 svgShape"></stop></radialGradient><path fill="url(#i)" d="M18.1 21.1c.4 2.2-.7 4.2-2.4 4.5-1.7.3-3.4-1.2-3.8-3.4-.4-2.2.7-4.2 2.4-4.5 1.7-.3 3.4 1.2 3.8 3.4z"></path><ellipse cx="14.9" cy="21.6" rx="1.7" ry="2.1" transform="rotate(-10.068 14.945 21.65)" fill="#000000" class="color000 svgShape"></ellipse><circle cx="12.5" cy="20.4" r="1.4" fill="#ffffff" class="colorFFF svgShape"></circle><circle cx="16" cy="23.1" r=".5" fill="#ffffff" class="colorFFF svgShape"></circle><radialGradient id="j" cx="-1095.007" cy="79.515" r="18.644" gradientTransform="scale(-1 1) rotate(10.091 -210.62 6070.167)" gradientUnits="userSpaceOnUse"><stop offset="0" stop-color="#fbdd49" class="stopColorfbdd49 svgShape"></stop><stop offset=".793" stop-color="#eba503" class="stopColoreba503 svgShape"></stop><stop offset="1" stop-color="#d7840b" class="stopColord7840b svgShape"></stop></radialGradient><path fill="url(#j)" d="M31.3 25.1c.6-.7 1.3-1.2 2.2-1.6.9-.8 2.1-1.4 3.6-1.7.6-.1 1.2-.1 1.8-.1 1-1.7 1.5-3.7 1.1-5.8-.8-4.5-5.1-7.5-9.6-6.7-4.5.8-7.5 5.1-6.7 9.6.7 3.7 3.7 6.4 7.3 6.8 0-.3.1-.4.3-.5z"></path><radialGradient id="k" cx="-1094.892" cy="79.63" r="7.846" gradientTransform="scale(-1 1) rotate(10.091 -210.62 6070.167)" gradientUnits="userSpaceOnUse"><stop offset="0" stop-color="#fbdd49" class="stopColorfbdd49 svgShape"></stop><stop offset=".793" stop-color="#eba503" class="stopColoreba503 svgShape"></stop><stop offset="1" stop-color="#d7840b" class="stopColord7840b svgShape"></stop></radialGradient><path fill="url(#k)" d="M31.3 25.1c.6-.7 1.3-1.2 2.2-1.6.9-.8 2.1-1.4 3.6-1.7.4-.1.8-.1 1.3-.1 1-1.6 1.5-3.6 1.1-5.6-.8-4.3-4.8-7.1-9.1-6.4-4.3.8-7.1 4.8-6.4 9.1.6 3.6 3.7 6.2 7.2 6.4 0 0 0-.1.1-.1z"></path><path fill="#722717" d="M33.4 23.5c.9-.8 2.1-1.4 3.6-1.7.1 0 .3 0 .4-.1.9-1.5 1.3-3.3 1-5.1-.7-3.9-4.4-6.5-8.4-5.8-3.9.7-6.5 4.4-5.8 8.4.6 3.5 3.6 5.9 7 5.9.6-.7 1.3-1.2 2.2-1.6z" class="color722717 svgShape"></path><radialGradient id="l" cx="479.31" cy="80.133" r="6.963" gradientTransform="rotate(-10.091 -96.765 2586.612)" gradientUnits="userSpaceOnUse"><stop offset=".618" stop-color="#f2f2f2" class="stopColorf2f2f2 svgShape"></stop><stop offset="1" stop-color="#cbcaca" class="stopColorcbcaca svgShape"></stop></radialGradient><path fill="url(#l)" d="M33.4 23.5c.9-.8 2.1-1.4 3.6-1.7h.1c.9-1.4 1.3-3.2 1-5-.7-3.8-4.3-6.3-8.1-5.6s-6.3 4.3-5.6 8.1a6.9 6.9 0 0 0 7 5.7c.5-.7 1.2-1.2 2-1.5z"></path><radialGradient id="m" cx="539.291" cy="79.739" r="3.652" gradientTransform="matrix(.9846 -.1747 .1704 .9605 -513.379 36.39)" gradientUnits="userSpaceOnUse"><stop offset="0" stop-color="#67c4d9" class="stopColor67c4d9 svgShape"></stop><stop offset=".793" stop-color="#2c5ca6" class="stopColor2c5ca6 svgShape"></stop><stop offset="1" stop-color="#2a4495" class="stopColor2a4495 svgShape"></stop></radialGradient><path fill="url(#m)" d="M34.3 18.2c.4 2.2-.7 4.2-2.4 4.5-1.7.3-3.4-1.2-3.8-3.4-.4-2.2.7-4.2 2.4-4.5 1.7-.3 3.4 1.2 3.8 3.4z"></path><ellipse cx="31.5" cy="18.8" rx="1.7" ry="2.1" transform="rotate(-10.068 31.458 18.825)" fill="#000000" class="color000 svgShape"></ellipse><circle cx="28.7" cy="17.5" r="1.4" fill="#ffffff" class="colorFFF svgShape"></circle><circle cx="32.2" cy="20.2" r=".5" fill="#ffffff" class="colorFFF svgShape"></circle><linearGradient id="n" x1="480.212" x2="480.511" y1="85.686" y2="87.578" gradientTransform="rotate(-10.091 -97.664 2576.426)" gradientUnits="userSpaceOnUse"><stop offset="0" stop-color="#f59e15" class="stopColorf59e15 svgShape"></stop><stop offset="1" stop-color="#f59e15" stop-opacity="0" class="stopColorf59e15 svgShape"></stop></linearGradient><path fill="url(#n)" d="M40 22.3c.1.3 0 .6-.1.8-.1.3-.3.5-.5.7l-.4.4c-.9.8-1.9 1.6-3 2.2-1 .5-2 .8-3.1.9-.5 0-1.1 0-1.4-.3-.4-.4-1.1-1-.7-1.5.4-.4 1.1-1 1.5-1.4 1-.8 2.2-1.4 3.3-2 .3-.2.6-.3.9-.4.3-.1.7-.2 1-.2.5-.1 1-.2 1.4-.1.5.1 1 .5 1.1.9z"></path><linearGradient id="o" x1="-658.651" x2="-658.353" y1="85.686" y2="87.578" gradientTransform="scale(-1 1) rotate(10.091 -2.605 3712.763)" gradientUnits="userSpaceOnUse"><stop offset="0" stop-color="#f59e15" class="stopColorf59e15 svgShape"></stop><stop offset="1" stop-color="#f59e15" stop-opacity="0" class="stopColorf59e15 svgShape"></stop></linearGradient><path fill="url(#o)" d="M8 28c0 .3.2.5.4.7.2.2.4.4.7.5.2.1.3.2.5.2 1.2.5 2.3.9 3.6 1.1 1.1.1 2.2.1 3.2-.2.5-.1 1-.3 1.2-.8.3-.5.7-1.3.2-1.6-.5-.3-1.4-.6-1.9-.8-1.2-.4-2.5-.6-3.8-.7-.3 0-.7-.1-1-.1-.3 0-.7.1-1 .1-.5.1-1 .2-1.4.4-.4.3-.7.7-.7 1.2z"></path><path fill="#b15218" d="M30.1 26.3s.5-.5 1.4-1.2c.4-.3.9-.7 1.5-1.1.3-.2.6-.4.8-.6.3-.2.6-.4.9-.5.3-.1.6-.3 1-.4.3-.1.6-.3.9-.3.2 0 .3-.1.5-.1.1 0 .3-.1.4-.1.1 0 .3 0 .4-.1H39c.2 0 .4.1.5.1.3.1.5.2.5.2v-.1s-.1-.2-.4-.3c-.1-.1-.3-.2-.5-.3-.2-.1-.5-.2-.8-.2h-.9c-.2 0-.3 0-.5.1-.2 0-.3.1-.5.1-.3.1-.7.3-1 .4-.3.2-.6.4-1 .5l-.9.6c-.3.2-.6.4-.8.7-.5.4-1 .9-1.4 1.3-.7.7-1.2 1.2-1.2 1.3zm-11.4 2s-.7-.3-1.7-.6c-.5-.2-1.1-.4-1.7-.5-.3-.1-.7-.2-1-.2-.3-.1-.7-.1-1-.2-.4 0-.7-.1-1-.1h-1.5c-.1 0-.3 0-.4.1-.1 0-.3.1-.4.1-.1 0-.3.1-.4.1-.4 0-.6.1-.8.2-.2.1-.3.2-.5.3-.2.1-.3.2-.3.2h-.1s.1-.2.3-.5c.1-.1.2-.3.4-.4.2-.1.4-.3.7-.4.3-.1.5-.2.9-.3.2 0 .3-.1.5-.1h1.6c.4 0 .7.1 1.1.2.4.1.7.2 1.1.3.3.1.7.2 1 .3.6.2 1.2.5 1.7.7.8.4 1.5.7 1.5.8z" class="colorB15218 svgShape"></path><linearGradient id="p" x1="19.929" x2="31.525" y1="37.076" y2="37.076" gradientUnits="userSpaceOnUse"><stop offset="0" stop-color="#ffffff" class="stopColorfff svgShape"></stop><stop offset="1" stop-color="#dadada" class="stopColordadada svgShape"></stop></linearGradient><path fill="url(#p)" d="M37.5 31.8v.6l-.1.8-.1 1.2-.1.9c-.1.9-.3 1.8-.6 2.6-.2.4-.3.8-.5 1.1 0 .1-.1.1-.1.2-.2.2-.3.5-.5.7 0 .1-.1.1-.2.2-.4.5-1.1 1.2-1.1 1.2-.1.1-.2.2-.3.2-1.7 1.3-3.7 1.9-5.9 1.8-1.2-.1-2.4-.4-3.5-1-3-1.6-4.8-4.8-4.6-8.2l.3-3.6c0 .1.1.1.1.2.1.1.4.3.8.6.4.2.8.4 1.2.5 1.7.6 3.9 1 6.3 1.2.7 0 1.4.1 2.1.1 1.2 0 2.3-.1 3.3-.2.2 0 .3 0 .5-.1.1 0 .3 0 .4-.1.3-.1.6-.1.8-.2.1 0 .3-.1.4-.1.4-.1.7-.3.9-.4.3 0 .4-.1.5-.2-.1 0 0 0 0 0z"></path><path fill="#f59e15" d="M21.2 31.4c.4.2.8.4 1.3.5 1.7.6 3.9 1 6.3 1.1.7.1 1.4.1 2.1.1 1.2 0 2.3-.1 3.3-.2.2 0 .3 0 .4-.1.1 0 .3 0 .4-.1.3-.1.6-.1.8-.2.1 0 .3-.1.4-.1.4-.1.7-.3.9-.4.2-.2.3-.3.3-.4v-.1c0-.1-.1-.2-.1-.2-.8-.9-3.9-2-8.4-2.3-.8-.1-1.6-.1-2.3-.1-4.4 0-6.4.9-6.5 1.4 0 .1.1.2.1.3.2.3.5.5 1 .8z" class="colorF59E15 svgShape"></path><path fill="#dadada" d="M21.2 31.4c.1.1.3.1.5.2 1-.3 2.7-.6 5.1-.6.8 0 1.5 0 2.3.1 3.1.2 5.6.8 7.1 1.5.4-.1.7-.3.9-.4.2-.2.3-.3.3-.4v-.1c0-.1-.1-.2-.1-.2-.8-.9-3.9-2-8.4-2.3-.8-.1-1.6-.1-2.3-.1-4.4 0-6.4.9-6.5 1.4 0 .1.1.2.1.3.2.1.5.3 1 .6z" class="colorDADADA svgShape"></path><path fill="#b15218" d="M40.7 33.1c-.7-.5-1.5-.8-2.4-.8-.3 0-.5 0-.8.1 0 0-.1 0-.1.1l-.2 2.4h.1v.4c0 .6-.1 1.2-.3 1.7-.2.6-.3 1.1-.6 1.6l-.2.4c-.2 0-.2.2-.3.3l-.5.7-1 1-.5.5-.1.1-.1.1c-.1.1-.2.1-.3.2-.8.5-1.7.9-2.6 1.2-1.8.5-3.8.3-5.6-.4-1.7-.8-3.2-2.1-4.2-3.8-.5-.8-.8-1.8-.9-2.7-.1-.5-.1-1-.1-1.4 0-.5 0-1 .1-1.4 0 .5-.1 1-.1 1.4 0 .5 0 1 .1 1.4.1 1 .5 1.9.9 2.7.9 1.7 2.4 3.1 4.2 3.9 1.8.8 3.8 1 5.7.5.9-.2 1.9-.6 2.7-1.2.1-.1.3-.2.4-.3.7.5 1.5.7 2.3.7 1.7 0 3.4-.9 4.5-2.4.9-1.1 1.4-2.4 1.4-3.7 0-1.3-.5-2.6-1.5-3.3zm-5.1 7.1.5-.8c.1-.1.1-.3.2-.4l.2-.4c.3-.5.5-1.1.6-1.7.2-.7.2-1.5.2-2.2.3-.1.6-.2.9-.2.4 0 .7.1 1 .3.4.3.6.9.6 1.6 0 .8-.4 1.7-.9 2.4-.7.9-1.8 1.5-2.8 1.5-.2 0-.4 0-.5-.1zm4.9-.2c-1.1 1.4-2.7 2.3-4.3 2.3-.8 0-1.5-.2-2.1-.6.1 0 .1-.1.2-.1l1.1-1.1c.2.1.5.2.8.2 1 0 2.2-.6 3-1.6.6-.8 1-1.7 1-2.6 0-.8-.2-1.4-.7-1.8-.3-.3-.7-.4-1.2-.4-.3 0-.5 0-.8.1l.1-1.8c.2 0 .5-.1.7-.1.8 0 1.6.3 2.2.8.9.7 1.4 1.8 1.4 3.2-.1 1.2-.6 2.5-1.4 3.5z" class="colorB15218 svgShape"></path><path fill="#b15218" d="M20.3 30.9c.4.4.9.6 1.4.8.5.2 1 .4 1.5.5 2.1.6 4.2.8 5.8.9H31.6s-1.1 0-2.7-.1-3.7-.4-5.7-1c-.5-.1-1-.3-1.5-.5s-1-.4-1.3-.7l-.1-.1c0-.1 0-.1-.1-.2 0 0 0-.1.1-.2l.6-.3c.4-.2.8-.3 1.2-.4 1.5-.4 2.6-.5 2.6-.5s-1.1 0-2.6.3c-.4.1-.8.2-1.3.3-.2.1-.4.2-.7.3-.1.1-.2.2-.2.4 0 .1 0 .1.1.2.2.2.2.3.3.3z" class="colorB15218 svgShape"></path><path fill="#b15218" d="M31.1 31.4c1.3.2 2.6.4 3.5.7 1 .2 1.6.4 1.6.4s-.6-.3-1.5-.6-2.2-.6-3.6-.8c-1.3-.2-2.6-.3-3.6-.2-.5 0-.9 0-1.2.1h-.5s.7 0 1.6.1c1 0 2.4.1 3.7.3z" class="colorB15218 svgShape"></path><radialGradient id="q" cx="-45.188" cy="31.899" r="7.858" gradientTransform="matrix(.9995 .03181 -.0318 .9995 86.406 8.411)" gradientUnits="userSpaceOnUse"><stop offset="0" stop-color="#fbdd49" class="stopColorfbdd49 svgShape"></stop><stop offset=".793" stop-color="#eba503" class="stopColoreba503 svgShape"></stop><stop offset="1" stop-color="#d7840b" class="stopColord7840b svgShape"></stop></radialGradient><path fill="url(#q)" d="M46.3 34.7c-.1-.1-.1-.2-.2-.3-1.4-2.5-4-3.9-5.7-4-.6 0-1.4.1-1.7.9-.9 2.2 3 4.3 3.1 4.3.2.1.3.4.2.6-.1.2-.4.3-.6.2-3.5-1.4-5.9-1.5-6.9-.3-.6.8-.5 1.9-.4 2.5l.1.8-.2.2c-.7.7-1.5 2.1-.4 3.3.3.3.6.5 1 .5.5 0 1.1-.2 1.4-.4l.9-.5c.1.2.2.3.2.4.2.2.3.6.6 1.2.4.9 1.1 2.5 2 2.9.3.2.8.3 1.3.3 1.3 0 3-.4 4.1-1.6 2.1-2.3 3.3-6.9 1.2-11z"></path><path fill="#fbce40" d="M34.8 38.9c-.1-.5 0-.9.1-1.3.4-2.2 6.3-.8 6.3-.8-6.1-2.5-6.7 0-6.7 0-.4 1-.1 2-.1 2.2.1 0 .2-.1.4-.1z" opacity=".7" class="colorFBCE40 svgShape"></path><path fill="#fbce40" d="M34 42.9s-.1-.1-.3-.2c-.1-.1-.4-.4-.4-.8v-.6c0-.2.1-.5.2-.7.2-.4.6-.8 1.1-1.1.2-.1.5-.2.7-.2h.7c.5 0 .9.1 1.2.3.3.1.6.3.8.4.2.1.3.2.3.2H38c-.2 0-.5 0-.8-.1h-1.1c-.4 0-.8.1-1.1.3-.3.1-.6.4-.8.7-.1.2-.2.3-.3.5-.1.1-.1.3-.1.4 0 .3 0 .6.1.7 0 .1.1.2.1.2zm9.2-10.7s.2.1.5.4c.3.3.7.6 1.1 1.1.4.5.8 1.1 1.1 1.9.1.4.3.8.4 1.2.1.4.2.8.3 1.3.1.4.1.9.1 1.3s-.1.8-.1 1.3c-.1.4-.2.8-.3 1.1-.1.4-.2.7-.3 1-.1.3-.2.6-.4.8l-.3.6c-.2.3-.3.5-.3.5s.1-.2.2-.6c.1-.2.1-.4.2-.6.1-.2.1-.5.2-.8.1-.3.2-.6.2-1 0-.3.1-.7.1-1.1v-1.2c0-.4 0-.8-.1-1.2-.1-.4-.1-.8-.2-1.2-.1-.4-.2-.8-.3-1.1-.3-.7-.6-1.4-.9-1.9-.3-.5-.6-1-.8-1.3-.3-.3-.4-.5-.4-.5z" class="colorFBCE40 svgShape"></path><path fill="#b15218" d="M46.4 34.6c-.1-.1-.1-.2-.2-.3-1.5-2.5-4.1-4-5.8-4-.6 0-1.5.1-1.8 1-.9 2.3 3.1 4.4 3.1 4.5.2.1.2.3.2.5-.1.2-.3.3-.5.2-3.6-1.4-6-1.5-7-.2-.6.8-.6 2-.5 2.6l.1.7-.2.2c-.7.7-1.5 2.2-.4 3.5.3.3.7.5 1.1.5.6 0 1.1-.2 1.5-.4l.7-.4c.1.1.1.2.1.3.2.2.4.6.6 1.1.4.9 1.1 2.5 2.1 3 .4.2.8.3 1.3.3 1.3 0 3.1-.4 4.2-1.6 2.3-2.6 3.5-7.3 1.4-11.5zm-1.5 11.1c-1.1 1.1-2.8 1.6-4 1.6-.5 0-.9-.1-1.3-.3-.8-.4-1.5-1.9-1.9-2.8-.2-.5-.4-.9-.6-1.2 0-.1-.1-.2-.2-.4l-.1-.1c-.1-.1-.3-.4-.5-.6-.2-.1-.3-.3-.5-.3h-.3.3c.1.1.3.2.4.3.2.2.3.4.4.6l-.7.5c-.3.2-.8.4-1.3.4-.4 0-.7-.2-.9-.4-1.3-1.4.2-3 .4-3.1l.2-.2s.3-.2.8-.3c.5-.1 1.2-.2 1.9 0 .7.1 1.3.4 1.8.7.5.2.7.4.7.4s-.3-.2-.7-.5c-.4-.3-1.1-.6-1.8-.7-.7-.2-1.4-.2-1.9 0-.3.1-.6.2-.7.2l-.1-.6c-.3-.8-.3-1.9.2-2.7.9-1.1 3.3-1 6.7.3.3.1.6 0 .8-.3.1-.3 0-.6-.3-.8 0 0-3.8-2.1-3-4.1.3-.7 1-.8 1.6-.8 1.7.1 4.2 1.4 5.6 3.9.1.1.1.2.2.3 2.1 4.1 1 8.7-1.2 11z" class="colorB15218 svgShape"></path><linearGradient id="r" x1="-1436.944" x2="-1436.955" y1="-155.272" y2="-151.927" gradientTransform="matrix(.8704 .673 -.458 .593 1221.585 1096.138)" gradientUnits="userSpaceOnUse"><stop offset="0" stop-color="#ffebb5" class="stopColorffebb5 svgShape"></stop><stop offset="1" stop-color="#fdf6be" stop-opacity="0" class="stopColorfdf6be svgShape"></stop></linearGradient><path fill="url(#r)" d="M42.5 40.1c-.5.6-1.7.5-2.8-.3s-1.5-2-1-2.6c.5-.6 1.7-.5 2.8.3 1.1.8 1.5 1.9 1 2.6z" opacity=".7"></path><linearGradient id="s" x1="-1170.469" x2="-1170.478" y1="-389.62" y2="-387" gradientTransform="matrix(.9531 .5493 -.374 .6492 1008.984 935.932)" gradientUnits="userSpaceOnUse"><stop offset="0" stop-color="#ffebb5" class="stopColorffebb5 svgShape"></stop><stop offset="1" stop-color="#fdf6be" stop-opacity="0" class="stopColorfdf6be svgShape"></stop></linearGradient><path fill="url(#s)" d="M39.9 42.5c-.3.5-1.3.6-2.2.1s-1.4-1.4-1-1.9c.3-.5 1.3-.6 2.2-.1.9.5 1.3 1.3 1 1.9z" opacity=".7"></path><radialGradient id="t" cx="131.619" cy="5271.47" r="4.066" gradientTransform="matrix(-1.0902 -.09925 .1115 -.9877 -403.387 5246.383)" gradientUnits="userSpaceOnUse"><stop offset="0" stop-color="#ffebb5" class="stopColorffebb5 svgShape"></stop><stop offset="1" stop-color="#fdf6be" stop-opacity="0" class="stopColorfdf6be svgShape"></stop></radialGradient><path fill="url(#t)" d="M36.3 26c.2-2.1 2.5-3.6 5.1-3.4s4.5 2.1 4.2 4.2c-.2 2.1-2.5 3.6-5.1 3.4s-4.4-2.1-4.2-4.2z" opacity=".7"></path><radialGradient id="u" cx="156.213" cy="5264.19" r="4.066" gradientTransform="matrix(-1.0902 -.09925 .1115 -.9877 -403.387 5246.383)" gradientUnits="userSpaceOnUse"><stop offset="0" stop-color="#ffebb5" class="stopColorffebb5 svgShape"></stop><stop offset="1" stop-color="#fdf6be" stop-opacity="0" class="stopColorfdf6be svgShape"></stop></radialGradient><path fill="url(#u)" d="M8.7 30.8c.2-2.1 2.5-3.6 5.1-3.4s4.5 2.1 4.2 4.2-2.5 3.6-5.1 3.4c-2.6-.2-4.5-2.1-4.2-4.2z" opacity=".7"></path></svg>