<svg xmlns="http://www.w3.org/2000/svg" viewBox="0 0 48 48" width="256" height="256"><path fill="#b15218" d="M24 47.5C37 47.5 47.5 37 47.5 24S37 .5 24 .5.5 11 .5 24 11 47.5 24 47.5z" class="colorB15218 svgShape"></path><radialGradient id="a" cx="24" cy="24" r="23.01" gradientUnits="userSpaceOnUse"><stop offset="0" stop-color="#fbdd49" class="stopColorfbdd49 svgShape"></stop><stop offset=".793" stop-color="#eba503" class="stopColoreba503 svgShape"></stop><stop offset="1" stop-color="#d7840b" class="stopColord7840b svgShape"></stop></radialGradient><circle cx="24" cy="24" r="23" fill="url(#a)"></circle><linearGradient id="b" x1="1573.766" x2="1573.663" y1="547.618" y2="577.746" gradientTransform="rotate(-35.472 -65.813 2724.18)" gradientUnits="userSpaceOnUse"><stop offset="0" stop-color="#ffebb5" class="stopColorffebb5 svgShape"></stop><stop offset="1" stop-color="#fdf6be" stop-opacity="0" class="stopColorfdf6be svgShape"></stop></linearGradient><path fill="url(#b)" d="M36.8 9.5c5.6 7.9 3.1 19.3-5.7 25.5s-20.3 4.9-25.9-3-3.1-19.3 5.7-25.5 20.3-4.9 25.9 3z" opacity=".7"></path><radialGradient id="c" cx="-131.126" cy="6559.357" r="6.788" gradientTransform="matrix(-1.0956 .00729 -.01865 -1.0038 -4.317 6595.67)" gradientUnits="userSpaceOnUse"><stop offset="0" stop-color="#ffebb5" class="stopColorffebb5 svgShape"></stop><stop offset="1" stop-color="#fdf6be" stop-opacity="0" class="stopColorfdf6be svgShape"></stop></radialGradient><path fill="url(#c)" d="M9.2 10.3c-.1-3.6 3.4-6.5 7.7-6.5 4.3 0 7.9 2.8 7.9 6.4s-3.4 6.5-7.7 6.5c-4.3.1-7.9-2.8-7.9-6.4z" opacity=".7"></path><radialGradient id="d" cx="-1452.306" cy="6041.028" r="6.788" gradientTransform="matrix(-.9195 .5956 -.5562 -.8379 2054.805 5950.918)" gradientUnits="userSpaceOnUse"><stop offset="0" stop-color="#ffebb5" class="stopColorffebb5 svgShape"></stop><stop offset="1" stop-color="#fdf6be" stop-opacity="0" class="stopColorfdf6be svgShape"></stop></radialGradient><path fill="url(#d)" d="M23.8 28.6c-2-3-.6-7.3 3-9.6s8.2-1.8 10.1 1.1.6 7.3-3 9.6-8.1 1.8-10.1-1.1z" opacity=".7"></path><radialGradient id="e" cx="885.655" cy="6375.73" r="6.788" gradientTransform="matrix(-1.0065 -.4327 .3868 -.9283 -1564.82 6332.106)" gradientUnits="userSpaceOnUse"><stop offset="0" stop-color="#ffebb5" class="stopColorffebb5 svgShape"></stop><stop offset="1" stop-color="#fdf6be" stop-opacity="0" class="stopColorfdf6be svgShape"></stop></radialGradient><path fill="url(#e)" d="M2.8 27.2c1.4-3.3 5.7-4.6 9.7-2.9s6.1 5.8 4.7 9c-1.4 3.3-5.7 4.6-9.7 2.9-4-1.6-6.1-5.7-4.7-9z" opacity=".7"></path><radialGradient id="f" cx="-1733.765" cy="5802.393" r="6.788" gradientTransform="matrix(-.8224 .7238 -.6728 -.7475 2513.195 5623.655)" gradientUnits="userSpaceOnUse"><stop offset="0" stop-color="#ffebb5" class="stopColorffebb5 svgShape"></stop><stop offset="1" stop-color="#fdf6be" stop-opacity="0" class="stopColorfdf6be svgShape"></stop></radialGradient><path fill="url(#f)" d="M29.5 36.7c-2.4-2.7-1.7-7.1 1.5-10s7.8-3 10.2-.4 1.7 7.1-1.5 10c-3.3 2.9-7.8 3.1-10.2.4z" opacity=".7"></path><path fill="#fbce40" d="M31.7 44.9s.4-.2 1.1-.6c.7-.4 1.6-1.1 2.7-1.9.5-.4 1.1-.9 1.7-1.4l1.7-1.7c.3-.3.6-.6.8-1 .3-.3.5-.7.8-1 .6-.7 1-1.5 1.5-2.2.5-.7.8-1.6 1.3-2.4.4-.8.7-1.6 1-2.4.3-.8.5-1.6.7-2.3.3-.7.3-1.5.5-2.1.1-.7.3-1.3.3-1.8.1-.6.1-1 .2-1.4.1-.8.2-1.3.2-1.3v2.8c0 .6-.1 1.2-.1 1.9-.1.7-.1 1.4-.3 2.2-.2.8-.3 1.6-.6 2.4-.3.8-.6 1.7-.9 2.5-.4.8-.8 1.7-1.3 2.5s-1 1.6-1.6 2.3c-.5.8-1.2 1.4-1.8 2-.6.6-1.3 1.2-1.9 1.7-.6.5-1.2 1-1.8 1.3-.6.4-1.1.7-1.6 1-.5.3-.9.5-1.3.6-.8.2-1.3.3-1.3.3z" opacity=".7" class="colorFBCE40 svgShape"></path><radialGradient id="g" cx="-594.944" cy="82.002" r="19.776" gradientTransform="rotate(12.986 -93.673 2752.399)" gradientUnits="userSpaceOnUse"><stop offset="0" stop-color="#fbdd49" class="stopColorfbdd49 svgShape"></stop><stop offset=".793" stop-color="#eba503" class="stopColoreba503 svgShape"></stop><stop offset="1" stop-color="#d7840b" class="stopColord7840b svgShape"></stop></radialGradient><path fill="url(#g)" d="M38 19.7c-.2.1-.4.2-.6.4-.2.2-.4.6-.5.9-.7 1.8-1.3 2.8-2.4 4.4-.3.3-1 1.2-1.3 1.5-.9.7-1.9 1.4-3.1 2.1-.5.3-1 .5-1.5.8l-1.8.9c-1.2.6-2.3 1.1-3.4 1.5-1.2.5-2.4 1-3.5 1.3-1.3.4-2.5.7-3.6 1-1.4.3-2.8.3-4.1.2-.7-.1-2.2-.7-2.9-.9 3.7 3.8 6.6 10.6 10.8 11.1 1.1.1 2.2 0 3.6-.5 3.1-1.1 5.6-5.2 7.4-8.1.9-1.5 1.7-3 2.3-4.6.4-1 1.6-4.1 1.9-5 1-1.9 1.4-2.4 2.1-3.7.7-1.2 1.3-2.5 2.6-3.2 1.3-.6 2.9-.4 4.2.3-2-1.2-4.4-1.4-6.2-.4z"></path><radialGradient id="h" cx="-588.953" cy="73.183" r="14.961" gradientTransform="rotate(12.986 -93.673 2752.399)" gradientUnits="userSpaceOnUse"><stop offset="0" stop-color="#fbdd49" class="stopColorfbdd49 svgShape"></stop><stop offset=".793" stop-color="#eba503" class="stopColoreba503 svgShape"></stop><stop offset="1" stop-color="#d7840b" class="stopColord7840b svgShape"></stop></radialGradient><path fill="url(#h)" d="M38 19.7c-.2.1-.4.2-.6.4-.2.2-.4.6-.5.9-.7 1.8-1.3 2.8-2.4 4.4-.3.3-1 1.2-1.3 1.5-.9.7-1.9 1.4-3.1 2.1-.5.3-1 .5-1.5.8l-1.8.9c-1.2.6-2.3 1.1-3.4 1.5-1.2.5-2.4 1-3.5 1.3-1.3.4-2.5.7-3.6 1-1.4.3-2.8.3-4.1.2-.7-.1-2.2-.7-2.9-.9 3.7 3.8 6.8 9.8 11 10.3 1.1.1 2.2 0 3.6-.5 3.1-1.1 5.4-4.4 7.2-7.3.9-1.5 1.7-3 2.3-4.6.4-1 1.6-4.1 1.9-5 1-1.9 1.4-2.4 2.1-3.7.7-1.2 1.3-2.5 2.6-3.2 1.3-.6 2.9-.4 4.2.3-2-1.2-4.4-1.4-6.2-.4z"></path><radialGradient id="i" cx="-592.458" cy="76.046" r="10.755" gradientTransform="rotate(12.986 -93.673 2752.399)" gradientUnits="userSpaceOnUse"><stop offset="0" stop-color="#330e10" class="stopColor330e10 svgShape"></stop><stop offset="1" stop-color="#871811" class="stopColor871811 svgShape"></stop></radialGradient><path fill="url(#i)" d="M34.8 24.7c-.2 1-.5 2.1-1 3.4-.3 1-.7 2.1-1.1 3.2-.6 1.5-1.3 3-2.2 4.5-1.7 2.9-4 5.4-7 6.5-1.3.5-2.4.6-3.5.5-4.1-.5-6.4-5.1-10-8.8.7.2 1.4.3 2.1.3 1.3.1 2.6 0 4-.2 1.1-.2 2.3-.5 3.6-.9 1.1-.3 2.2-.8 3.4-1.3 1-.4 2.1-.9 3.3-1.5l1.8-.9c.5-.3 1-.5 1.5-.8 1.2-.7 2.2-1.4 3-2 .8-.7 1.5-1.4 2.1-2z"></path><path fill="#d5101a" d="M30.5 35.8c-1.7 2.9-4 5.4-7 6.5-1.3.5-2.4.6-3.5.5 2.6-6.1 5.6-5.2 5.6-5.2 1.7-1.8 3.6-2 4.9-1.8z" class="colorD5101A svgShape"></path><linearGradient id="j" x1="-601.347" x2="-595.054" y1="80.383" y2="80.383" gradientTransform="rotate(12.986 -93.673 2752.399)" gradientUnits="userSpaceOnUse"><stop offset="0" stop-color="#f7f6f6" class="stopColorf7f6f6 svgShape"></stop><stop offset="1" stop-color="#cfcfce" class="stopColorcfcfce svgShape"></stop></linearGradient><path fill="url(#j)" d="M17.6 36.7c-.7.1-1.3.2-2 .2-.5 0-1.2-.2-1.5-.5-.7-.7-1.3-1.4-2-2.2 1.3.1 2.6 0 4-.2.6.7 1.2 1.3 1.8 2 .4.3.2.6-.3.7z"></path><linearGradient id="k" x1="-597.454" x2="-591.62" y1="78.886" y2="78.886" gradientTransform="rotate(12.986 -93.673 2752.399)" gradientUnits="userSpaceOnUse"><stop offset="0" stop-color="#f7f6f6" class="stopColorf7f6f6 svgShape"></stop><stop offset="1" stop-color="#cfcfce" class="stopColorcfcfce svgShape"></stop></linearGradient><path fill="url(#k)" d="M21.3 36c-.6.1-1.3.3-1.9.4-.5.1-1.1-.1-1.4-.4-.6-.6-1.2-1.3-1.8-2 1.1-.2 2.3-.5 3.6-.9.6.8 1.3 1.5 1.9 2.1.2.4.1.7-.4.8z"></path><linearGradient id="l" x1="-594.198" x2="-588.439" y1="77.082" y2="77.082" gradientTransform="rotate(12.986 -93.673 2752.399)" gradientUnits="userSpaceOnUse"><stop offset="0" stop-color="#f7f6f6" class="stopColorf7f6f6 svgShape"></stop><stop offset="1" stop-color="#cfcfce" class="stopColorcfcfce svgShape"></stop></linearGradient><path fill="url(#l)" d="m24.8 35-1.8.6c-.5.1-1.1 0-1.4-.4-.6-.7-1.3-1.4-1.9-2.1 1.1-.3 2.2-.8 3.4-1.3.7.8 1.4 1.6 2 2.3.3.4.2.8-.3.9z"></path><linearGradient id="m" x1="-591.198" x2="-585.499" y1="75.052" y2="75.052" gradientTransform="rotate(12.986 -93.673 2752.399)" gradientUnits="userSpaceOnUse"><stop offset="0" stop-color="#f7f6f6" class="stopColorf7f6f6 svgShape"></stop><stop offset="1" stop-color="#cfcfce" class="stopColorcfcfce svgShape"></stop></linearGradient><path fill="url(#m)" d="M28.2 33.7c-.6.3-1.1.5-1.7.7-.4.2-1.1 0-1.3-.3-.7-.7-1.3-1.5-2-2.3 1-.4 2.1-.9 3.3-1.5.4.4.7.9 1.1 1.3.3.4.7.8 1 1.2.2.3 0 .7-.4.9z"></path><linearGradient id="n" x1="-588.344" x2="-582.803" y1="72.818" y2="72.818" gradientTransform="rotate(12.986 -93.673 2752.399)" gradientUnits="userSpaceOnUse"><stop offset="0" stop-color="#f7f6f6" class="stopColorf7f6f6 svgShape"></stop><stop offset="1" stop-color="#cfcfce" class="stopColorcfcfce svgShape"></stop></linearGradient><path fill="url(#n)" d="M31.4 32.1c-.5.3-1.1.6-1.6.9-.4.2-1 .1-1.3-.2-.3-.4-.7-.8-1-1.2-.3-.4-.7-.8-1.1-1.3l1.8-.9c.5-.3 1-.5 1.5-.8.7.9 1.4 1.7 2 2.5.2.3.1.8-.3 1z"></path><linearGradient id="o" x1="-585.549" x2="-581.578" y1="70.31" y2="70.31" gradientTransform="rotate(12.986 -93.673 2752.399)" gradientUnits="userSpaceOnUse"><stop offset="0" stop-color="#f7f6f6" class="stopColorf7f6f6 svgShape"></stop><stop offset="1" stop-color="#cfcfce" class="stopColorcfcfce svgShape"></stop></linearGradient><path fill="url(#o)" d="M33.8 28.1c-.3 1-.7 2.1-1.1 3.2-.4.2-.8.1-1-.2-.6-.8-1.3-1.6-2-2.5 1.2-.7 2.2-1.4 3-2 .4.5.7 1 1.1 1.5z"></path><linearGradient id="p" x1="-583.058" x2="-581.421" y1="67.36" y2="67.36" gradientTransform="rotate(12.986 -93.673 2752.399)" gradientUnits="userSpaceOnUse"><stop offset="0" stop-color="#f7f6f6" class="stopColorf7f6f6 svgShape"></stop><stop offset="1" stop-color="#cfcfce" class="stopColorcfcfce svgShape"></stop></linearGradient><path fill="url(#p)" d="M34.8 24.7c-.2 1-.5 2.1-1 3.4l-1.2-1.5c.9-.6 1.6-1.3 2.2-1.9z"></path><path fill="#b15218" d="M43.6 19.7c-.1-.1-.2-.3-.4-.4-.2-.1-.4-.3-.6-.4-.3-.1-.5-.2-.9-.3-.3 0-.7-.1-1-.1-.3 0-.7 0-1.1.1-.4.1-.7.1-1.1.3-1.4.5-2.6 1.3-3.4 2-.8.7-1.2 1.3-1.2 1.3l1.6-.8c.4-.2.9-.5 1.4-.7 0 .1-.1.2-.1.3-.2.4-.4.9-.8 1.5-.3.6-.8 1.2-1.3 1.8-.6.6-1.2 1.2-1.9 1.8-.4.3-.7.6-1.2.9-.4.3-.8.6-1.3.9-.9.6-1.8 1.1-2.8 1.6l-3 1.5c-1 .5-2 .9-3.1 1.3-1 .4-2 .8-3.1 1.1-1 .3-2 .5-2.9.7-.4-.1-.9-.1-1.3 0h-1.3c-.8 0-1.6-.1-2.3-.3-.3-.1-.6-.1-.9-.2-.3-.1-.5-.2-.8-.2-.5-.1-.8-.3-1.1-.4-.3-.1-.4-.1-.4-.1s.1.1.3.2c.2.1.6.4 1 .5.2.1.5.2.8.3l.9.3c.7.2 1.5.3 2.3.3h1.3c.5 0 .9-.1 1.4-.1 1-.1 2-.3 3-.6s2.1-.6 3.1-1 2.1-.8 3.1-1.3 2.1-.9 3.1-1.4c1-.5 2-1 2.9-1.6.5-.3.9-.6 1.3-.9l1.2-.9c.8-.6 1.5-1.3 2-1.9.6-.6 1.1-1.3 1.5-1.9.4-.6.7-1.2.9-1.7.2-.5.3-.9.4-1.2.3-.1.5-.2.8-.3l.9-.3c.3-.1.6-.1.9-.2h.9c.3.1.5.1.8.1.2.1.4.2.6.2.2.1.3.2.5.2.3.1.4.2.4.2s.3.1 0-.2zM22.8 4s0-.2.2-.5c.1-.1.2-.3.3-.5.1-.2.3-.4.5-.6.2-.2.5-.4.8-.5.3-.2.7-.2 1.1-.3h.6c.2 0 .4.1.6.1.4.1.7.3 1.1.5.3.2.6.5.9.7.3.3.5.5.7.8.2.3.4.6.6.8.2.3.3.5.5.8.5 1 .8 1.7.8 1.7s-.5-.5-1.2-1.3l-.6-.6c-.2-.2-.4-.5-.7-.7-.2-.2-.5-.4-.7-.7-.3-.2-.5-.4-.8-.6-.3-.1-.6-.4-.9-.4-.1 0-.3-.1-.4-.1-.1 0-.3 0-.4-.1-.3 0-.6 0-.8.1-.1 0-.3.1-.4.1-.1.1-.2.1-.3.2-.4.2-.8.6-1 .8-.4.2-.5.3-.5.3zM12.1 8.8l-.4-.4c-.1-.1-.3-.2-.4-.4-.2-.1-.4-.3-.6-.4-.2-.1-.5-.2-.7-.2-.2 0-.5 0-.7.1-.1.2-.2.2-.3.3-.2.1-.3.2-.4.3-.2.3-.5.5-.6.8-.2.3-.4.5-.6.8-.2.3-.3.6-.5.9-.1.3-.3.6-.4.9-.1.3-.3.5-.4.8l-.8 1.6s.1-.7.3-1.8c0-.3.2-.6.2-.9.1-.3.2-.6.3-1 .1-.3.3-.7.5-1 .1-.3.4-.6.6-1l.8-.8c.1-.1.3-.2.5-.4.1 0 .3-.1.5-.2.4-.1.8-.1 1.2 0 .4.1.7.3.9.5.2.2.4.4.5.6.1.2.2.4.3.5.2.2.2.4.2.4z" class="colorB15218 svgShape"></path><linearGradient id="q" x1="8.799" x2="8.324" y1="27.008" y2="27.82" gradientUnits="userSpaceOnUse"><stop offset="0" stop-color="#ffebb5" class="stopColorffebb5 svgShape"></stop><stop offset="1" stop-color="#fdf6be" stop-opacity="0" class="stopColorfdf6be svgShape"></stop></linearGradient><path fill="url(#q)" d="M11.9 29.2c-.2-.2-.4-.5-.6-.7-.4-.4-.9-.6-1.4-.9C8.6 27 7.3 26.4 6 26c-.7-.2-1.4-.4-2.1-.2 1.2.4 2 1.3 3 2 .2.1.4.3.6.4l1.8 1.2c.2.1.3.2.5.3.9.4 1.8.4 2.8.4-.2-.3-.5-.6-.7-.9z" opacity=".7"></path><linearGradient id="r" x1="27.811" x2="28.405" y1="23.253" y2="23.907" gradientUnits="userSpaceOnUse"><stop offset="0" stop-color="#ffebb5" class="stopColorffebb5 svgShape"></stop><stop offset="1" stop-color="#fdf6be" stop-opacity="0" class="stopColorfdf6be svgShape"></stop></linearGradient><path fill="url(#r)" d="M23.4 29s8.1-4.7 10.7-9.3c.1 0-7.5 2.4-10.7 9.3z"></path><radialGradient id="s" cx="24.199" cy="16.256" r="19.039" gradientUnits="userSpaceOnUse"><stop offset="0" stop-color="#fbdd49" class="stopColorfbdd49 svgShape"></stop><stop offset=".793" stop-color="#eba503" class="stopColoreba503 svgShape"></stop><stop offset="1" stop-color="#d7840b" class="stopColord7840b svgShape"></stop></radialGradient><path fill="url(#s)" d="M26.5 24.2c1.1-1 2.2-2 3.5-2.7h.1c.4-1.7.7-3.5.7-5.5 0-6.6-2.7-12-6-12s-6 5.4-6 12c0 6.3 2.4 11.4 5.5 11.9.4-1.4 1-2.7 2.2-3.7z"></path><radialGradient id="t" cx="24.492" cy="48.5" r="9.145" gradientTransform="matrix(1 0 0 1.0123 0 -32.875)" gradientUnits="userSpaceOnUse"><stop offset="0" stop-color="#fbdd49" class="stopColorfbdd49 svgShape"></stop><stop offset=".793" stop-color="#eba503" class="stopColoreba503 svgShape"></stop><stop offset="1" stop-color="#d7840b" class="stopColord7840b svgShape"></stop></radialGradient><path fill="url(#t)" d="M26.5 24.2c1-.9 2-1.9 3.2-2.5.4-1.6.7-3.4.7-5.4 0-6.4-2.6-11.6-5.9-11.6s-5.9 5.2-5.9 11.6c0 6.2 2.4 11.3 5.5 11.6.6-1.4 1.2-2.7 2.4-3.7z"></path><path fill="#722717" d="M26.5 24.2c.8-.8 1.7-1.6 2.6-2.2.4-1.5.6-3.2.6-5.1 0-6.1-2.5-11-5.6-11-3.1 0-5.6 4.9-5.6 11 0 6 2.5 10.9 5.5 11 .7-1.4 1.3-2.7 2.5-3.7z" class="color722717 svgShape"></path><linearGradient id="u" x1="29.732" x2="18.951" y1="17.305" y2="17.305" gradientUnits="userSpaceOnUse"><stop offset="0" stop-color="#f7f6f6" class="stopColorf7f6f6 svgShape"></stop><stop offset="1" stop-color="#cfcfce" class="stopColorcfcfce svgShape"></stop></linearGradient><path fill="url(#u)" d="M26.5 24.2c.9-.8 1.7-1.6 2.7-2.2.1-.3.1-.6.2-.9.2-1.2.4-2.4.4-3.7 0-1.2-.1-2.3-.3-3.4-.7-4.2-2.7-7.2-5.1-7.2-3 0-5.4 4.7-5.4 10.6 0 5.7 2.3 10.3 5.2 10.5.5-1.4 1.1-2.7 2.3-3.7z"></path><radialGradient id="v" cx="27.005" cy="17.421" r="4.36" gradientUnits="userSpaceOnUse"><stop offset="0" stop-color="#67c4d9" class="stopColor67c4d9 svgShape"></stop><stop offset=".793" stop-color="#2c5ca6" class="stopColor2c5ca6 svgShape"></stop><stop offset="1" stop-color="#2a4495" class="stopColor2a4495 svgShape"></stop></radialGradient><path fill="url(#v)" d="M29.7 17.3c0 1.3-.1 2.6-.4 3.7-.5 1.2-1.3 1.9-2.2 1.9-1.6 0-2.9-2.5-2.9-5.5s1.3-5.5 2.9-5.5c.9 0 1.7.8 2.3 2 .2 1.1.3 2.2.3 3.4z"></path><ellipse cx="27.4" cy="17.6" rx="1.7" ry="2.8" fill="#000000" class="color000 svgShape"></ellipse><circle cx="26" cy="15.6" r="1.3" fill="#ffffff" class="colorFFF svgShape"></circle><circle cx="27.8" cy="19.7" r=".6" fill="#ffffff" class="colorFFF svgShape"></circle><path fill="#8f3b14" d="M23.4 29s.3-.9.9-2.1c.3-.6.8-1.3 1.3-2 .3-.4.6-.7.9-1 .3-.3.6-.7 1-1 .7-.6 1.4-1.2 2.2-1.6.4-.2.8-.4 1.1-.6.4-.2.7-.3 1.1-.4l.9-.3c.3 0 .5-.1.7-.1.4-.1.6-.1.6-.1s-.2.1-.6.2c-.2.1-.4.2-.7.3-.2.1-.5.3-.8.4-.3.1-.6.3-1 .5-.3.2-.7.4-1 .7-.4.2-.7.5-1 .8-.4.3-.7.6-1 .9-.3.3-.6.6-1 .9-.3.3-.6.6-.9 1-.6.6-1 1.3-1.5 1.8-.4.5-.8 1-1 1.3l-.2.4z" class="color8F3B14 svgShape"></path><radialGradient id="w" cx="10.163" cy="19.776" r="15.673" gradientUnits="userSpaceOnUse"><stop offset="0" stop-color="#fbdd49" class="stopColorfbdd49 svgShape"></stop><stop offset=".793" stop-color="#eba503" class="stopColoreba503 svgShape"></stop><stop offset="1" stop-color="#d7840b" class="stopColord7840b svgShape"></stop></radialGradient><path fill="url(#w)" d="M10.5 9.7c-2.7 0-5 4.4-5 9.8 0 2.6.5 4.9 1.3 6.7 1.8.5 3.5 1.6 4.7 2.8v.1c2.2-1 3.8-4.9 3.8-9.6.2-5.4-2-9.8-4.8-9.8z"></path><radialGradient id="x" cx="10.669" cy="51.98" r="7.519" gradientTransform="matrix(1 0 0 1.0123 0 -32.875)" gradientUnits="userSpaceOnUse"><stop offset="0" stop-color="#fbdd49" class="stopColorfbdd49 svgShape"></stop><stop offset=".793" stop-color="#eba503" class="stopColoreba503 svgShape"></stop><stop offset="1" stop-color="#d7840b" class="stopColord7840b svgShape"></stop></radialGradient><path fill="url(#x)" d="M10.7 10.2c-2.7 0-4.8 4.3-4.8 9.6 0 2.5.5 4.8 1.3 6.5 1.7.5 3.4 1.6 4.5 2.8 0 0 0 .1.1.1 2.2-.9 3.8-4.8 3.8-9.4-.1-5.4-2.3-9.6-4.9-9.6z"></path><path fill="#722717" d="M11 11.3c-2.6 0-4.6 4-4.6 9 0 2.4.5 4.5 1.2 6.1 1.5.6 3 1.5 4.1 2.6.1.1.1.1.1.2 2.2-.7 3.8-4.4 3.8-8.9 0-5-2-9-4.6-9z" class="color722717 svgShape"></path><linearGradient id="y" x1="15.498" x2="6.626" y1="20.568" y2="20.568" gradientUnits="userSpaceOnUse"><stop offset="0" stop-color="#f7f6f6" class="stopColorf7f6f6 svgShape"></stop><stop offset="1" stop-color="#cfcfce" class="stopColorcfcfce svgShape"></stop></linearGradient><path fill="url(#y)" d="M15.1 17.2c-.7-3.1-2.2-5.3-4.1-5.3-2.5 0-4.4 3.9-4.4 8.7 0 2.3.4 4.3 1.2 5.9 1.5.6 2.9 1.5 3.9 2.5.1.1.1.1.1.2 1.5-.5 2.7-2.3 3.3-4.9.3-1.1.4-2.4.4-3.7 0-1.2-.1-2.3-.4-3.4z"></path><radialGradient id="z" cx="13.361" cy="20.72" r="3.558" gradientUnits="userSpaceOnUse"><stop offset="0" stop-color="#67c4d9" class="stopColor67c4d9 svgShape"></stop><stop offset=".793" stop-color="#2c5ca6" class="stopColor2c5ca6 svgShape"></stop><stop offset="1" stop-color="#2a4495" class="stopColor2a4495 svgShape"></stop></radialGradient><path fill="url(#z)" d="M15.5 20.6c0 1.3-.2 2.6-.4 3.7-.4.6-.9 1-1.5 1-1.3 0-2.4-2-2.4-4.6 0-2.5 1.1-4.6 2.4-4.6.6 0 1.1.4 1.5 1.1.3 1.1.4 2.2.4 3.4z"></path><ellipse cx="13.8" cy="20.8" rx="1.4" ry="2.3" fill="#000000" class="color000 svgShape"></ellipse><circle cx="12.6" cy="19.2" r="1.1" fill="#ffffff" class="colorFFF svgShape"></circle><circle cx="14.1" cy="22.6" r=".5" fill="#ffffff" class="colorFFF svgShape"></circle><path fill="#8f3b14" d="M12.7 30.1s-.3-.6-1-1.3c-.3-.4-.7-.8-1.2-1.1-.2-.2-.5-.4-.8-.6-.3-.2-.5-.4-.8-.5-.6-.3-1.2-.6-1.8-.7-.3-.1-.6-.2-.9-.2-.3 0-.5-.1-.8-.1H4.2c-.3 0-.4.1-.4.1s.2 0 .4.1c.1 0 .3 0 .5.1.2 0 .4.1.6.1.2 0 .5.1.7.2.3.1.5.2.8.3.3.1.6.2.8.3.3.1.6.3.8.4.3.1.5.3.8.5.3.2.5.3.8.5.5.3.9.7 1.3 1 .4.3.7.5.9.7.4.1.5.2.5.2z" class="color8F3B14 svgShape"></path></svg>