<svg xmlns="http://www.w3.org/2000/svg" viewBox="0 0 48 48" width="256" height="256"><path fill="#b15218" d="M24 .5C11 .5.5 11 .5 24S11 47.5 24 47.5 47.5 37 47.5 24 37 .5 24 .5z" class="colorB15218 svgShape"></path><radialGradient id="a" cx="24" cy="24" r="23.01" gradientUnits="userSpaceOnUse"><stop offset="0" stop-color="#fbdd49" class="stopColorfbdd49 svgShape"></stop><stop offset=".793" stop-color="#eba503" class="stopColoreba503 svgShape"></stop><stop offset="1" stop-color="#d7840b" class="stopColord7840b svgShape"></stop></radialGradient><circle cx="24" cy="24" r="23" fill="url(#a)"></circle><linearGradient id="b" x1="-765.384" x2="-765.486" y1="76.965" y2="107.093" gradientTransform="rotate(16.739 -92.982 2742.898)" gradientUnits="userSpaceOnUse"><stop offset="0" stop-color="#ffebb5" class="stopColorffebb5 svgShape"></stop><stop offset="1" stop-color="#fdf6be" stop-opacity="0" class="stopColorfdf6be svgShape"></stop></linearGradient><path fill="url(#b)" d="M42.1 26c-2.8 9.2-13.3 14.2-23.6 11.1-10.3-3-16.3-13-13.6-22.2S18.3.6 28.6 3.7 44.9 16.8 42.1 26z" opacity=".7"></path><radialGradient id="c" cx="30.793" cy="6562.323" r="6.788" gradientTransform="matrix(-1.0956 .00729 -.01865 -1.0038 180.097 6595.029)" gradientUnits="userSpaceOnUse"><stop offset="0" stop-color="#ffebb5" class="stopColorffebb5 svgShape"></stop><stop offset="1" stop-color="#fdf6be" stop-opacity="0" class="stopColorfdf6be svgShape"></stop></radialGradient><path fill="url(#c)" d="M16.1 7.9c-.1-3.6 3.4-6.5 7.7-6.5s7.9 2.8 7.9 6.4-3.4 6.5-7.7 6.5-7.8-2.8-7.9-6.4z" opacity=".7"></path><radialGradient id="d" cx="19.283" cy="6537.074" r="6.788" gradientTransform="matrix(-1.0956 .00729 -.01865 -1.0038 180.097 6595.029)" gradientUnits="userSpaceOnUse"><stop offset="0" stop-color="#ffebb5" class="stopColorffebb5 svgShape"></stop><stop offset="1" stop-color="#fdf6be" stop-opacity="0" class="stopColorfdf6be svgShape"></stop></radialGradient><path fill="url(#d)" d="M29.2 33.2c-.1-3.6 3.4-6.5 7.7-6.5 4.3 0 7.9 2.8 7.9 6.4s-3.4 6.5-7.7 6.5-7.8-2.9-7.9-6.4z" opacity=".7"></path><radialGradient id="e" cx="21.237" cy="6550.843" r="6.788" gradientTransform="matrix(-1.0956 .00729 -.01865 -1.0038 180.097 6595.029)" gradientUnits="userSpaceOnUse"><stop offset="0" stop-color="#ffebb5" class="stopColorffebb5 svgShape"></stop><stop offset="1" stop-color="#fdf6be" stop-opacity="0" class="stopColorfdf6be svgShape"></stop></radialGradient><path fill="url(#e)" d="M26.8 19.4c-.1-3.6 3.4-6.5 7.7-6.5s7.9 2.8 7.9 6.4-3.4 6.5-7.7 6.5-7.8-2.9-7.9-6.4z" opacity=".7"></path><radialGradient id="f" cx="41.425" cy="6540.942" r="6.788" gradientTransform="matrix(-1.0956 .00729 -.01865 -1.0038 180.097 6595.029)" gradientUnits="userSpaceOnUse"><stop offset="0" stop-color="#ffebb5" class="stopColorffebb5 svgShape"></stop><stop offset="1" stop-color="#fdf6be" stop-opacity="0" class="stopColorfdf6be svgShape"></stop></radialGradient><path fill="url(#f)" d="M4.9 29.4c-.1-3.6 3.4-6.5 7.7-6.5 4.3 0 7.9 2.8 7.9 6.4s-3.4 6.5-7.7 6.5S5 33 4.9 29.4z" opacity=".7"></path><radialGradient id="g" cx="295.246" cy="62.54" r="10.496" gradientTransform="rotate(-5.726 -91.023 2755.954) scale(.99999)" gradientUnits="userSpaceOnUse"><stop offset="0" stop-color="#330e10" class="stopColor330e10 svgShape"></stop><stop offset="1" stop-color="#871811" class="stopColor871811 svgShape"></stop></radialGradient><path fill="url(#g)" d="M37 29.4c-.5 4.8-2.4 9-5.3 11.7l-.1.1-.1.1c-1.8 1.6-3.9 2.6-6.3 2.8-2.5.2-4.8-.4-7-1.7l-.1-.1-.1-.1c-3.2-2.1-5.9-5.8-7.3-10.3l2.1.9c1.1.4 2.2.7 3.3.9 1.1.2 2.1.4 3.3.5 1.1.1 2.1.1 3.2.1.5 0 1.1-.1 1.6-.1.5-.1 1.1-.1 1.6-.2 1.1-.2 2.1-.4 3.1-.7 1.1-.3 2.1-.7 3.1-1.1 1.1-.5 2.1-1 3.1-1.6.7-.3 1.3-.8 1.9-1.2z"></path><path fill="#b15218" d="M8.1 32.3s-.1-.2-.2-.5 0-.8.3-1.2c.1-.2.3-.4.5-.4.2-.1.4-.1.6-.1.2 0 .3.1.4.1.1 0 .1.1.1.1s-.2.1-.4.3c-.1.1-.2.2-.3.2l-.3.3c-.2.2-.3.5-.4.8-.2.2-.3.4-.3.4zM37.2 27s.2-.2.6-.3c.2-.1.5-.1.7 0 .3 0 .6.2.8.4.2.2.4.4.5.7.1.2.2.5.2.7v.7s0-.1-.1-.2-.1-.2-.3-.4c-.1-.2-.2-.3-.3-.5-.1-.2-.3-.3-.4-.4-.3-.3-.7-.4-1.1-.5-.3-.2-.6-.2-.6-.2z" class="colorB15218 svgShape"></path><linearGradient id="h" x1="284.015" x2="287.558" y1="59.152" y2="59.152" gradientTransform="rotate(-5.726 -91.023 2755.954) scale(.99999)" gradientUnits="userSpaceOnUse"><stop offset="0" stop-color="#f7f6f6" class="stopColorf7f6f6 svgShape"></stop><stop offset="1" stop-color="#cfcfce" class="stopColorcfcfce svgShape"></stop></linearGradient><path fill="url(#h)" d="M16.7 36.6c.1.4-.2.7-.6.5-.5-.2-1.1-.4-1.7-.6-.4-.2-.9-.7-1-1.1-.2-.8-.5-1.7-.7-2.5 1.1.4 2.2.7 3.3.9.4 1 .5 1.9.7 2.8z"></path><linearGradient id="i" x1="287.248" x2="290.636" y1="60.367" y2="60.367" gradientTransform="rotate(-5.726 -91.023 2755.954) scale(.99999)" gradientUnits="userSpaceOnUse"><stop offset="0" stop-color="#f7f6f6" class="stopColorf7f6f6 svgShape"></stop><stop offset="1" stop-color="#cfcfce" class="stopColorcfcfce svgShape"></stop></linearGradient><path fill="url(#i)" d="M19.9 37.4c.1.4-.2.7-.6.6-.5-.1-1.1-.3-1.6-.4-.4-.1-.8-.6-.9-1-.2-.9-.4-1.9-.6-2.8 1.1.2 2.1.4 3.3.5.1 1 .3 2.1.4 3.1z"></path><linearGradient id="j" x1="290.441" x2="293.705" y1="61.089" y2="61.089" gradientTransform="rotate(-5.726 -91.023 2755.954) scale(.99999)" gradientUnits="userSpaceOnUse"><stop offset="0" stop-color="#f7f6f6" class="stopColorf7f6f6 svgShape"></stop><stop offset="1" stop-color="#cfcfce" class="stopColorcfcfce svgShape"></stop></linearGradient><path fill="url(#j)" d="M23 37.7c0 .5-.2.8-.6.8-.5 0-1.1-.1-1.6-.1-.4-.1-.8-.5-.9-.9-.2-1-.3-2.1-.5-3.1 1.1.1 2.1.1 3.2.1.2 1 .3 2.1.4 3.2z"></path><linearGradient id="k" x1="293.644" x2="296.847" y1="61.349" y2="61.349" gradientTransform="rotate(-5.726 -91.023 2755.954) scale(.99999)" gradientUnits="userSpaceOnUse"><stop offset="0" stop-color="#f7f6f6" class="stopColorf7f6f6 svgShape"></stop><stop offset="1" stop-color="#cfcfce" class="stopColorcfcfce svgShape"></stop></linearGradient><path fill="url(#k)" d="M25.8 34c.1 1.2.2 2.3.3 3.4 0 .4-.3.8-.7.9-.5.1-1 .1-1.6.2-.4 0-.8-.3-.8-.7-.1-1.1-.3-2.2-.4-3.3.5 0 1.1-.1 1.6-.1.6-.2 1.1-.3 1.6-.4z"></path><linearGradient id="l" x1="296.777" x2="300.04" y1="61.089" y2="61.089" gradientTransform="rotate(-5.726 -91.023 2755.954) scale(.99999)" gradientUnits="userSpaceOnUse"><stop offset="0" stop-color="#f7f6f6" class="stopColorf7f6f6 svgShape"></stop><stop offset="1" stop-color="#cfcfce" class="stopColorcfcfce svgShape"></stop></linearGradient><path fill="url(#l)" d="M29 33.3c0 .7.1 1.3.1 2v1.2c0 .4-.3.9-.7 1-.5.2-1 .3-1.5.4-.4.1-.7-.2-.8-.6-.1-1.1-.2-2.2-.3-3.4 1.1-.1 2.2-.3 3.2-.6z"></path><linearGradient id="m" x1="299.847" x2="303.233" y1="60.366" y2="60.366" gradientTransform="rotate(-5.726 -91.023 2755.954) scale(.99999)" gradientUnits="userSpaceOnUse"><stop offset="0" stop-color="#f7f6f6" class="stopColorf7f6f6 svgShape"></stop><stop offset="1" stop-color="#cfcfce" class="stopColorcfcfce svgShape"></stop></linearGradient><path fill="url(#m)" d="M29 33.3c1.1-.3 2.1-.7 3.1-1.1V35.1c0 .4-.3 1-.7 1.2-.5.3-1 .5-1.5.7-.4.2-.7-.1-.7-.5v-2.2c-.2-.3-.2-.7-.2-1z"></path><linearGradient id="n" x1="302.925" x2="306.467" y1="59.147" y2="59.147" gradientTransform="rotate(-5.726 -91.023 2755.954) scale(.99999)" gradientUnits="userSpaceOnUse"><stop offset="0" stop-color="#f7f6f6" class="stopColorf7f6f6 svgShape"></stop><stop offset="1" stop-color="#cfcfce" class="stopColorcfcfce svgShape"></stop></linearGradient><path fill="url(#n)" d="M35.2 30.6c0 .9-.1 1.8-.2 2.6 0 .4-.4 1-.8 1.3-.5.3-1 .7-1.5 1-.4.2-.7.1-.7-.4V32.2c1.2-.4 2.2-1 3.2-1.6z"></path><path fill="#b15218" d="M39.1 27.3c-.3.3-.7.6-1.1.9-.8.7-1.7 1.3-2.7 1.9-1 .6-2.1 1.2-3.3 1.6-1.2.5-2.5.9-3.8 1.2-1.3.3-2.6.5-4 .7-1.3.1-2.7.2-4.1.1-1.3-.1-2.7-.2-3.9-.5-1.3-.2-2.5-.6-3.6-.9-1.1-.4-2.1-.8-3.1-1.3-.2 0-.5-.2-.7-.3-.1.1-.2.3-.3.4.3.2.5.3.8.5.9.6 1.9 1 3.1 1.5 1.1.4 2.4.9 3.7 1.1 1.3.3 2.7.5 4.1.6 1.4.1 2.8 0 4.2-.1 1.4-.2 2.8-.4 4.1-.8 1.4-.3 2.7-.8 3.9-1.4 1.2-.5 2.3-1.2 3.4-1.8 1-.7 1.9-1.4 2.7-2.1.4-.3.7-.6 1-.9-.2-.1-.3-.2-.4-.4z" class="colorB15218 svgShape"></path><path fill="#d5101a" d="m31.6 41.2-.1.1c-1.8 1.6-3.9 2.6-6.3 2.8-2.5.2-4.8-.4-7-1.7l-.1-.1c1.3-2.2 3.4-3.4 5.2-2.8.6.2 1.1.5 1.5 1 .2-.3.5-.6.8-.8 1.5-1.1 4-.4 6 1.5z" class="colorD5101A svgShape"></path><path fill="#b15218" d="M27 39.1c-.6.1-1.1.2-1.5.5-.2.2-.5.4-.7.7-.4-.4-.9-.7-1.4-.9-.4-.1-.8-.2-1.3-.1-1.5.2-3 1.3-4.1 3l.1.1.1.1c1-1.6 2.4-2.7 3.8-2.9.4 0 .8 0 1.2.1.5.2.9.5 1.3.9-.6 1-.7 2.4-.7 2.4.3-1.2.9-2.2.9-2.2l.1-.2c.2-.3.5-.6.7-.8.4-.3.9-.5 1.4-.5 1.4-.1 3.1.6 4.5 2l.1-.1.1-.1c-1.3-1.4-3.1-2.2-4.6-2z" class="colorB15218 svgShape"></path><ellipse cx="26.7" cy="41.5" fill="#e41633" rx="2" ry="1.3" transform="rotate(-35.192 26.67 41.507)" class="colorE41633 svgShape"></ellipse><ellipse cx="21.4" cy="41.4" fill="#e41633" rx="1.8" ry="1.1" transform="rotate(-35.192 21.45 41.364)" class="colorE41633 svgShape"></ellipse><path fill="#b15218" d="M36.9 29.2c-3.7 2.7-8.2 4.3-12.7 4.7-2.3.3-4.6.2-6.9-.1-2.3-.3-4.5-.9-6.6-1.9h-.1v.1c.2.8.5 1.6.8 2.4.3.8.7 1.6 1.1 2.3.2.4.4.7.7 1.1.2.4.5.7.7 1.1.3.3.5.7.8 1l.9.9c.3.3.6.6 1 .8.3.3.7.5 1 .8.4.2.7.5 1.1.7.4.2.8.4 1.2.5.8.3 1.7.5 2.5.7.4.1.9.1 1.3.1s.9 0 1.3-.1.8-.1 1.3-.2c.4-.1.8-.2 1.2-.4.8-.3 1.6-.7 2.3-1.2.4-.2.7-.5 1-.8.3-.3.7-.5 1-.9l.9-.9c.3-.3.5-.7.8-1 .3-.3.5-.7.7-1.1.2-.4.4-.7.6-1.1l.6-1.2c.2-.4.3-.8.5-1.2.3-.8.5-1.6.7-2.5.2-.8.3-1.7.4-2.5l.1-.5-.2.4zm-.4 2.7c-.2.8-.4 1.7-.6 2.4-.1.4-.3.8-.4 1.2-.2.4-.3.8-.5 1.2-.2.4-.4.8-.6 1.1-.2.4-.4.7-.7 1.1-.2.3-.5.7-.8 1-.3.3-.5.6-.9.9-.3.3-.6.6-.9.8-.3.3-.7.5-1 .7-.7.5-1.5.8-2.3 1.1l-1.2.3c-.4.1-.9.1-1.3.2H24c-.4 0-.8 0-1.2-.1-.8-.1-1.6-.3-2.4-.7-.4-.2-.8-.3-1.1-.5-.4-.2-.7-.4-1.1-.6-.4-.2-.7-.5-1-.7-.3-.2-.7-.5-1-.8l-.9-.9c-.3-.3-.6-.6-.8-1-.3-.3-.5-.7-.8-1-.2-.3-.5-.7-.7-1.1-.5-.7-.8-1.5-1.2-2.2-.4-.7-.6-1.5-.9-2.3 2.1 1 4.3 1.7 6.5 2.1 2.3.4 4.6.5 6.9.3 2.3-.2 4.6-.7 6.8-1.6 2-.8 3.9-1.8 5.7-3.1-.1.8-.2 1.5-.3 2.2z" class="colorB15218 svgShape"></path><radialGradient id="o" cx="-264.915" cy="18.428" r="17.964" gradientTransform="rotate(5.846 -93.961 2739.911)" gradientUnits="userSpaceOnUse"><stop offset="0" stop-color="#fbdd49" class="stopColorfbdd49 svgShape"></stop><stop offset=".793" stop-color="#eba503" class="stopColoreba503 svgShape"></stop><stop offset="1" stop-color="#d7840b" class="stopColord7840b svgShape"></stop></radialGradient><path fill="url(#o)" d="M22.4 19.8v-2.1c0-.7-.2-1.5-.4-2.4-.2-.9-.7-1.9-1.3-2.9-.7-1-1.7-1.9-3-2.3-1.3-.5-3-.3-4.3.4-1.4.7-2.5 1.9-3.3 3.3-.4.7-.7 1.4-1 2.2-.3.8-.4 1.6-.5 2.3-.1 1.7 0 3.3.5 4.8s1.4 2.9 2.6 3.9c.6.5 1.3.9 2 1.1.4.1.7.2 1.1.2h1.1c1.4-.2 2.6-.9 3.4-1.7.9-.8 1.5-1.7 1.9-2.5.4-.8.7-1.6.9-2.3.1-.4.2-.8.2-1.1v-.4c.1-.3.1-.5.1-.5z"></path><radialGradient id="p" cx="-258.266" cy="22.22" r="7.96" gradientTransform="matrix(1.0183 .1041 -.1017 .9948 280.854 24.079)" gradientUnits="userSpaceOnUse"><stop offset="0" stop-color="#fbdd49" class="stopColorfbdd49 svgShape"></stop><stop offset=".793" stop-color="#eba503" class="stopColoreba503 svgShape"></stop><stop offset="1" stop-color="#d7840b" class="stopColord7840b svgShape"></stop></radialGradient><path fill="url(#p)" d="M22.4 20v-2c0-.7-.2-1.4-.4-2.3-.2-.9-.7-1.9-1.3-2.8-.7-.9-1.6-1.8-3-2.3-1.3-.5-2.9-.3-4.2.4-1.4.7-2.5 1.9-3.3 3.2-.4.7-.7 1.4-.9 2.2-.3.6-.4 1.5-.5 2.2-.1 1.6 0 3.2.5 4.7s1.3 2.9 2.5 3.8c.6.5 1.3.8 2 1.1.4.1.7.2 1 .2h1.1c1.4-.2 2.5-.9 3.4-1.6.8-.8 1.4-1.7 1.9-2.5.4-.8.7-1.6.9-2.2.1-.4.2-.8.2-1.1v-.4c0-.4.1-.6.1-.6z"></path><path fill="#722717" d="M22 20.4v-1.9c0-.6-.2-1.4-.4-2.2-.2-.8-.6-1.8-1.2-2.7-.6-.9-1.5-1.7-2.8-2.2-1.2-.4-2.7-.3-4 .4-1.3.7-2.3 1.8-3 3.1-.4.6-.7 1.3-.9 2-.2.7-.4 1.5-.5 2.2-.1 1.5 0 3 .5 4.4.5 1.4 1.3 2.7 2.4 3.6.6.5 1.2.8 1.8 1 .4.1.7.2 1 .2h1c1.3-.1 2.4-.8 3.1-1.5.8-.7 1.3-1.6 1.7-2.3.4-.8.7-1.5.8-2.1.1-.4.2-.7.2-1V21c.3-.4.3-.6.3-.6z" class="color722717 svgShape"></path><radialGradient id="q" cx="-261.243" cy="22.704" r="7.272" gradientTransform="rotate(5.846 -93.961 2739.911)" gradientUnits="userSpaceOnUse"><stop offset=".618" stop-color="#f2f2f2" class="stopColorf2f2f2 svgShape"></stop><stop offset="1" stop-color="#cbcaca" class="stopColorcbcaca svgShape"></stop></radialGradient><path fill="url(#q)" d="M22 20.4c-.5 4.6-3.6 8-6.9 7.6-3.3-.3-5.7-4.3-5.2-8.9.5-4.6 3.6-8 6.9-7.6 3.3.4 5.7 4.4 5.2 8.9z"></path><path fill="#b15218" d="M8.8 10.7s.2-.7.8-1.5c.3-.4.7-.9 1.2-1.3s1.2-.8 1.8-1c.4-.1.7-.2 1.1-.2.4 0 .7 0 1.1.1.3 0 .6.2.9.3.3.1.5.3.7.4.2.2.4.3.5.5.1.2.3.3.4.4.2.2.3.4.3.4l-.4-.2c-.1-.1-.3-.1-.5-.2s-.4-.1-.6-.2c-.2-.1-.5-.2-.7-.2-.3 0-.5-.1-.8-.1h-.8c-.3 0-.6.1-.8.2-1.1.3-2.1 1-2.9 1.6-.8.6-1.3 1-1.3 1z" class="colorB15218 svgShape"></path><radialGradient id="r" cx="-508.892" cy="-422.705" r="5.014" gradientTransform="matrix(.9817 .1904 -.1649 .8503 445.893 478.398)" gradientUnits="userSpaceOnUse"><stop offset="0" stop-color="#67c4d9" class="stopColor67c4d9 svgShape"></stop><stop offset=".793" stop-color="#2c5ca6" class="stopColor2c5ca6 svgShape"></stop><stop offset="1" stop-color="#2a4495" class="stopColor2a4495 svgShape"></stop></radialGradient><path fill="url(#r)" d="M20.3 22.9c-.5 2.6-2.8 4.4-5.2 3.9-2.4-.5-3.9-3-3.4-5.6s2.8-4.4 5.2-3.9c2.4.5 3.9 3 3.4 5.6z"></path><ellipse cx="16" cy="22.1" rx="2.3" ry="2.6" transform="rotate(10.978 16.023 22.061)" fill="#000000" class="color000 svgShape"></ellipse><circle cx="15.4" cy="20.9" r=".7" fill="#ffffff" class="colorFFF svgShape"></circle><circle cx="16.3" cy="23.8" r=".4" fill="#ffffff" class="colorFFF svgShape"></circle><radialGradient id="s" cx="-238.44" cy="16.566" r="14.086" gradientTransform="rotate(5.846 -93.961 2739.911)" gradientUnits="userSpaceOnUse"><stop offset="0" stop-color="#fbdd49" class="stopColorfbdd49 svgShape"></stop><stop offset=".793" stop-color="#eba503" class="stopColoreba503 svgShape"></stop><stop offset="1" stop-color="#d7840b" class="stopColord7840b svgShape"></stop></radialGradient><path fill="url(#s)" d="M23.8 19.7s0-.2.1-.5v-.4c0-.3.1-.6.2-1 .1-.6.4-1.2.8-2 .4-.7.9-1.5 1.7-2.2.8-.7 1.8-1.3 3-1.5 1.2-.2 2.6.3 3.6 1.1 1.1.9 1.8 2.1 2.3 3.4.2.7.4 1.4.4 2.1.1.7.1 1.5 0 2.1-.2 1.4-.6 2.8-1.3 4-.7 1.2-1.7 2.3-2.9 2.9-.6.3-1.3.5-1.9.6h-.9c-.3 0-.6-.1-.9-.2-1.2-.4-2-1.2-2.6-2-.6-.8-1-1.7-1.2-2.5-.2-.8-.3-1.5-.3-2.1v-1.4c-.1-.2-.1-.4-.1-.4z"></path><radialGradient id="t" cx="-247.509" cy="45.127" r="6.989" gradientTransform="matrix(.9948 .1017 -.1026 1.0035 280.551 .42)" gradientUnits="userSpaceOnUse"><stop offset="0" stop-color="#fbdd49" class="stopColorfbdd49 svgShape"></stop><stop offset=".793" stop-color="#eba503" class="stopColoreba503 svgShape"></stop><stop offset="1" stop-color="#d7840b" class="stopColord7840b svgShape"></stop></radialGradient><path fill="url(#t)" d="M23.8 19.9s0-.2.1-.5V19c0-.3.1-.6.2-.9.1-.6.4-1.2.7-1.9.4-.7.9-1.5 1.6-2.2.7-.7 1.7-1.3 2.9-1.4 1.2-.2 2.5.2 3.5 1.1 1 .8 1.8 2 2.2 3.4.2.7.4 1.3.4 2 .1.7.1 1.4 0 2.1-.2 1.4-.5 2.8-1.2 3.9-.7 1.2-1.6 2.2-2.8 2.8-.6.3-1.2.5-1.9.6h-.9c-.3 0-.6-.1-.9-.2-1.2-.4-2-1.2-2.6-2-.6-.8-.9-1.7-1.1-2.5-.2-.8-.3-1.5-.3-2.1v-1.4c.1-.2.1-.4.1-.4z"></path><path fill="#722717" d="M24 20.4s0-.2.1-.4v-.4c0-.3.1-.5.2-.9.1-.5.4-1.2.7-1.8.3-.7.8-1.4 1.5-2.1.7-.6 1.6-1.2 2.8-1.4 1.1-.2 2.4.2 3.4 1s1.7 1.9 2.1 3.2c.2.6.3 1.3.4 1.9.1.7 0 1.3 0 1.9-.2 1.3-.5 2.6-1.2 3.7-.6 1.1-1.6 2.1-2.7 2.7-.6.3-1.2.5-1.8.5h-.9c-.3 0-.6-.1-.9-.2-1.1-.4-1.9-1.1-2.4-1.9-.5-.8-.9-1.6-1.1-2.3-.2-.7-.3-1.4-.3-1.9v-1.3c0-.2.1-.3.1-.3z" class="color722717 svgShape"></path><radialGradient id="u" cx="-431.827" cy="22.441" r="6.392" gradientTransform="scale(-1 1) rotate(-5.837 -245.617 -3926.337)" gradientUnits="userSpaceOnUse"><stop offset=".618" stop-color="#f2f2f2" class="stopColorf2f2f2 svgShape"></stop><stop offset="1" stop-color="#cbcaca" class="stopColorcbcaca svgShape"></stop></radialGradient><path fill="url(#u)" d="M24 20.4c-.4 4 1.6 7.5 4.6 7.8 2.9.3 5.6-2.7 6.1-6.7.4-4-1.6-7.5-4.6-7.8s-5.7 2.7-6.1 6.7z"></path><path fill="#b15218" d="M37 14.4s0-.6-.4-1.4c-.2-.4-.4-.9-.8-1.3-.4-.5-.9-.9-1.4-1.2-.3-.1-.6-.3-.9-.3-.3-.2-.6-.2-.9-.2-.3 0-.6.1-.9.1-.3 0-.5.2-.7.2l-.6.3c-.2.1-.3.2-.4.3l-.3.3s.2 0 .4-.1c.1 0 .3-.1.4-.1.2-.1.4 0 .6-.1.2 0 .4-.1.6 0h.7c.2 0 .5.1.7.2.2.1.5.2.7.3.9.5 1.7 1.3 2.2 1.9.7.6 1 1.1 1 1.1z" class="colorB15218 svgShape"></path><radialGradient id="v" cx="-499.418" cy="-424.306" r="4.408" gradientTransform="matrix(.9817 .1904 -.1649 .8503 449.13 478.729)" gradientUnits="userSpaceOnUse"><stop offset="0" stop-color="#67c4d9" class="stopColor67c4d9 svgShape"></stop><stop offset=".793" stop-color="#2c5ca6" class="stopColor2c5ca6 svgShape"></stop><stop offset="1" stop-color="#2a4495" class="stopColor2a4495 svgShape"></stop></radialGradient><path fill="url(#v)" d="M32.6 23.6c-.4 2.3-2.5 3.9-4.6 3.5s-3.4-2.6-2.9-4.9 2.5-3.9 4.6-3.5 3.3 2.6 2.9 4.9z"></path><ellipse cx="28.8" cy="22.8" rx="2" ry="2.3" transform="rotate(10.978 28.828 22.835)" fill="#000000" class="color000 svgShape"></ellipse><circle cx="28.3" cy="21.8" r=".6" fill="#ffffff" class="colorFFF svgShape"></circle><circle cx="29" cy="24.4" r=".3" fill="#ffffff" class="colorFFF svgShape"></circle><path fill="#fbce40" d="M2.4 27.9s.1.4.4 1.2c.3.7.7 1.8 1.4 3 .3.6.7 1.2 1.1 1.9.4.6.9 1.3 1.4 2 .3.3.5.7.8 1 .3.3.6.6.9 1 .6.7 1.3 1.3 1.9 1.9.6.6 1.4 1.1 2.1 1.7.7.5 1.5.9 2.2 1.4.7.4 1.5.8 2.2 1.1.7.4 1.4.6 2 .8.6.2 1.2.5 1.7.6.5.2 1 .3 1.4.4.8.2 1.2.4 1.2.4s-.5-.1-1.2-.2c-.4-.1-.9-.2-1.4-.2-.6-.1-1.2-.3-1.8-.5-.7-.2-1.4-.4-2.1-.7-.7-.3-1.5-.6-2.3-1-.7-.5-1.6-.9-2.3-1.4-.7-.6-1.5-1.1-2.2-1.7-.7-.6-1.4-1.3-2-2-.6-.7-1.2-1.4-1.7-2.1-.7-.8-1.1-1.5-1.5-2.2-.4-.7-.7-1.4-1-2-.2-.7-.4-1.3-.6-1.8-.2-.5-.3-1-.4-1.4-.2-.8-.2-1.2-.2-1.2z" opacity=".7" class="colorFBCE40 svgShape"></path><path fill="#ffd681" d="M37.6 27.9s-.3.3-1 .8c-.3.2-.7.5-1.2.8-.5.3-1 .6-1.6.9-.6.3-1.3.7-2 1-.7.3-1.5.6-2.3.9-.8.2-1.7.5-2.5.7-.9.2-1.8.4-2.7.5l-1.3.1h-1.4c-.9.1-1.8-.1-2.6-.1-.9 0-1.7-.3-2.4-.4-.4-.1-.8-.2-1.1-.3-.3-.1-.7-.2-1-.3-.6-.2-1.2-.4-1.7-.6-.5-.2-.9-.5-1.3-.6-.7-.4-1.1-.6-1.1-.6s.4.1 1.2.4c.4.1.8.3 1.3.5s1.1.3 1.8.5c.3.1.7.2 1 .3.4.1.7.1 1.1.2.8.1 1.5.3 2.4.3.8 0 1.7.1 2.6.1h1.3l1.3-.2c.9-.1 1.7-.3 2.6-.4.9-.2 1.7-.4 2.5-.6.8-.3 1.6-.5 2.3-.8.7-.3 1.4-.5 2-.8.6-.3 1.2-.5 1.7-.8.5-.3.9-.5 1.3-.7.5-.6.8-.8.8-.8z" class="colorFFD681 svgShape"></path><linearGradient id="w" x1="8.442" x2="17.818" y1="7.717" y2="7.717" gradientUnits="userSpaceOnUse"><stop offset="0" stop-color="#ffebb5" class="stopColorffebb5 svgShape"></stop><stop offset="1" stop-color="#fdf6be" stop-opacity="0" class="stopColorfdf6be svgShape"></stop></linearGradient><path fill="url(#w)" d="M8.4 10c.2-1.4 1-2.8 2.2-3.6s2.7-1.2 4.1-.9 2.6 1.4 3.1 2.8c-1-1.7-3.3-2.7-5.2-2-.6.3-1.1.7-1.6 1.1-1 .8-1.8 1.7-2.6 2.6z" opacity=".7"></path><linearGradient id="x" x1="29.142" x2="37.167" y1="11.252" y2="11.252" gradientUnits="userSpaceOnUse"><stop offset="0" stop-color="#ffebb5" class="stopColorffebb5 svgShape"></stop><stop offset="1" stop-color="#fdf6be" stop-opacity="0" class="stopColorfdf6be svgShape"></stop></linearGradient><path fill="url(#x)" d="M29.1 10.3c.7-1 2-1.6 3.2-1.5 1.2.1 2.4.7 3.2 1.6s1.3 2.1 1.6 3.3c-.3-1.1-.8-2.1-1.6-2.8-.8-.8-1.8-1.3-2.9-1.3-.6 0-1.2.2-1.9.3-.4.1-1 .3-1.6.4z" opacity=".7"></path></svg>