<svg xmlns="http://www.w3.org/2000/svg" viewBox="0 0 48 48" width="256" height="256"><path fill="#b15218" d="M24 .5C11 .5.5 11 .5 24S11 47.5 24 47.5 47.5 37 47.5 24 37 .5 24 .5z" class="colorB15218 svgShape"></path><radialGradient id="a" cx="24" cy="24" r="23" gradientUnits="userSpaceOnUse"><stop offset="0" stop-color="#fbdd49" class="stopColorfbdd49 svgShape"></stop><stop offset=".793" stop-color="#eba503" class="stopColoreba503 svgShape"></stop><stop offset="1" stop-color="#d7840b" class="stopColord7840b svgShape"></stop></radialGradient><circle cx="24" cy="24" r="23" fill="url(#a)"></circle><linearGradient id="b" x1="260.455" x2="260.358" y1="79.411" y2="107.787" gradientTransform="matrix(1.0923 -.1302 .1184 .993 -273.004 -48.833)" gradientUnits="userSpaceOnUse"><stop offset="0" stop-color="#ffebb5" class="stopColorffebb5 svgShape"></stop><stop offset="1" stop-color="#fdf6be" stop-opacity="0" class="stopColorfdf6be svgShape"></stop></linearGradient><path fill="url(#b)" d="M43.6 17.4c1.1 9-7 17.4-18 18.7s-20.8-4.9-21.9-14 7-17.4 18-18.7 20.8 5 21.9 14z" opacity=".7"></path><radialGradient id="c" cx="22.907" cy="122.077" r="27.147" gradientTransform="matrix(1.0438 0 0 1.0365 4.607 -94.959)" gradientUnits="userSpaceOnUse"><stop offset="0" stop-color="#fbdd49" class="stopColorfbdd49 svgShape"></stop><stop offset=".793" stop-color="#eba503" class="stopColoreba503 svgShape"></stop><stop offset="1" stop-color="#d7840b" class="stopColord7840b svgShape"></stop></radialGradient><path fill="url(#c)" d="M41.6 36.3s-.4-.6-.9-1.6c-1.3-2.7-3.4-8-3.1-13.6v-.5l-.4.2c-4.2 2.3-9 3.4-14.3 3.4-2.4 0-4.9-.2-7.3-.7l-.4-.1v.4c0 .1 1.1 9.7 7.1 14.8l.4.4c2.8 2.2 6.1 3.4 9.2 3.4 4 0 7.3-2 9.6-5.9l.1-.1v-.1z"></path><radialGradient id="d" cx="25.003" cy="68.706" r="11.658" gradientTransform="matrix(1.0259 0 0 1.0147 2.841 -38.374)" gradientUnits="userSpaceOnUse"><stop offset="0" stop-color="#fbdd49" class="stopColorfbdd49 svgShape"></stop><stop offset=".793" stop-color="#eba503" class="stopColoreba503 svgShape"></stop><stop offset="1" stop-color="#d7840b" class="stopColord7840b svgShape"></stop></radialGradient><path fill="url(#d)" d="M41.4 36s-.4-.6-.8-1.6c-1.3-2.6-3.4-7.8-3-13.3v-.5l-.4.2c-4.1 2.2-8.8 3.4-14.1 3.4-2.4 0-4.8-.2-7.2-.7l-.3-.1v.4c0 .1 1 9.5 7 14.5l.4.4c2.7 2.1 6 3.3 9 3.3 3.9 0 7.1-2 9.4-5.8l.1-.1-.1-.1z"></path><path fill="#b15218" d="M40.7 35s-.3-.5-.8-1.4c-1.2-2.4-3.2-7.2-2.9-12.1v-.4l-.4.2c-3.9 2.1-8.4 3.1-13.4 3.1-2.3 0-4.6-.2-6.8-.6l-.3-.1v.3c0 .1 1 8.7 6.7 13.3l.4.3c2.6 1.9 5.7 3 8.6 3 3.7 0 6.8-1.8 8.9-5.3l.1-.1-.1-.2z" class="colorB15218 svgShape"></path><radialGradient id="e" cx="28.463" cy="30.834" r="10.845" gradientUnits="userSpaceOnUse"><stop offset="0" stop-color="#330e10" class="stopColor330e10 svgShape"></stop><stop offset="1" stop-color="#871811" class="stopColor871811 svgShape"></stop></radialGradient><path fill="url(#e)" d="M40.5 35.1c0 .1-.1.1-.1.2s-.1.1-.1.2c-4.5 6.9-11.9 5.4-16.5 2.2l-.1-.1-.1-.1c-.1 0-.1-.1-.2-.1 0 0-.1 0-.1-.1-.1 0-.1-.1-.2-.1-5.7-4.6-6.6-13.2-6.6-13.2 4.5.8 12.8 1.5 20.4-2.5-.3 5.1 1.7 9.9 2.9 12.3.2.3.3.6.5.9l.2.4z"></path><path fill="#b15218" d="M8.4 13.8c.2-.5.5-1 .9-1.5.2-.3.4-.5.6-.8.2-.3.5-.5.7-.7.3-.2.5-.4.8-.6.3-.2.5-.4.8-.5.3-.1.5-.3.8-.4.3-.1.5-.3.8-.3.2-.1.5-.1.7-.2.2 0 .4-.1.5-.1.3-.1.5-.1.5-.1v-.1s-.2-.1-.5-.1c-.2 0-.4-.1-.6-.1h-.8c-.3 0-.6.1-.9.1-.3.1-.6.2-1 .4l-.9.6c-.3.2-.5.5-.8.8-.2.3-.5.6-.7.9-.1.3-.3.6-.4.9-.3.6-.6 1.2-.7 1.7-.3 1-.5 1.7-.5 1.7h.1s.2-.7.6-1.6zM27.6 6h2.5c.5 0 1-.1 1.6 0 .5.1 1.1.2 1.5.5.5.2.9.5 1.2.7.7.5 1 .9 1 .9l.1-.1s-.3-.5-.9-1.1c-.1-.2-.3-.3-.5-.5s-.4-.3-.6-.5c-.5-.3-1-.6-1.6-.7-.3-.2-.7-.2-1-.3-.3-.1-.6-.1-.9-.1-.6 0-1.1.1-1.5.3-.4.1-.8.4-1 .5-.2.1-.3.2-.3.2v.1c0 .1.2.1.4.1z" class="colorB15218 svgShape"></path><path fill="#dadada" d="M37.2 26.7c-.3-1.7-.5-3.5-.4-5.3-7.6 4-15.9 3.3-20.4 2.5 0 0 .5 3.6 1.1 4.7 0 0 3.3.4 5.3.4 4.3.2 9.4-.3 14.4-2.3z" class="colorDADADA svgShape"></path><path fill="#ffffff" d="M23 26.4c-1.8 0-5.5-.6-6.3-.7.2 1.1.5 2.3.8 2.9 0 0 3.3.4 5.3.4 4.3.2 9.4-.3 14.4-2.3-.2-.9-.3-1.9-.4-2.8-5.1 1.9-9.4 2.7-13.8 2.5z" class="colorFFF svgShape"></path><path fill="#d5101a" d="M40.4 35.3c0 .1-.1.1-.1.2-4.5 6.9-11.9 5.4-16.5 2.2l-.1-.1c.1-.2.1-.5.2-.7 1.3-3.5 4.1-5.7 6.5-4.8.4.1.7.4 1 .6.3-.6.7-1.1 1.2-1.4 2.1-1.3 5.4.1 7.4 3.2.1.2.3.5.4.8z" class="colorD5101A svgShape"></path><path d="m40.5 35.1-.3-.6c0-.1-.1-.1-.1-.2-1.6-2.6-4.3-4.1-6.4-3.8-.5.1-.9.2-1.3.5-.5.3-.9.7-1.1 1.3-.3-.2-.6-.4-.9-.5-.5-.2-1.1-.2-1.7-.1-2 .3-4 2.4-5 5.1-.1.2-.2.4-.2.7l.1.1.1.1c.1-.3.1-.5.2-.8.9-2.6 2.8-4.5 4.8-4.9.5-.1 1 0 1.5.1.3.1.6.3.9.6l.2.1s.8.8 1.5 1.9c-.1-.1-.5-1.4-1.3-2.2.3-.5.6-1 1.1-1.3.3-.2.7-.4 1.1-.4 2-.3 4.5 1.2 6.1 3.6.2.3.4.6.5.9 0-.1.1-.1.1-.2.1.1.1.1.1 0z" fill="#000000" class="color000 svgShape"></path><ellipse cx="29.7" cy="34" fill="#e41633" rx="2.1" ry="1.3" transform="rotate(-159.891 29.708 34.026)" class="colorE41633 svgShape"></ellipse><ellipse cx="34.9" cy="32.5" fill="#e41633" rx="1.8" ry="1.1" transform="rotate(-159.891 34.853 32.487)" class="colorE41633 svgShape"></ellipse><path fill="#fbce40" d="M42.4 10.6s.2.4.6 1.1c.4.7.8 1.8 1.2 3.1.2.6.4 1.4.6 2.1.2.8.4 1.6.5 2.4.1.4.1.9.2 1.3s.1.9.1 1.3c.1.9 0 1.8 0 2.7 0 .9-.2 1.8-.2 2.7-.1.9-.3 1.8-.5 2.6s-.5 1.6-.7 2.4c-.2.8-.6 1.4-.8 2.1-.3.6-.5 1.3-.8 1.7-.3.5-.5.9-.7 1.3-.4.7-.6 1.2-.6 1.2s.3-.4.7-1.1c.2-.3.5-.8.8-1.2.3-.5.6-1.1.9-1.7.3-.6.7-1.3 1-2.1l.9-2.4c.2-.9.5-1.8.6-2.7.1-.9.3-1.9.3-2.8 0-1 0-1.9-.1-2.8 0-.9-.2-1.8-.4-2.7-.2-.9-.4-1.7-.6-2.5-.3-.8-.5-1.5-.8-2.1-.1-.5-.4-1-.6-1.5-.3-.5-.5-.9-.8-1.3-.5-.7-.8-1.1-.8-1.1z" opacity=".7" class="colorFBCE40 svgShape"></path><radialGradient id="f" cx="-886.226" cy="5069.235" r="5.312" gradientTransform="matrix(-.9747 .2236 -.2236 -.9748 302.3 5154.421)" gradientUnits="userSpaceOnUse"><stop offset="0" stop-color="#fbdd49" class="stopColorfbdd49 svgShape"></stop><stop offset=".793" stop-color="#eba503" class="stopColoreba503 svgShape"></stop><stop offset="1" stop-color="#d7840b" class="stopColord7840b svgShape"></stop></radialGradient><path fill="url(#f)" d="m25.8 15.7.6.6c.4.3 1 .8 1.8 1.1l.6.2c.2.1.4.1.6.1.5.1.9.2 1.4.1.5-.1 1-.2 1.4-.4.4-.2.9-.3 1.3-.6 1.5-.7 3-1.8 4.1-3.2.9-1.1 1.4-2.1 1.4-2.1.1-.2.1-.4-.1-.5l-.2-.2c-.1-.1-.2-.2-.4-.2h-.1c-.1 0-.2.1-.2.1s-.6.6-1.6 1.3c-.5.3-1.1.7-1.8 1l-.1.1c-.6.2-1.2.5-1.8.6H32.4c-.4.3-.9.3-1.4.3h-1.3c-.2 0-.4 0-.6.1-.3.1-.6.1-.9.1-.2 0-.4 0-.5.1-.1 0-.2 0-.3.1-.3 0-.5.1-.7.1h-.2c-.3.1-.5.1-.5.1-.2.1-.3.2-.3.4v.3c0 .2 0 .3.1.4z"></path><radialGradient id="g" cx="335.635" cy="5069.235" r="5.312" gradientTransform="matrix(.9747 -.2236 -.2236 -.9748 822.492 5035.107)" gradientUnits="userSpaceOnUse"><stop offset="0" stop-color="#fbdd49" class="stopColorfbdd49 svgShape"></stop><stop offset=".793" stop-color="#eba503" class="stopColoreba503 svgShape"></stop><stop offset="1" stop-color="#d7840b" class="stopColord7840b svgShape"></stop></radialGradient><path fill="url(#g)" d="M22.9 16.4s-.1.3-.3.8c-.2.4-.6 1.1-1.1 1.8l-.5.4c-.2.1-.3.3-.5.4-.4.3-.8.6-1.2.7-.5.2-1 .3-1.4.3-.5 0-.9.1-1.4.1-1.6.1-3.5-.4-5.1-1.1-1.3-.6-2.2-1.2-2.2-1.3-.2-.1-.3-.3-.2-.5v-.3c0-.1.1-.3.2-.3 0 0 .1 0 .1-.1h.3s.8.3 2 .5c.6.1 1.3.1 2 .1h.1c.6 0 1.3-.1 1.9-.2l.2-.1h.1c.5-.1.9-.3 1.3-.5.2-.1.4-.2.7-.3.2 0 .3-.1.5-.2s.4-.1.5-.2l.9-.3c.2-.1.3-.1.5-.2.1 0 .2-.1.3-.1.3-.1.5-.2.7-.2h.2c.3-.1.5-.1.5-.1.2 0 .4.1.5.2l.1.2c.3.2.3.3.3.5z"></path><path fill="#722717" d="M38.7 11.5s-.5.7-1.5 1.6c-.9.9-2.4 2-4 2.7-.4.2-.8.4-1.2.5-.4.2-.8.3-1.3.4-.4.1-.8.1-1.2.1h-.6c-.2 0-.4-.1-.5-.1-.7-.1-1.2-.4-1.6-.6-.4-.2-.5-.3-.5-.3v-.2s.2-.1.6-.2c.2 0 .4-.1.7-.1.3 0 .5-.1.8-.2.3 0 .6-.1.9-.2.3-.1.7-.1 1-.2.7-.1 1.5-.1 2.3-.3.8-.2 1.5-.5 2.2-.8.7-.3 1.4-.6 1.9-1 1.1-.6 1.7-1.2 1.7-1.2l.3.1zM9.5 18s.8.2 2.1.3c.6.1 1.4 0 2.1 0 .8-.1 1.6-.1 2.4-.3.8-.1 1.5-.5 2.2-.7.4-.1.7-.2 1-.3.3-.1.6-.2.9-.2.3-.1.6-.1.8-.2.2-.1.5-.1.7-.2.4-.1.6-.1.6-.1l.1.2s-.1.2-.3.5c-.2.3-.6.8-1.2 1.2-.1.1-.3.2-.4.3-.2.1-.3.2-.5.3-.3.2-.7.4-1.1.5-.4.1-.8.2-1.3.2-.4 0-.9.1-1.3.1-1.8.1-3.5-.2-4.8-.6-1.2-.4-2-.8-2-.8V18z" class="color722717 svgShape"></path><radialGradient id="h" cx="-349.324" cy="35.894" r="9.53" gradientTransform="matrix(-.9995 .03181 .0318 .9995 -337.84 11.256)" gradientUnits="userSpaceOnUse"><stop offset="0" stop-color="#fbdd49" class="stopColorfbdd49 svgShape"></stop><stop offset=".793" stop-color="#eba503" class="stopColoreba503 svgShape"></stop><stop offset="1" stop-color="#d7840b" class="stopColord7840b svgShape"></stop></radialGradient><path fill="url(#h)" d="M5.1 30.9c.1-.1.1-.3.2-.4 1.7-3 4.9-4.7 7-4.8.7 0 1.7.1 2.1 1.1 1.1 2.6-3.7 5.2-3.7 5.2-.3.1-.4.5-.3.8.1.3.5.4.7.3 4.3-1.7 7.2-1.8 8.3-.3.7.9.6 2.3.5 3.1l-.2.9.3.3c.8.8 1.8 2.5.4 4-.3.4-.7.6-1.2.6-.6 0-1.3-.3-1.7-.5l-1-.6c-.1.2-.2.4-.2.5-.2.3-.4.7-.7 1.4-.5 1.1-1.4 3-2.4 3.5-.4.2-1 .3-1.6.3-1.5 0-3.7-.5-5-1.9-2.6-2.8-4-8.5-1.5-13.5z"></path><path fill="#fbce40" d="M19.1 36.1c.1-.5 0-1.1-.1-1.6-.5-2.7-7.6-.9-7.6-.9 7.4-3.1 8.2 0 8.2 0 .5 1.2.1 2.5.1 2.6-.3 0-.4-.1-.6-.1z" opacity=".7" class="colorFBCE40 svgShape"></path><path fill="#fbce40" d="M20 41s.1-.1.3-.2c.2-.2.4-.5.5-1 .1-.2.1-.5 0-.8 0-.2-.1-.6-.3-.8-.3-.5-.8-1-1.3-1.3l-.9-.3c-.3-.1-.6 0-.9 0-.6 0-1.1.2-1.5.3-.4.2-.7.3-.9.5-.2.1-.3.2-.3.2h.4c.2 0 .6-.1 1-.1h1.3c.5 0 .9.1 1.4.3.4.2.8.5 1 .8.1.2.2.3.3.6.1.2.1.4.1.5 0 .4 0 .7-.1.9 0 .2-.1.4-.1.4zM8.9 28s-.2.1-.6.4c-.3.3-.8.8-1.3 1.4-.5.6-1 1.4-1.4 2.3-.2.5-.4.9-.5 1.4-.2.5-.3 1-.3 1.5-.1.5-.1 1.1-.1 1.6s.1 1 .1 1.5c.1.5.2.9.3 1.4.1.4.3.8.4 1.2.1.4.3.7.4 1 .2.3.3.5.4.7.3.4.5.6.5.6s-.1-.3-.2-.7c-.1-.2-.1-.5-.2-.8-.1-.3-.2-.6-.2-1-.1-.4-.2-.8-.2-1.2 0-.4-.1-.9-.2-1.3v-1.4c0-.5 0-1 .1-1.4.1-.5.1-1 .3-1.4.1-.5.3-.9.4-1.4.3-.9.7-1.7 1.1-2.3.4-.7.7-1.2 1-1.5 0-.4.2-.6.2-.6z" class="colorFBCE40 svgShape"></path><path fill="#b15218" d="M6.5 44.5c1.3 1.4 3.5 2 5.1 2 .6 0 1.2-.1 1.6-.3 1.1-.5 2-2.4 2.5-3.6.3-.6.5-1.1.7-1.4 0-.1.1-.2.2-.3l.9.5c.4.2 1.1.5 1.8.5.5 0 1-.2 1.3-.6 1.4-1.6.4-3.4-.4-4.2l-.2-.4.1-.9c.1-.8.2-2.2-.6-3.2-1.2-1.5-4.2-1.4-8.5.3-.2.1-.5 0-.6-.2-.1-.2 0-.5.2-.6 0 0 4.9-2.6 3.8-5.4-.4-1-1.4-1.2-2.2-1.2-2.1.1-5.3 1.8-7.1 4.9 0 .2-.1.3-.1.5-2.6 5-1.1 10.7 1.5 13.6zM5.2 31c.1-.1.1-.3.2-.4 1.7-3 4.8-4.7 6.8-4.7.7 0 1.6.1 1.9 1 1 2.5-3.6 5-3.7 5-.3.2-.5.6-.3 1 .2.3.6.5.9.4 4.2-1.6 7.1-1.8 8.2-.4.7.9.6 2.2.5 3l-.1.7c-.2-.1-.5-.2-.8-.3-.6-.1-1.5-.2-2.3.1-.8.2-1.6.6-2.1.9-.5.3-.9.6-.9.6s.3-.2.9-.5c.5-.3 1.3-.6 2.2-.8.8-.2 1.7-.1 2.3 0 .6.1.9.3.9.4l.3.3c.2.2 2 2.1.4 3.8-.3.3-.7.5-1.1.5-.6 0-1.2-.2-1.6-.5l-.9-.5c.1-.2.2-.4.4-.7.2-.2.3-.4.5-.4.2-.1.3 0 .3 0s-.1-.1-.3 0c-.2 0-.4.2-.6.4-.3.2-.5.5-.6.7l-.1.1c-.1.2-.2.4-.2.5-.2.3-.4.8-.7 1.4-.5 1.1-1.3 3-2.4 3.4-.4.2-.9.3-1.5.3-1.5 0-3.6-.5-4.9-1.9-2.7-2.9-4.1-8.5-1.6-13.4z" class="colorB15218 svgShape"></path><linearGradient id="i" x1="-1728.836" x2="-1728.85" y1="10.272" y2="14.328" gradientTransform="matrix(-.8704 .673 .458 .593 -1499.17 1191.18)" gradientUnits="userSpaceOnUse"><stop offset="0" stop-color="#ffebb5" class="stopColorffebb5 svgShape"></stop><stop offset="1" stop-color="#fdf6be" stop-opacity="0" class="stopColorfdf6be svgShape"></stop></linearGradient><path fill="url(#i)" d="M9.7 37.5c.6.8 2.1.6 3.4-.4s1.8-2.4 1.2-3.2c-.6-.8-2.1-.6-3.4.4s-1.8 2.4-1.2 3.2z" opacity=".7"></path><linearGradient id="j" x1="-1467.811" x2="-1467.822" y1="-264.014" y2="-260.836" gradientTransform="matrix(-.9531 .5493 .374 .6492 -1286.447 1015.14)" gradientUnits="userSpaceOnUse"><stop offset="0" stop-color="#ffebb5" class="stopColorffebb5 svgShape"></stop><stop offset="1" stop-color="#fdf6be" stop-opacity="0" class="stopColorfdf6be svgShape"></stop></linearGradient><path fill="url(#j)" d="M12.8 40.4c.4.7 1.6.7 2.6.1s1.6-1.7 1.3-2.3-1.6-.7-2.6-.1-1.7 1.6-1.3 2.3z" opacity=".7"></path><path fill="#b15218" d="M39.7 19.3s-.3.3-.9.8c-.3.2-.7.5-1.1.8-.4.3-1 .6-1.6.9-.6.3-1.2.6-1.9.9-.7.3-1.4.6-2.2.8-.8.3-1.6.5-2.5.7-.8.2-1.7.3-2.6.4-.9.1-1.8.1-2.6.2-.9 0-1.7 0-2.6-.1l-2.4-.3c-.8-.1-1.5-.3-2.1-.4-.6-.1-1.2-.3-1.7-.4-.5-.2-1-.3-1.3-.4-.7-.3-1.1-.4-1.1-.4s.4.1 1.2.2c.4.1.8.2 1.4.3.5.1 1.1.2 1.8.3.6.1 1.3.2 2.1.2.7 0 1.5.1 2.3.1h2.5c.8-.1 1.7-.1 2.6-.2.8-.1 1.7-.2 2.5-.4.4-.1.8-.2 1.2-.2l1.2-.3c1.6-.4 3-.9 4.2-1.4.6-.3 1.1-.5 1.6-.7.5-.2.9-.5 1.2-.6l.8-.8z" class="colorB15218 svgShape"></path><radialGradient id="k" cx="32.311" cy="18.154" r="20.906" gradientTransform="matrix(1 0 0 .9891 0 .198)" gradientUnits="userSpaceOnUse"><stop offset="0" stop-color="#fbdd49" class="stopColorfbdd49 svgShape"></stop><stop offset=".793" stop-color="#eba503" class="stopColoreba503 svgShape"></stop><stop offset="1" stop-color="#d7840b" class="stopColord7840b svgShape"></stop></radialGradient><path fill="url(#k)" d="m38.3 17.3 1.4 1.9s-9.9 7-24.5 3.8c-.1-.1 15.7 0 23.1-5.7z"></path><radialGradient id="l" cx="-1283.322" cy="5069.955" r="6.922" gradientTransform="matrix(-.9945 .4599 -.4322 -.9062 936.314 5194.134)" gradientUnits="userSpaceOnUse"><stop offset="0" stop-color="#ffebb5" class="stopColorffebb5 svgShape"></stop><stop offset="1" stop-color="#fdf6be" stop-opacity="0" class="stopColorfdf6be svgShape"></stop></radialGradient><path fill="url(#l)" d="M13.8 12.9c-1.6-3.3.4-7.4 4.4-9.3s8.6-.6 10.1 2.7c1.6 3.3-.4 7.4-4.4 9.3s-8.5.6-10.1-2.7z" opacity=".7"></path><radialGradient id="m" cx="-2370.823" cy="3641.314" r="4.012" gradientTransform="matrix(-.4203 1.0118 -.9316 -.3741 2405.91 3800.464)" gradientUnits="userSpaceOnUse"><stop offset="0" stop-color="#ffebb5" class="stopColorffebb5 svgShape"></stop><stop offset="1" stop-color="#fdf6be" stop-opacity="0" class="stopColorfdf6be svgShape"></stop></radialGradient><path fill="url(#m)" d="M8.3 43.9c-2-.8-2.7-3.3-1.8-5.7s3.4-3.6 5.3-2.8 2.7 3.3 1.8 5.7-3.4 3.5-5.3 2.8z" opacity=".7"></path><radialGradient id="n" cx="-2383.422" cy="3651.346" r="4.012" gradientTransform="matrix(-.4203 1.0118 -.9316 -.3741 2405.91 3800.464)" gradientUnits="userSpaceOnUse"><stop offset="0" stop-color="#ffebb5" class="stopColorffebb5 svgShape"></stop><stop offset="1" stop-color="#fdf6be" stop-opacity="0" class="stopColorfdf6be svgShape"></stop></radialGradient><path fill="url(#n)" d="M4.2 27.4c-2-.8-2.7-3.3-1.8-5.7s3.4-3.6 5.3-2.8 2.7 3.3 1.8 5.7-3.3 3.5-5.3 2.8z" opacity=".7"></path><radialGradient id="o" cx="-1929.765" cy="2254.666" r="4.012" gradientTransform="matrix(.206 1.4124 -.9878 .1807 2666.452 2343.119)" gradientUnits="userSpaceOnUse"><stop offset="0" stop-color="#ffebb5" class="stopColorffebb5 svgShape"></stop><stop offset="1" stop-color="#fdf6be" stop-opacity="0" class="stopColorfdf6be svgShape"></stop></radialGradient><path fill="url(#o)" d="M42.6 30.9c-2.1.4-4.1-2-4.6-5.3s.8-6.3 2.9-6.6 4.1 2 4.6 5.3-.8 6.2-2.9 6.6z" opacity=".7"></path></svg>