<svg xmlns="http://www.w3.org/2000/svg" viewBox="0 0 48 48" width="256" height="256"><path fill="#b15218" d="M24 .5C11 .5.5 11 .5 24S11 47.5 24 47.5 47.5 37 47.5 24 37 .5 24 .5z" class="colorB15218 svgShape"></path><radialGradient id="a" cx="24" cy="24" r="23" gradientUnits="userSpaceOnUse"><stop offset="0" stop-color="#fbdd49" class="stopColorfbdd49 svgShape"></stop><stop offset=".793" stop-color="#eba503" class="stopColoreba503 svgShape"></stop><stop offset="1" stop-color="#d7840b" class="stopColord7840b svgShape"></stop></radialGradient><circle cx="24" cy="24" r="23" fill="url(#a)"></circle><linearGradient id="b" x1="-313.129" x2="-313.226" y1="21.284" y2="49.66" gradientTransform="matrix(1.0903 .1458 -.1326 .9912 371.528 20.61)" gradientUnits="userSpaceOnUse"><stop offset="0" stop-color="#ffebb5" class="stopColorffebb5 svgShape"></stop><stop offset="1" stop-color="#fdf6be" stop-opacity="0" class="stopColorfdf6be svgShape"></stop></linearGradient><path fill="url(#b)" d="M44 22.3c-1.2 9-11.1 15.1-22.1 13.6-11-1.5-18.9-10-17.7-19s11-15 22-13.5 19 9.9 17.8 18.9z" opacity=".7"></path><radialGradient id="c" cx="-600.991" cy="5923.156" r="7.09" gradientTransform="matrix(-1.2062 .03195 -.02846 -.8214 -532.93 4891.248)" gradientUnits="userSpaceOnUse"><stop offset="0" stop-color="#ffebb5" class="stopColorffebb5 svgShape"></stop><stop offset="1" stop-color="#fdf6be" stop-opacity="0" class="stopColorfdf6be svgShape"></stop></radialGradient><path fill="url(#c)" d="M14.5 7.2c-.1-3 3.8-5.6 8.8-5.7s9.1 2.2 9.2 5.3-3.8 5.6-8.8 5.7c-5 .1-9.1-2.3-9.2-5.3z" opacity=".7"></path><radialGradient id="d" cx="-781.803" cy="5900.048" r="7.09" gradientTransform="matrix(-.8531 .01913 -.02885 -.8214 -485.642 4889.532)" gradientUnits="userSpaceOnUse"><stop offset="0" stop-color="#ffebb5" class="stopColorffebb5 svgShape"></stop><stop offset="1" stop-color="#fdf6be" stop-opacity="0" class="stopColorfdf6be svgShape"></stop></radialGradient><path fill="url(#d)" d="M4.7 28.7c-.1-3 2.7-5.6 6.2-5.7 3.5-.1 6.4 2.3 6.6 5.4s-2.7 5.6-6.2 5.7c-3.5 0-6.5-2.4-6.6-5.4z" opacity=".7"></path><radialGradient id="e" cx="-814.002" cy="5899.86" r="7.09" gradientTransform="matrix(-.8531 .01913 -.02885 -.8214 -485.642 4889.532)" gradientUnits="userSpaceOnUse"><stop offset="0" stop-color="#ffebb5" class="stopColorffebb5 svgShape"></stop><stop offset="1" stop-color="#fdf6be" stop-opacity="0" class="stopColorfdf6be svgShape"></stop></radialGradient><path fill="url(#e)" d="M32.2 28.2c-.1-3 2.7-5.6 6.2-5.7 3.5-.1 6.4 2.3 6.6 5.4s-2.7 5.6-6.2 5.7c-3.6.1-6.5-2.3-6.6-5.4z" opacity=".7"></path><radialGradient id="f" cx="-801.059" cy="5887.793" r="7.09" gradientTransform="matrix(-.8531 .01913 -.02885 -.8214 -485.642 4889.532)" gradientUnits="userSpaceOnUse"><stop offset="0" stop-color="#ffebb5" class="stopColorffebb5 svgShape"></stop><stop offset="1" stop-color="#fdf6be" stop-opacity="0" class="stopColorfdf6be svgShape"></stop></radialGradient><path fill="url(#f)" d="M21.5 38.4c-.1-3 2.7-5.6 6.2-5.7 3.5-.1 6.4 2.3 6.6 5.4.1 3-2.7 5.6-6.2 5.7-3.5 0-6.5-2.4-6.6-5.4z" opacity=".7"></path><path fill="#fbce40" d="M46.8 27s-.1.5-.4 1.2c-.2.8-.6 1.9-1.2 3.1-.3.6-.6 1.3-1 2s-.8 1.4-1.3 2.1c-.2.4-.5.7-.8 1.1-.3.4-.6.7-.8 1-.5.7-1.2 1.4-1.9 2-.6.7-1.4 1.2-2 1.8-.7.6-1.5 1-2.2 1.5-.7.5-1.5.9-2.1 1.3-.7.4-1.4.7-2 1-.6.3-1.2.6-1.7.8-.5.2-1 .4-1.4.5-.8.3-1.2.5-1.2.5s.5-.1 1.3-.3c.4-.1.9-.2 1.4-.3.6-.1 1.2-.3 1.8-.6.7-.3 1.4-.5 2.1-.8.7-.4 1.5-.7 2.3-1.2.7-.5 1.5-1 2.3-1.5.7-.6 1.5-1.2 2.1-1.9.7-.7 1.3-1.4 1.9-2.1.6-.7 1.1-1.5 1.6-2.2.5-.7.9-1.5 1.2-2.2.3-.7.7-1.4.9-2.1.3-.7.4-1.3.6-1.8.1-.6.2-1 .3-1.5.2-1 .2-1.4.2-1.4z" opacity=".7" class="colorFBCE40 svgShape"></path><radialGradient id="g" cx="-8.71" cy="159.662" r="31.602" gradientTransform="matrix(1.0252 0 0 1.07 32.93 -154.456)" gradientUnits="userSpaceOnUse"><stop offset="0" stop-color="#fadc49" class="stopColorfadc49 svgShape"></stop><stop offset=".793" stop-color="#eaa404" class="stopColoreaa404 svgShape"></stop><stop offset="1" stop-color="#d6830c" class="stopColord6830c svgShape"></stop></radialGradient><path fill="url(#g)" d="M40.3 13.3c-.6-2-1.5-3.9-2.8-5.5-.6-.8-1.4-1.5-2.2-2.1-.8-.6-1.7-1.1-2.6-1.4-1.8-.7-3.9-.5-5.5.3s-2.7 2.3-3.3 3.6c-.7 1.4-1 2.8-1.1 4-.1.6-.1 1.2-.1 1.8v-.3c-.3-1.1-.7-2.3-1.5-3.5-.8-1.2-1.9-2.3-3.5-2.9-1.5-.6-3.4-.4-5 .4-.8.4-1.5 1-2.2 1.6-.4.7-1 1.4-1.5 2.2-.5.8-.9 1.7-1.2 2.6-.3.9-.5 1.9-.6 2.8-.2 1.9-.2 3.8.4 5.6.5 1.8 1.4 3.5 2.8 4.7.7.6 1.4 1.1 2.3 1.4.2.1.4.1.6.2l.6.1c.4 0 .8.1 1.3 0 1.6-.1 3-.9 4.1-1.9 1-.9 1.8-2 2.3-3 .4-.7.6-1.3.8-1.9 0-.1.1-.2.1-.3.1-.2.1-.3.2-.5.2-.8.4-1.4.4-1.8.1-.4.1-.6.1-.7 0 0 0-.2.1-.7 0-.3.1-.8.1-1.4 0 .1.1.3.1.4.1.5.2.7.2.7s.1.2.2.7c0 .1.1.3.1.5.1.4.3.9.6 1.4.4.8.9 1.7 1.6 2.7.7 1 1.7 2 3 2.9 1.3.8 2.9 1.5 4.7 1.4.5 0 .9-.1 1.3-.2l.6-.2.6-.3c.8-.5 1.6-1.1 2.2-1.8.6-.8 1.1-1.6 1.5-2.6.4-.9.6-1.9.8-3 .2-1.9 0-4-.6-6z"></path><radialGradient id="h" cx="24" cy="16.381" r="14.344" gradientUnits="userSpaceOnUse"><stop offset="0" stop-color="#fadc49" class="stopColorfadc49 svgShape"></stop><stop offset=".793" stop-color="#eaa404" class="stopColoreaa404 svgShape"></stop><stop offset="1" stop-color="#d6830c" class="stopColord6830c svgShape"></stop></radialGradient><path fill="url(#h)" d="M39.9 13.5c-.6-1.8-1.4-3.7-2.7-5.2-.6-.8-1.3-1.4-2.1-2-.8-.6-1.7-1-2.6-1.3-1.8-.6-3.8-.5-5.3.3-1.6.8-2.6 2.1-3.2 3.4-.6 1.3-.9 2.6-1 3.7-.1.6-.1 1.1-.1 1.7v-.2c-.3-1-.7-2.1-1.4-3.2S19.7 8.6 18.1 8c-1.5-.5-3.3-.4-4.9.4-.8.4-1.5.9-2.1 1.5-.6.6-1.2 1.3-1.6 2.1-.5.8-.9 1.6-1.1 2.4-.3.8-.5 1.8-.6 2.6-.2 1.8-.1 3.6.4 5.3.5 1.7 1.4 3.3 2.7 4.4.6.6 1.4 1 2.2 1.3.2.1.4.1.6.2l.6.1c.4 0 .8.1 1.2 0 1.6-.1 3-.9 4-1.7 1-.9 1.7-1.8 2.3-2.8.4-.6.6-1.2.8-1.8 0-.1.1-.2.1-.2.1-.2.1-.3.2-.5.2-.7.4-1.3.4-1.7.1-.4.1-.6.1-.6s0-.2.1-.6c0-.3.1-.8.1-1.3 0 .1.1.2.1.4.1.4.2.7.2.7s.1.2.2.6c0 .1.1.3.1.4.1.4.3.8.6 1.3.3.8.9 1.6 1.6 2.6.7.9 1.7 1.9 2.9 2.7 1.2.8 2.8 1.4 4.6 1.3.4 0 .9-.1 1.3-.2l.6-.2.6-.3c.8-.4 1.6-1 2.2-1.7.6-.7 1.1-1.5 1.5-2.4.3-.9.6-1.8.7-2.8-.1-2.2-.4-4.2-.9-6z"></path><path fill="#722717" d="M38.8 13.6c-.5-1.8-1.3-3.5-2.5-5-.6-.7-1.2-1.4-2-1.9-.7-.5-1.5-1-2.4-1.3-1.7-.6-3.6-.5-5 .3-1.5.8-2.4 2-3 3.3-.6 1.2-.9 2.5-1 3.6 0 .6-.1 1.1-.1 1.6V14c-.2-1-.6-2.1-1.3-3.1-.7-1-1.7-2.1-3.1-2.6-1.4-.5-3.1-.4-4.5.4-.7.4-1.4.9-2 1.5-.6.6-1.1 1.3-1.5 2-.4.7-.8 1.5-1.1 2.3-.3.8-.5 1.7-.6 2.5-.2 1.7-.1 3.5.3 5.1.5 1.6 1.3 3.1 2.5 4.2.6.6 1.3 1 2 1.2.2.1.4.1.6.2l.5.1c.4 0 .8.1 1.1 0 1.5-.1 2.7-.8 3.7-1.7.9-.8 1.6-1.8 2.1-2.7.3-.6.6-1.2.8-1.7 0-.1.1-.2.1-.2.1-.1.1-.3.2-.4.2-.7.3-1.2.4-1.6.1-.4.1-.6.1-.6s0-.2.1-.6c0-.3.1-.8.1-1.3 0 .1.1.2.1.3.1.4.2.6.2.6s.1.2.2.6c0 .1.1.3.1.4.1.4.3.8.5 1.3.3.7.8 1.6 1.5 2.5.7.9 1.5 1.8 2.7 2.6 1.1.7 2.6 1.3 4.2 1.2.4 0 .8-.1 1.2-.2l.6-.2.6-.3c.8-.4 1.5-1 2-1.7.6-.7 1-1.5 1.4-2.3.3-.8.6-1.7.7-2.7.2-1.8 0-3.7-.5-5.5z" class="color722717 svgShape"></path><radialGradient id="i" cx="16.214" cy="17.829" r="8.468" gradientUnits="userSpaceOnUse"><stop offset="0" stop-color="#f1f1f1" class="stopColorf1f1f1 svgShape"></stop><stop offset="1" stop-color="#cac9c9" class="stopColorcac9c9 svgShape"></stop></radialGradient><path fill="url(#i)" d="M23.2 18.7c-.7 5.3-4.4 9.2-8.2 8.7-3.8-.5-6.4-5.2-5.7-10.5.7-5.3 4.4-9.2 8.2-8.7s6.4 5.2 5.7 10.5z"></path><radialGradient id="j" cx="30.926" cy="15.772" r="9.28" gradientUnits="userSpaceOnUse"><stop offset="0" stop-color="#f1f1f1" class="stopColorf1f1f1 svgShape"></stop><stop offset="1" stop-color="#cac9c9" class="stopColorcac9c9 svgShape"></stop></radialGradient><path fill="url(#j)" d="M23.5 17.8c1.6 5.7 6.2 9.3 10.3 8.2 4.1-1.1 6.1-6.7 4.5-12.3-1.5-5.7-6.1-9.3-10.2-8.2s-6.2 6.7-4.6 12.3z"></path><radialGradient id="k" cx="17.679" cy="16.74" r="3.421" gradientUnits="userSpaceOnUse"><stop offset="0" stop-color="#68c3d8" class="stopColor68c3d8 svgShape"></stop><stop offset=".793" stop-color="#2d5ca5" class="stopColor2d5ca5 svgShape"></stop><stop offset="1" stop-color="#2b4593" class="stopColor2b4593 svgShape"></stop></radialGradient><path fill="url(#k)" d="M20.8 17.2c-.3 2-1.9 3.5-3.6 3.2s-2.9-2-2.6-4.1 1.9-3.5 3.6-3.2 2.9 2 2.6 4.1z"></path><ellipse cx="17.7" cy="16.7" fill="#1d1e1c" rx="1.9" ry="2.2" transform="rotate(7.52 17.68 16.736)" class="color1D1E1C svgShape"></ellipse><radialGradient id="l" cx="29.169" cy="14.817" r="3.749" gradientUnits="userSpaceOnUse"><stop offset="0" stop-color="#68c3d8" class="stopColor68c3d8 svgShape"></stop><stop offset=".793" stop-color="#2d5ca5" class="stopColor2d5ca5 svgShape"></stop><stop offset="1" stop-color="#2b4593" class="stopColor2b4593 svgShape"></stop></radialGradient><path fill="url(#l)" d="M25.8 15.7c.6 2.1 2.6 3.5 4.4 2.9s2.8-2.7 2.2-4.8c-.6-2.1-2.6-3.5-4.4-2.9s-2.8 2.7-2.2 4.8z"></path><ellipse cx="29.2" cy="14.8" fill="#1d1e1c" rx="1.9" ry="2.2" transform="rotate(164.402 29.167 14.816)" class="color1D1E1C svgShape"></ellipse><path fill="#b15319" d="M8 10.8s.2-.7.7-1.6c.3-.5.6-1 1-1.6.2-.3.4-.5.7-.8.2-.3.5-.5.8-.8.3-.2.6-.5.9-.7.3-.2.6-.4 1-.5.3-.1.7-.2 1-.2.3 0 .6-.1.9 0 .3 0 .5.1.8.1.2.1.4.2.5.2.3.1.5.2.5.2v.1h-1c-.2 0-.4.1-.7.1-.2 0-.5.1-.8.2-.3 0-.5.2-.8.2l-.9.3c-.3.1-.6.3-.9.5-.3.2-.6.4-.8.6-.3.2-.5.4-.7.7-.5.7-.8 1.1-1.2 1.6-.6.8-.9 1.5-1 1.4zm21.6-9s-.6 0-1.4.3c-.4.1-.9.3-1.3.6s-.9.6-1.3 1-.7.8-1 1.3c-.1.2-.3.4-.4.6-.1 0-.2.2-.4.4-.1.2-.2.3-.3.5-.1.1-.2.3-.3.4-.1.2-.2.3-.2.3h-.1v-.4c0-.3 0-.7.2-1.1.1-.4.3-.9.7-1.4.2-.3.3-.5.6-.7.2-.2.4-.4.7-.6.5-.4 1-.7 1.6-.9.3-.1.5-.2.8-.2.3-.1.5-.1.7-.1.8-.2 1.4-.1 1.4 0z" class="colorB15319 svgShape"></path><circle cx="17.2" cy="15.4" r=".6" fill="#ffffff" class="colorFFF svgShape"></circle><circle cx="17.9" cy="18.2" r=".3" fill="#ffffff" class="colorFFF svgShape"></circle><circle cx="28.7" cy="13.5" r=".6" fill="#ffffff" class="colorFFF svgShape"></circle><circle cx="29.4" cy="16.3" r=".3" fill="#ffffff" class="colorFFF svgShape"></circle><radialGradient id="m" cx="-582.934" cy="190.272" r="18.179" gradientTransform="matrix(.9726 .2324 -.2444 1.0231 637.484 -23.593)" gradientUnits="userSpaceOnUse"><stop offset="0" stop-color="#fbdd49" class="stopColorfbdd49 svgShape"></stop><stop offset=".793" stop-color="#eba503" class="stopColoreba503 svgShape"></stop><stop offset="1" stop-color="#d7840b" class="stopColord7840b svgShape"></stop></radialGradient><path fill="url(#m)" d="M26.4 25.5c-3.8-.9-8 2.9-9.4 8.5-.5 1.9-.5 3.8-.2 5.6l.1.3c.3 1.4.7 2.5 1.4 3.5.5.7 1 1.3 1.6 1.6 0 0 .1 0 .1.1.5.3 1 .6 1.6.7 1.3.3 2.7.1 4.1-.7 1-.5 1.9-1.3 2.7-2.4l.1-.1.1-.1c1.1-1.5 1.9-3.3 2.4-5.2 1.3-5.6-.8-10.9-4.6-11.8z"></path><radialGradient id="n" cx="-582.934" cy="74.178" r="8.646" gradientTransform="rotate(13.443 -115.487 2630.716)" gradientUnits="userSpaceOnUse"><stop offset="0" stop-color="#fbdd49" class="stopColorfbdd49 svgShape"></stop><stop offset=".793" stop-color="#eba503" class="stopColoreba503 svgShape"></stop><stop offset="1" stop-color="#d7840b" class="stopColord7840b svgShape"></stop></radialGradient><path fill="url(#n)" d="M26.3 26c-3.8-.9-8 2.7-9.2 8-.4 1.8-.5 3.6-.2 5.3l.1.3c.3 1.3.8 2.4 1.4 3.4.5.7 1 1.2 1.6 1.6 0 0 .1 0 .1.1.5.3 1 .6 1.6.7 1.3.3 2.7.1 4-.6 1-.5 1.9-1.3 2.7-2.2l.1-.1.1-.1c1.1-1.4 1.9-3.1 2.3-4.9 1.3-5.6-.8-10.6-4.6-11.5z"></path><path fill="#b15218" d="M26.1 26.9c-3.6-.9-7.5 2.2-8.6 6.9-.4 1.6-.4 3.2-.1 4.7l.1.3c.3 1.1.8 2.1 1.4 3 .5.6 1 1.1 1.6 1.4 0 0 .1 0 .1.1.5.3 1 .5 1.5.6 1.2.3 2.6.1 3.8-.4.9-.4 1.8-1.1 2.5-1.9l.1-.1.1-.1c1-1.2 1.7-2.7 2.1-4.3 1.1-4.9-1-9.4-4.6-10.2z" class="colorB15218 svgShape"></path><radialGradient id="o" cx="-582.934" cy="73.852" r="7.636" gradientTransform="rotate(13.443 -115.487 2630.716)" gradientUnits="userSpaceOnUse"><stop offset="0" stop-color="#330e10" class="stopColor330e10 svgShape"></stop><stop offset="1" stop-color="#871811" class="stopColor871811 svgShape"></stop></radialGradient><path fill="url(#o)" d="M30.5 36.8c-.4 1.6-1.1 3.1-2.1 4.2l-.1.1-.1.1c-.7.8-1.6 1.5-2.5 1.9-1.2.5-2.5.7-3.7.4-.5-.1-1-.3-1.5-.6 0 0-.1 0-.1-.1-.6-.4-1.1-.8-1.5-1.4-.6-.8-1.1-1.8-1.4-2.9v-.2c-.3-1.4-.3-3 .1-4.6 1.1-4.6 4.9-7.6 8.4-6.7 3.6.9 5.6 5.3 4.5 9.8z"></path><path fill="#d4131d" d="M28.4 41.2c-.1 0-.1 0 0 0-.8.9-1.6 1.5-2.5 2-1.2.5-2.5.7-3.7.4-.5-.1-1-.3-1.5-.6 0 0-.1 0-.1-.1-.6-.4-1.1-.8-1.5-1.4-.6-.8-1.1-1.8-1.4-2.9v-.1c.1-.2.3-.4.4-.6 1.4-1.9 3.6-2.7 4.9-1.7.3.2.6.6.7 1 .2-.1.4-.3.7-.3 1.5-.4 3.3 1.1 3.9 3.4 0 .2 0 .5.1.9z" class="colorD4131D svgShape"></path><path fill="#b15319" d="M20.6 42.9c-.1 0 0 0 0 0zm7.6-2.8c-.5-1.8-1.7-3.2-3-3.5-.4-.1-.7-.1-1.1 0-.2.1-.4.1-.6.3-.2-.4-.4-.7-.7-.9-.2-.2-.5-.3-.8-.4-1.3-.3-3.1.5-4.2 2.1-.1.2-.3.4-.4.6v.2c.1-.2.3-.5.5-.7 1.1-1.5 2.8-2.3 4-2 .3.1.5.2.7.3.3.2.5.5.6.9-.5.4-.9 1.1-.9 1.3.4-.7 1-1.1 1-1.1l.1-.1c.2-.2.4-.3.6-.3.3-.1.6-.1 1 0 1.2.3 2.4 1.6 2.8 3.3.1.4.2.8.2 1.1l.1-.1.1-.1c.2-.3.1-.6 0-.9z" class="colorB15319 svgShape"></path><ellipse cx="24.6" cy="38.1" fill="#e31834" rx="1.3" ry=".8" transform="rotate(-16.028 24.568 38.059)" class="colorE31834 svgShape"></ellipse><ellipse cx="21.3" cy="36.8" fill="#e31834" rx="1.2" ry=".7" transform="rotate(-16.028 21.345 36.84)" class="colorE31834 svgShape"></ellipse></svg>