<svg xmlns="http://www.w3.org/2000/svg" viewBox="0 0 48 48" width="256" height="256"><path fill="#b15218" d="M24 .5C11 .5.5 11 .5 24S11 47.5 24 47.5 47.5 37 47.5 24 37 .5 24 .5z" class="colorB15218 svgShape"></path><radialGradient id="a" cx="24" cy="24" r="23.01" gradientUnits="userSpaceOnUse"><stop offset="0" stop-color="#fbdd49" class="stopColorfbdd49 svgShape"></stop><stop offset=".793" stop-color="#eba503" class="stopColoreba503 svgShape"></stop><stop offset="1" stop-color="#d7840b" class="stopColord7840b svgShape"></stop></radialGradient><circle cx="24" cy="24" r="23" fill="url(#a)"></circle><linearGradient id="b" x1="38.449" x2="38.354" y1="52.767" y2="80.594" gradientTransform="matrix(1.0997 -.0242 .02198 .9998 -19.87 -54.966)" gradientUnits="userSpaceOnUse"><stop offset="0" stop-color="#ffebb5" class="stopColorffebb5 svgShape"></stop><stop offset="1" stop-color="#fdf6be" stop-opacity="0" class="stopColorfdf6be svgShape"></stop></linearGradient><path fill="url(#b)" d="M43.7 19.8c.2 8.9-8.5 16.3-19.4 16.6-10.8.2-19.8-6.8-20-15.7S12.8 4.3 23.6 4.1c10.9-.2 19.9 6.8 20.1 15.7z" opacity=".7"></path><path fill="#ffd564" d="M23.8 29.9s2.7-3.7 5.3-1.7-1.5 8.2-9.5 7.3c0 0 7.1-2.5 6.8-4.5-.2-2-2.6-1.1-2.6-1.1z" opacity=".7" class="colorFFD564 svgShape"></path><path fill="#722717" d="M46.8 33c-.7-1.1-1.5-1.9-2.5-2.3-1.9-.8-3.9-.3-4.7.1 0-2.1-.6-3.5-1.9-4.1-1.8-.9-3.6-1.1-5.1-.3-1.6.8-2.7 2.4-3.3 4.8-1.3 4.9 1.8 12.9 2 13.3l.1.3.3-.1s4.4-2.2 7.7-2.5c2.7-.2 6.2-1.9 7.6-4.6.7-1.6.7-3.2-.2-4.6z" class="color722717 svgShape"></path><path fill="#e31b15" d="M46.6 33.1c-2.5-4.3-7.3-2-7.3-2s-2.1 1.1-3.6 3.3c0 0 .9-1.9 3.6-3.6.1-1.7-.3-3.3-1.7-4-3.4-1.8-6.8-.5-8 4.3-1.3 4.8 1.9 13.1 1.9 13.1s4.4-2.2 7.8-2.5c4.3-.4 9.8-4.3 7.3-8.6z" class="colorE31B15 svgShape"></path><linearGradient id="c" x1="-1028.353" x2="-1034.077" y1="174.227" y2="181.885" gradientTransform="rotate(23.205 -143.717 2724.008)" gradientUnits="userSpaceOnUse"><stop offset="0" stop-color="#ffffff" class="stopColorfff svgShape"></stop><stop offset="1" stop-color="#ffffff" stop-opacity="0" class="stopColorfff svgShape"></stop></linearGradient><path fill="url(#c)" d="M33.9 39.5c-1.3-1.9.7-4.5 3.6-6.5 2.9-2 5.9-2.3 7.9 0 2.4 2.9-.5 6.5-3.6 7.4-3.4.9-6.5.9-7.9-.9z" opacity=".7"></path><linearGradient id="d" x1="-1043.513" x2="-1040.612" y1="167.955" y2="181.453" gradientTransform="rotate(23.205 -143.717 2724.008)" gradientUnits="userSpaceOnUse"><stop offset="0" stop-color="#ffffff" class="stopColorfff svgShape"></stop><stop offset="1" stop-color="#ffffff" stop-opacity="0" class="stopColorfff svgShape"></stop></linearGradient><path fill="url(#d)" d="M30.5 38.5s-1.2-5 .2-8.5 4.5-3.5 6-2.9c1.5.6 2.6 3.1.7 4.7-2 1.6-6 7.2-5.7 10.3-.1 0-1-2.5-1.2-3.6z"></path><radialGradient id="e" cx="-1039.636" cy="175.363" r="1.72" gradientTransform="rotate(23.205 -143.717 2724.008)" gradientUnits="userSpaceOnUse"><stop offset="0" stop-color="#ffffff" class="stopColorfff svgShape"></stop><stop offset="1" stop-color="#ffffff" stop-opacity="0" class="stopColorfff svgShape"></stop></radialGradient><circle cx="37" cy="28.6" r="1.7" fill="url(#e)"></circle><radialGradient id="f" cx="-1029.47" cy="178.053" r="2.164" gradientTransform="rotate(23.205 -143.717 2724.008)" gradientUnits="userSpaceOnUse"><stop offset="0" stop-color="#ffffff" class="stopColorfff svgShape"></stop><stop offset="1" stop-color="#ffffff" stop-opacity="0" class="stopColorfff svgShape"></stop></radialGradient><circle cx="45.3" cy="35.1" r="2.2" fill="url(#f)"></circle><radialGradient id="g" cx="-1033.263" cy="175.996" r="1.087" gradientTransform="rotate(23.205 -143.717 2724.008)" gradientUnits="userSpaceOnUse"><stop offset="0" stop-color="#ffffff" class="stopColorfff svgShape"></stop><stop offset="1" stop-color="#ffffff" stop-opacity="0" class="stopColorfff svgShape"></stop></radialGradient><circle cx="42.6" cy="31.7" r="1.1" fill="url(#g)"></circle><radialGradient id="h" cx="-472.68" cy="6384.426" r="6.788" gradientTransform="matrix(-1.0956 .00729 -.01865 -1.0038 -374.786 6420.616)" gradientUnits="userSpaceOnUse"><stop offset="0" stop-color="#ffebb5" class="stopColorffebb5 svgShape"></stop><stop offset="1" stop-color="#fdf6be" stop-opacity="0" class="stopColorfdf6be svgShape"></stop></radialGradient><path fill="url(#h)" d="M16.2 8.4c-.1-3.6 3.4-6.5 7.7-6.5 4.3 0 7.9 2.8 7.9 6.4s-3.4 6.5-7.7 6.5-7.9-2.8-7.9-6.4z" opacity=".7"></path><radialGradient id="i" cx="-472.396" cy="6367.739" r="6.788" gradientTransform="matrix(-1.0956 .00729 -.01865 -1.0038 -374.786 6420.616)" gradientUnits="userSpaceOnUse"><stop offset="0" stop-color="#ffebb5" class="stopColorffebb5 svgShape"></stop><stop offset="1" stop-color="#fdf6be" stop-opacity="0" class="stopColorfdf6be svgShape"></stop></radialGradient><path fill="url(#i)" d="M16.2 25.2c-.1-3.6 3.4-6.5 7.7-6.5 4.3 0 7.9 2.8 7.9 6.4s-3.4 6.5-7.7 6.5c-4.3 0-7.9-2.9-7.9-6.4z" opacity=".7"></path><radialGradient id="j" cx="-713.519" cy="6374.128" r="6.788" gradientTransform="matrix(-.8277 .00198 -.01895 -1.0038 -428.702 6421.683)" gradientUnits="userSpaceOnUse"><stop offset="0" stop-color="#ffebb5" class="stopColorffebb5 svgShape"></stop><stop offset="1" stop-color="#fdf6be" stop-opacity="0" class="stopColorfdf6be svgShape"></stop></radialGradient><path fill="url(#j)" d="M35.2 21.8c-.1-3.6 2.5-6.5 5.8-6.5s6 2.9 6 6.4-2.5 6.5-5.8 6.5c-3.3.1-6-2.8-6-6.4z" opacity=".7"></path><radialGradient id="k" cx="1940.53" cy="5004.05" r="3.598" gradientTransform="matrix(-.5124 -.6501 1.0288 -.8489 -4128.415 5541.058)" gradientUnits="userSpaceOnUse"><stop offset="0" stop-color="#ffebb5" class="stopColorffebb5 svgShape"></stop><stop offset="1" stop-color="#fdf6be" stop-opacity="0" class="stopColorfdf6be svgShape"></stop></radialGradient><path fill="url(#k)" d="M23.7 29.1c1.9-1.6 4.4-1.8 5.4-.4 1.1 1.4.4 3.8-1.6 5.3s-4.4 1.8-5.4.4c-1-1.3-.3-3.7 1.6-5.3z" opacity=".7"></path><radialGradient id="l" cx="2720.961" cy="3068.89" r="2.838" gradientTransform="matrix(.2796 -.7562 1.2771 .4612 -4655.021 681.357)" gradientUnits="userSpaceOnUse"><stop offset="0" stop-color="#ffebb5" class="stopColorffebb5 svgShape"></stop><stop offset="1" stop-color="#fdf6be" stop-opacity="0" class="stopColorfdf6be svgShape"></stop></radialGradient><path fill="url(#l)" d="M26 36.7c1.9.7 3.1 2.2 2.6 3.5-.5 1.2-2.4 1.7-4.3 1s-3.1-2.2-2.6-3.5c.5-1.2 2.4-1.7 4.3-1z" opacity=".7"></path><radialGradient id="m" cx="-673.114" cy="6374.208" r="6.788" gradientTransform="matrix(-.8277 .00198 -.01895 -1.0038 -428.702 6421.683)" gradientUnits="userSpaceOnUse"><stop offset="0" stop-color="#ffebb5" class="stopColorffebb5 svgShape"></stop><stop offset="1" stop-color="#fdf6be" stop-opacity="0" class="stopColorfdf6be svgShape"></stop></radialGradient><path fill="url(#m)" d="M1.7 21.8c-.1-3.6 2.5-6.5 5.8-6.5s6 2.9 6 6.4c.1 3.6-2.5 6.5-5.8 6.5s-5.9-2.8-6-6.4z" opacity=".7"></path><path fill="#fbce40" d="m1.5 27.4.3 1.2c.2.8.6 1.9 1.2 3.1.3.6.6 1.3 1 2s.8 1.4 1.3 2.1c.2.3.5.7.7 1 .3.4.6.7.8 1 .5.7 1.2 1.3 1.8 2 .6.7 1.3 1.2 2 1.8l2.1 1.5 2.1 1.2c.7.4 1.4.7 2 1 .6.3 1.2.6 1.7.7.5.2 1 .4 1.4.5.8.3 1.2.4 1.2.4l-1.2-.3c-.4-.1-.9-.2-1.4-.3-.6-.1-1.1-.3-1.8-.6-.6-.3-1.4-.4-2.1-.8-.7-.4-1.5-.7-2.2-1.1-.7-.5-1.5-.9-2.2-1.5-.7-.6-1.5-1.1-2.1-1.8-.7-.7-1.3-1.3-1.9-2.1-.6-.7-1.1-1.5-1.6-2.2-.5-.7-.8-1.5-1.2-2.2l-.9-2.1c-.3-.6-.4-1.3-.6-1.8-.1-.5-.2-1-.3-1.4-.1-.8-.1-1.3-.1-1.3z" opacity=".7" class="colorFBCE40 svgShape"></path><radialGradient id="n" cx="15.394" cy="16.646" r="16.584" gradientUnits="userSpaceOnUse"><stop offset="0" stop-color="#fadc49" class="stopColorfadc49 svgShape"></stop><stop offset=".793" stop-color="#eaa404" class="stopColoreaa404 svgShape"></stop><stop offset="1" stop-color="#d6830c" class="stopColord6830c svgShape"></stop></radialGradient><circle cx="15.4" cy="16.6" r="7.9" fill="url(#n)"></circle><radialGradient id="o" cx="15.547" cy="16.799" r="7.714" gradientUnits="userSpaceOnUse"><stop offset="0" stop-color="#fadc49" class="stopColorfadc49 svgShape"></stop><stop offset=".793" stop-color="#eaa404" class="stopColoreaa404 svgShape"></stop><stop offset="1" stop-color="#d6830c" class="stopColord6830c svgShape"></stop></radialGradient><circle cx="15.5" cy="16.8" r="7.7" fill="url(#o)"></circle><circle cx="16" cy="16.8" r="7.3" fill="#532713" class="color532713 svgShape"></circle><radialGradient id="p" cx="16.104" cy="16.948" r="6.952" gradientUnits="userSpaceOnUse"><stop offset=".618" stop-color="#f1f1f1" class="stopColorf1f1f1 svgShape"></stop><stop offset="1" stop-color="#cac9c9" class="stopColorcac9c9 svgShape"></stop></radialGradient><circle cx="16.1" cy="16.9" r="7" fill="url(#p)"></circle><radialGradient id="q" cx="16.104" cy="16.948" r="3.218" gradientUnits="userSpaceOnUse"><stop offset="0" stop-color="#68c3d8" class="stopColor68c3d8 svgShape"></stop><stop offset=".793" stop-color="#2d5ca5" class="stopColor2d5ca5 svgShape"></stop><stop offset="1" stop-color="#2b4593" class="stopColor2b4593 svgShape"></stop></radialGradient><circle cx="16.1" cy="16.9" r="3.2" fill="url(#q)"></circle><circle cx="16.1" cy="16.9" r="2" fill="#1d1e1c" class="color1D1E1C svgShape"></circle><circle cx="14.9" cy="15.6" r=".9" fill="#ffffff" class="colorFFF svgShape"></circle><circle cx="16.8" cy="18.8" r=".4" fill="#ffffff" class="colorFFF svgShape"></circle><path fill="#b15319" d="M13.4 5.5h1.4c.9 0 2 .2 3.1.6.6.2 1.1.4 1.6.7.2.2.5.3.7.5.2.2.4.3.5.5.3.3.5.7.6.9l.2.4-.1.1s-.1-.1-.3-.2c-.1-.1-.2-.2-.4-.3-.1-.1-.3-.2-.5-.3-.2-.1-.4-.2-.6-.4-.2-.1-.4-.2-.6-.4-.2-.2-.4-.3-.7-.4-.2-.2-.5-.3-.7-.4-1-.5-2.1-.8-2.9-1-.8-.2-1.3-.2-1.3-.3zm26 7.5s-.5-.5-1.4-1.2c-.4-.3-1-.7-1.5-1.1-.3-.2-.6-.4-.9-.5-.3-.2-.6-.3-1-.4-.3-.1-.7-.1-1-.2h-1c-.3 0-.6 0-.9.1-.2.2-.5.2-.7.3-.2.1-.5.2-.7.3-.2.1-.3.2-.5.3-.3.2-.5.2-.5.2h-.1s.1-.2.3-.4c.1-.1.2-.3.4-.5s.4-.3.6-.5c.2-.2.6-.3.9-.4.3-.2.7-.2 1.1-.2.4 0 .8.1 1.2.1.4.1.8.2 1.1.4.4.2.7.3 1 .5l.9.6c.6.4 1.1.9 1.4 1.3.9.7 1.4 1.3 1.3 1.3.1 0 .1 0 0 0 0 .1 0 .1 0 0z" class="colorB15319 svgShape"></path><radialGradient id="r" cx="60.99" cy="-1900.769" r="11.799" gradientTransform="matrix(1.0041 -.00532 .01159 .5833 -14.068 1125.103)" gradientUnits="userSpaceOnUse"><stop offset="0" stop-color="#fadc49" class="stopColorfadc49 svgShape"></stop><stop offset=".793" stop-color="#eaa404" class="stopColoreaa404 svgShape"></stop><stop offset="1" stop-color="#d6830c" class="stopColord6830c svgShape"></stop></radialGradient><path fill="url(#r)" d="M33.9 20.8c1.2-.2 2.4-.4 3.5-.6.7-.2 1.4-.5 2.1-.7-.4-4.2-3.4-7.5-6.7-7.4-3.4.1-5.8 3.6-5.5 7.9 0 .1 0 .3.1.4 1.8.4 3.8.6 6 .6.1-.1.3-.1.5-.2z"></path><path fill="#b15319" d="M25 19.5s.3.1.7.2c.4.1 1.1.3 1.9.4 1.6.3 3.7.5 5.8.4 1.1-.1 2.1-.2 3-.4 1-.2 1.8-.4 2.6-.7.7-.2 1.4-.5 1.8-.6.4-.2.7-.3.7-.3s-.7.7-2.1 1.4c-.7.3-1.6.7-2.6.9-1 .3-2.1.4-3.2.5-1.1.1-2.3 0-3.3-.1s-2-.4-2.8-.6c-.8-.3-1.4-.6-1.8-.8-.5-.2-.7-.3-.7-.3z" class="colorB15319 svgShape"></path><path fill="#fbcd40" d="M29.1 19.9s-.2-.5-.4-1.2c-.1-.7-.1-1.7.3-2.7.1-.2.2-.5.4-.7.1-.2.3-.5.5-.7l.6-.6c.2-.2.5-.3.7-.5.2-.1.5-.2.7-.3.2-.1.4-.1.6-.2h.5l-.4.2c-.1.1-.3.1-.5.3-.2.1-.3.2-.5.4l-.5.5c-.1.2-.3.4-.4.6-.3.4-.5.8-.7 1.3-.2.5-.3.9-.4 1.4-.1.4-.2.9-.2 1.2-.2.5-.3 1-.3 1z" class="colorFBCD40 svgShape"></path><radialGradient id="s" cx="-5317.009" cy="5401.174" r="6.019" gradientTransform="matrix(-.2104 .627 -.6158 -.06673 2239.144 3710.786)" gradientUnits="userSpaceOnUse"><stop offset="0" stop-color="#ffebb5" class="stopColorffebb5 svgShape"></stop><stop offset="1" stop-color="#fdf6be" stop-opacity="0" class="stopColorfdf6be svgShape"></stop></radialGradient><path fill="url(#s)" d="M30.3 20.5c-1.9-.2-2.9-2.2-2.2-4.3s2.9-3.8 4.8-3.6c1.9.2 2.9 2.2 2.2 4.3s-2.8 3.8-4.8 3.6z" opacity=".7"></path><radialGradient id="t" cx="24.151" cy="37.162" r="5.817" gradientUnits="userSpaceOnUse"><stop offset="0" stop-color="#fbdd49" class="stopColorfbdd49 svgShape"></stop><stop offset=".576" stop-color="#eba503" class="stopColoreba503 svgShape"></stop><stop offset="1" stop-color="#d7840b" class="stopColord7840b svgShape"></stop></radialGradient><path fill="url(#t)" d="M18.9 40.9s.8-1.9 4.1-.7 5.2 1.4 5.8-.4c0 0 .1 3.1-3 2.9-3.2-.3-4.4-2.9-6.9-1.8z"></path><radialGradient id="u" cx="24.177" cy="29.867" r="8.329" gradientUnits="userSpaceOnUse"><stop offset="0" stop-color="#fbdd49" class="stopColorfbdd49 svgShape"></stop><stop offset=".793" stop-color="#eba503" class="stopColoreba503 svgShape"></stop><stop offset="1" stop-color="#d7840b" class="stopColord7840b svgShape"></stop></radialGradient><path fill="url(#u)" d="M29.1 28.3s3.5 2.6 0 5.8-9.5 1.6-9.5 1.6 11.3-.6 9.5-7.4z"></path><path fill="#b15218" d="M31.1 30.4c-.1-.4-.2-.9-.5-1.2-.1-.2-.3-.4-.4-.5l-.2-.2v-.1c-.1-.1 0 0 0 0l-.1-.1c-.6-.5-1.5-.9-2.4-.8-.9 0-1.6.4-2.3.9-.6.4-1.1.9-1.6 1.5-.1-.1-.3-.1-.4-.3-.2-.1-.4-.3-.5-.4l-.5-.5c-.1-.2-.3-.4-.4-.6-.4-.9-.6-1.8-.7-2.8-.1 1 0 2 .4 2.9.1.2.2.5.3.7.1.2.3.4.4.6.2.2.4.4.6.5.2.2.4.3.6.4l.2.1.2-.2c.9-1.1 2.3-2.1 3.6-2.1.7 0 1.3.3 1.8.8l.1.1.2.2c.1.1.3.3.3.4.2.2.3.6.3.9.1.6-.1 1.3-.4 1.9-.3.6-.8 1.2-1.3 1.7s-1.2.8-1.8 1.1c-.7.3-1.4.5-2.1.5h-.3c-.2 0-.4.2-.4.4-.1.2.1.5.3.6h.2c.2.1.3.1.5.2.4.1.7.3 1 .4.7.3 1.3.7 1.8 1.1.5.5.7 1.1.6 1.7-.1.6-.5 1.3-1.1 1.7-.5.4-1.2.5-1.9.4-.7-.1-1.4-.4-2.1-.7-.7-.3-1.4-.6-2.2-.8-.7-.2-1.6-.3-2.3 0 .7-.3 1.5-.1 2.2.2.7.3 1.4.6 2.1 1 .7.3 1.4.7 2.2.9.8.2 1.7.2 2.5-.4.7-.5 1.2-1.2 1.4-2.1.2-.9-.2-1.9-.8-2.5-.6-.6-1.3-1.1-2-1.4-.1 0-.1 0-.2-.1l.9-.3c.8-.3 1.5-.8 2.1-1.3.6-.6 1.1-1.2 1.5-2 .6-.6.8-1.5.6-2.4zm-6.5 5.4z" class="colorB15218 svgShape"></path></svg>