<svg xmlns="http://www.w3.org/2000/svg" viewBox="0 0 48 48" width="256" height="256"><path fill="#b15218" d="M24 .5C11 .5.5 11 .5 24S11 47.5 24 47.5 47.5 37 47.5 24 37 .5 24 .5z" class="colorB15218 svgShape"></path><radialGradient id="a" cx="24" cy="24" r="23" gradientUnits="userSpaceOnUse"><stop offset="0" stop-color="#fbdd49" class="stopColorfbdd49 svgShape"></stop><stop offset=".793" stop-color="#eba503" class="stopColoreba503 svgShape"></stop><stop offset="1" stop-color="#d7840b" class="stopColord7840b svgShape"></stop></radialGradient><circle cx="24" cy="24" r="23" fill="url(#a)"></circle><linearGradient id="b" x1="-277.9" x2="-277.997" y1="48.065" y2="76.441" gradientTransform="matrix(1.0939 .1159 -.1053 .9945 336.641 -18.991)" gradientUnits="userSpaceOnUse"><stop offset="0" stop-color="#ffebb5" class="stopColorffebb5 svgShape"></stop><stop offset="1" stop-color="#fdf6be" stop-opacity="0" class="stopColorfdf6be svgShape"></stop></linearGradient><path fill="url(#b)" d="M45 22.4c-1 9-10.7 15.4-21.7 14.2C12.2 35.5 4 27.2 5 18.2S15.7 2.8 26.7 3.9 45.9 13.4 45 22.4z" opacity=".7"></path><path fill="#fbce40" d="M1.2 22.5s0 .5.1 1.3.3 2 .6 3.3c.1.7.4 1.4.6 2.2.3.7.5 1.5.9 2.3.2.4.4.8.5 1.2l.6 1.2c.4.8.9 1.6 1.4 2.3.5.8 1.1 1.5 1.6 2.2.6.7 1.2 1.3 1.8 1.9.6.6 1.3 1.1 1.9 1.7.6.6 1.2.9 1.8 1.4.6.4 1.1.8 1.6 1.1.5.3.9.6 1.3.8.7.4 1.1.7 1.1.7s-.4-.2-1.2-.5c-.4-.2-.8-.4-1.4-.6-.5-.2-1.1-.6-1.7-.9-.6-.4-1.3-.7-1.9-1.2-.6-.5-1.3-1-2-1.6-.6-.6-1.3-1.2-1.9-2-.6-.7-1.2-1.4-1.7-2.2-.5-.8-1-1.6-1.4-2.4-.5-.8-.8-1.7-1.1-2.5-.3-.8-.5-1.7-.8-2.5-.2-.8-.4-1.5-.4-2.3-.1-.7-.2-1.3-.2-1.9V24c-.2-1-.1-1.5-.1-1.5z" opacity=".7" class="colorFBCE40 svgShape"></path><radialGradient id="c" cx="-1512.402" cy="5069.943" r="5.296" gradientTransform="matrix(-1.0134 .4164 -.3926 -.924 470.236 5345.389)" gradientUnits="userSpaceOnUse"><stop offset="0" stop-color="#ffebb5" class="stopColorffebb5 svgShape"></stop><stop offset="1" stop-color="#fdf6be" stop-opacity="0" class="stopColorfdf6be svgShape"></stop></radialGradient><path fill="url(#c)" d="M6.6 33.1c-1.1-2.6.6-5.7 3.7-6.9s6.5-.2 7.6 2.3c1.1 2.6-.6 5.7-3.7 6.9-3.1 1.3-6.5.3-7.6-2.3z" opacity=".7"></path><radialGradient id="d" cx="741.37" cy="4976.502" r="5.296" gradientTransform="matrix(-.9175 -.5988 .5387 -.8473 -1986.907 4679.374)" gradientUnits="userSpaceOnUse"><stop offset="0" stop-color="#ffebb5" class="stopColorffebb5 svgShape"></stop><stop offset="1" stop-color="#fdf6be" stop-opacity="0" class="stopColorfdf6be svgShape"></stop></radialGradient><path fill="url(#d)" d="M8.4 15.5c1.5-2.3 5-2.8 7.8-.9s3.9 5.2 2.4 7.6c-1.5 2.3-5 2.8-7.8.9s-3.9-5.3-2.4-7.6z" opacity=".7"></path><radialGradient id="e" cx="-561.846" cy="5348.395" r="5.273" gradientTransform="matrix(-1.0954 -.02073 .00694 -1.004 -623.884 5365.555)" gradientUnits="userSpaceOnUse"><stop offset="0" stop-color="#ffebb5" class="stopColorffebb5 svgShape"></stop><stop offset="1" stop-color="#fdf6be" stop-opacity="0" class="stopColorfdf6be svgShape"></stop></radialGradient><path fill="url(#e)" d="M22.6 7.4c0-2.8 2.8-5 6.1-4.9s6.1 2.4 6 5.1-2.8 5-6.1 4.9-6-2.4-6-5.1z" opacity=".7"></path><linearGradient id="f" x1="-1073.508" x2="-1073.534" y1="-3278.805" y2="-3271.332" gradientTransform="matrix(.7735 .2815 -.1421 .3906 383.174 1608.416)" gradientUnits="userSpaceOnUse"><stop offset="0" stop-color="#ffebb5" class="stopColorffebb5 svgShape"></stop><stop offset="1" stop-color="#fdf6be" stop-opacity="0" class="stopColorfdf6be svgShape"></stop></linearGradient><path fill="url(#f)" d="M21.6 29.3c-.3.9-2.3 1.1-4.3.3s-3.4-2.1-3.1-3c.3-.9 2.3-1.1 4.3-.3 2.1.7 3.5 2.1 3.1 3z" opacity=".7"></path><linearGradient id="g" x1="394.581" x2="394.556" y1="-3467.409" y2="-3459.937" gradientTransform="matrix(.8173 -.0979 .04945 .4127 -116.598 1497.147)" gradientUnits="userSpaceOnUse"><stop offset="0" stop-color="#ffebb5" class="stopColorffebb5 svgShape"></stop><stop offset="1" stop-color="#fdf6be" stop-opacity="0" class="stopColorfdf6be svgShape"></stop></linearGradient><path fill="url(#g)" d="M38.6 29.7c.1 1-1.5 2-3.7 2.3s-4-.3-4.1-1.3 1.5-2 3.7-2.3 4 .3 4.1 1.3z" opacity=".7"></path><radialGradient id="h" cx="-1133.996" cy="233.648" r="20.166" gradientTransform="matrix(-.916 .4012 .4013 .916 -1100.826 277.69)" gradientUnits="userSpaceOnUse"><stop offset="0" stop-color="#fbdd49" class="stopColorfbdd49 svgShape"></stop><stop offset=".793" stop-color="#eba503" class="stopColoreba503 svgShape"></stop><stop offset="1" stop-color="#d7840b" class="stopColord7840b svgShape"></stop></radialGradient><path fill="url(#h)" d="M8.1 22.5c.2.1.5.2.7.3.3.2.5.5.7.8 1.1 1.7 1.8 2.6 3.3 3.9.3.2 1.2 1 1.6 1.2 1 .5 2.2 1 3.5 1.5.5.2 1.1.4 1.7.5.7.2 1.3.4 2 .5 1.3.4 2.5.7 3.7.9 1.3.3 2.5.5 3.7.7 1.4.2 2.6.3 3.8.3 1.5 0 2.9-.2 4.2-.6.7-.2 2.1-1.1 2.8-1.4-3 4.5-4.6 11.8-8.7 13.1-1 .3-2.2.4-3.7.2-3.3-.6-6.6-4.2-8.9-6.8-1.2-1.3-2.2-2.7-3.1-4.2-.6-.9-2.4-3.8-2.9-4.7-1.4-1.8-1.8-2.2-2.8-3.3-.9-1.1-1.8-2.3-3.2-2.7-1.4-.4-3 .2-4.1 1.1 1.3-1.3 3.7-1.9 5.7-1.3z"></path><radialGradient id="i" cx="-1127.887" cy="224.655" r="15.256" gradientTransform="matrix(-.916 .4012 .4013 .916 -1100.826 277.69)" gradientUnits="userSpaceOnUse"><stop offset="0" stop-color="#fbdd49" class="stopColorfbdd49 svgShape"></stop><stop offset=".793" stop-color="#eba503" class="stopColoreba503 svgShape"></stop><stop offset="1" stop-color="#d7840b" class="stopColord7840b svgShape"></stop></radialGradient><path fill="url(#i)" d="M8.1 22.5c.2.1.5.2.7.3.3.2.5.5.7.8 1.1 1.7 1.8 2.6 3.3 3.9.3.2 1.2 1 1.6 1.2 1 .5 2.2 1 3.5 1.5.5.2 1.1.4 1.7.5.7.2 1.3.4 2 .5 1.3.4 2.5.7 3.7.9 1.3.3 2.5.5 3.7.7 1.4.2 2.6.3 3.8.3 1.5 0 2.9-.2 4.2-.6.7-.2 2.1-1.1 2.8-1.4-3 4.5-5 11.1-9.1 12.4-1 .3-2.2.4-3.7.2-3.3-.6-6.2-3.4-8.6-6-1.2-1.3-2.2-2.7-3.1-4.2-.6-.9-2.4-3.8-2.9-4.7-1.4-1.8-1.8-2.2-2.8-3.3-.9-1.1-1.8-2.3-3.2-2.7-1.4-.4-3 .2-4.1 1.1 1.4-1.4 3.8-2 5.8-1.4z"></path><radialGradient id="j" cx="-1131.461" cy="227.574" r="10.967" gradientTransform="matrix(-.916 .4012 .4013 .916 -1100.826 277.69)" gradientUnits="userSpaceOnUse"><stop offset="0" stop-color="#330e10" class="stopColor330e10 svgShape"></stop><stop offset="1" stop-color="#871811" class="stopColor871811 svgShape"></stop></radialGradient><path fill="url(#j)" d="M12.3 26.9c.4.9 1 2.1 1.6 3.3.5 1 1.1 2 1.7 3 .9 1.4 1.9 2.8 3.1 4.1 2.3 2.6 5.1 4.6 8.3 5.1 1.4.2 2.6.2 3.6-.2 4-1.3 5.4-6.3 8.3-10.7-.7.3-1.3.6-2.1.8-1.3.4-2.6.5-4.1.5-1.2 0-2.4-.1-3.7-.3-1.1-.1-2.3-.4-3.6-.7-1.1-.2-2.3-.5-3.6-.9-.6-.2-1.3-.3-1.9-.5-.6-.2-1.1-.3-1.6-.5-1.3-.5-2.4-1-3.4-1.5-1.1-.5-1.9-1-2.6-1.5z"></path><path fill="#d5101a" d="M18.7 37.2c2.3 2.6 5.1 4.6 8.3 5.1 1.4.2 2.6.2 3.6-.2C26.8 36.6 24 38 24 38c-2.1-1.4-4-1.2-5.3-.8z" class="colorD5101A svgShape"></path><linearGradient id="k" x1="-1140.526" x2="-1134.108" y1="231.997" y2="231.997" gradientTransform="matrix(-.916 .4012 .4013 .916 -1100.826 277.69)" gradientUnits="userSpaceOnUse"><stop offset="0" stop-color="#f7f6f6" class="stopColorf7f6f6 svgShape"></stop><stop offset="1" stop-color="#cfcfce" class="stopColorcfcfce svgShape"></stop></linearGradient><path fill="url(#k)" d="M31.8 35.7c.7 0 1.4-.1 2.1-.2.5-.1 1.1-.4 1.4-.7.5-.8 1.1-1.7 1.6-2.6-1.3.4-2.6.5-4.1.5-.5.8-.9 1.6-1.4 2.3-.4.4-.1.7.4.7z"></path><linearGradient id="l" x1="-1136.556" x2="-1130.606" y1="230.47" y2="230.47" gradientTransform="matrix(-.916 .4012 .4013 .916 -1100.826 277.69)" gradientUnits="userSpaceOnUse"><stop offset="0" stop-color="#f7f6f6" class="stopColorf7f6f6 svgShape"></stop><stop offset="1" stop-color="#cfcfce" class="stopColorcfcfce svgShape"></stop></linearGradient><path fill="url(#l)" d="M27.9 35.7h2c.5 0 1.1-.3 1.4-.7.5-.7.9-1.5 1.4-2.3-1.2 0-2.4-.1-3.7-.3-.5.9-1 1.7-1.5 2.5-.3.5-.1.8.4.8z"></path><linearGradient id="m" x1="-1133.236" x2="-1127.362" y1="228.631" y2="228.631" gradientTransform="matrix(-.916 .4012 .4013 .916 -1100.826 277.69)" gradientUnits="userSpaceOnUse"><stop offset="0" stop-color="#f7f6f6" class="stopColorf7f6f6 svgShape"></stop><stop offset="1" stop-color="#cfcfce" class="stopColorcfcfce svgShape"></stop></linearGradient><path fill="url(#m)" d="M24.2 35.4c.6.1 1.3.2 1.9.2.5 0 1.1-.2 1.3-.6.5-.8 1-1.6 1.5-2.5-1.1-.1-2.3-.4-3.6-.7-.5 1-1.1 1.9-1.6 2.7-.2.5 0 .8.5.9z"></path><linearGradient id="n" x1="-1130.176" x2="-1124.364" y1="226.561" y2="226.561" gradientTransform="matrix(-.916 .4012 .4013 .916 -1100.826 277.69)" gradientUnits="userSpaceOnUse"><stop offset="0" stop-color="#f7f6f6" class="stopColorf7f6f6 svgShape"></stop><stop offset="1" stop-color="#cfcfce" class="stopColorcfcfce svgShape"></stop></linearGradient><path fill="url(#n)" d="M20.6 34.7c.6.2 1.2.3 1.9.4.5.1 1.1-.2 1.3-.5.5-.9 1.1-1.8 1.6-2.7-1.1-.2-2.3-.5-3.6-.9-.3.5-.6 1-.8 1.5-.3.5-.5.9-.8 1.4-.3.3-.1.7.4.8z"></path><linearGradient id="o" x1="-1127.266" x2="-1121.616" y1="224.282" y2="224.282" gradientTransform="matrix(-.916 .4012 .4013 .916 -1100.826 277.69)" gradientUnits="userSpaceOnUse"><stop offset="0" stop-color="#f7f6f6" class="stopColorf7f6f6 svgShape"></stop><stop offset="1" stop-color="#cfcfce" class="stopColorcfcfce svgShape"></stop></linearGradient><path fill="url(#o)" d="m17.1 33.7 1.8.6c.5.1 1-.1 1.3-.5.3-.5.5-.9.8-1.4.3-.5.6-1 .8-1.5-.6-.2-1.3-.3-1.9-.5-.6-.2-1.1-.3-1.6-.5-.5 1-1 1.9-1.6 2.8-.3.4-.1.8.4 1z"></path><linearGradient id="p" x1="-1124.416" x2="-1120.366" y1="221.725" y2="221.725" gradientTransform="matrix(-.916 .4012 .4013 .916 -1100.826 277.69)" gradientUnits="userSpaceOnUse"><stop offset="0" stop-color="#f7f6f6" class="stopColorf7f6f6 svgShape"></stop><stop offset="1" stop-color="#cfcfce" class="stopColorcfcfce svgShape"></stop></linearGradient><path fill="url(#p)" d="M13.9 30.2c.5 1 1.1 2 1.7 3 .4.1.8-.1 1-.4.5-.9 1-1.8 1.6-2.8-1.3-.5-2.4-1-3.4-1.5-.3.5-.6 1.1-.9 1.7z"></path><linearGradient id="q" x1="-1121.876" x2="-1120.206" y1="218.717" y2="218.717" gradientTransform="matrix(-.916 .4012 .4013 .916 -1100.826 277.69)" gradientUnits="userSpaceOnUse"><stop offset="0" stop-color="#f7f6f6" class="stopColorf7f6f6 svgShape"></stop><stop offset="1" stop-color="#cfcfce" class="stopColorcfcfce svgShape"></stop></linearGradient><path fill="url(#q)" d="M12.3 26.9c.4.9 1 2.1 1.6 3.3.3-.6.6-1.1.9-1.7-1-.6-1.8-1.1-2.5-1.6z"></path><path fill="#b15218" d="M2.5 23.6c.1-.1.2-.3.3-.5.2-.2.3-.4.6-.5.2-.2.5-.3.8-.5.3-.1.6-.2 1-.3.4 0 .7-.1 1.1-.1.4 0 .8 0 1.1.1 1.5.2 2.9.8 3.8 1.3 1 .5 1.5 1.1 1.5 1.1s-.7-.2-1.7-.5c-.5-.1-1-.3-1.6-.4.1.1.1.2.2.3.3.4.6.9 1.1 1.4.5.5 1 1 1.7 1.5s1.4 1 2.3 1.5c.4.2.9.5 1.3.7.5.2.9.4 1.4.6 1 .4 2 .7 3.1 1.1l3.3.9c1.1.3 2.2.6 3.3.8 1.1.2 2.2.4 3.3.5 1.1.1 2.1.1 3.1.1.5 0 1-.1 1.4-.1.5-.1.9-.1 1.3-.2.8-.2 1.6-.4 2.2-.7.3-.1.6-.3.9-.4.3-.1.5-.3.7-.4.5-.2.8-.4 1-.5l.4-.2-.3.3c-.2.2-.5.5-.9.7-.2.1-.5.3-.7.4-.3.1-.6.3-.9.4-.7.3-1.4.5-2.3.8-.4.1-.9.2-1.3.3-.5 0-1 .1-1.5.1-1 0-2.1 0-3.2-.1s-2.2-.2-3.3-.4c-1.1-.2-2.3-.4-3.4-.7l-3.3-.9c-1.1-.3-2.2-.6-3.2-1l-1.5-.6c-.5-.2-1-.4-1.4-.7-.9-.5-1.7-1-2.4-1.5s-1.3-1.1-1.8-1.6-.9-1-1.2-1.5c-.3-.4-.5-.8-.6-1.1-.3-.1-.6-.1-.9-.1-.3-.1-.7-.1-1-.1h-1c-.3 0-.6.1-.9.1-.3-.1-.5 0-.8 0l-.6.3c-.2.1-.3.2-.4.3-.2.3-.4.4-.4.4s.1-.1.3-.4z" class="colorB15218 svgShape"></path><radialGradient id="r" cx="-295.187" cy="24.006" r="10.86" gradientTransform="rotate(7.022 -112.174 2592.504) skewX(.006)" gradientUnits="userSpaceOnUse"><stop offset="0" stop-color="#fbdd49" class="stopColorfbdd49 svgShape"></stop><stop offset=".793" stop-color="#eba503" class="stopColoreba503 svgShape"></stop><stop offset="1" stop-color="#d7840b" class="stopColord7840b svgShape"></stop></radialGradient><path fill="url(#r)" d="M22.1 14.8c-2.5-.8-5.3.9-6.3 4.2-.7 2.3-.4 4.9.7 6.5h.4c1.4.2 2.6.7 3.5 1.4 1.9-.6 3.7-2.6 4.5-5 1.1-3.4-.3-6.3-2.8-7.1z"></path><radialGradient id="s" cx="-295.106" cy="24.17" r="5.484" gradientTransform="rotate(7.022 -112.174 2592.504) skewX(.006)" gradientUnits="userSpaceOnUse"><stop offset="0" stop-color="#fbdd49" class="stopColorfbdd49 svgShape"></stop><stop offset=".793" stop-color="#eba503" class="stopColoreba503 svgShape"></stop><stop offset="1" stop-color="#d7840b" class="stopColord7840b svgShape"></stop></radialGradient><path fill="url(#s)" d="M22.1 15.2c-2.4-.8-5.1.8-6.1 4.1-.7 2.3-.4 4.7.6 6.3h.3c1.5.2 2.6.7 3.6 1.4 1.9-.6 3.7-2.5 4.4-4.9 1-3.3-.3-6.2-2.8-6.9z"></path><path fill="#722717" d="M22.2 15.8c-2.3-.7-4.9.8-5.8 3.9-.6 2.1-.4 4.3.5 5.8h.1c1.5.2 2.7.7 3.7 1.5 1.8-.5 3.5-2.4 4.2-4.7.9-3-.4-5.7-2.7-6.5z" class="color722717 svgShape"></path><radialGradient id="t" cx="-794.287" cy="2.881" r="5.005" gradientTransform="rotate(17.273 -448.032 2694.515) skewX(.007)" gradientUnits="userSpaceOnUse"><stop offset=".618" stop-color="#f2f2f2" class="stopColorf2f2f2 svgShape"></stop><stop offset="1" stop-color="#cbcaca" class="stopColorcbcaca svgShape"></stop></radialGradient><path fill="url(#t)" d="M22.1 16c-2.2-.7-4.7.8-5.6 3.8-.6 2.1-.4 4.3.5 5.7 1.4.2 2.5.7 3.4 1.3 1.7-.5 3.4-2.3 4.1-4.6 1-2.8-.1-5.5-2.4-6.2z"></path><path fill="#b15218" d="M15.3 25.5s.4-.2 1.2-.2c.4 0 .8 0 1.2.1.4.1.9.2 1.3.4s.9.4 1.2.6c.4.3.7.5.9.8.3.2.4.5.6.6.1.2.2.3.2.3s-.1-.1-.3-.2c-.2-.1-.4-.3-.7-.5-.3-.2-.6-.4-1-.6l-1.2-.6c-.4-.2-.8-.3-1.2-.4-.4-.1-.8-.2-1.1-.2-.6-.1-1.1-.1-1.1-.1z" class="colorB15218 svgShape"></path><radialGradient id="u" cx="-983.143" cy="-338.55" r="2.878" gradientTransform="matrix(.9251 .3799 -.3289 .8013 819.713 665.658)" gradientUnits="userSpaceOnUse"><stop offset="0" stop-color="#67c4d9" class="stopColor67c4d9 svgShape"></stop><stop offset=".793" stop-color="#2c5ca6" class="stopColor2c5ca6 svgShape"></stop><stop offset="1" stop-color="#2a4495" class="stopColor2a4495 svgShape"></stop></radialGradient><path fill="url(#u)" d="M23.9 21.8c-.6 1.4-2.1 2.1-3.4 1.6-1.3-.5-1.8-2.1-1.3-3.5.6-1.4 2.1-2.1 3.4-1.6 1.3.5 1.9 2.1 1.3 3.5z"></path><ellipse cx="21.6" cy="20.9" rx="1.3" ry="1.5" transform="rotate(22.328 21.583 20.881)" fill="#000000" class="color000 svgShape"></ellipse><circle cx="21.4" cy="20.2" r=".4" fill="#ffffff" class="colorFFF svgShape"></circle><circle cx="21.5" cy="21.9" r=".2" fill="#ffffff" class="colorFFF svgShape"></circle><path fill="#b15218" d="m17.5 13.8.8-.8c.5-.5 1.2-1 2.1-1.3.2-.1.5-.1.7-.2h.7c.2.1.5.1.7.3.2.1.4.2.5.4.1.1.2.3.3.4.1.1.1.3.1.4.1.2.1.3.1.3l-.1.1s-.1-.1-.3-.2c-.1 0-.2-.1-.3-.2-.1-.1-.2-.1-.4-.2-.1-.1-.3-.1-.4-.2-.1-.1-.3-.1-.4-.1-.3-.1-.7-.1-1.1-.1-.8.1-1.6.5-2.1.8-.5.4-.8.6-.9.6z" class="colorB15218 svgShape"></path><radialGradient id="v" cx="-1051.922" cy="24.006" r="10.86" gradientTransform="matrix(-.9925 -.1223 -.1222 .9925 -1006.716 -129.846)" gradientUnits="userSpaceOnUse"><stop offset="0" stop-color="#fbdd49" class="stopColorfbdd49 svgShape"></stop><stop offset=".793" stop-color="#eba503" class="stopColoreba503 svgShape"></stop><stop offset="1" stop-color="#d7840b" class="stopColord7840b svgShape"></stop></radialGradient><path fill="url(#v)" d="M34.1 16.3c2.6-.1 4.9 2.1 5.1 5.6.1 2.4-.8 4.8-2.3 6.1-.1 0-.3-.1-.4-.1-1.4-.2-2.7 0-3.7.5-1.7-1-3-3.4-3.1-6-.2-3.4 1.8-5.9 4.4-6.1z"></path><radialGradient id="w" cx="-1051.842" cy="24.17" r="5.484" gradientTransform="matrix(-.9925 -.1223 -.1222 .9925 -1006.716 -129.846)" gradientUnits="userSpaceOnUse"><stop offset="0" stop-color="#fbdd49" class="stopColorfbdd49 svgShape"></stop><stop offset=".793" stop-color="#eba503" class="stopColoreba503 svgShape"></stop><stop offset="1" stop-color="#d7840b" class="stopColord7840b svgShape"></stop></radialGradient><path fill="url(#w)" d="M34 16.6c2.6-.1 4.8 2.1 5 5.5.1 2.4-.7 4.7-2.1 5.9-.1 0-.2 0-.3-.1-1.5-.2-2.7 0-3.8.5-1.7-1-2.9-3.3-3.1-5.8-.2-3.4 1.7-5.8 4.3-6z"></path><path fill="#722717" d="M33.8 17.3c2.4-.1 4.6 2 4.7 5.2.1 2.2-.7 4.3-1.9 5.5h-.1c-1.5-.2-2.8 0-3.9.5-1.6-.9-2.8-3.2-2.9-5.5-.2-3.3 1.7-5.6 4.1-5.7z" class="color722717 svgShape"></path><radialGradient id="x" cx="-1538.953" cy="137.482" r="5.005" gradientTransform="matrix(-.9984 .0562 .0562 .9985 -1510.149 -27.618)" gradientUnits="userSpaceOnUse"><stop offset=".618" stop-color="#f2f2f2" class="stopColorf2f2f2 svgShape"></stop><stop offset="1" stop-color="#cbcaca" class="stopColorcbcaca svgShape"></stop></radialGradient><path fill="url(#x)" d="M33.8 17.5c2.3-.1 4.3 1.9 4.5 5 .1 2.2-.7 4.3-1.9 5.4-1.4-.1-2.6 0-3.6.5-1.6-.9-2.8-3.1-2.9-5.4-.2-3.1 1.6-5.4 3.9-5.5z"></path><path fill="#b15218" d="M38.1 28.4s-.4-.3-1.1-.4c-.3-.1-.7-.2-1.2-.2h-1.4c-.5.1-.9.2-1.3.3-.4.2-.8.3-1.1.5-.3.2-.5.4-.7.5-.2.1-.3.2-.3.2s.1 0 .3-.1c.2-.1.5-.2.8-.3.3-.1.7-.2 1.1-.3.4-.1.8-.2 1.3-.3.4-.1.9-.1 1.3-.1h1.1c.8 0 1.2.2 1.2.2z" class="colorB15218 svgShape"></path><radialGradient id="y" cx="-1713.052" cy="-107.99" r="2.878" gradientTransform="matrix(-.9896 .144 .1247 .8572 -1648.635 361.514)" gradientUnits="userSpaceOnUse"><stop offset="0" stop-color="#67c4d9" class="stopColor67c4d9 svgShape"></stop><stop offset=".793" stop-color="#2c5ca6" class="stopColor2c5ca6 svgShape"></stop><stop offset="1" stop-color="#2a4495" class="stopColor2a4495 svgShape"></stop></radialGradient><path fill="url(#y)" d="M30.7 22.7c.2 1.5 1.5 2.6 2.9 2.4 1.4-.2 2.3-1.6 2.1-3.1-.2-1.5-1.5-2.6-2.9-2.4-1.4.2-2.3 1.5-2.1 3.1z"></path><ellipse cx="33.2" cy="22.3" rx="1.3" ry="1.5" transform="rotate(171.73 33.159 22.31)" fill="#000000" class="color000 svgShape"></ellipse><circle cx="33.5" cy="21.6" r=".4" fill="#ffffff" class="colorFFF svgShape"></circle><circle cx="33" cy="23.3" r=".2" fill="#ffffff" class="colorFFF svgShape"></circle><path fill="#b15218" d="M38.9 16.4s-.2-.4-.6-1c-.4-.6-.9-1.3-1.7-1.8-.2-.1-.4-.2-.6-.4-.2-.1-.5-.2-.7-.2-.2 0-.5 0-.7.1-.2.1-.4.1-.6.3-.2.1-.3.2-.4.3-.1.1-.2.2-.2.3-.1.2-.2.3-.2.3l.1.1s.1 0 .3-.1c.1 0 .2-.1.3-.1.1 0 .3 0 .4-.1h.9c.3 0 .7 0 1.1.2.7.3 1.4.9 1.9 1.3.3.5.6.8.7.8z" class="colorB15218 svgShape"></path><radialGradient id="z" cx="12.799" cy="7.282" r="20.541" gradientUnits="userSpaceOnUse"><stop offset="0" stop-color="#fbdd49" class="stopColorfbdd49 svgShape"></stop><stop offset=".422" stop-color="#eba503" class="stopColoreba503 svgShape"></stop><stop offset="1" stop-color="#d7840b" class="stopColord7840b svgShape"></stop></radialGradient><path fill="url(#z)" d="M24.4 1.5C24 1 23.3.7 22.5.7h-.8C20.2 1 19 2.1 18.3 4l-.1.2-.2.1c-.7.3-1.9.3-2.8-.1-.6-.2-1.2-.5-1.7-.8l-.5-.3s-.1-.1-.2-.1c-1-.5-2.1-.9-3.3-1.3-.7-.3-1.5-.5-2.3-.6C6.1 1 5.1.9 4.1 1 1.7 1.3 1 2 .8 2.5c-.2.4-.1.9.1 1.1 0 0 .6.6.1 1-.3.3-.4.6-.3 1.1.1.5.5 1.5 2.3 2.2.7.2 1.3.6 2 1 1.6.9 3 2.1 4.3 3.2.7.6 2.4 1.9 4.2 1.9 1.3 0 2.5-.8 3.4-2.2l.1-.2.2-.1c.9-.3 1.7-1 2.1-1.9.2-.5.4-1 .5-1.6.1-.6.3-1.2.6-1.8.5-1 1.4-1.9 2.5-2.3.2-.1.4-.1.6-.2.2-.1.5-.1.7-.3.2-.1.6-.3.7-.7.1-.4-.1-.9-.5-1.2z"></path><linearGradient id="A" x1="-1403.196" x2="-1403.21" y1="-485.923" y2="-481.867" gradientTransform="matrix(.9734 .5129 -.349 .6631 1211.106 1050.204)" gradientUnits="userSpaceOnUse"><stop offset="0" stop-color="#ffebb5" class="stopColorffebb5 svgShape"></stop><stop offset="1" stop-color="#fdf6be" stop-opacity="0" class="stopColorfdf6be svgShape"></stop></linearGradient><path fill="url(#A)" d="M16.2 11.8c-.5.9-2 1-3.4.2-1.4-.7-2.2-2-1.7-2.9s2-1 3.4-.2 2.2 2.1 1.7 2.9z" opacity=".7"></path><linearGradient id="B" x1="1154.873" x2="1154.859" y1="112.305" y2="116.361" gradientTransform="matrix(.8621 -.6836 .4659 .587 -1039.598 728.125)" gradientUnits="userSpaceOnUse"><stop offset="0" stop-color="#ffebb5" class="stopColorffebb5 svgShape"></stop><stop offset="1" stop-color="#fdf6be" stop-opacity="0" class="stopColorfdf6be svgShape"></stop></linearGradient><path fill="url(#B)" d="M12.2 4.8c.6.8.1 2.2-1.2 3.2s-2.7 1.1-3.3.4c-.6-.8-.1-2.2 1.1-3.2s2.8-1.2 3.4-.4z" opacity=".7"></path><linearGradient id="C" x1="-482.405" x2="-482.419" y1="-798.705" y2="-794.649" gradientTransform="matrix(1.0965 .09073 -.06144 .7469 484.325 640.882)" gradientUnits="userSpaceOnUse"><stop offset="0" stop-color="#ffebb5" class="stopColorffebb5 svgShape"></stop><stop offset="1" stop-color="#fdf6be" stop-opacity="0" class="stopColorfdf6be svgShape"></stop></linearGradient><path fill="url(#C)" d="M7.1 3.4c-.1.9-1.4 1.6-3 1.5s-2.8-1-2.7-2c.1-1 1.4-1.6 3-1.5s2.8 1 2.7 2z" opacity=".7"></path><linearGradient id="D" x1="-980.163" x2="-980.177" y1="-1144.383" y2="-1140.326" gradientTransform="matrix(1.0347 .3081 -.1893 .6366 801.761 1034.499)" gradientUnits="userSpaceOnUse"><stop offset="0" stop-color="#ffebb5" class="stopColorffebb5 svgShape"></stop><stop offset="1" stop-color="#fdf6be" stop-opacity="0" class="stopColorfdf6be svgShape"></stop></linearGradient><path fill="url(#D)" d="M6.2 7c-.2.8-1.6 1.1-3.1.7C1.6 7.2.6 6.2.8 5.4S2.5 4.2 4 4.7 6.5 6.2 6.2 7z" opacity=".7"></path><linearGradient id="E" x1="694.889" x2="694.875" y1="-807.408" y2="-803.351" gradientTransform="matrix(.9873 -.4367 .2689 .6072 -448.28 794.386)" gradientUnits="userSpaceOnUse"><stop offset="0" stop-color="#ffebb5" class="stopColorffebb5 svgShape"></stop><stop offset="1" stop-color="#fdf6be" stop-opacity="0" class="stopColorfdf6be svgShape"></stop></linearGradient><path fill="url(#E)" d="M24.1 1.6c.3.8-.5 1.9-1.9 2.6s-2.9.5-3.2-.3.5-1.9 1.9-2.6 2.9-.5 3.2.3z" opacity=".7"></path><path fill="#b15218" d="M24.5 1.4c-.5-.5-1.2-.8-2-.9h-.9C20.1.8 18.9 2 18.1 4l-.1.1-.1.1c-.3.1-.7.2-1.2.2s-1.1-.1-1.5-.3c-.6-.2-1.1-.5-1.7-.9l-.4-.2c-.1 0-.2-.1-.2-.1-1-.5-2.1-1-3.3-1.3-.6-.3-1.5-.5-2.4-.7-.4 0-.7 0-1.1-.1-.7 0-1.3-.1-2 0C1.5 1.2.8 2 .6 2.4c-.1.4-.1.8.1 1.3 0 0 0 .1.1.1.1.1.2.3.2.5 0 .1-.1.2-.2.3-.2.2-.4.6-.3 1.1.1.6.6 1.6 2.5 2.3.7.2 1.3.6 2 1 1.6.9 3 2.1 4.3 3.2.7.6 2.4 1.9 4.3 1.9 1.4 0 2.6-.8 3.5-2.3l.1-.1h.1c1-.3 1.8-1 2.2-1.9.2-.7.4-1.2.5-1.8.1-.6.3-1.2.6-1.7.5-1 1.4-1.8 2.4-2.3.2-.1.4-.1.6-.2v-.1l.1.1c.2-.1.5-.2.7-.3.3-.1.6-.4.8-.8 0-.4-.3-1-.7-1.3zm.3 1.3c-.1.3-.4.5-.6.6-.2.1-.4.2-.7.2-.2.1-.4.1-.6.2-1.1.5-2.1 1.3-2.6 2.4-.3.6-.4 1.2-.6 1.8-.1.6-.3 1.1-.5 1.6-.4.8-1.2 1.5-2.1 1.8l-.2.1-.1.2c-.9 1.4-2 2.2-3.2 2.2-1.8 0-3.4-1.3-4.1-1.8-1.3-1.1-2.7-2.3-4.3-3.2-.8-.5-1.5-.8-2.1-1.1C1.3 7 .9 6.1.9 5.7c-.2-.4 0-.8.1-.9.1-.1.2-.2.2-.3.1 0 .4-.1.9-.1.6 0 1.4 0 2.2.2.8.2 1.5.5 2.1.7.3.2.6.3.7.4l.2.1-.2-.1c-.1-.1-.3-.3-.6-.4-.5-.3-1.3-.6-2.1-.9-.8-.2-1.6-.3-2.2-.3h-.9c0-.2-.2-.4-.3-.5-.1-.3-.3-.7-.1-1 .1-.4.7-1.2 3.2-1.5 0 0 .4 0 1.1.2.6.1 1.5.4 2.3.8.8.4 1.5.9 2 1.4l.5.5.2.2L10 4c-.1-.1-.2-.3-.5-.6-.5-.5-1.2-1-2-1.4-.7-.4-1.4-.6-2-.8H6c.4 0 .7 0 1.1.1.9.1 1.8.3 2.3.5 1.2.4 2.3.8 3.3 1.3.1 0 .2.1.2.1l.5.3c.5.3 1.1.6 1.7.9.5.2 1 .3 1.6.3.5 0 1-.1 1.3-.2l.3-.1.1-.3c.7-1.8 1.9-3 3.3-3.2.3 0 .5-.1.8 0 .7 0 1.4.3 1.8.8.3.2.6.6.5 1z" class="colorB15218 svgShape"></path><path fill="#b15218" d="M11.7 8.3s.4-.1.9-.1 1.3.1 2 .4c.3.2.7.3.9.6.3.2.5.5.6.7.2.2.3.4.3.6.1.1.1.2.1.2s-.1-.1-.1-.2c-.1-.1-.2-.3-.4-.5s-.4-.4-.7-.6c-.3-.2-.6-.4-.9-.5-.6-.3-1.3-.4-1.9-.5-.5-.1-.8-.1-.8-.1zM7 7.8s0-.4.2-.9.5-1.3 1.1-1.8c.3-.3.6-.5.9-.6.2-.1.3-.1.5-.2s.3-.1.5-.1c.3-.1.5 0 .7 0h.3s-.1 0-.3.1c-.2 0-.4.1-.7.2-.1 0-.3.1-.4.1-.2-.1-.3 0-.5.1-.3.1-.6.3-.8.6-.6.5-.9 1.1-1.2 1.6-.2.5-.3.9-.3.9z" class="colorB15218 svgShape"></path></svg>