<svg xmlns="http://www.w3.org/2000/svg" viewBox="0 0 48 48" width="256" height="256"><path fill="#b15218" d="M34.9 44.8c11.5-6 15.9-20.2 9.9-31.7S24.6-2.8 13.1 3.2-2.8 23.4 3.2 34.9s20.2 15.9 31.7 9.9z" class="colorB15218 svgShape"></path><radialGradient id="a" cx="-1434.738" cy="5067.631" r="23.013" gradientTransform="rotate(152.412 -86.207 2724.89)" gradientUnits="userSpaceOnUse"><stop offset="0" stop-color="#fbdd49" class="stopColorfbdd49 svgShape"></stop><stop offset=".793" stop-color="#eba503" class="stopColoreba503 svgShape"></stop><stop offset="1" stop-color="#d7840b" class="stopColord7840b svgShape"></stop></radialGradient><circle cx="24" cy="24" r="23" fill="url(#a)"></circle><linearGradient id="b" x1="-1348.034" x2="-1348.13" y1="5053.29" y2="5081.121" gradientTransform="matrix(-.9635 .5308 -.4825 -.8759 1176.32 5189.636)" gradientUnits="userSpaceOnUse"><stop offset="0" stop-color="#ffebb5" class="stopColorffebb5 svgShape"></stop><stop offset="1" stop-color="#fdf6be" stop-opacity="0" class="stopColorfdf6be svgShape"></stop></linearGradient><path fill="url(#b)" d="M8.5 36.9c-4.3-7.8-.1-18.4 9.5-23.7s20.7-3.2 25 4.6.1 18.4-9.5 23.6-20.7 3.3-25-4.5z" opacity=".7"></path><radialGradient id="c" cx="1785.679" cy="1373.196" r="6.789" gradientTransform="matrix(.9677 -.5139 .4814 .881 -2357.764 -254.405)" gradientUnits="userSpaceOnUse"><stop offset="0" stop-color="#ffebb5" class="stopColorffebb5 svgShape"></stop><stop offset="1" stop-color="#fdf6be" stop-opacity="0" class="stopColorfdf6be svgShape"></stop></radialGradient><path fill="url(#c)" d="M38.2 34.2c1.7 3.1 0 7.3-3.8 9.3-3.8 2-8.3 1.1-10-2-1.7-3.1 0-7.3 3.8-9.3s8.2-1.1 10 2z" opacity=".7"></path><radialGradient id="d" cx="1785.964" cy="1356.507" r="6.789" gradientTransform="matrix(.9677 -.5139 .4814 .881 -2357.764 -254.405)" gradientUnits="userSpaceOnUse"><stop offset="0" stop-color="#ffebb5" class="stopColorffebb5 svgShape"></stop><stop offset="1" stop-color="#fdf6be" stop-opacity="0" class="stopColorfdf6be svgShape"></stop></radialGradient><path fill="url(#d)" d="M30.4 19.4c1.7 3.1 0 7.3-3.8 9.3s-8.3 1.1-10-2 0-7.3 3.8-9.3 8.3-1.2 10 2z" opacity=".7"></path><radialGradient id="e" cx="2135.419" cy="1354.43" r="6.789" gradientTransform="matrix(.7327 -.3851 .4817 .8809 -2207.072 -336.982)" gradientUnits="userSpaceOnUse"><stop offset="0" stop-color="#ffebb5" class="stopColorffebb5 svgShape"></stop><stop offset="1" stop-color="#fdf6be" stop-opacity="0" class="stopColorfdf6be svgShape"></stop></radialGradient><path fill="url(#e)" d="M15.1 31.1c1.7 3.1.8 6.9-2.1 8.4s-6.6.2-8.3-2.9c-1.7-3.1-.8-6.9 2.1-8.4s6.6-.2 8.3 2.9z" opacity=".7"></path><radialGradient id="f" cx="2165.293" cy="1338.372" r="6.789" gradientTransform="matrix(.7327 -.3851 .4817 .8809 -2207.072 -336.982)" gradientUnits="userSpaceOnUse"><stop offset="0" stop-color="#ffebb5" class="stopColorffebb5 svgShape"></stop><stop offset="1" stop-color="#fdf6be" stop-opacity="0" class="stopColorfdf6be svgShape"></stop></radialGradient><path fill="url(#f)" d="M29.2 5.4c1.7 3.1.8 6.9-2.1 8.4s-6.6.2-8.3-2.9C17.1 7.8 18 4 20.9 2.5s6.6-.2 8.3 2.9z" opacity=".7"></path><radialGradient id="g" cx="2175.829" cy="1354.51" r="6.789" gradientTransform="matrix(.7327 -.3851 .4817 .8809 -2207.072 -336.982)" gradientUnits="userSpaceOnUse"><stop offset="0" stop-color="#ffebb5" class="stopColorffebb5 svgShape"></stop><stop offset="1" stop-color="#fdf6be" stop-opacity="0" class="stopColorfdf6be svgShape"></stop></radialGradient><path fill="url(#g)" d="M44.7 15.6c1.7 3.1.8 6.9-2.1 8.4-2.9 1.5-6.6.2-8.3-2.9-1.7-3.1-.8-6.9 2.1-8.4s6.6-.2 8.3 2.9z" opacity=".7"></path><path fill="#fbce40" d="M42.4 10.5s-.3-.4-.9-.9c-.5-.5-1.4-1.3-2.5-2.1-.5-.4-1.1-.8-1.8-1.3L35.1 5c-.4-.2-.8-.4-1.1-.6-.4-.2-.8-.3-1.2-.5-.8-.4-1.7-.6-2.5-.9-.8-.3-1.7-.4-2.6-.6-.9-.2-1.7-.2-2.6-.4-.8-.1-1.7-.1-2.4-.1-.8-.1-1.5.1-2.2.1-.7.1-1.3 0-1.9.1-.6.1-1 .1-1.4.2-.8.1-1.3.2-1.3.2l1.2-.3c.4-.1.9-.2 1.4-.4.5-.2 1.2-.2 1.9-.3.7-.1 1.4-.2 2.2-.2.8 0 1.6-.1 2.5 0 .9.1 1.8.1 2.7.3.9.2 1.8.3 2.7.6.9.3 1.8.6 2.6 1 .9.3 1.6.8 2.4 1.2.8.4 1.4.9 2.1 1.4.6.5 1.2 1 1.7 1.4.5.5 1 .9 1.3 1.3.4.4.7.8.9 1.1.7.5.9.9.9.9z" opacity=".7" class="colorFBCE40 svgShape"></path><radialGradient id="h" cx="-1401.611" cy="5012.322" r="20.741" gradientTransform="matrix(-.9016 .4711 -.4814 -.9213 1166.795 5290.394)" gradientUnits="userSpaceOnUse"><stop offset="0" stop-color="#fbdd49" class="stopColorfbdd49 svgShape"></stop><stop offset=".457" stop-color="#eba503" class="stopColoreba503 svgShape"></stop><stop offset="1" stop-color="#d7840b" class="stopColord7840b svgShape"></stop></radialGradient><path fill="url(#h)" d="m9.1 22.6.4-.4.1-.1c2.2-3.2 5.3-6 9.1-7.9 3.1-1.6 6.3-2.6 9.5-2.8.1-.1.3-.2.5-.2.6-.1 1.7.2 2.2-.1 0-.1.1-.1.2-.1l-.1-.1c-5.3-4.4-11.2-5.6-15.7-3.3C10.7 10 8.4 15.5 9 22.4v.4s0-.1.1-.2z"></path><radialGradient id="i" cx="-1434.507" cy="5080.712" r="9.409" gradientTransform="rotate(152.412 -86.207 2724.89)" gradientUnits="userSpaceOnUse"><stop offset="0" stop-color="#fbdd49" class="stopColorfbdd49 svgShape"></stop><stop offset=".457" stop-color="#eba503" class="stopColoreba503 svgShape"></stop><stop offset="1" stop-color="#d7840b" class="stopColord7840b svgShape"></stop></radialGradient><path fill="url(#i)" d="m9.3 22.6.4-.4.1-.1c2.2-3.1 5.3-5.8 8.9-7.7 3-1.6 6.2-2.5 9.3-2.8.1-.1.3-.2.4-.2.6-.1 1.6.2 2.1-.1.1-.1.2-.1.3-.1V11c-5.2-4.2-10.9-5.4-15.3-3-4.5 2.3-6.8 7.7-6.3 14.3v.4s0-.1.1-.1z"></path><path fill="#b15218" d="M9.3 22.6c.1-.1.3-.2.4-.4l.1-.1c2.3-2.9 5.4-5.5 9.1-7.4 3-1.6 6.1-2.6 9.2-3.1.1-.1.3-.2.4-.2.6-.2 1.6.1 2-.2.1-.1.2-.1.3-.1l-.1-.1c-4.6-3.3-10.1-4-14.6-1.7s-7.1 7.2-6.9 13v.3c0 .1 0 0 .1 0z" class="colorB15218 svgShape"></path><radialGradient id="j" cx="-1434.556" cy="5079.979" r="8.992" gradientTransform="rotate(152.412 -86.207 2724.89)" gradientUnits="userSpaceOnUse"><stop offset="0" stop-color="#330e10" class="stopColor330e10 svgShape"></stop><stop offset="1" stop-color="#871811" class="stopColor871811 svgShape"></stop></radialGradient><path fill="url(#j)" d="M9.4 22.4c-.1-5.5 2.3-10.5 6.8-12.9 4.5-2.4 10-1.5 14.5 1.7-3.7.2-7.8 1.3-11.8 3.3-4 2.1-7.3 4.9-9.5 7.9z"></path><path fill="#b15218" d="M8.3 24.6c.2.1.5.1.7.1.2 0 .4-.1.6-.1.3-.1.5-.3.5-.3s-.2 0-.5-.1c-.1 0-.3-.1-.5-.1s-.3-.1-.5-.2l-.1-.1c.1-.1.3-.3.4-.5.3-.3.6-.7 1-1.1.4-.4.8-.9 1.3-1.4.5-.5 1-1 1.7-1.5.6-.5 1.3-1 1.9-1.6.7-.5 1.4-1 2.2-1.5.4-.2.8-.5 1.2-.7l1.2-.6c.8-.4 1.6-.8 2.5-1.2.4-.2.8-.3 1.2-.5.4-.1.8-.3 1.2-.4.8-.3 1.6-.5 2.4-.7.8-.2 1.5-.4 2.2-.5 1.4-.3 2.5-.4 3.3-.5.3 0 .5 0 .7-.1v.2c0 .2-.1.3-.1.5-.1.1-.1.3-.2.4-.1.3-.2.5-.2.5s.2 0 .5-.2c.1-.1.3-.2.4-.4l.3-.6c.1-.5-.1-.9-.3-1.2-.3-.2-.5-.3-.5-.3s.1.2.1.5v.7c-.2 0-.4 0-.7-.1h-1.5c-.6 0-1.2 0-1.9.1-.7 0-1.5.2-2.3.3-.8.2-1.7.3-2.5.6-.9.2-1.7.5-2.6.9-.9.4-1.7.7-2.6 1.2l-1.3.7c-.4.3-.8.5-1.2.8-.8.5-1.5 1.1-2.2 1.6-.7.6-1.3 1.1-1.9 1.7-.6.6-1.1 1.2-1.6 1.7s-.8 1.1-1.2 1.5c-.3.5-.6.9-.8 1.2-.1.2-.3.4-.4.6-.2-.1-.4-.3-.5-.4l-.4-.4s0 .2.1.5c.1.4.4.8.9 1z" class="colorB15218 svgShape"></path><radialGradient id="k" cx="-1444.05" cy="5063.514" r="18.387" gradientTransform="rotate(152.412 -86.207 2724.89)" gradientUnits="userSpaceOnUse"><stop offset="0" stop-color="#fadc49" class="stopColorfadc49 svgShape"></stop><stop offset=".793" stop-color="#eaa404" class="stopColoreaa404 svgShape"></stop><stop offset="1" stop-color="#d6830c" class="stopColord6830c svgShape"></stop></radialGradient><circle cx="34.2" cy="23.3" r="8.7" fill="url(#k)"></circle><radialGradient id="l" cx="-1443.881" cy="5063.683" r="8.552" gradientTransform="rotate(152.412 -86.207 2724.89)" gradientUnits="userSpaceOnUse"><stop offset="0" stop-color="#fadc49" class="stopColorfadc49 svgShape"></stop><stop offset=".793" stop-color="#eaa404" class="stopColoreaa404 svgShape"></stop><stop offset="1" stop-color="#d6830c" class="stopColord6830c svgShape"></stop></radialGradient><circle cx="33.9" cy="23.3" r="8.6" fill="url(#l)"></circle><circle cx="33.5" cy="23.5" r="8.1" fill="#532713" class="color532713 svgShape"></circle><radialGradient id="m" cx="-1443.263" cy="5063.849" r="7.708" gradientTransform="rotate(152.412 -86.207 2724.89)" gradientUnits="userSpaceOnUse"><stop offset=".618" stop-color="#f1f1f1" class="stopColorf1f1f1 svgShape"></stop><stop offset="1" stop-color="#cac9c9" class="stopColorcac9c9 svgShape"></stop></radialGradient><circle cx="33.3" cy="23.4" r="7.7" fill="url(#m)"></circle><radialGradient id="n" cx="-1443.263" cy="5063.849" r="3.568" gradientTransform="rotate(152.412 -86.207 2724.89)" gradientUnits="userSpaceOnUse"><stop offset="0" stop-color="#68c3d8" class="stopColor68c3d8 svgShape"></stop><stop offset=".793" stop-color="#2d5ca5" class="stopColor2d5ca5 svgShape"></stop><stop offset="1" stop-color="#2b4593" class="stopColor2b4593 svgShape"></stop></radialGradient><circle cx="33.3" cy="23.4" r="3.6" fill="url(#n)"></circle><circle cx="33.3" cy="23.4" r="2.2" fill="#1d1e1c" class="color1D1E1C svgShape"></circle><circle cx="35.2" cy="24.1" r="1" fill="#ffffff" class="colorFFF svgShape"></circle><circle cx="31.7" cy="21.9" r=".4" fill="#ffffff" class="colorFFF svgShape"></circle><radialGradient id="o" cx="941.756" cy="5063.514" r="18.387" gradientTransform="scale(1 -1) rotate(27.587 10857.179 633.897)" gradientUnits="userSpaceOnUse"><stop offset="0" stop-color="#fadc49" class="stopColorfadc49 svgShape"></stop><stop offset=".793" stop-color="#eaa404" class="stopColoreaa404 svgShape"></stop><stop offset="1" stop-color="#d6830c" class="stopColord6830c svgShape"></stop></radialGradient><circle cx="17.7" cy="32" r="8.7" fill="url(#o)"></circle><radialGradient id="p" cx="941.926" cy="5063.683" r="8.552" gradientTransform="scale(1 -1) rotate(27.587 10857.179 633.897)" gradientUnits="userSpaceOnUse"><stop offset="0" stop-color="#fadc49" class="stopColorfadc49 svgShape"></stop><stop offset=".793" stop-color="#eaa404" class="stopColoreaa404 svgShape"></stop><stop offset="1" stop-color="#d6830c" class="stopColord6830c svgShape"></stop></radialGradient><circle cx="17.7" cy="31.7" r="8.6" fill="url(#p)"></circle><circle cx="18.1" cy="31.5" r="8.1" fill="#532713" class="color532713 svgShape"></circle><radialGradient id="q" cx="942.543" cy="5063.849" r="7.708" gradientTransform="scale(1 -1) rotate(27.587 10857.179 633.897)" gradientUnits="userSpaceOnUse"><stop offset=".618" stop-color="#f1f1f1" class="stopColorf1f1f1 svgShape"></stop><stop offset="1" stop-color="#cac9c9" class="stopColorcac9c9 svgShape"></stop></radialGradient><circle cx="18.2" cy="31.3" r="7.7" fill="url(#q)"></circle><radialGradient id="r" cx="-1422.138" cy="5063.849" r="3.568" gradientTransform="rotate(152.412 -84.169 2724.39)" gradientUnits="userSpaceOnUse"><stop offset="0" stop-color="#68c3d8" class="stopColor68c3d8 svgShape"></stop><stop offset=".793" stop-color="#2d5ca5" class="stopColor2d5ca5 svgShape"></stop><stop offset="1" stop-color="#2b4593" class="stopColor2b4593 svgShape"></stop></radialGradient><circle cx="18.2" cy="31.3" r="3.6" fill="url(#r)"></circle><circle cx="18.2" cy="31.3" r="2.2" fill="#1d1e1c" class="color1D1E1C svgShape"></circle><circle cx="20.1" cy="31.9" r="1" fill="#ffffff" class="colorFFF svgShape"></circle><circle cx="16.7" cy="29.8" r=".4" fill="#ffffff" class="colorFFF svgShape"></circle><path fill="#b15319" d="M41.9 33.3s-.5.3-1.4.7c-.9.4-2.1.8-3.4 1-.6.1-1.3.2-1.9.2-.3 0-.6-.1-.9-.1-.3-.1-.5-.1-.8-.2-.5-.2-.8-.4-1-.6-.2-.2-.4-.3-.4-.3v-.1s.2 0 .4.1c.1 0 .3 0 .5.1.2 0 .4 0 .6.1.2 0 .5 0 .7.1.3 0 .5 0 .8.1.3 0 .6 0 .9.1h.9c1.2 0 2.4-.3 3.3-.6 1-.5 1.6-.7 1.7-.6zM21.4 44l1.4-.7c.8-.5 1.9-1.3 2.8-2.2.4-.5.9-1 1.2-1.5.2-.3.3-.5.4-.8.1-.3.2-.5.2-.8.1-.5.1-.9.1-1.2v-.5h-.1s-.1.1-.2.4c-.1.1-.1.3-.2.4-.1.2-.2.3-.3.6-.1.2-.2.4-.4.6-.1.2-.3.5-.4.7-.1.3-.3.5-.4.8-.1.3-.3.5-.5.8-.7 1-1.7 1.8-2.4 2.4-.7.5-1.2.9-1.2 1z" class="colorB15319 svgShape"></path></svg>