<?xml version="1.0" standalone="no"?>
<svg xmlns:xlink="http://www.w3.org/1999/xlink" id="wave" style="transform:rotate(0deg); transition: 0.3s" viewBox="0 0 1440 210" version="1.1" xmlns="http://www.w3.org/2000/svg"><defs><linearGradient id="sw-gradient-0" x1="0" x2="0" y1="1" y2="0"><stop stop-color="rgba(70, 155, 212, 1)" offset="0%"/><stop stop-color="rgba(181, 198, 210, 1)" offset="100%"/></linearGradient></defs><path style="transform:translate(0, 0px); opacity:1" fill="url(#sw-gradient-0)" d="M0,63L40,66.5C80,70,160,77,240,87.5C320,98,400,112,480,105C560,98,640,70,720,70C800,70,880,98,960,105C1040,112,1120,98,1200,91C1280,84,1360,84,1440,91C1520,98,1600,112,1680,126C1760,140,1840,154,1920,136.5C2000,119,2080,70,2160,59.5C2240,49,2320,77,2400,87.5C2480,98,2560,91,2640,84C2720,77,2800,70,2880,70C2960,70,3040,77,3120,98C3200,119,3280,154,3360,164.5C3440,175,3520,161,3600,154C3680,147,3760,147,3840,140C3920,133,4000,119,4080,119C4160,119,4240,133,4320,140C4400,147,4480,147,4560,122.5C4640,98,4720,49,4800,35C4880,21,4960,42,5040,73.5C5120,105,5200,147,5280,143.5C5360,140,5440,91,5520,70C5600,49,5680,56,5720,59.5L5760,63L5760,210L5720,210C5680,210,5600,210,5520,210C5440,210,5360,210,5280,210C5200,210,5120,210,5040,210C4960,210,4880,210,4800,210C4720,210,4640,210,4560,210C4480,210,4400,210,4320,210C4240,210,4160,210,4080,210C4000,210,3920,210,3840,210C3760,210,3680,210,3600,210C3520,210,3440,210,3360,210C3280,210,3200,210,3120,210C3040,210,2960,210,2880,210C2800,210,2720,210,2640,210C2560,210,2480,210,2400,210C2320,210,2240,210,2160,210C2080,210,2000,210,1920,210C1840,210,1760,210,1680,210C1600,210,1520,210,1440,210C1360,210,1280,210,1200,210C1120,210,1040,210,960,210C880,210,800,210,720,210C640,210,560,210,480,210C400,210,320,210,240,210C160,210,80,210,40,210L0,210Z"/><defs><linearGradient id="sw-gradient-1" x1="0" x2="0" y1="1" y2="0"><stop stop-color="rgba(70, 155, 212, 1)" offset="0%"/><stop stop-color="rgba(70, 155, 212, 1)" offset="100%"/></linearGradient></defs><path style="transform:translate(0, 50px); opacity:0.9" fill="url(#sw-gradient-1)" d="M0,63L40,70C80,77,160,91,240,98C320,105,400,105,480,105C560,105,640,105,720,112C800,119,880,133,960,133C1040,133,1120,119,1200,94.5C1280,70,1360,35,1440,24.5C1520,14,1600,28,1680,35C1760,42,1840,42,1920,49C2000,56,2080,70,2160,70C2240,70,2320,56,2400,45.5C2480,35,2560,28,2640,24.5C2720,21,2800,21,2880,42C2960,63,3040,105,3120,105C3200,105,3280,63,3360,45.5C3440,28,3520,35,3600,63C3680,91,3760,140,3840,154C3920,168,4000,147,4080,133C4160,119,4240,112,4320,105C4400,98,4480,91,4560,105C4640,119,4720,154,4800,157.5C4880,161,4960,133,5040,133C5120,133,5200,161,5280,157.5C5360,154,5440,119,5520,98C5600,77,5680,70,5720,66.5L5760,63L5760,210L5720,210C5680,210,5600,210,5520,210C5440,210,5360,210,5280,210C5200,210,5120,210,5040,210C4960,210,4880,210,4800,210C4720,210,4640,210,4560,210C4480,210,4400,210,4320,210C4240,210,4160,210,4080,210C4000,210,3920,210,3840,210C3760,210,3680,210,3600,210C3520,210,3440,210,3360,210C3280,210,3200,210,3120,210C3040,210,2960,210,2880,210C2800,210,2720,210,2640,210C2560,210,2480,210,2400,210C2320,210,2240,210,2160,210C2080,210,2000,210,1920,210C1840,210,1760,210,1680,210C1600,210,1520,210,1440,210C1360,210,1280,210,1200,210C1120,210,1040,210,960,210C880,210,800,210,720,210C640,210,560,210,480,210C400,210,320,210,240,210C160,210,80,210,40,210L0,210Z"/><defs><linearGradient id="sw-gradient-2" x1="0" x2="0" y1="1" y2="0"><stop stop-color="rgba(237.106, 237.106, 237.106, 1)" offset="0%"/><stop stop-color="rgba(33.873, 135.084, 202.954, 1)" offset="100%"/></linearGradient></defs><path style="transform:translate(0, 100px); opacity:0.8" fill="url(#sw-gradient-2)" d="M0,168L40,168C80,168,160,168,240,157.5C320,147,400,126,480,98C560,70,640,35,720,17.5C800,0,880,0,960,10.5C1040,21,1120,42,1200,59.5C1280,77,1360,91,1440,91C1520,91,1600,77,1680,80.5C1760,84,1840,105,1920,115.5C2000,126,2080,126,2160,126C2240,126,2320,126,2400,136.5C2480,147,2560,168,2640,161C2720,154,2800,119,2880,108.5C2960,98,3040,112,3120,119C3200,126,3280,126,3360,119C3440,112,3520,98,3600,94.5C3680,91,3760,98,3840,112C3920,126,4000,147,4080,129.5C4160,112,4240,56,4320,28C4400,0,4480,0,4560,10.5C4640,21,4720,42,4800,59.5C4880,77,4960,91,5040,94.5C5120,98,5200,91,5280,91C5360,91,5440,98,5520,91C5600,84,5680,63,5720,52.5L5760,42L5760,210L5720,210C5680,210,5600,210,5520,210C5440,210,5360,210,5280,210C5200,210,5120,210,5040,210C4960,210,4880,210,4800,210C4720,210,4640,210,4560,210C4480,210,4400,210,4320,210C4240,210,4160,210,4080,210C4000,210,3920,210,3840,210C3760,210,3680,210,3600,210C3520,210,3440,210,3360,210C3280,210,3200,210,3120,210C3040,210,2960,210,2880,210C2800,210,2720,210,2640,210C2560,210,2480,210,2400,210C2320,210,2240,210,2160,210C2080,210,2000,210,1920,210C1840,210,1760,210,1680,210C1600,210,1520,210,1440,210C1360,210,1280,210,1200,210C1120,210,1040,210,960,210C880,210,800,210,720,210C640,210,560,210,480,210C400,210,320,210,240,210C160,210,80,210,40,210L0,210Z"/><defs><linearGradient id="sw-gradient-3" x1="0" x2="0" y1="1" y2="0"><stop stop-color="rgba(70, 155, 212, 1)" offset="0%"/><stop stop-color="rgba(0, 120.124, 200.677, 1)" offset="100%"/></linearGradient></defs><path style="transform:translate(0, 150px); opacity:0.7" fill="url(#sw-gradient-3)" d="M0,147L40,129.5C80,112,160,77,240,52.5C320,28,400,14,480,21C560,28,640,56,720,73.5C800,91,880,98,960,108.5C1040,119,1120,133,1200,122.5C1280,112,1360,77,1440,73.5C1520,70,1600,98,1680,115.5C1760,133,1840,140,1920,136.5C2000,133,2080,119,2160,108.5C2240,98,2320,91,2400,91C2480,91,2560,98,2640,91C2720,84,2800,63,2880,70C2960,77,3040,112,3120,129.5C3200,147,3280,147,3360,133C3440,119,3520,91,3600,94.5C3680,98,3760,133,3840,129.5C3920,126,4000,84,4080,56C4160,28,4240,14,4320,35C4400,56,4480,112,4560,143.5C4640,175,4720,182,4800,161C4880,140,4960,91,5040,59.5C5120,28,5200,14,5280,24.5C5360,35,5440,70,5520,91C5600,112,5680,119,5720,122.5L5760,126L5760,210L5720,210C5680,210,5600,210,5520,210C5440,210,5360,210,5280,210C5200,210,5120,210,5040,210C4960,210,4880,210,4800,210C4720,210,4640,210,4560,210C4480,210,4400,210,4320,210C4240,210,4160,210,4080,210C4000,210,3920,210,3840,210C3760,210,3680,210,3600,210C3520,210,3440,210,3360,210C3280,210,3200,210,3120,210C3040,210,2960,210,2880,210C2800,210,2720,210,2640,210C2560,210,2480,210,2400,210C2320,210,2240,210,2160,210C2080,210,2000,210,1920,210C1840,210,1760,210,1680,210C1600,210,1520,210,1440,210C1360,210,1280,210,1200,210C1120,210,1040,210,960,210C880,210,800,210,720,210C640,210,560,210,480,210C400,210,320,210,240,210C160,210,80,210,40,210L0,210Z"/></svg>