<svg xmlns="http://www.w3.org/2000/svg" viewBox="0 0 996.8 1240.24"><g data-name="Layer 2" fill="#000000" class="color000 svgShape"><g data-name="Layer 1" fill="#000000" class="color000 svgShape"><path fill="#6b2d17" d="M268.85,994.3a395.07,395.07,0,0,0-138.72,18.8c5.84,14.9,18.84,41.75,46.43,63.55,14.09,11.14,40.4,31.93,61.9,24.87C263.13,1093.43,278.54,1049.6,268.85,994.3Z" class="color6b2d17 svgShape"/><path fill="#87462f" d="M297.11,1037.36Q261.31,584,225.48,130.68,235.71,584,246,1037.36Z" class="color87462f svgShape"/><path fill="#87462f" d="M487.45,652.58,58.68,680.21l3.06,16.38L487.45,669Z" class="color87462f svgShape"/><path fill="#87462f" d="M65.33,708.87c7.72-6.74,7.68-18.46,7.67-19.19-.16-9.31-5.31-18.37-12.28-22.26C42.8,657.44,9.9,680,11.6,694.28S50.08,722.16,65.33,708.87Z" class="color87462f svgShape"/><path fill="#191c29" d="M456,650.54a420.16,420.16,0,0,1,15.35,49.12C490,775.59,484,843.35,474.41,891.53c-16.24-3.18-33.13-5.79-50.66-7.67C290.56,869.52,175,902.74,91.42,939.12a423.67,423.67,0,0,0,16.12-97.47A429.63,429.63,0,0,0,82.21,675.86l27.63-1.53c1.15,1.79,15.37,23.19,41.45,23.79,19.56.45,37.91-11,46.82-29.16,9.63,6.26,41.78,25.44,86,21.49A136.58,136.58,0,0,0,359.28,659c27.53,21.31,55.66,25.19,67.54,13.81,2.36-2.26,6.26-7.2,6.91-17.65Z" class="color191c29 svgShape"/><path fill="#87462f" d="M433.11,436.11,93.86,458l2.43,12.95,336.82-21.86Z" class="color87462f svgShape"/><path fill="#87462f" d="M99.12,480.64c6.12-5.33,6.08-14.6,6.08-15.18-.13-7.37-4.2-14.54-9.72-17.61C81.3,440,55.27,457.77,56.61,469.1S87.06,491.16,99.12,480.64Z" class="color87462f svgShape"/><path fill="#191c29" d="M408.22,434.49a333.41,333.41,0,0,1,12.14,38.86c14.78,60.08,10.05,113.69,2.43,151.82-12.84-2.52-26.21-4.58-40.08-6.08C277.33,607.75,185.86,634,119.77,662.82a335.73,335.73,0,0,0,12.75-77.12,339.91,339.91,0,0,0-20-131.17l21.86-1.22c.91,1.42,12.16,18.35,32.79,18.83,15.48.36,30-8.68,37.05-23.08,7.62,5,33.06,20.14,68,17a108,108,0,0,0,59.51-24.9c21.78,16.86,44,19.93,53.44,10.93,1.87-1.79,4.95-5.7,5.46-14Z" class="color191c29 svgShape"/><path fill="#b05d3e" d="M474.19,979.33,396.82,0q11.06,489.66,22.1,979.33Z" class="colorb05d3e svgShape"/><path fill="#b05d3e" d="M679.78,563.72,216.65,593.57q1.65,8.83,3.31,17.68l459.82-29.84Z" class="colorb05d3e svgShape"/><path fill="#b05d3e" d="M717.92 572.29c.33 12.49-20.42 27.42-37.31 22.38-8.3-2.48-18.05-10.48-18.24-21.55-.16-9.72 7.14-17.55 14.1-20.73C693 544.88 717.56 558.91 717.92 572.29zM223.83 624.52c8.35-7.28 8.3-19.94 8.29-20.73-.17-10.06-5.73-19.84-13.26-24C199.5 569 164 593.3 165.8 608.76S207.37 638.88 223.83 624.52z" class="colorb05d3e svgShape"/><path fill="#32394d" d="M645.79,561.51a450.27,450.27,0,0,1,16.58,53.06c20.19,82,13.72,155.21,3.32,207.25-17.53-3.44-35.78-6.25-54.71-8.29C467.12,798,342.24,833.92,252,873.22a458.41,458.41,0,0,0,17.41-105.29,464.22,464.22,0,0,0-27.36-179.06l29.84-1.66c1.24,1.94,16.6,25,44.77,25.7,21.13.49,40.95-11.85,50.57-31.5,10.41,6.76,45.13,27.48,92.85,23.21a147.45,147.45,0,0,0,81.24-34c29.73,23,60.11,27.21,72.95,14.92,2.55-2.44,6.76-7.78,7.46-19.06Z" class="color32394d svgShape"/><path fill="#b05d3e" d="M621.09,329.9,254.65,353.51q1.32,7,2.62,14l363.82-23.62Z" class="colorb05d3e svgShape"/><path fill="#b05d3e" d="M651.26 336.68c.26 9.88-16.15 21.7-29.52 17.71-6.56-2-14.28-8.3-14.43-17.05-.13-7.7 5.64-13.89 11.15-16.4C631.51 315 651 326.09 651.26 336.68zM260.34 378c6.6-5.76 6.57-15.77 6.55-16.4-.13-8-4.53-15.7-10.49-19-15.31-8.53-43.43 10.72-42 23S247.31 389.36 260.34 378z" class="colorb05d3e svgShape"/><path fill="#32394d" d="M594.19,328.15a358.14,358.14,0,0,1,13.12,42c16,64.9,10.86,122.8,2.63,164-13.88-2.72-28.31-5-43.29-6.56-113.83-12.25-212.63,16.13-284,47.23a362.84,362.84,0,0,0,13.77-83.31A367.38,367.38,0,0,0,274.77,349.8l23.61-1.31c1,1.53,13.13,19.81,35.42,20.33,16.71.39,32.4-9.38,40-24.93,8.23,5.36,35.71,21.75,73.46,18.37a116.78,116.78,0,0,0,64.28-26.89c23.52,18.21,47.56,21.52,57.72,11.8,2-1.93,5.35-6.15,5.9-15.08Z" class="color32394d svgShape"/><path fill="#b05d3e" d="M492.43,281.31c.18,5.52-21.06,10.27-38.14,14.09-65,14.54-133.08,4.18-133.47-5.8C320.57,283,350,277,365.59,273.85,427.75,261.22,492.11,271.76,492.43,281.31Z" class="colorb05d3e svgShape"/><path fill="#b05d3e" d="M485.8,281.31q-9.54-34.81-19.07-69.64a152.86,152.86,0,0,0-50.57-12.43,155,155,0,0,0-75.44,14.09q-5,37.3-10,74.61Z" class="colorb05d3e svgShape"/><path fill="#23293b" d="M406.21,103.9c-15.11,9.74-36.56,19.94-56.37,13.27-16.49-5.56-20.46-19-29.59-28.14-46.63-46.77-182.86,63.13-276.88,15.75C33.09,99.61,16.26,89,0,65.77c17.47.29,44.67.3,77.93-1.66,83.6-4.94,89.86-15.54,133.47-11.61C271,57.88,283.38,79.84,325,72.4c34.41-6.16,59.82-27.26,76.27-44.77Q403.73,65.78,406.21,103.9Z" class="color23293b svgShape"/><path fill="#85371c" d="M488.56,942.85l-109.43-4.42L189,1010.28q3.31,8.29,6.64,16.58l22.1-3.32,21,86.22c22.41,2.78,75.33,6.16,131.54-22.11C457.35,1043.87,484,958.52,488.56,942.85Z" class="color85371c svgShape"/><path fill="#522211" d="M454.55,968.61l-68.81-3.32-155.85,57.2q5.38,22.8,10.78,45.6l21.55-3.32-6.63-29L278,1030l6.63,26.53,26.53-5q-4.14-14.1-8.29-28.19l30.68-10.78,6.63,26.53,22.38-6.63-6.63-27.36,32.33-10,38.13,2.49Z" class="color522211 svgShape"/><path fill="#b05d3e" d="M825.69,934.56a408.26,408.26,0,0,1-18.24,82.9c-36.22,108.85-110.18,176.31-152.54,208.91H265.25A269.43,269.43,0,0,1,189,1166.68c-56-63.3-65.72-135.63-68-164.14l23.22-8.29a237.53,237.53,0,0,0,63,89.53c25.11,4.67,67,8.21,111.09-10,35.66-14.68,56.9-37,87.87-69.63a527.9,527.9,0,0,0,71.3-94.51c8.36-6.55,127.31-96.7,252-48.08C777.83,880.44,808.82,913,825.69,934.56Z" class="colorb05d3e svgShape"/><path fill="#522211" d="M803.09 1022.54a172.87 172.87 0 00-38-43.06A168.73 168.73 0 00715.15 952l.88.15a357.63 357.63 0 00-77.32 8.5 284.89 284.89 0 00-37.48 10.82 202.54 202.54 0 00-35.34 16.46A278.38 278.38 0 00533.53 1010l-31 24.21q-15.54 12.09-31.92 23.16c-10.93 7.33-22.16 14.25-33.71 20.56-11.5 6.5-23.13 12.43-34.9 18.36s-23.72 11.48-36 16.43c-24.5 9.92-50.67 16.58-77.29 18a216.94 216.94 0 01-39.74-1.75 224.85 224.85 0 01-38.78-8.7A251.7 251.7 0 01140 1084.55l.37-.55a276.44 276.44 0 0071.2 31.71 228.16 228.16 0 0076.79 8.29c25.82-1.39 51-8.29 75.15-17.68 12.1-4.68 24-10 35.74-15.71s23.52-11.52 35-17.58 22.86-12.56 34-19.34 21.94-14.16 32.52-21.86c21.24-15.25 41.31-32.32 63.89-46A252.56 252.56 0 01600 968.06a284.24 284.24 0 0137.53-12.5 296 296 0 0139-7.1 302.75 302.75 0 0139.59-1.76h.46l.42.15a157.21 157.21 0 0150.63 29.62 154.86 154.86 0 0136.07 45.74zM758.87 1108.76A124.76 124.76 0 00733 1079.53a120.21 120.21 0 00-33.41-19.4l1.21.17a655.48 655.48 0 00-65.73 11.33c-10.82 2.54-21.71 5-32.38 8s-21.4 6.2-31.86 10.1a321.09 321.09 0 00-30.56 13.5c-9.88 5.19-19.54 10.79-29.27 16.33-19.29 11.32-39.38 21.71-60.37 29.79a555.13 555.13 0 01-64.06 21 345.63 345.63 0 01-66.82 10.21 296.32 296.32 0 01-33.85 0c-5.62-.37-11.25-.86-16.86-1.38-5.58-.77-11.19-1.33-16.75-2.27a305 305 0 01-64.74-18.3l.22-.62A362.88 362.88 0 00253 1172.17l16.56 1.66c5.54.34 11.07.64 16.61.84 11.08.17 22.16 0 33.2-.75 22.14-1.22 44-5.18 65.61-10.09 21.58-5.12 42.79-12 63.81-19.39 10.47-3.76 20.85-7.75 31-12.28s20.13-9.54 30-14.76 19.57-10.85 29.57-15.9a329.89 329.89 0 0130.51-14.19c10.29-4.44 21-8.24 31.54-11.77s21.44-6.81 32.39-9.38 21.92-5.06 33-6.72 22.26-3.17 33.44-4.24l.64-.06.57.22a114.76 114.76 0 0133.82 21.49 110.82 110.82 0 0124.11 31.58zM702.59 1176.28c-11.59-7.78-23-15.83-34.24-24l2 .32c-16.88 6.41-34.13 11.75-51.4 17q-26.07 7.37-52.69 12.43l-53.06 10.42-26.56 5.1L460 1202.23c-8.93 1.27-17.84 2.74-26.81 3.78s-17.93 2.11-26.92 2.93c-18 1.81-36 3-54 3.49-9 .27-18.06.42-27.08.29-9 0-18.05-.28-27.07-.44-9-.46-18-.83-27-1.48s-18-1.57-26.94-2.4l0-.66c18 0 36-.1 54-.43s35.92-1 53.85-1.76l26.88-1.41c8.95-.67 17.92-1 26.86-1.77 9-.62 17.9-1.42 26.83-2.3 9-.69 17.87-1.82 26.81-2.69s17.87-2 26.78-3.13 17.84-2.34 26.67-4.06c8.87-1.5 17.72-3.13 26.46-5.23l13.14-3 13.06-3.48c8.73-2.27 17.32-4.7 26-7.24l25.9-7.41c17.34-4.69 34.46-10.11 51.68-15.26l1.14-.34.82.66c10.83 8.77 21.56 17.67 32.08 26.83z" opacity=".55" class="color522211 svgShape"/><path fill="#85371c" d="M516,1022.93c0,26.55-10.64,48.08-23.77,48.08s-23.76-21.53-23.76-48.08,10.64-48.08,23.76-48.08S516,996.37,516,1022.93Z" class="color85371c svgShape"/><path fill="#522211" d="M501.62,1029.56c0,13.74-6.14,24.87-13.72,24.87s-13.71-11.13-13.71-24.87,6.14-24.87,13.71-24.87S501.62,1015.83,501.62,1029.56Z" class="color522211 svgShape"/><path fill="#78cad6" d="M626.73,1224.71a374.16,374.16,0,0,0,61.34-84.55c44-83.2,45.48-162.9,43.11-203.94q24-26.54,48.08-53.06C777,876,767,846.71,737.81,831.77c-32.12-16.47-74.35-8.85-104.45,19.89l54.71,84.56a519,519,0,0,1-18.24,122.69,522.75,522.75,0,0,1-77.92,164.15Z" class="color78cad6 svgShape"/><path fill="#ebcaa0" d="M512.55 668.68a39.2 39.2 0 00-34.28-24.82c-20.61-1-38.42 15.73-40.9 33.61a36.15 36.15 0 003.43 20.22c-3.63 8.27-3.73 15.64-.12 18.72 1.76 1.5 4 1.63 7.09 1.77a36.31 36.31 0 0017-3.5 10 10 0 00-.4 5.31c1.4 6.49 10.35 11.92 15.8 9 3.58-2 4.33-6.8 4.48-8.07l3.06-.46c1.42 4.85 3.06 5.09 3.39 5.11 2.15.16 4.68-4.54 4.74-8.79a11.76 11.76 0 00-1.42-5.68 45.08 45.08 0 0014.36.77c4-.44 6.43-.73 8-2.4 3-3.29 1.62-10.64-3-18.31A38.51 38.51 0 00512.55 668.68zm-42.46 28.45c-3.21 4.44-10.08 7.64-14.9 5.07-5.56-3-5.74-12.19-2.89-18 2.6-5.3 8.88-10.16 13.66-8.64C472.13 677.51 475.3 689.89 470.09 697.13zm12.05 13.71a4.86 4.86 0 01-6.32.8c-2.92-2.51.2-11.36 2.61-11.5 1.69-.1 3.2 4 3.68 5.72S483.11 709.47 482.14 710.84zm19.7-18c-2.78 5.33-10.28 7.21-14.9 5.07-8.08-3.72-8.49-20.18-2.51-23.81 4.26-2.59 12.55.85 16.18 6.79C501.36 682.07 504.52 687.67 501.84 692.81zM523 726.69c-3.19 2.35-7.61 5.44-13 8.76-7.79 4.74-16.1 9-30.08 14.75a460.23 460.23 0 01-44.24 15.52c-4.91-2.24-9.15-1.83-10.29.12s.93 4.9 1 5c2.69 3.86 8.14 3.31 8.45 3.27a7.7 7.7 0 00-.52 6.68c.69 1.54 2.68 4.37 5.32 3.85 2.08-.41 3.79-2.74 3.58-5.53a276.25 276.25 0 0186.6-41.65c3 2.13 6.06 2.08 7.19.7.86-1 .53-2.73.1-3.69-1-2.18-3.74-3.48-7-3.18 1.84-3.84 1.15-7.61-1-9a4 4 0 00-6.16 4.34z" class="colorebcaa0 svgShape"/><path fill="#ebcaa0" d="M437.58 735.82c3.62 1.62 8.59 3.71 14.61 5.8 8.61 3 17.64 5.41 32.52 8.06a462.16 462.16 0 0046.51 5.83c4.34-3.23 8.56-3.72 10.09-2.06s.13 5 .06 5.14c-1.81 4.34-7.26 5-7.57 5a7.64 7.64 0 011.92 6.42c-.35 1.64-1.7 4.83-4.39 4.88-2.12 0-4.28-1.87-4.67-4.65a276 276 0 00-93.44-22.41c-2.47 2.72-5.48 3.32-6.88 2.21-1.06-.84-1.09-2.56-.88-3.59.5-2.34 2.92-4.19 6.14-4.58-2.6-3.37-2.72-7.19-1-9a4 4 0 016.94 2.94zM478.29 409.12a30 30 0 00-26.2-19c-15.76-.75-29.38 12-31.27 25.7a27.64 27.64 0 002.62 15.46c-2.78 6.32-2.85 12-.09 14.3 1.34 1.15 3.06 1.25 5.42 1.36a27.67 27.67 0 0013-2.68 7.69 7.69 0 00-.3 4.07c1.07 4.95 7.91 9.11 12.08 6.84 2.74-1.49 3.3-5.2 3.42-6.17l2.34-.36c1.09 3.72 2.34 3.89 2.59 3.91 1.64.12 3.58-3.47 3.63-6.72a9.12 9.12 0 00-1.09-4.34 34.4 34.4 0 0011 .59c3.1-.34 4.92-.56 6.1-1.83 2.33-2.52 1.24-8.14-2.32-14A29.39 29.39 0 00478.29 409.12zm-32.46 21.76c-2.45 3.4-7.71 5.84-11.39 3.87-4.25-2.27-4.39-9.32-2.21-13.77 2-4.05 6.79-7.76 10.45-6.6C447.39 415.88 449.82 425.34 445.83 430.88zM455 441.36a3.7 3.7 0 01-4.82.61c-2.24-1.92.14-8.69 2-8.79 1.29-.07 2.45 3.08 2.81 4.37S455.79 440.31 455 441.36zm15.06-13.78c-2.12 4.07-7.86 5.5-11.39 3.87-6.17-2.84-6.49-15.43-1.92-18.21 3.26-2 9.6.66 12.38 5.2C469.74 419.36 472.16 423.64 470.1 427.58zM486.3 453.48c-2.44 1.79-5.82 4.15-10 6.69a153.17 153.17 0 01-23 11.28 352.71 352.71 0 01-33.82 11.87c-3.75-1.72-7-1.4-7.87.09s.71 3.74.79 3.85c2.06 2.95 6.22 2.53 6.46 2.5a5.88 5.88 0 00-.39 5.11c.52 1.17 2 3.34 4.07 2.94a3.87 3.87 0 002.73-4.23 211.12 211.12 0 0166.21-31.84c2.28 1.63 4.63 1.59 5.5.54a2.91 2.91 0 00.07-2.83c-.74-1.66-2.86-2.66-5.33-2.43 1.41-2.93.88-5.81-.73-6.86a3 3 0 00-4.71 3.32z" class="colorebcaa0 svgShape"/><path fill="#ebcaa0" d="M421,460.46c2.77,1.24,6.56,2.83,11.17,4.43A152.11,152.11,0,0,0,457,471.05a351.2,351.2,0,0,0,35.56,4.46c3.31-2.47,6.55-2.85,7.71-1.58s.1,3.81.05,3.94c-1.39,3.31-5.55,3.78-5.79,3.81a5.84,5.84,0,0,1,1.47,4.91c-.27,1.25-1.3,3.69-3.36,3.73a3.88,3.88,0,0,1-3.57-3.56,211.3,211.3,0,0,0-71.44-17.13c-1.88,2.08-4.19,2.54-5.26,1.69a2.92,2.92,0,0,1-.67-2.74c.38-1.79,2.24-3.21,4.7-3.51-2-2.57-2.09-5.49-.74-6.86a3.05,3.05,0,0,1,5.31,2.25Z" class="colorebcaa0 svgShape"/><path fill="#6e7999" d="M950.3 661a3.26 3.26 0 01-1.14-.2c-52.09-18.94-104-40.17-154.43-63.1a2159.31 2159.31 0 01-419.57-252.4 3.31 3.31 0 014-5.26A2152.94 2152.94 0 00797.47 591.71c50.23 22.86 102 44 154 62.9A3.32 3.32 0 01950.3 661zM141.19 1009.23A3.21 3.21 0 01140 1009a3.31 3.31 0 01-1.88-4.3A2514.2 2514.2 0 00257.32 607.3a2513.19 2513.19 0 0040.84-260 3.32 3.32 0 116.6.69 2518.86 2518.86 0 01-40.95 260.65 2521.76 2521.76 0 01-119.53 398.44A3.33 3.33 0 01141.19 1009.23z" class="color6e7999 svgShape"/><path fill="#6e7999" d="M538,905.33a3.31,3.31,0,0,1-2.18-.82c-68.13-59.56-134.4-122.84-197-188.11A3101.68,3101.68,0,0,1,114.23,454.15a3.32,3.32,0,0,1,5.28-4A3091.73,3091.73,0,0,0,343.65,711.81c62.42,65.13,128.55,128.28,196.54,187.7a3.32,3.32,0,0,1-2.19,5.82Z" class="color6e7999 svgShape"/><path fill="#522211" d="M412.55 1102.07q4.14 13 8.29 26l-27.08 10q-3.31-12.16-6.64-24.32zM361.7 1121.42l7.74 24.87-30.95 5-3.87-21.55zM314.17 1134.68l1.11 19.35-29.85 1.1-1.65-18.24zM264.43 1138l-2.76 16.58-27.08-4.42q.56-8 1.1-16z" class="color522211 svgShape"/><path fill="#d9edff" d="M737.52,1224.77q-6.09-6.63-12.16-13.27c3.25-4.13,3.36-6.4,2.76-7.73-2.16-4.81-14.74.18-22.66-6.64-5.26-4.52-2.33-9-6.63-13.26-10.13-10.09-39,2.1-53.06,10a115.46,115.46,0,0,0-22.1,16c-4.52-10.57-14.63-29.22-34.27-37-11-4.39-27.23-6.22-29.84-1.11-1.67,3.27,3.55,6.76,2.21,10-3.29,7.8-36.68-8.16-61.35,3.87-15.58,7.6-13.64,19.52-25.42,30.39-17.44,16.1-46.3,9.87-170.22-17.68-43.46-9.66-94-23.39-108.33-3.32-4.09,5.73-6.57,16.09-16.58,19.9s-16.75-3-26.52,0c-6,1.82-13.77,7.51-19.9,25.42Z" class="colord9edff svgShape"/><path fill="#d9edff" d="M449.58 1209.29c-.72 4.9-20.39 10.75-34.27 1.11-6.93-4.81-13.49-14.23-11.05-17.69C409.14 1185.8 450.67 1201.81 449.58 1209.29zM545.74 1166.74c-2 3.08-11.52 1.15-17.68-3.32-2.71-2-7.8-6.6-6.64-9.39 1.36-3.26 11.16-3.9 17.69.55C543.82 1157.79 547.49 1164.1 545.74 1166.74zM507.05 1170.05c-.28 2.53-7.34 5.48-13.26 2.77-5.5-2.53-8.22-9.11-6.63-11.06C489.88 1158.44 507.53 1165.86 507.05 1170.05z" class="colord9edff svgShape"/><path fill="#78cad6" d="M676.72 871.61A369.93 369.93 0 00598 884.05c-66.29 18-114 50.88-142.59 74.61q-10.78-19.49-21.55-39a356.91 356.91 0 0176.26-58.85c63.91-36.71 125-45.23 160.83-47.26Q673.82 842.6 676.72 871.61zM757.14 821q-3.74 26.12-7.46 52.23a163.72 163.72 0 0177.92 71.29l15.75-44.76A147.2 147.2 0 00757.14 821zM160.53 1012.54c0 16.79-10.14 30.4-22.66 30.4s-22.66-13.61-22.66-30.4 10.15-30.39 22.66-30.39S160.53 995.75 160.53 1012.54zM452.35 969.59a189.79 189.79 0 01-18.51 32.82c-3.56 5.21-7.53 10.13-11.59 15s-8.31 9.52-12.79 14a178.17 178.17 0 01-14.17 12.59c-5 3.89-10.14 7.52-15.39 11s-10.67 6.69-16.18 9.7c-5.39 3.24-11.11 5.89-16.56 8.89-5.62 2.75-11.28 5.57-17.08 8s-11.57 4.93-17.53 7c-5.88 2.28-12 4-18 5.69-6.13 1.51-12.28 3-18.52 4-24.91 4.2-50.6 4.81-75.59.47l-1.32-.22-.7-.92c-7.19-9.35-14.54-18.56-21.59-28s-14.14-18.88-20.94-28.54l.52-.42c8.12 8.57 16 17.35 23.82 26.18s15.45 17.81 23.18 26.7l-2-1.15c6.11.76 12.23 1.39 18.38 1.74s12.3.63 18.46.57 12.32-.08 18.47-.53 12.29-1 18.4-1.85 12.21-1.84 18.28-3c6-1.42 12.13-2.47 18.06-4.3 6-1.57 11.87-3.57 17.72-5.68s11.41-4.83 17.08-7.41c5.5-3 11.08-5.73 16.22-9.24 5.29-3.26 10.21-7.09 15.16-10.79s9.61-7.81 14.18-12 9.13-8.3 13.51-12.65 8.78-8.68 12.9-13.28 8-9.42 12-14.16a361.32 361.32 0 0021.61-30.38z" class="color78cad6 svgShape"/><path fill="#78cad6" d="M708.07,1036.91l-68.67-16-.61-1.69A383.88,383.88,0,0,0,556.6,885.49l4.82-4.55a390.51,390.51,0,0,1,83,134.31l64,14.93,45.37-6.34a574.9,574.9,0,0,0,43.14-85.49c5.23-13,10-26.26,14.29-39.56l6.32,2c-4.31,13.45-9.17,26.92-14.46,40a581.53,581.53,0,0,1-44.46,87.81l-.82,1.33Z" class="color78cad6 svgShape"/><path fill="#60a1ab" d="M643 827.4l3.87 35.92a108.29 108.29 0 00-38.69 8.29q-4.14-18-8.29-35.92A85.27 85.27 0 01643 827.4zM585.53 841.77q5 15.75 10 31.5a87.12 87.12 0 00-35.37 11.61l-16-27.64a64.76 64.76 0 0141.45-15.47zM801.07 853.37q-7.46 14.52-14.92 29l-25.7-9.12q2.91-18.24 5.81-36.48a83.34 83.34 0 0134.81 16.58z" class="color60a1ab svgShape"/><path fill="#b05d3e" d="M731.18,888.14,961.64,649.39c17.94,3.18,33.84-9.5,35.08-24.82,1.21-15-11.83-28.88-24-29-13.41-.14-28.56,16.3-26,38.91l-247,202.28c-1.2,2.08-8,14.39-3.32,28.19C701,878.55,715,888.05,731.18,888.14Z" class="colorb05d3e svgShape"/><path fill="#7d422c" d="M991.74 624.15c2-1.27 0-8.15-2.07-12.43-4.3-8.8-13.4-15.37-15.75-13.68-2 1.46.94 9 3.32 13.27C981.53 619 989.36 625.68 991.74 624.15zM722.32 916.38a3.32 3.32 0 01-3.32-3.31V884.34L927.22 674.46a3.31 3.31 0 114.7 4.67L725.64 887.07v26A3.32 3.32 0 01722.32 916.38z" class="color7d422c svgShape"/><path fill="#6e7999" d="M960.79,653.31c-.94-1.61-2.69-2.16-7.73-7.19-6.08-6-6.82-8.74-8.85-10-4.06-2.41-13.75.87-38.68,26.53a30.58,30.58,0,0,0,7,22,30.24,30.24,0,0,0,17.83,10C959.24,667.8,963.26,657.51,960.79,653.31Z" class="color6e7999 svgShape"/><path fill="#444d69" d="M616.48 608c1 2.28-11.37 14.08-26.53 14.37-24.81.47-43.86-30.17-43.1-31 .54-.56 10.35 15.09 29.84 19.9C597.74 616.49 615.38 605.41 616.48 608zM503.74 617.94c.59 3.11-22.81 14.33-49.74 14.37-45.09.05-80-31.27-78.48-34.27 1.16-2.31 23.56 13.26 64.11 18.79C477.23 622 503.13 614.72 503.74 617.94zM513.69 347.13c1.49 4.11 6.77 17 19.89 23.21 18.15 8.62 40-.84 39.79-4.42-.12-2.62-12-1.9-34.26-8.84A193.47 193.47 0 01513.69 347.13z" class="color444d69 svgShape"/><path fill="#85462f" d="M473.2 271.83q-9.46-1-19.48-1.66-7.61-.53-14.92-.83v-56A33.22 33.22 0 01463.25 220Q468.23 245.93 473.2 271.83zM411.86 210.48l8.7 57.62q-10.11 1.41-20.31 2.9-9.79 1.42-19.48 2.9 1.65-30.25 3.31-60.52a40.36 40.36 0 0127.78-2.9zM415 284.4c1.71-.15 3.7 5.44 5.53 12.44 7.35-1.1 17.67-2.9 29.85-5.94C465.3 287.17 474.18 285 474 283c-.29-3.74-32.94-5-61.76-3.32-31.8 1.9-70.7 8.16-70.46 12.85.12 2.44 10.82 5.37 60.93 7.05 2.72 19.63 4.55 26.18 5.8 26.11C411.65 325.54 410.5 284.79 415 284.4z" class="color85462f svgShape"/></g></g></svg>